<svg xmlns="http://www.w3.org/2000/svg" viewBox="0 0 481.39 365.24"><defs><style>.cls-1{isolation:isolate;}.cls-2{fill:#c9cacf;}.cls-3{fill:#ef9426;}.cls-4{fill:#efefef;}.cls-5{fill:#fff;}.cls-6{fill:#191c2d;}.cls-7{fill:#272a44;}.cls-8{fill:#e4e6e9;}.cls-9{fill:#d8ebf8;}.cls-10{fill:#414556;}.cls-11{fill:#c1c4d3;}.cls-12{fill:#dadcea;}.cls-13{fill:#e68d1a;}.cls-14{fill:#d12020;}.cls-15,.cls-20{fill:#d7cdcd;}.cls-15{mix-blend-mode:multiply;}.cls-16{fill:#e8e6e6;}.cls-17{fill:#e73a3a;}.cls-18{fill:#eed467;}.cls-19{fill:#63cd63;}.cls-21,.cls-22{fill:none;stroke:#fff;}.cls-21{stroke-miterlimit:10;}.cls-22{stroke-linecap:round;stroke-linejoin:round;}</style></defs><title>web-construction</title><g class="cls-1"><g id="OBJECTS"><g id="_Group_" data-name="&lt;Group&gt;"><path id="_Path_" data-name="&lt;Path&gt;" class="cls-2" d="M424.27,267.84h-4.6a2.42,2.42,0,0,1,4.6,0Z"/><g id="_Group_2" data-name="&lt;Group&gt;"><g id="_Group_3" data-name="&lt;Group&gt;"><polygon id="_Path_2" data-name="&lt;Path&gt;" class="cls-3" points="338.04 270.75 342.44 270.75 338.04 265.29 338.04 270.75"/><polygon id="_Path_3" data-name="&lt;Path&gt;" class="cls-4" points="338.04 264.51 338.04 265.29 342.44 270.75 347.78 270.75 342.74 264.51 338.04 264.51"/><polygon id="_Path_4" data-name="&lt;Path&gt;" class="cls-3" points="342.74 264.51 347.78 270.75 353.11 270.75 348.07 264.51 342.74 264.51"/><polygon id="_Path_5" data-name="&lt;Path&gt;" class="cls-4" points="348.07 264.51 353.11 270.75 358.44 270.75 353.41 264.51 348.07 264.51"/><polygon id="_Path_6" data-name="&lt;Path&gt;" class="cls-3" points="353.41 264.51 358.44 270.75 363.77 270.75 358.74 264.51 353.41 264.51"/><polygon id="_Path_7" data-name="&lt;Path&gt;" class="cls-4" points="358.74 264.51 363.77 270.75 369.1 270.75 364.07 264.51 358.74 264.51"/><polygon id="_Path_8" data-name="&lt;Path&gt;" class="cls-3" points="364.07 264.51 369.1 270.75 374.44 270.75 369.4 264.51 364.07 264.51"/><polygon id="_Path_9" data-name="&lt;Path&gt;" class="cls-4" points="369.4 264.51 374.44 270.75 379.77 270.75 374.74 264.51 369.4 264.51"/><polygon id="_Path_10" data-name="&lt;Path&gt;" class="cls-3" points="374.74 264.51 379.77 270.75 385.1 270.75 380.07 264.51 374.74 264.51"/><polygon id="_Path_11" data-name="&lt;Path&gt;" class="cls-4" points="380.07 264.51 385.1 270.75 390.43 270.75 385.4 264.51 380.07 264.51"/><polygon id="_Path_12" data-name="&lt;Path&gt;" class="cls-3" points="385.4 264.51 390.43 270.75 395.76 270.75 390.73 264.51 385.4 264.51"/><polygon id="_Path_13" data-name="&lt;Path&gt;" class="cls-4" points="390.73 264.51 395.76 270.75 401.1 270.75 396.06 264.51 390.73 264.51"/><polygon id="_Path_14" data-name="&lt;Path&gt;" class="cls-3" points="396.06 264.51 401.1 270.75 406.43 270.75 401.4 264.51 396.06 264.51"/><polygon id="_Path_15" data-name="&lt;Path&gt;" class="cls-4" points="401.4 264.51 406.43 270.75 411.76 270.75 406.73 264.51 401.4 264.51"/><polygon id="_Path_16" data-name="&lt;Path&gt;" class="cls-3" points="406.73 264.51 411.76 270.75 417.09 270.75 412.06 264.51 406.73 264.51"/><polygon id="_Path_17" data-name="&lt;Path&gt;" class="cls-4" points="412.06 264.51 417.09 270.75 422.43 270.75 417.39 264.51 412.06 264.51"/><polygon id="_Path_18" data-name="&lt;Path&gt;" class="cls-3" points="417.39 264.51 422.43 270.75 423.57 270.75 423.57 265.56 422.72 264.51 417.39 264.51"/><polygon id="_Path_19" data-name="&lt;Path&gt;" class="cls-5" points="423.57 265.56 423.57 264.51 422.72 264.51 423.57 265.56"/></g><g id="_Group_4" data-name="&lt;Group&gt;"><g id="_Group_5" data-name="&lt;Group&gt;"><rect id="_Path_20" data-name="&lt;Path&gt;" class="cls-6" x="336.72" y="263.93" width="2.51" height="33.4"/></g><g id="_Group_6" data-name="&lt;Group&gt;"><rect id="_Path_21" data-name="&lt;Path&gt;" class="cls-7" x="336.72" y="263.93" width="1.28" height="33.4"/></g><path id="_Path_22" data-name="&lt;Path&gt;" class="cls-7" d="M341.22,297.58h-6.65a.94.94,0,0,1,.94-.94h4.77a.94.94,0,0,1,.94.94Z"/></g><g id="_Group_7" data-name="&lt;Group&gt;"><g id="_Group_8" data-name="&lt;Group&gt;"><rect id="_Path_23" data-name="&lt;Path&gt;" class="cls-6" x="422.32" y="263.93" width="2.51" height="33.4"/></g><g id="_Group_9" data-name="&lt;Group&gt;"><rect id="_Path_24" data-name="&lt;Path&gt;" class="cls-7" x="422.32" y="263.93" width="1.28" height="33.4"/></g><path id="_Path_25" data-name="&lt;Path&gt;" class="cls-7" d="M426.82,297.58h-6.65a.94.94,0,0,1,.94-.94h4.77a.94.94,0,0,1,.94.94Z"/></g></g></g><g id="_Group_10" data-name="&lt;Group&gt;"><path id="_Path_26" data-name="&lt;Path&gt;" class="cls-2" d="M152.27,267.84h-4.6a2.42,2.42,0,0,1,4.6,0Z"/><g id="_Group_11" data-name="&lt;Group&gt;"><g id="_Group_12" data-name="&lt;Group&gt;"><polygon id="_Path_27" data-name="&lt;Path&gt;" class="cls-3" points="66.05 270.75 70.45 270.75 66.05 265.29 66.05 270.75"/><polygon id="_Path_28" data-name="&lt;Path&gt;" class="cls-4" points="66.05 264.51 66.05 265.29 70.45 270.75 75.78 270.75 70.75 264.51 66.05 264.51"/><polygon id="_Path_29" data-name="&lt;Path&gt;" class="cls-3" points="70.75 264.51 75.78 270.75 81.11 270.75 76.08 264.51 70.75 264.51"/><polygon id="_Path_30" data-name="&lt;Path&gt;" class="cls-4" points="76.08 264.51 81.11 270.75 86.45 270.75 81.41 264.51 76.08 264.51"/><polygon id="_Path_31" data-name="&lt;Path&gt;" class="cls-3" points="81.41 264.51 86.45 270.75 91.78 270.75 86.75 264.51 81.41 264.51"/><polygon id="_Path_32" data-name="&lt;Path&gt;" class="cls-4" points="86.75 264.51 91.78 270.75 97.11 270.75 92.08 264.51 86.75 264.51"/><polygon id="_Path_33" data-name="&lt;Path&gt;" class="cls-3" points="92.08 264.51 97.11 270.75 102.44 270.75 97.41 264.51 92.08 264.51"/><polygon id="_Path_34" data-name="&lt;Path&gt;" class="cls-4" points="97.41 264.51 102.44 270.75 107.78 270.75 102.74 264.51 97.41 264.51"/><polygon id="_Path_35" data-name="&lt;Path&gt;" class="cls-3" points="102.74 264.51 107.78 270.75 113.11 270.75 108.07 264.51 102.74 264.51"/><polygon id="_Path_36" data-name="&lt;Path&gt;" class="cls-4" points="108.07 264.51 113.11 270.75 118.44 270.75 113.41 264.51 108.07 264.51"/><polygon id="_Path_37" data-name="&lt;Path&gt;" class="cls-3" points="113.41 264.51 118.44 270.75 123.77 270.75 118.74 264.51 113.41 264.51"/><polygon id="_Path_38" data-name="&lt;Path&gt;" class="cls-4" points="118.74 264.51 123.77 270.75 129.1 270.75 124.07 264.51 118.74 264.51"/><polygon id="_Path_39" data-name="&lt;Path&gt;" class="cls-3" points="124.07 264.51 129.1 270.75 134.44 270.75 129.4 264.51 124.07 264.51"/><polygon id="_Path_40" data-name="&lt;Path&gt;" class="cls-4" points="129.4 264.51 134.44 270.75 139.77 270.75 134.74 264.51 129.4 264.51"/><polygon id="_Path_41" data-name="&lt;Path&gt;" class="cls-3" points="134.74 264.51 139.77 270.75 145.1 270.75 140.07 264.51 134.74 264.51"/><polygon id="_Path_42" data-name="&lt;Path&gt;" class="cls-4" points="140.07 264.51 145.1 270.75 150.43 270.75 145.4 264.51 140.07 264.51"/><polygon id="_Path_43" data-name="&lt;Path&gt;" class="cls-3" points="145.4 264.51 150.43 270.75 151.58 270.75 151.58 265.56 150.73 264.51 145.4 264.51"/><polygon id="_Path_44" data-name="&lt;Path&gt;" class="cls-5" points="151.58 265.56 151.58 264.51 150.73 264.51 151.58 265.56"/></g><g id="_Group_13" data-name="&lt;Group&gt;"><g id="_Group_14" data-name="&lt;Group&gt;"><rect id="_Path_45" data-name="&lt;Path&gt;" class="cls-6" x="64.73" y="263.93" width="2.51" height="33.4"/></g><g id="_Group_15" data-name="&lt;Group&gt;"><rect id="_Path_46" data-name="&lt;Path&gt;" class="cls-7" x="64.73" y="263.93" width="1.28" height="33.4"/></g><path id="_Path_47" data-name="&lt;Path&gt;" class="cls-7" d="M69.22,297.58H62.58a.94.94,0,0,1,.94-.94h4.77a.94.94,0,0,1,.93.94Z"/></g><g id="_Group_16" data-name="&lt;Group&gt;"><g id="_Group_17" data-name="&lt;Group&gt;"><rect id="_Path_48" data-name="&lt;Path&gt;" class="cls-6" x="150.33" y="263.93" width="2.51" height="33.4"/></g><g id="_Group_18" data-name="&lt;Group&gt;"><rect id="_Path_49" data-name="&lt;Path&gt;" class="cls-7" x="150.33" y="263.93" width="1.28" height="33.4"/></g><path id="_Path_50" data-name="&lt;Path&gt;" class="cls-7" d="M154.82,297.58h-6.64a.94.94,0,0,1,.94-.94h4.77a.94.94,0,0,1,.93.94Z"/></g></g></g><g id="_Group_19" data-name="&lt;Group&gt;"><g id="_Group_20" data-name="&lt;Group&gt;"><path id="_Path_51" data-name="&lt;Path&gt;" class="cls-8" d="M414.16,241.54H66.64a1.92,1.92,0,0,1-1.91-1.91h0a1.92,1.92,0,0,1,1.91-1.91H414.16a1.92,1.92,0,0,1,1.91,1.91h0A1.92,1.92,0,0,1,414.16,241.54Z"/><g id="_Group_21" data-name="&lt;Group&gt;"><g id="_Group_22" data-name="&lt;Group&gt;"><g id="_Group_23" data-name="&lt;Group&gt;"><rect id="_Rectangle_" data-name="&lt;Rectangle&gt;" class="cls-8" x="142.09" y="-53.25" width="6.41" height="253.3"/><rect id="_Rectangle_2" data-name="&lt;Rectangle&gt;" class="cls-8" x="175.23" y="-53.25" width="6.41" height="253.3"/></g><g id="_Group_24" data-name="&lt;Group&gt;"><g id="_Group_25" data-name="&lt;Group&gt;"><rect id="_Rectangle_3" data-name="&lt;Rectangle&gt;" class="cls-8" x="160.38" y="-23.64" width="2.98" height="45.57" transform="translate(48.02 114.21) rotate(-45)"/><rect id="_Rectangle_4" data-name="&lt;Rectangle&gt;" class="cls-8" x="160.38" y="-23.64" width="2.98" height="45.57" transform="translate(276.93 113) rotate(-135)"/></g><g id="_Group_26" data-name="&lt;Group&gt;"><rect id="_Rectangle_5" data-name="&lt;Rectangle&gt;" class="cls-8" x="160.38" y="6.66" width="2.98" height="45.57" transform="translate(26.59 123.08) rotate(-45)"/><rect id="_Rectangle_6" data-name="&lt;Rectangle&gt;" class="cls-8" x="160.38" y="6.66" width="2.98" height="45.57" transform="translate(255.5 164.72) rotate(-135)"/></g><g id="_Group_27" data-name="&lt;Group&gt;"><rect id="_Rectangle_7" data-name="&lt;Rectangle&gt;" class="cls-8" x="160.38" y="36.96" width="2.98" height="45.57" transform="translate(5.17 131.96) rotate(-45)"/><rect id="_Rectangle_8" data-name="&lt;Rectangle&gt;" class="cls-8" x="160.38" y="36.96" width="2.98" height="45.57" transform="translate(234.08 216.45) rotate(-135)"/></g><g id="_Group_28" data-name="&lt;Group&gt;"><rect id="_Rectangle_9" data-name="&lt;Rectangle&gt;" class="cls-8" x="160.38" y="67.26" width="2.98" height="45.57" transform="translate(-16.26 140.83) rotate(-45)"/><rect id="_Rectangle_10" data-name="&lt;Rectangle&gt;" class="cls-8" x="160.38" y="67.26" width="2.98" height="45.57" transform="translate(212.65 268.17) rotate(-135)"/></g><g id="_Group_29" data-name="&lt;Group&gt;"><rect id="_Rectangle_11" data-name="&lt;Rectangle&gt;" class="cls-8" x="160.38" y="97.55" width="2.98" height="45.57" transform="translate(-37.69 149.7) rotate(-45)"/><rect id="_Rectangle_12" data-name="&lt;Rectangle&gt;" class="cls-8" x="160.38" y="97.55" width="2.98" height="45.57" transform="translate(191.23 319.89) rotate(-135)"/></g><g id="_Group_30" data-name="&lt;Group&gt;"><rect id="_Rectangle_13" data-name="&lt;Rectangle&gt;" class="cls-8" x="160.38" y="127.85" width="2.98" height="45.57" transform="translate(-59.11 158.58) rotate(-45)"/><rect id="_Rectangle_14" data-name="&lt;Rectangle&gt;" class="cls-8" x="160.38" y="127.85" width="2.98" height="45.57" transform="translate(169.81 371.62) rotate(-135)"/></g><g id="_Group_31" data-name="&lt;Group&gt;"><rect id="_Rectangle_15" data-name="&lt;Rectangle&gt;" class="cls-8" x="160.38" y="158.15" width="2.98" height="45.57" transform="translate(-80.53 167.45) rotate(-45)"/><rect id="_Rectangle_16" data-name="&lt;Rectangle&gt;" class="cls-8" x="160.38" y="158.15" width="2.98" height="45.57" transform="translate(148.38 423.34) rotate(-135)"/></g></g></g><g id="_Group_32" data-name="&lt;Group&gt;"><g id="_Group_33" data-name="&lt;Group&gt;"><rect id="_Rectangle_17" data-name="&lt;Rectangle&gt;" class="cls-8" x="178.34" y="-53.25" width="3.56" height="253.3"/><rect id="_Rectangle_18" data-name="&lt;Rectangle&gt;" class="cls-8" x="196.73" y="-53.25" width="3.56" height="253.3"/></g><g id="_Group_34" data-name="&lt;Group&gt;"><g id="_Group_35" data-name="&lt;Group&gt;"><polygon id="_Path_52" data-name="&lt;Path&gt;" class="cls-8" points="198.84 14.21 197.67 16.31 179.79 -15.91 180.96 -18.02 198.84 14.21"/><polygon id="_Path_53" data-name="&lt;Path&gt;" class="cls-8" points="179.79 14.21 180.96 16.31 198.84 -15.91 197.67 -18.02 179.79 14.21"/></g><g id="_Group_36" data-name="&lt;Group&gt;"><polygon id="_Path_54" data-name="&lt;Path&gt;" class="cls-8" points="198.84 44.51 197.67 46.61 179.79 14.38 180.96 12.28 198.84 44.51"/><polygon id="_Path_55" data-name="&lt;Path&gt;" class="cls-8" points="179.79 44.51 180.96 46.61 198.84 14.38 197.67 12.28 179.79 44.51"/></g><g id="_Group_37" data-name="&lt;Group&gt;"><polygon id="_Path_56" data-name="&lt;Path&gt;" class="cls-8" points="198.84 74.8 197.67 76.91 179.79 44.68 180.96 42.58 198.84 74.8"/><polygon id="_Path_57" data-name="&lt;Path&gt;" class="cls-8" points="179.79 74.8 180.96 76.91 198.84 44.68 197.67 42.58 179.79 74.8"/></g><g id="_Group_38" data-name="&lt;Group&gt;"><polygon id="_Path_58" data-name="&lt;Path&gt;" class="cls-8" points="198.84 105.1 197.67 107.21 179.79 74.98 180.96 72.88 198.84 105.1"/><polygon id="_Path_59" data-name="&lt;Path&gt;" class="cls-8" points="179.79 105.1 180.96 107.21 198.84 74.98 197.67 72.88 179.79 105.1"/></g><g id="_Group_39" data-name="&lt;Group&gt;"><polygon id="_Path_60" data-name="&lt;Path&gt;" class="cls-8" points="198.84 135.4 197.67 137.51 179.79 105.28 180.96 103.18 198.84 135.4"/><polygon id="_Path_61" data-name="&lt;Path&gt;" class="cls-8" points="179.79 135.4 180.96 137.51 198.84 105.28 197.67 103.18 179.79 135.4"/></g><g id="_Group_40" data-name="&lt;Group&gt;"><polygon id="_Path_62" data-name="&lt;Path&gt;" class="cls-8" points="198.84 165.7 197.67 167.81 179.79 135.58 180.96 133.47 198.84 165.7"/><polygon id="_Path_63" data-name="&lt;Path&gt;" class="cls-8" points="179.79 165.7 180.96 167.81 198.84 135.58 197.67 133.47 179.79 165.7"/></g><g id="_Group_41" data-name="&lt;Group&gt;"><polygon id="_Path_64" data-name="&lt;Path&gt;" class="cls-8" points="198.84 196 197.67 198.11 179.79 165.88 180.96 163.77 198.84 196"/><polygon id="_Path_65" data-name="&lt;Path&gt;" class="cls-8" points="179.79 196 180.96 198.11 198.84 165.88 197.67 163.77 179.79 196"/></g></g></g><rect id="_Rectangle_19" data-name="&lt;Rectangle&gt;" class="cls-8" x="135.8" y="192.98" width="67.33" height="48.17"/><rect id="_Rectangle_20" data-name="&lt;Rectangle&gt;" class="cls-8" x="178.27" y="192.98" width="24.87" height="48.17"/></g><g id="_Group_42" data-name="&lt;Group&gt;"><g id="_Group_43" data-name="&lt;Group&gt;"><circle id="_Path_66" data-name="&lt;Path&gt;" class="cls-2" cx="338.35" cy="207.47" r="12.08" transform="translate(-24.28 46.15) rotate(-7.53)"/><circle id="_Path_67" data-name="&lt;Path&gt;" class="cls-2" cx="344.56" cy="192.45" r="12.08" transform="translate(-47.52 237.53) rotate(-35.74)"/><circle id="_Path_68" data-name="&lt;Path&gt;" class="cls-2" cx="348.81" cy="180.11" r="12.08" transform="translate(-18.76 42.26) rotate(-6.75)"/><path id="_Path_69" data-name="&lt;Path&gt;" class="cls-2" d="M368.17,186a12.08,12.08,0,1,1-14.42-9.17A12.08,12.08,0,0,1,368.17,186Z"/><path id="_Path_70" data-name="&lt;Path&gt;" class="cls-2" d="M368,204.39a12.08,12.08,0,1,1-14.42-9.17A12.07,12.07,0,0,1,368,204.39Z"/></g><g id="_Group_44" data-name="&lt;Group&gt;"><path id="_Path_71" data-name="&lt;Path&gt;" class="cls-2" d="M348.91,237.35h0a.85.85,0,0,1-.86-.85V192.55a.85.85,0,0,1,.86-.86h0a.85.85,0,0,1,.85.86V236.5A.85.85,0,0,1,348.91,237.35Z"/><path id="_Path_72" data-name="&lt;Path&gt;" class="cls-2" d="M348.56,214.11h0a.85.85,0,0,1,0-1.21l4.69-4.69a.86.86,0,0,1,1.21,0h0a.86.86,0,0,1,0,1.21l-4.69,4.69A.85.85,0,0,1,348.56,214.11Z"/><path id="_Path_73" data-name="&lt;Path&gt;" class="cls-2" d="M349.42,200h0a.86.86,0,0,0,0-1.21l-4.7-4.69a.86.86,0,0,0-1.21,0h0a.86.86,0,0,0,0,1.21l4.7,4.69A.85.85,0,0,0,349.42,200Z"/></g></g><g id="_Group_45" data-name="&lt;Group&gt;"><g id="_Group_46" data-name="&lt;Group&gt;"><path id="_Path_74" data-name="&lt;Path&gt;" class="cls-2" d="M97.1,202.75a14.73,14.73,0,1,1-17.58-11.18A14.73,14.73,0,0,1,97.1,202.75Z"/><path id="_Path_75" data-name="&lt;Path&gt;" class="cls-2" d="M104.66,184.43a14.73,14.73,0,1,1-17.58-11.18A14.73,14.73,0,0,1,104.66,184.43Z"/><path id="_Path_76" data-name="&lt;Path&gt;" class="cls-2" d="M113.8,169.85a14.73,14.73,0,1,1-17.58-11.17A14.73,14.73,0,0,1,113.8,169.85Z"/><path id="_Path_77" data-name="&lt;Path&gt;" class="cls-2" d="M121.86,182.81a14.73,14.73,0,1,1-17.58-11.18A14.73,14.73,0,0,1,121.86,182.81Z"/><circle id="_Path_78" data-name="&lt;Path&gt;" class="cls-2" cx="100.17" cy="210.14" r="14.73" transform="translate(-131.27 235.3) rotate(-70.72)"/><path id="_Path_79" data-name="&lt;Path&gt;" class="cls-2" d="M129.28,202.42a14.73,14.73,0,1,1-17.58-11.18A14.74,14.74,0,0,1,129.28,202.42Z"/></g><g id="_Group_47" data-name="&lt;Group&gt;"><path id="_Path_80" data-name="&lt;Path&gt;" class="cls-2" d="M99.07,239.6h0a1,1,0,0,1-1-1V185a1,1,0,0,1,1-1h0a1,1,0,0,1,1,1v53.59A1,1,0,0,1,99.07,239.6Z"/><path id="_Path_81" data-name="&lt;Path&gt;" class="cls-2" d="M98.64,211.27h0a1,1,0,0,1,0-1.48l5.72-5.72a1,1,0,0,1,1.48,0h0a1,1,0,0,1,0,1.47l-5.72,5.73A1.06,1.06,0,0,1,98.64,211.27Z"/><path id="_Path_82" data-name="&lt;Path&gt;" class="cls-2" d="M99.69,194.1h0a1,1,0,0,0,0-1.48L94,186.9a1,1,0,0,0-1.48,0h0a1.06,1.06,0,0,0,0,1.48l5.73,5.72A1,1,0,0,0,99.69,194.1Z"/></g></g></g></g><path id="_Path_83" data-name="&lt;Path&gt;" class="cls-9" d="M335.85,97.69H281.27a7.67,7.67,0,0,1,7.6-6.9,7.67,7.67,0,0,1,14-3.42,7.66,7.66,0,0,1,9.77.1,7.66,7.66,0,0,1,13.27,3,7.53,7.53,0,0,1,2.3-.35A7.65,7.65,0,0,1,335.85,97.69Z"/><path id="_Path_84" data-name="&lt;Path&gt;" class="cls-9" d="M409.31,144h-48.1a7.67,7.67,0,0,1,7.57-6.52,7.5,7.5,0,0,1,1.72.21,7.64,7.64,0,0,1,12.4-3.48,7.62,7.62,0,0,1,9.2,2.2,7.66,7.66,0,0,1,14.38,4.92A7.88,7.88,0,0,1,409.31,144Z"/><path id="_Path_85" data-name="&lt;Path&gt;" class="cls-9" d="M126.74,109.08H91.62A7.67,7.67,0,0,1,96.47,103a7.67,7.67,0,0,1,12.93-1.81,7.65,7.65,0,0,1,12.87,3.08A7.72,7.72,0,0,1,126.74,109.08Z"/><path id="_Path_86" data-name="&lt;Path&gt;" class="cls-2" d="M121.69,257.07h-9.57c.19-1.94,2.26-3.46,4.79-3.46S121.51,255.13,121.69,257.07Z"/><g id="_Group_48" data-name="&lt;Group&gt;"><path id="_Path_87" data-name="&lt;Path&gt;" class="cls-2" d="M386.18,355.67h-17c.34-3.43,4-6.14,8.5-6.14S385.85,352.24,386.18,355.67Z"/><path id="_Path_88" data-name="&lt;Path&gt;" class="cls-2" d="M401.29,355.67h-24.6c.49-5,5.81-8.89,12.31-8.89S400.81,350.7,401.29,355.67Z"/></g><path id="_Path_89" data-name="&lt;Path&gt;" class="cls-2" d="M109.3,287.42h-6.22a3.27,3.27,0,0,1,6.22,0Z"/><g id="_Group_49" data-name="&lt;Group&gt;"><path id="_Path_90" data-name="&lt;Path&gt;" class="cls-2" d="M157.12,289.88h0a.3.3,0,0,0,.41-.1l1.89-3.2a.32.32,0,0,0-.1-.42h0a.3.3,0,0,0-.41.11l-1.9,3.2A.3.3,0,0,0,157.12,289.88Z"/><path id="_Path_91" data-name="&lt;Path&gt;" class="cls-2" d="M157.31,289.88h0a.3.3,0,0,0,.22-.36l-.93-3.61a.3.3,0,0,0-.36-.21h0a.3.3,0,0,0-.22.36l.93,3.61A.29.29,0,0,0,157.31,289.88Z"/><path id="_Path_92" data-name="&lt;Path&gt;" class="cls-2" d="M157.11,289.82h0a.21.21,0,0,0,.3.06l2.24-1.58a.22.22,0,0,0,.06-.31h0a.22.22,0,0,0-.31-.05l-2.24,1.57A.22.22,0,0,0,157.11,289.82Z"/></g><g id="_Group_50" data-name="&lt;Group&gt;"><path id="_Path_93" data-name="&lt;Path&gt;" class="cls-2" d="M381.57,293.13h0a.29.29,0,0,0,.41-.1l1.9-3.21a.31.31,0,0,0-.11-.41h0a.31.31,0,0,0-.41.11l-1.89,3.2A.29.29,0,0,0,381.57,293.13Z"/><path id="_Path_94" data-name="&lt;Path&gt;" class="cls-2" d="M381.77,293.13h0a.28.28,0,0,0,.21-.36l-.92-3.61a.29.29,0,0,0-.36-.21h0a.3.3,0,0,0-.22.36l.92,3.61A.31.31,0,0,0,381.77,293.13Z"/><path id="_Path_95" data-name="&lt;Path&gt;" class="cls-2" d="M381.56,293.07h0a.22.22,0,0,0,.31.05l2.24-1.57a.22.22,0,0,0,.05-.31h0a.21.21,0,0,0-.3-.05l-2.25,1.57A.23.23,0,0,0,381.56,293.07Z"/></g><g id="_Group_51" data-name="&lt;Group&gt;"><path id="_Path_96" data-name="&lt;Path&gt;" class="cls-2" d="M105.12,328.24h0a.81.81,0,0,0,.9-.74l1-10.18a.83.83,0,0,0-.74-.9h0a.83.83,0,0,0-.9.74l-1,10.18A.83.83,0,0,0,105.12,328.24Z"/><path id="_Path_97" data-name="&lt;Path&gt;" class="cls-2" d="M105.62,328h0a.82.82,0,0,0,.11-1.16l-6.49-7.92a.82.82,0,0,0-1.16-.11h0A.82.82,0,0,0,98,320l6.49,7.91A.83.83,0,0,0,105.62,328Z"/><path id="_Path_98" data-name="&lt;Path&gt;" class="cls-2" d="M105,328.1h0a.59.59,0,0,0,.82-.22l3.76-6.53a.61.61,0,0,0-.22-.83h0a.62.62,0,0,0-.83.23l-3.76,6.53A.61.61,0,0,0,105,328.1Z"/></g><g id="_Group_52" data-name="&lt;Group&gt;"><path id="_Path_99" data-name="&lt;Path&gt;" class="cls-2" d="M385.26,324.28h0a.64.64,0,0,0,.45-.78l-2.06-7.59a.63.63,0,0,0-.78-.44h0a.62.62,0,0,0-.44.77l2.05,7.59A.64.64,0,0,0,385.26,324.28Z"/><path id="_Path_100" data-name="&lt;Path&gt;" class="cls-2" d="M385.55,324h0a.62.62,0,0,0-.23-.86l-6.82-3.92a.65.65,0,0,0-.87.24h0a.63.63,0,0,0,.24.86l6.82,3.92A.64.64,0,0,0,385.55,324Z"/><path id="_Path_101" data-name="&lt;Path&gt;" class="cls-2" d="M385.15,324.21h0a.47.47,0,0,0,.54-.39l.92-5.72a.47.47,0,0,0-.39-.53h0a.48.48,0,0,0-.54.38l-.91,5.72A.46.46,0,0,0,385.15,324.21Z"/></g><g id="_Group_53" data-name="&lt;Group&gt;"><path id="_Path_102" data-name="&lt;Path&gt;" class="cls-2" d="M182.81,296.54h0a.56.56,0,0,0,.77-.19l3.55-6a.56.56,0,0,0-.2-.77h0a.56.56,0,0,0-.77.2l-3.55,6A.56.56,0,0,0,182.81,296.54Z"/><path id="_Path_103" data-name="&lt;Path&gt;" class="cls-2" d="M183.18,296.55h0a.57.57,0,0,0,.4-.69l-1.73-6.76a.55.55,0,0,0-.68-.4h0a.57.57,0,0,0-.41.68l1.74,6.76A.56.56,0,0,0,183.18,296.55Z"/><path id="_Path_104" data-name="&lt;Path&gt;" class="cls-2" d="M182.79,296.43h0a.42.42,0,0,0,.58.1l4.2-2.95a.42.42,0,0,0,.1-.58h0a.42.42,0,0,0-.58-.1l-4.2,3A.42.42,0,0,0,182.79,296.43Z"/></g><g id="_Group_54" data-name="&lt;Group&gt;"><path id="_Path_105" data-name="&lt;Path&gt;" class="cls-2" d="M456.79,293.67h0a.58.58,0,0,0,.52-.61l-.52-6.95a.55.55,0,0,0-.6-.52h0a.56.56,0,0,0-.52.6l.52,7A.57.57,0,0,0,456.79,293.67Z"/><path id="_Path_106" data-name="&lt;Path&gt;" class="cls-2" d="M457.1,293.45h0a.57.57,0,0,0-.06-.79l-5.29-4.55a.56.56,0,0,0-.79.06h0a.56.56,0,0,0,.06.79l5.28,4.55A.56.56,0,0,0,457.1,293.45Z"/><path id="_Path_107" data-name="&lt;Path&gt;" class="cls-2" d="M456.71,293.58h0a.41.41,0,0,0,.53-.24l1.76-4.83a.41.41,0,0,0-.25-.53h0a.41.41,0,0,0-.53.25l-1.76,4.82A.42.42,0,0,0,456.71,293.58Z"/></g><g id="_Group_55" data-name="&lt;Group&gt;"><path id="_Path_108" data-name="&lt;Path&gt;" class="cls-2" d="M128.32,294.84h0a.56.56,0,0,0,.56-.56l0-7a.57.57,0,0,0-.56-.56h0a.57.57,0,0,0-.57.56l0,7A.57.57,0,0,0,128.32,294.84Z"/><path id="_Path_109" data-name="&lt;Path&gt;" class="cls-2" d="M128.64,294.65h0a.56.56,0,0,0,0-.79l-4.91-5a.56.56,0,0,0-.79,0h0a.56.56,0,0,0,0,.79l4.91,5A.57.57,0,0,0,128.64,294.65Z"/><path id="_Path_110" data-name="&lt;Path&gt;" class="cls-2" d="M128.24,294.75h0a.41.41,0,0,0,.55-.2l2.14-4.67a.42.42,0,0,0-.21-.55h0a.42.42,0,0,0-.55.2L128,294.2A.41.41,0,0,0,128.24,294.75Z"/></g><g id="_Group_56" data-name="&lt;Group&gt;"><g id="_Group_57" data-name="&lt;Group&gt;"><rect id="_Rectangle_21" data-name="&lt;Rectangle&gt;" class="cls-10" x="235.63" y="-22.46" width="0.93" height="108.99"/><rect id="_Rectangle_22" data-name="&lt;Rectangle&gt;" class="cls-10" x="240.1" y="-22.46" width="0.93" height="108.99"/><rect id="_Rectangle_23" data-name="&lt;Rectangle&gt;" class="cls-10" x="244.56" y="-22.46" width="0.93" height="108.99"/><rect id="_Rectangle_24" data-name="&lt;Rectangle&gt;" class="cls-10" x="249.03" y="-22.46" width="0.93" height="108.99"/></g><g id="_Group_58" data-name="&lt;Group&gt;"><g id="_Group_59" data-name="&lt;Group&gt;"><g id="_Group_60" data-name="&lt;Group&gt;"><path id="_Path_111" data-name="&lt;Path&gt;" class="cls-7" d="M247.19,107.71a7.25,7.25,0,0,1-3.06,5.57,6,6,0,0,1-.65.41,7.17,7.17,0,0,1-2.94.9c-.33,0-.65,0-1,0a6.27,6.27,0,0,1-.77-.08,7.31,7.31,0,0,1-3.93-2,5.8,5.8,0,0,1-.52-.58,7.16,7.16,0,0,1-1.63-4.35.24.24,0,0,1,.24-.24.21.21,0,0,1,.13.05h0l.06.06,1.76,1.76a5.11,5.11,0,0,0,1,.77,4.57,4.57,0,0,0,.7.35,5.19,5.19,0,0,0,3,.3,5,5,0,0,0,.76-.21l.42-.17a5.09,5.09,0,0,0,.68-.38,6.16,6.16,0,0,0,.81-.66h0a5.18,5.18,0,0,0,0-7.32l-1.74-1.75a.78.78,0,0,1-.24-.57V91.9a3,3,0,0,1,0-.42A2.53,2.53,0,0,1,244.59,90a2.59,2.59,0,0,1,.71,1.44c0,.11,0,.23,0,.35v9.54a3.32,3.32,0,0,0,.59,1.88A7.2,7.2,0,0,1,247.19,107.71Z"/><rect id="_Path_112" data-name="&lt;Path&gt;" class="cls-6" x="240.27" y="95.61" width="5.06" height="2.51"/></g><path id="_Path_113" data-name="&lt;Path&gt;" class="cls-10" d="M245.87,96.34h-5.78a.9.9,0,0,1-.82-.52l-4.41-9.23a.9.9,0,0,1,.81-1.29h14.62a.9.9,0,0,1,.81,1.29l-4.41,9.23A.9.9,0,0,1,245.87,96.34Z"/><g id="_Group_61" data-name="&lt;Group&gt;"><path id="_Path_114" data-name="&lt;Path&gt;" class="cls-3" d="M237.2,91.48l2.07,4.34a.9.9,0,0,0,.82.52h1.12l-2-4.86Z"/><polygon id="_Path_115" data-name="&lt;Path&gt;" class="cls-5" points="239.22 91.48 239.18 91.48 241.21 96.33 243.28 96.33 241.26 91.48 239.22 91.48"/><polygon id="_Path_116" data-name="&lt;Path&gt;" class="cls-3" points="241.3 91.48 241.26 91.48 243.28 96.33 245.36 96.33 243.34 91.48 241.3 91.48"/><path id="_Path_117" data-name="&lt;Path&gt;" class="cls-5" d="M245.42,91.48h-2.08l2,4.86h.51a.9.9,0,0,0,.82-.52l.29-.6Z"/><polygon id="_Path_118" data-name="&lt;Path&gt;" class="cls-3" points="248.09 92.9 247.5 91.48 245.45 91.48 245.42 91.48 246.98 95.22 248.09 92.9"/><polygon id="_Path_119" data-name="&lt;Path&gt;" class="cls-5" points="248.76 91.48 247.53 91.48 247.5 91.48 248.09 92.9 248.76 91.48"/></g></g><g id="_Group_62" data-name="&lt;Group&gt;"><g id="_Group_63" data-name="&lt;Group&gt;"><path id="_Path_120" data-name="&lt;Path&gt;" class="cls-6" d="M236.61,110.34l-1.73,2.18a5.8,5.8,0,0,1-.52-.58l1.55-2A4.57,4.57,0,0,0,236.61,110.34Z"/></g><g id="_Group_64" data-name="&lt;Group&gt;"><path id="_Path_121" data-name="&lt;Path&gt;" class="cls-6" d="M244.13,113.28a6,6,0,0,1-.65.41l-2.72-3.43a5.09,5.09,0,0,0,.68-.38Z"/></g><g id="_Group_65" data-name="&lt;Group&gt;"><path id="_Path_122" data-name="&lt;Path&gt;" class="cls-6" d="M239.58,110.64v4a6.27,6.27,0,0,1-.77-.08v-3.79A5.2,5.2,0,0,0,239.58,110.64Z"/></g></g><g id="_Group_66" data-name="&lt;Group&gt;"><g id="_Group_67" data-name="&lt;Group&gt;"><path id="_Path_123" data-name="&lt;Path&gt;" class="cls-5" d="M224.86,123.94a.41.41,0,0,1-.24-.08.39.39,0,0,1-.06-.55l11.08-14a.39.39,0,0,1,.54-.07.4.4,0,0,1,.07.55l-11.09,14A.38.38,0,0,1,224.86,123.94Z"/></g><g id="_Group_68" data-name="&lt;Group&gt;"><path id="_Path_124" data-name="&lt;Path&gt;" class="cls-5" d="M252.43,123.94a.37.37,0,0,1-.3-.15l-11.09-14a.4.4,0,0,1,.06-.55.4.4,0,0,1,.55.07l11.08,14a.39.39,0,0,1-.06.55A.43.43,0,0,1,252.43,123.94Z"/></g><g id="_Group_69" data-name="&lt;Group&gt;"><path id="_Path_125" data-name="&lt;Path&gt;" class="cls-5" d="M238.8,124.61a.38.38,0,0,1-.38-.38V110.35a.39.39,0,1,1,.77,0v13.88A.38.38,0,0,1,238.8,124.61Z"/></g></g></g></g><g id="_Group_70" data-name="&lt;Group&gt;"><g id="_Group_71" data-name="&lt;Group&gt;"><path id="_Path_126" data-name="&lt;Path&gt;" class="cls-11" d="M278.18,296.15H206.25s13.32-4.82,13.32-37.59h45.3c0,2.18.07,4.25.18,6.19C266.59,291.94,278.18,296.15,278.18,296.15Z"/><rect id="_Path_127" data-name="&lt;Path&gt;" class="cls-11" x="205.64" y="296.15" width="73.19" height="1.26" rx="0.44" ry="0.44"/></g><path id="_Path_128" data-name="&lt;Path&gt;" class="cls-12" d="M318.52,167.46v90.72a8,8,0,0,1-8,8H175a8,8,0,0,1-8-8V167.46a8,8,0,0,1,5.37-7.56,7.61,7.61,0,0,1,2.67-.47H310.49A8,8,0,0,1,318.52,167.46Z"/><path id="_Path_129" data-name="&lt;Path&gt;" class="cls-6" d="M318.52,167.46v84.26H167V167.46c0-.11,0-.22,0-.33s0-.22,0-.32a3.16,3.16,0,0,1,0-.32c0-.21.06-.42.1-.63a7.17,7.17,0,0,1,.24-.91c0-.1.07-.2.1-.29a2.49,2.49,0,0,1,.11-.29,8.16,8.16,0,0,1,.91-1.6,7.68,7.68,0,0,1,.78-.93,8,8,0,0,1,3.07-2,7.58,7.58,0,0,1,1-.28l.65-.12.63-.05H310.47a8.07,8.07,0,0,1,1.64.16,6.53,6.53,0,0,1,.76.2l.37.12a7.62,7.62,0,0,1,2.35,1.35c.2.17.39.34.57.52A8,8,0,0,1,318.52,167.46Z"/><g id="_Group_72" data-name="&lt;Group&gt;"><path id="_Path_130" data-name="&lt;Path&gt;" class="cls-12" d="M276.12,296.15H204.19s13.32-4.82,13.32-37.59h45.3c0,2.18.06,4.25.18,6.19C264.52,291.94,276.12,296.15,276.12,296.15Z"/><rect id="_Path_131" data-name="&lt;Path&gt;" class="cls-11" x="203.58" y="296.15" width="73.19" height="1.26" rx="0.44" ry="0.44"/></g><path id="_Path_132" data-name="&lt;Path&gt;" class="cls-11" d="M263,266.14a8.47,8.47,0,0,1-2.37.29c-20.57,0-23.48,17.12-30.24,24.29a18.79,18.79,0,0,1-9,5.43H204.19s13.32-4.82,13.32-37.59h45.3C262.81,260.74,262.87,264.2,263,266.14Z"/><path id="_Path_133" data-name="&lt;Path&gt;" class="cls-13" d="M315.94,167.46v90.72a8,8,0,0,1-8,8H172.45a8,8,0,0,1-8-8V167.46a8,8,0,0,1,5.37-7.56,7.57,7.57,0,0,1,2.67-.47H307.91A8,8,0,0,1,315.94,167.46Z"/><path id="_Path_134" data-name="&lt;Path&gt;" class="cls-14" d="M315.93,167.46v84.26H164.41V167.13c0-.11,0-.22,0-.32l0-.32c0-.21.06-.42.11-.63a7.17,7.17,0,0,1,.24-.91,10.12,10.12,0,0,1,.21-.58,8.65,8.65,0,0,1,.9-1.6,7.77,7.77,0,0,1,.79-.93,8.34,8.34,0,0,1,4-2.23l.66-.12.63-.05H307.89a8.07,8.07,0,0,1,1.64.16,7.1,7.1,0,0,1,.76.2l.37.12a7.74,7.74,0,0,1,2.35,1.35c.2.17.39.34.57.52A8,8,0,0,1,315.93,167.46Z"/><circle id="_Path_135" data-name="&lt;Path&gt;" class="cls-14" cx="239.28" cy="258.82" r="4.18"/><path id="_Compound_Path_" data-name="&lt;Compound Path&gt;" class="cls-7" d="M313.58,161.78c-.18-.18-.37-.35-.57-.52a8,8,0,0,0-2.35-1.35l-.37-.12c-.25-.08-.51-.14-.76-.2a8.07,8.07,0,0,0-1.64-.16H172l-.63.05-.66.12a8,8,0,0,0-3.35,1.61h0a7.68,7.68,0,0,0-.67.61,6.37,6.37,0,0,0-.79.93,7.39,7.39,0,0,0-.9,1.6,10.12,10.12,0,0,0-.21.58,4.89,4.89,0,0,0-.24.91c0,.21-.08.42-.11.63l0,.32c0,.1,0,.21,0,.32s0,.22,0,.33v84.26H315.93V167.46A8,8,0,0,0,313.58,161.78Zm-3.95,82.05H170.7V167.46a1.74,1.74,0,0,1,1.73-1.73H307.89a1.74,1.74,0,0,1,1.74,1.73Z"/></g><path id="_Path_136" data-name="&lt;Path&gt;" class="cls-15" d="M307.26,159.43v64.63a5.31,5.31,0,0,1-5.31,5.31H182.19a5.31,5.31,0,0,1-5.31-5.31V159.43Z"/><g id="_Group_73" data-name="&lt;Group&gt;"><rect id="_Path_137" data-name="&lt;Path&gt;" class="cls-16" x="173.51" y="120.96" width="130.38" height="101.5" rx="5.31" ry="5.31"/><path id="_Path_138" data-name="&lt;Path&gt;" class="cls-3" d="M303.89,126.27v18.12H173.51V126.27a5.31,5.31,0,0,1,5.31-5.31H298.58A5.31,5.31,0,0,1,303.89,126.27Z"/><path id="_Path_139" data-name="&lt;Path&gt;" class="cls-5" d="M292.74,136.38H225.52a3.82,3.82,0,0,1-3.82-3.81h0a3.82,3.82,0,0,1,3.82-3.82h67.22a3.82,3.82,0,0,1,3.82,3.82h0A3.82,3.82,0,0,1,292.74,136.38Z"/><path id="_Path_140" data-name="&lt;Path&gt;" class="cls-17" d="M189.7,132.38a3.74,3.74,0,1,1-3.74-3.74A3.73,3.73,0,0,1,189.7,132.38Z"/><path id="_Path_141" data-name="&lt;Path&gt;" class="cls-18" d="M199.28,132.38a3.74,3.74,0,1,1-3.74-3.74A3.73,3.73,0,0,1,199.28,132.38Z"/><path id="_Path_142" data-name="&lt;Path&gt;" class="cls-19" d="M208.87,132.38a3.75,3.75,0,1,1-3.75-3.74A3.74,3.74,0,0,1,208.87,132.38Z"/><rect id="_Rectangle_25" data-name="&lt;Rectangle&gt;" class="cls-20" x="182.44" y="157.23" width="56.59" height="48.51" rx="5.05" ry="5.05"/><rect id="_Rectangle_26" data-name="&lt;Rectangle&gt;" class="cls-5" x="180.79" y="155.59" width="56.59" height="48.51" rx="5.05" ry="5.05"/><rect id="_Rectangle_27" data-name="&lt;Rectangle&gt;" class="cls-5" x="241.88" y="159.52" width="56.59" height="2.92" rx="1.24" ry="1.24"/><rect id="_Rectangle_28" data-name="&lt;Rectangle&gt;" class="cls-5" x="241.88" y="166.55" width="56.59" height="2.92" rx="1.24" ry="1.24"/><rect id="_Rectangle_29" data-name="&lt;Rectangle&gt;" class="cls-5" x="241.88" y="173.59" width="56.59" height="2.92" rx="1.24" ry="1.24"/><rect id="_Rectangle_30" data-name="&lt;Rectangle&gt;" class="cls-5" x="241.88" y="180.62" width="56.59" height="2.92" rx="1.24" ry="1.24"/><rect id="_Rectangle_31" data-name="&lt;Rectangle&gt;" class="cls-5" x="241.88" y="187.66" width="56.59" height="2.92" rx="1.24" ry="1.24"/><rect id="_Rectangle_32" data-name="&lt;Rectangle&gt;" class="cls-5" x="241.88" y="207.99" width="56.59" height="2.92" rx="1.24" ry="1.24"/><path id="_Path_143" data-name="&lt;Path&gt;" class="cls-5" d="M297,218.07H182.68a1.46,1.46,0,0,1-1.46-1.46h0a1.46,1.46,0,0,1,1.46-1.46H297a1.46,1.46,0,0,1,1.46,1.46h0A1.47,1.47,0,0,1,297,218.07Z"/><path id="_Path_144" data-name="&lt;Path&gt;" class="cls-3" d="M252.76,199.26a4.75,4.75,0,1,1-4.75-4.75A4.74,4.74,0,0,1,252.76,199.26Z"/><path id="_Path_145" data-name="&lt;Path&gt;" class="cls-5" d="M275.82,199.26a4.75,4.75,0,1,1-4.75-4.75A4.75,4.75,0,0,1,275.82,199.26Z"/><path id="_Path_146" data-name="&lt;Path&gt;" class="cls-3" d="M298.88,199.26a4.75,4.75,0,1,1-4.75-4.75A4.75,4.75,0,0,1,298.88,199.26Z"/><rect id="_Path_147" data-name="&lt;Path&gt;" class="cls-20" x="173.51" y="144.4" width="130.38" height="2.4"/></g><path id="_Path_148" data-name="&lt;Path&gt;" class="cls-2" d="M454.77,308H28.69a5.29,5.29,0,0,1-5.29-5.29h0a5.29,5.29,0,0,1,5.29-5.29H454.77a5.29,5.29,0,0,1,5.3,5.29h0A5.29,5.29,0,0,1,454.77,308Z"/><circle class="cls-21" cx="324.23" cy="114.29" r="2"/><circle class="cls-21" cx="192.23" cy="232.29" r="2"/><circle class="cls-21" cx="327.23" cy="170.29" r="2"/><line class="cls-22" x1="270.23" y1="102.41" x2="275.42" y2="107.6"/><line class="cls-22" x1="275.42" y1="102.41" x2="270.23" y2="107.6"/><line class="cls-22" x1="169.07" y1="99.25" x2="172.59" y2="102.77"/><line class="cls-22" x1="172.59" y1="99.25" x2="169.07" y2="102.77"/><line class="cls-22" x1="145.07" y1="205.25" x2="148.59" y2="208.77"/><line class="cls-22" x1="148.59" y1="205.25" x2="145.07" y2="208.77"/><line class="cls-22" x1="312.07" y1="214.25" x2="315.59" y2="217.77"/><line class="cls-22" x1="315.59" y1="214.25" x2="312.07" y2="217.77"/><line class="cls-22" x1="226.23" y1="60.54" x2="226.23" y2="90.54"/><line class="cls-22" x1="222.23" y1="72.54" x2="222.23" y2="90.54"/><line class="cls-22" x1="258.23" y1="53.54" x2="258.23" y2="90.54"/><line class="cls-22" x1="262.23" y1="77.54" x2="262.23" y2="90.54"/></g></g></svg>