<?xml version="1.0" encoding="utf-8"?>
<!-- Generator: Adobe Illustrator 22.0.1, SVG Export Plug-In . SVG Version: 6.00 Build 0)  -->
<svg version="1.1" xmlns="http://www.w3.org/2000/svg" xmlns:xlink="http://www.w3.org/1999/xlink" x="0px" y="0px"
	 viewBox="0 0 500 500" style="enable-background:new 0 0 500 500;" xml:space="preserve">
<style type="text/css">
	.st0{fill:#F5F5F5;}
	.st1{fill:#E0E0E0;}
	.st2{fill:#D20000;}
	.st3{opacity:0.3;fill:#D20000;}
	.st4{fill:#FFFFFF;}
	.st5{opacity:0.6;fill:#D20000;}
	.st6{fill:#EBEBEB;}
	.st7{fill:#FAFAFA;}
	.st8{opacity:0.2;fill:#D20000;}
	.st9{opacity:0.4;fill:#FFFFFF;}
	.st10{opacity:0.6;fill:#FFFFFF;}
	.st11{fill:#455A64;}
	.st12{fill:#263238;}
	.st13{fill:#37474F;}
	.st14{fill:#FFA8A7;}
	.st15{opacity:0.5;fill:#910000;}
	.st16{opacity:0.7;fill:#860000;}
	.st17{opacity:0.7;fill:#D20000;}
	.st18{opacity:0.3;fill:#FFFFFF;}
	.st19{opacity:0.1;fill:#FFFFFF;}
	.st20{fill:#F28F8F;}
</style>
<g id="Floor">
	<ellipse class="st0" cx="250" cy="350.9" rx="222.9" ry="128.7"/>
</g>
<g id="Shadows">
	<ellipse class="st1" cx="88.8" cy="364.1" rx="32.5" ry="18.8"/>
	<polygon class="st1" points="223.1,323 133.5,374.7 68.3,336.9 157.9,285.1 	"/>
	<path class="st1" d="M369.1,429.3L148.8,302.1c-2-1.2-2-4.1,0-5.2l35.6-20.5c3-1.7,6.6-1.7,9.5,0l220.3,127.2c2,1.2,2,4.1,0,5.2
		l-35.6,20.5C375.7,431,372.1,431,369.1,429.3z"/>
</g>
<g id="Plant">
	<g>
		<g>
			<path class="st2" d="M403.5,363.5l12.4,7.2c0,0-6.2-19.9-2.8-40c1.3-7.6,4.1-11.3,5-13.4c1-2,8.4-14.5,1.9-20.3
				c-6.6-5.8-22,5.7-21.3,36.6C399,349.5,403.5,363.5,403.5,363.5z"/>
			<path class="st3" d="M403.5,363.5l12.4,7.2c0,0-6.2-19.9-2.8-40c1.3-7.6,4.1-11.3,5-13.4c1-2,8.4-14.5,1.9-20.3
				c-6.6-5.8-22,5.7-21.3,36.6C399,349.5,403.5,363.5,403.5,363.5z"/>
			<path class="st4" d="M409.2,367.3c-0.2,0-0.4-0.1-0.4-0.3c0-0.1-4.7-13.1-4.5-33.9c0.2-20.9,11.2-32.1,11.3-32.2
				c0.2-0.2,0.5-0.2,0.6,0c0.2,0.2,0.2,0.5,0,0.6c-0.1,0.1-10.8,11-11.1,31.6c-0.2,20.7,4.4,33.5,4.4,33.6c0.1,0.2,0,0.5-0.3,0.6
				C409.3,367.3,409.3,367.3,409.2,367.3z"/>
		</g>
		<g>
			<path class="st2" d="M407,365.4l20.5,12c0,0,9.4-1.4,8.7-10.2c-0.7-8.8-4.5-10.9,0.2-14.8c4.7-3.9,6-4.1,5.7-7.9
				c-0.2-3.8-2.8-5.5-4-7c-1.2-1.5-4.6-4.7-2.2-9.2c2.4-4.6,5.6-9,0.8-11.1c-2.8-1.3-7.6,0.3-10.7,3.7c-3.2,3.4-5.8,5.8-8.7,6.5
				c-3,0.8-9.2,0.8-9,6c0.2,5.2,1.5,6.9,0.3,9.2C406.1,347,396,349.3,407,365.4z"/>
			<path class="st4" d="M415.3,370.7c-0.2,0-0.4-0.2-0.4-0.4c0-0.3-2.2-30.8,18.9-50.7c0.2-0.2,0.5-0.2,0.6,0c0.2,0.2,0.2,0.5,0,0.6
				c-20.8,19.7-18.7,49.7-18.6,50C415.8,370.5,415.6,370.7,415.3,370.7C415.3,370.7,415.3,370.7,415.3,370.7z"/>
			<path class="st4" d="M419,344.6c-0.2,0-0.4-0.2-0.4-0.4c-0.6-8.1-6.2-12.2-6.3-12.2c-0.2-0.1-0.2-0.4-0.1-0.6
				c0.1-0.2,0.4-0.2,0.6-0.1c0.2,0.2,6,4.4,6.6,12.9C419.4,344.4,419.2,344.6,419,344.6C419,344.6,419,344.6,419,344.6z"/>
			<path class="st4" d="M417.4,349.8c-0.1,0-0.2,0-0.3-0.1c-0.2-0.2-0.2-0.4,0-0.6c0.2-0.2,5.5-6,17.8-4.3c0.2,0,0.4,0.3,0.4,0.5
				c0,0.2-0.3,0.4-0.5,0.4c-11.8-1.6-16.9,3.9-17,4C417.7,349.8,417.6,349.8,417.4,349.8z"/>
		</g>
	</g>
</g>
<g id="Folder">
	<g>
		<g>
			<polygon class="st2" points="384.1,273.5 355.5,256.8 372.5,280.2 			"/>
			<polygon class="st5" points="384.1,273.5 355.5,256.8 372.5,280.2 			"/>
		</g>
		<path class="st1" d="M367.1,335.4L200,238.9c-1.5-0.8-2.4-2.4-2.4-4.1V120.8c0-3.6,3.9-5.9,7.1-4.1l167.1,96.5
			c1.5,0.8,2.4,2.4,2.4,4.1v114.1C374.2,335,370.2,337.2,367.1,335.4z"/>
		<path class="st2" d="M372.5,280.2l11.5-6.7v135.1c0,2.5-1.3,4.8-3.5,6l-11.4,6.6L372.5,280.2z"/>
		<path class="st3" d="M372.5,280.2l11.5-6.7v135.1c0,2.5-1.3,4.8-3.5,6l-11.4,6.6L372.5,280.2z"/>
		<path class="st6" d="M359.5,339.7l-167.1-96.5c-1.5-0.8-2.4-2.4-2.4-4.1V125c0-3.6,3.9-5.9,7.1-4.1l167.1,96.5
			c1.5,0.8,2.4,2.4,2.4,4.1v114.1C366.6,339.2,362.7,341.5,359.5,339.7z"/>
		<path class="st7" d="M351.9,344.2l-167.1-96.5c-1.5-0.8-2.4-2.4-2.4-4.1V129.5c0-3.6,3.9-5.9,7.1-4.1l167.1,96.5
			c1.5,0.8,2.4,2.4,2.4,4.1v114.1C359,343.7,355.1,346,351.9,344.2z"/>
		<path class="st2" d="M158.9,128v167.7c0,4.8,2.6,9.3,6.8,11.7l197,113.7c4.4,2.5,9.8-0.6,9.8-5.7V280.2l-103.9-60l-17.9-41.4
			c-3.3-7.7-9.1-14.2-16.4-18.4l-65.8-38C164.3,120,158.9,123.1,158.9,128z"/>
		<path class="st8" d="M158.9,128v167.7c0,4.8,2.6,9.3,6.8,11.7l197,113.7c4.4,2.5,9.8-0.6,9.8-5.7V280.2l-103.9-60l-17.9-41.4
			c-3.3-7.7-9.1-14.2-16.4-18.4l-65.8-38C164.3,120,158.9,123.1,158.9,128z"/>
		<g>
			<g>
				<path class="st2" d="M315.1,311c-0.6-0.3-1.1-0.6-1.6-0.8C313,297.2,304,282,293,275.6c-3.7-2.1-7.2-3-10.2-2.7
					c-4.2-13.6-13.9-27-25.1-33.5c-14.3-8.3-26.1-2.3-27.2,13.2c-0.7-0.5-1.4-0.9-2.1-1.3c-10.9-6.3-19.7-1.2-19.7,11.4
					c0,12.6,8.8,27.9,19.7,34.1l86.7,50.1c8.6,5,15.6,0.9,15.6-9S323.7,315.9,315.1,311z"/>
				<path class="st9" d="M315.1,311c-0.6-0.3-1.1-0.6-1.6-0.8C313,297.2,304,282,293,275.6c-3.7-2.1-7.2-3-10.2-2.7
					c-4.2-13.6-13.9-27-25.1-33.5c-14.3-8.3-26.1-2.3-27.2,13.2c-0.7-0.5-1.4-0.9-2.1-1.3c-10.9-6.3-19.7-1.2-19.7,11.4
					c0,12.6,8.8,27.9,19.7,34.1l86.7,50.1c8.6,5,15.6,0.9,15.6-9S323.7,315.9,315.1,311z"/>
			</g>
			<polygon class="st4" points="241.2,309.8 261.6,347.1 283.4,333.8 274.8,329 274.8,292.1 251.6,278.7 251.6,315.9 			"/>
		</g>
	</g>
</g>
<g id="Arrow">
	<g>
		<path class="st2" d="M182.4,74.4c-45.8,0-84.6,30.1-97.7,71.5l-8.3-4.8c-1.1-0.6-2.4,0.1-2.5,1.3c-1.7,19.6,2.1,35.5,6.8,47.1
			c4.2,10.5,9.2,17.6,11.7,20.7c0.7,0.9,2,0.7,2.5-0.4c4-10.3,9.5-18.6,14.7-25c5.4-6.6,10.5-11.1,13.4-13.5c1.2-1,1-2.8-0.3-3.6
			l-9.9-5.7c10.3-37.4,44.6-64.8,85.2-64.8c42.6,0,78.2,30.2,86.5,70.4C279.9,115.4,235.9,74.4,182.4,74.4z"/>
		<path class="st9" d="M182.4,74.4c-45.8,0-84.6,30.1-97.7,71.5l-8.3-4.8c-1.1-0.6-2.4,0.1-2.5,1.3c-1.7,19.6,2.1,35.5,6.8,47.1
			c4.2,10.5,9.2,17.6,11.7,20.7c0.7,0.9,2,0.7,2.5-0.4c4-10.3,9.5-18.6,14.7-25c5.4-6.6,10.5-11.1,13.4-13.5c1.2-1,1-2.8-0.3-3.6
			l-9.9-5.7c10.3-37.4,44.6-64.8,85.2-64.8c42.6,0,78.2,30.2,86.5,70.4C279.9,115.4,235.9,74.4,182.4,74.4z"/>
	</g>
</g>
<g id="Files">
	<g>
		<g>
			<g>
				<ellipse transform="matrix(0.866 -0.5 0.5 0.866 17.973 187.6521)" class="st2" cx="359.1" cy="60.3" rx="23.6" ry="40.8"/>
				<ellipse transform="matrix(0.866 -0.5 0.5 0.866 17.973 187.6521)" class="st8" cx="359.1" cy="60.3" rx="23.6" ry="40.8"/>
				<ellipse transform="matrix(0.866 -0.5 0.5 0.866 17.258 186.937)" class="st2" cx="357.5" cy="61.3" rx="23.6" ry="40.8"/>
			</g>
			<g>
				<path class="st2" d="M345.9,71l22.3,12.9c1.2,0.7,2.7-0.2,2.7-1.5V54.9c0-1.4-0.7-2.7-1.9-3.4l-22.3-12.9
					c-1.2-0.7-2.7,0.2-2.7,1.5v27.5C344,69.1,344.7,70.3,345.9,71z"/>
				<path class="st10" d="M345.9,71l22.3,12.9c1.2,0.7,2.7-0.2,2.7-1.5V54.9c0-1.4-0.7-2.7-1.9-3.4l-22.3-12.9
					c-1.2-0.7-2.7,0.2-2.7,1.5v27.5C344,69.1,344.7,70.3,345.9,71z"/>
				<path class="st2" d="M348.2,67l17.9,10.3c1,0.6,2.1-0.1,2.1-1.2V55.4c0-1.1-0.6-2.1-1.6-2.7l-17.9-10.3c-1-0.5-2.1,0.1-2.1,1.2
					v20.6C346.7,65.4,347.3,66.4,348.2,67z"/>
				<path class="st9" d="M368.2,55.4V76c0,1.1-1.2,1.8-2.1,1.2L348.2,67c-1-0.6-1.6-1.6-1.6-2.7V43.6c0-1.1,1.2-1.8,2.1-1.2
					l17.9,10.3C367.7,53.3,368.2,54.3,368.2,55.4z"/>
				<g>
					<path class="st7" d="M368.2,75.3V76c0,1.1-1.2,1.8-2.1,1.2L348.2,67c-1-0.6-1.6-1.6-1.6-2.7v-2l4.7-4l5.5,7.9l5.4-6.4
						L368.2,75.3z"/>
					<path class="st7" d="M352.8,52.1c0,1.5,1.1,3.4,2.4,4.2c1.3,0.8,2.4,0.1,2.4-1.4c0-1.5-1.1-3.4-2.4-4.2
						C353.9,50,352.8,50.6,352.8,52.1z"/>
				</g>
			</g>
		</g>
		<g>
			<g>
				<ellipse transform="matrix(0.866 -0.5 0.5 0.866 -26.6599 226.433)" class="st2" cx="409.2" cy="163" rx="23.6" ry="40.8"/>
				<ellipse transform="matrix(0.866 -0.5 0.5 0.866 -26.6599 226.433)" class="st8" cx="409.2" cy="163" rx="23.6" ry="40.8"/>
				<ellipse transform="matrix(0.866 -0.5 0.5 0.866 -27.3747 225.7191)" class="st2" cx="407.5" cy="163.9" rx="23.6" ry="40.8"/>
			</g>
			<g>
				<path class="st2" d="M396.7,141.3c-1.2-0.7-2.7,0.2-2.7,1.5v27.5c0,1.4,0.7,2.7,1.9,3.4l22.3,12.9c1.2,0.7,2.7-0.2,2.7-1.5
					v-20.4l-6-12.8L396.7,141.3z"/>
				<path class="st10" d="M396.7,141.3c-1.2-0.7-2.7,0.2-2.7,1.5v27.5c0,1.4,0.7,2.7,1.9,3.4l22.3,12.9c1.2,0.7,2.7-0.2,2.7-1.5
					v-20.4l-6-12.8L396.7,141.3z"/>
				<path class="st2" d="M414.1,156.5l0.8-4.7l6,12.8l-5.4-4.5C414.4,159.2,413.9,157.8,414.1,156.5z"/>
				<path class="st9" d="M414.1,156.5l0.8-4.7l6,12.8l-5.4-4.5C414.4,159.2,413.9,157.8,414.1,156.5z"/>
				<g>
					<path class="st7" d="M416.3,167.2c-0.1,0-0.2,0-0.3-0.1L398.4,157c-0.3-0.2-0.4-0.5-0.2-0.8c0.2-0.3,0.5-0.4,0.8-0.2l17.6,10.2
						c0.3,0.2,0.4,0.5,0.2,0.8C416.7,167.1,416.5,167.2,416.3,167.2z"/>
					<path class="st7" d="M416.3,173.2c-0.1,0-0.2,0-0.3-0.1l-17.6-10.2c-0.3-0.2-0.4-0.5-0.2-0.8c0.2-0.3,0.5-0.4,0.8-0.2
						l17.6,10.2c0.3,0.2,0.4,0.5,0.2,0.8C416.7,173.1,416.5,173.2,416.3,173.2z"/>
					<path class="st7" d="M416.3,179.1c-0.1,0-0.2,0-0.3-0.1l-17.6-10.2c-0.3-0.2-0.4-0.5-0.2-0.8c0.2-0.3,0.5-0.4,0.8-0.2
						l17.6,10.2c0.3,0.2,0.4,0.5,0.2,0.8C416.7,179,416.5,179.1,416.3,179.1z"/>
				</g>
			</g>
		</g>
		<g>
			<g>
				<ellipse transform="matrix(0.866 -0.5 0.5 0.866 -10.8364 165.5539)" class="st2" cx="303.5" cy="103" rx="23.6" ry="40.8"/>
				<ellipse transform="matrix(0.866 -0.5 0.5 0.866 -10.8364 165.5539)" class="st8" cx="303.5" cy="103" rx="23.6" ry="40.8"/>
				<ellipse transform="matrix(0.866 -0.5 0.5 0.866 -11.5511 164.8406)" class="st2" cx="301.8" cy="104" rx="23.6" ry="40.8"/>
			</g>
			<g>
				<path class="st2" d="M290.3,113.7l22.3,12.9c1.2,0.7,2.7-0.2,2.7-1.5V97.6c0-1.4-0.7-2.7-1.9-3.4L291,81.3
					c-1.2-0.7-2.7,0.2-2.7,1.5v27.5C288.4,111.8,289.1,113.1,290.3,113.7z"/>
				<path class="st10" d="M290.3,113.7l22.3,12.9c1.2,0.7,2.7-0.2,2.7-1.5V97.6c0-1.4-0.7-2.7-1.9-3.4L291,81.3
					c-1.2-0.7-2.7,0.2-2.7,1.5v27.5C288.4,111.8,289.1,113.1,290.3,113.7z"/>
				<path class="st7" d="M296.4,99.3v9.3c0,0.8,0.6,1.4,1.4,1.4h8.1c1.2,0,1.8-1.4,1-2.3l-8.1-9.3C298,97.4,296.4,98,296.4,99.3z"/>
			</g>
		</g>
		<g>
			<path class="st2" d="M359.1,100.5c-0.4,0-0.7-0.3-0.7-0.7v-1.9c0-0.4,0.3-0.7,0.7-0.7s0.7,0.3,0.7,0.7v1.9
				C359.9,100.2,359.5,100.5,359.1,100.5z"/>
			<path class="st2" d="M359.1,206.3c-0.4,0-0.7-0.3-0.7-0.7v-3.8c0-0.4,0.3-0.7,0.7-0.7s0.7,0.3,0.7,0.7v3.8
				C359.9,206,359.5,206.3,359.1,206.3z M359.1,198.7c-0.4,0-0.7-0.3-0.7-0.7v-3.8c0-0.4,0.3-0.7,0.7-0.7s0.7,0.3,0.7,0.7v3.8
				C359.9,198.4,359.5,198.7,359.1,198.7z M359.1,191.2c-0.4,0-0.7-0.3-0.7-0.7v-3.8c0-0.4,0.3-0.7,0.7-0.7s0.7,0.3,0.7,0.7v3.8
				C359.9,190.9,359.5,191.2,359.1,191.2z M359.1,183.6c-0.4,0-0.7-0.3-0.7-0.7v-3.8c0-0.4,0.3-0.7,0.7-0.7s0.7,0.3,0.7,0.7v3.8
				C359.9,183.3,359.5,183.6,359.1,183.6z M359.1,176.1c-0.4,0-0.7-0.3-0.7-0.7v-3.8c0-0.4,0.3-0.7,0.7-0.7s0.7,0.3,0.7,0.7v3.8
				C359.9,175.8,359.5,176.1,359.1,176.1z M359.1,168.5c-0.4,0-0.7-0.3-0.7-0.7V164c0-0.4,0.3-0.7,0.7-0.7s0.7,0.3,0.7,0.7v3.8
				C359.9,168.2,359.5,168.5,359.1,168.5z M359.1,161c-0.4,0-0.7-0.3-0.7-0.7v-3.8c0-0.4,0.3-0.7,0.7-0.7s0.7,0.3,0.7,0.7v3.8
				C359.9,160.6,359.5,161,359.1,161z M359.1,153.4c-0.4,0-0.7-0.3-0.7-0.7v-3.8c0-0.4,0.3-0.7,0.7-0.7s0.7,0.3,0.7,0.7v3.8
				C359.9,153.1,359.5,153.4,359.1,153.4z M359.1,145.9c-0.4,0-0.7-0.3-0.7-0.7v-3.8c0-0.4,0.3-0.7,0.7-0.7s0.7,0.3,0.7,0.7v3.8
				C359.9,145.5,359.5,145.9,359.1,145.9z M359.1,138.3c-0.4,0-0.7-0.3-0.7-0.7v-3.8c0-0.4,0.3-0.7,0.7-0.7s0.7,0.3,0.7,0.7v3.8
				C359.9,138,359.5,138.3,359.1,138.3z M359.1,130.7c-0.4,0-0.7-0.3-0.7-0.7v-3.8c0-0.4,0.3-0.7,0.7-0.7s0.7,0.3,0.7,0.7v3.8
				C359.9,130.4,359.5,130.7,359.1,130.7z M359.1,123.2c-0.4,0-0.7-0.3-0.7-0.7v-3.8c0-0.4,0.3-0.7,0.7-0.7s0.7,0.3,0.7,0.7v3.8
				C359.9,122.9,359.5,123.2,359.1,123.2z M359.1,115.6c-0.4,0-0.7-0.3-0.7-0.7v-3.8c0-0.4,0.3-0.7,0.7-0.7s0.7,0.3,0.7,0.7v3.8
				C359.9,115.3,359.5,115.6,359.1,115.6z M359.1,108.1c-0.4,0-0.7-0.3-0.7-0.7v-3.8c0-0.4,0.3-0.7,0.7-0.7s0.7,0.3,0.7,0.7v3.8
				C359.9,107.8,359.5,108.1,359.1,108.1z"/>
			<path class="st2" d="M359.1,212c-0.4,0-0.7-0.3-0.7-0.7v-1.9c0-0.4,0.3-0.7,0.7-0.7s0.7,0.3,0.7,0.7v1.9
				C359.9,211.6,359.5,212,359.1,212z"/>
		</g>
		<g>
			<path class="st2" d="M377,165.5c-0.3,0-0.5-0.1-0.6-0.4c-0.2-0.4,0-0.8,0.3-1l1.7-0.8c0.4-0.2,0.8,0,0.9,0.3c0.2,0.4,0,0.8-0.3,1
				l-1.7,0.8C377.2,165.5,377.1,165.5,377,165.5z"/>
			<path class="st2" d="M368.7,169.6c-0.3,0-0.5-0.1-0.6-0.4c-0.2-0.4,0-0.8,0.3-0.9l4.2-2.1c0.4-0.2,0.8,0,0.9,0.3
				c0.2,0.4,0,0.8-0.3,0.9l-4.2,2.1C368.9,169.6,368.8,169.6,368.7,169.6z"/>
			<path class="st2" d="M362.8,172.5c-0.3,0-0.5-0.1-0.6-0.4c-0.2-0.4,0-0.8,0.3-1l1.7-0.8c0.4-0.2,0.8,0,0.9,0.3
				c0.2,0.4,0,0.8-0.3,1l-1.7,0.8C363,172.5,362.9,172.5,362.8,172.5z"/>
		</g>
		<g>
			<path class="st2" d="M336.7,121.3c-0.2,0-0.5-0.1-0.6-0.3l-1-1.6c-0.2-0.3-0.1-0.8,0.2-1c0.3-0.2,0.8-0.1,1,0.2l1,1.6
				c0.2,0.3,0.1,0.8-0.2,1C336.9,121.3,336.8,121.3,336.7,121.3z"/>
			<path class="st2" d="M352.2,146.9c-0.2,0-0.5-0.1-0.6-0.3l-1.9-3.2c-0.2-0.3-0.1-0.8,0.2-1c0.3-0.2,0.8-0.1,1,0.2l1.9,3.2
				c0.2,0.3,0.1,0.8-0.2,1C352.4,146.9,352.3,146.9,352.2,146.9z M348.3,140.5c-0.2,0-0.5-0.1-0.6-0.3l-1.9-3.2
				c-0.2-0.3-0.1-0.8,0.2-1c0.3-0.2,0.8-0.1,1,0.2l1.9,3.2c0.2,0.3,0.1,0.8-0.2,1C348.5,140.5,348.4,140.5,348.3,140.5z
				 M344.4,134.1c-0.2,0-0.5-0.1-0.6-0.3l-1.9-3.2c-0.2-0.3-0.1-0.8,0.2-1c0.3-0.2,0.8-0.1,1,0.2l1.9,3.2c0.2,0.3,0.1,0.8-0.2,1
				C344.7,134.1,344.5,134.1,344.4,134.1z M340.5,127.7c-0.2,0-0.5-0.1-0.6-0.3l-1.9-3.2c-0.2-0.3-0.1-0.8,0.2-1
				c0.3-0.2,0.8-0.1,1,0.2l1.9,3.2c0.2,0.3,0.1,0.8-0.2,1C340.8,127.7,340.7,127.7,340.5,127.7z"/>
			<path class="st2" d="M355.1,151.7c-0.2,0-0.5-0.1-0.6-0.3l-1-1.6c-0.2-0.3-0.1-0.8,0.2-1c0.3-0.2,0.8-0.1,1,0.2l1,1.6
				c0.2,0.3,0.1,0.8-0.2,1C355.3,151.7,355.2,151.7,355.1,151.7z"/>
		</g>
	</g>
</g>
<g id="Stairs">
	<g>
		<polygon class="st11" points="81.3,322.9 124.8,348.1 124.8,361.5 81.3,336.3 		"/>
		<polygon class="st12" points="148.2,310.2 148.2,335 124.8,348.1 124.8,361.5 193.1,323.2 193.1,283.7 		"/>
		<polygon class="st13" points="124.8,348.1 148.2,335 104.8,309.8 81.3,322.9 		"/>
		<polygon class="st11" points="148.2,335 148.2,310.2 104.8,285 104.8,309.8 		"/>
		<polygon class="st13" points="148.2,310.2 104.8,285 149.6,258.5 193.1,283.7 		"/>
	</g>
</g>
<g id="Character">
	<g>
		<path class="st12" d="M160.5,193.4c0,0-10.7,15-4.3,20.2c6.4,5.2,20.3,1,20.9-1.5C177.6,209.6,160.5,193.4,160.5,193.4z"/>
		<path class="st14" d="M112.7,324.7L97,345.6l4.4,3.5c0,0,6.3-1.3,8.5-9.6C112.1,331,112.7,324.7,112.7,324.7z"/>
		<path class="st2" d="M114.1,323.2c0,0,4.4,4,2.4,7.5c-1.9,3.6-5.3,6.4-5.4,11.1c-0.1,4.7-2.4,13-7.6,14.3
			c-5.2,1.3-10.3-0.5-10.2-2.3s3.6-8.2,3.6-8.2s4.8,2.9,8.3,0.1c3.5-2.8,4.3-14.8,4.3-14.8L114.1,323.2z"/>
		<path class="st8" d="M114.1,323.2c0,0,4.4,4,2.4,7.5c-1.9,3.6-5.3,6.4-5.4,11.1c-0.1,4.7-2.4,13-7.6,14.3
			c-5.2,1.3-10.3-0.5-10.2-2.3s3.6-8.2,3.6-8.2s4.8,2.9,8.3,0.1c3.5-2.8,4.3-14.8,4.3-14.8L114.1,323.2z"/>
		<path class="st2" d="M141,258.5c0,0-35.1,14.8-37.9,16.3c-2.8,1.5-7.8,4-7.3,15.4c0.5,11.4,3.4,39.7,3.4,39.7l19.2-37l49.6-23.6
			L141,258.5z"/>
		<path class="st15" d="M141,258.5c0,0-35.1,14.8-37.9,16.3c-2.8,1.5-7.8,4-7.3,15.4c0.5,11.4,3.4,39.7,3.4,39.7l19.2-37l49.6-23.6
			L141,258.5z"/>
		<path class="st2" d="M97.7,315.3c0.7,8.1,1.4,14.7,1.4,14.7l19.2-37l35.4-16.8l-8-6.3c-11.3,5.7-27.7,13.9-32.6,16.4
			c-6.2,3.2-8.2,12.3-13.6,24.8C98.9,312.4,98.3,313.8,97.7,315.3z"/>
		<path class="st16" d="M97.7,315.3c0.7,8.1,1.4,14.7,1.4,14.7l19.2-37l35.4-16.8l-8-6.3c-11.3,5.7-27.7,13.9-32.6,16.4
			c-6.2,3.2-8.2,12.3-13.6,24.8C98.9,312.4,98.3,313.8,97.7,315.3z"/>
		<polygon class="st2" points="143.9,266 147.5,271.5 144.7,271.9 		"/>
		<polygon class="st17" points="143.9,266 147.5,271.5 144.7,271.9 		"/>
		<g>
			<path class="st2" d="M97.2,353.8c0,0,0.5,0.8,0.5,5.1c0,4.2-1.7,5.1-3.8,5.8c-2.1,0.8-8.3,5.3-10,7.2c-1.7,2-8.6,4-15.3,2.8
				c-6.8-1.2-8.2-5.7-5-8.5c3.3-2.9,12.6-8.1,12.6-8.1L97.2,353.8z"/>
			<g>
				<path class="st2" d="M178.4,267.2l-15.1-3.5c0,0-41.9,21-48.1,24.2c-6.2,3.2-8.2,12.3-13.6,24.8c-4,9.5-9.3,22.4-12.8,30.2
					c0,0,2.5,6.6,10.3,4.9l0,0c2.7-5.8,7.4-11,14.2-20.2c5.9-8,8.2-15.1,9.1-19.3c0.5-2.6,2.5-4.6,5-5.2c6.9-1.7,21-5.3,35.9-10.5
					C184.3,285.5,178.4,267.2,178.4,267.2z"/>
				<path class="st15" d="M178.4,267.2l-15.1-3.5c0,0-41.9,21-48.1,24.2c-6.2,3.2-8.2,12.3-13.6,24.8c-4,9.5-9.3,22.4-12.8,30.2
					c0,0,2.5,6.6,10.3,4.9l0,0c2.7-5.8,7.4-11,14.2-20.2c5.9-8,8.2-15.1,9.1-19.3c0.5-2.6,2.5-4.6,5-5.2c6.9-1.7,21-5.3,35.9-10.5
					C184.3,285.5,178.4,267.2,178.4,267.2z"/>
				<path class="st14" d="M88.8,343c-1.1,2.6-2.1,4.6-2.8,5.7c-2.6,4.6-10.3,9.5-13,11.9c-2.7,2.3-3.3,3.2-0.7,5.2
					c6.5,5,12.2-0.5,15.8-4c2.9-2.7,6.5-5,8-5.9c0.4-0.2,0.7-0.7,0.8-1.1c0.4-2.5,1.1-4.7,2.1-6.9l0,0C91.3,349.6,88.8,343,88.8,343
					z"/>
			</g>
		</g>
		<polygon class="st13" points="162.4,281.5 136,296.8 92.2,271.4 118.5,255.9 		"/>
		<polygon class="st12" points="138.8,277.2 129,271.5 135.2,267.9 145,273.6 		"/>
		<polygon class="st12" points="134.9,293 148.2,285.1 122.2,269.4 		"/>
		<g>
			<path class="st14" d="M135.7,245.9l-10.6,4.9c-4.2,1-9.3,2.9-9.3,2.9s-7.3,3-7.7,5c-0.3,2,5.5,6.7,10.6,4.4
				c1-0.5,2.9-1.4,4.3-1.6c1.4-0.1,5.5-0.8,8.4-3.6l8.5-2.3C140,255.6,144.4,247.1,135.7,245.9z"/>
			<path class="st14" d="M128.8,260.6c-1.2,1.3-4.7,4.6-5.5,5.6c-0.8,1-2.6-1.5,0.6-5.2c0,0,4.2-1.4,7.6-4.1
				C131.6,256.9,130.1,259.3,128.8,260.6z"/>
		</g>
		<g>
			<path class="st2" d="M157.2,209.2L157.2,209.2c-5-0.8-9.9,2.1-11.5,7c-1,2.9-1.8,6.4-2.1,10.4c-0.9,10.9-1.2,16.3-1.2,16.3
				l-10.9,5c0,0,5.9,0.3,5.5,8.6l13.6-3.4L157.2,209.2z"/>
			<path class="st18" d="M157.2,209.2L157.2,209.2c-5-0.8-9.9,2.1-11.5,7c-1,2.9-1.8,6.4-2.1,10.4c-0.9,10.9-1.2,16.3-1.2,16.3
				l-10.9,5c0,0,5.8,0.3,5.5,8.6l13.6-3.4L157.2,209.2z"/>
			<path class="st2" d="M142.5,242.9c0,0,2.1,0.6,3.2,2c0,0-1.3-2.5-3.2-3.3L142.5,242.9z"/>
			<path class="st19" d="M142.5,242.9c0,0,2.1,0.6,3.2,2c0,0-1.3-2.5-3.2-3.3L142.5,242.9z"/>
		</g>
		<path class="st12" d="M152.5,184.6c0,0-6.7-2-4.3-9.6c2.4-7.6,19.6-10.9,32.6,0c0,0,9.1-1.4,9.1,11.3c0,12.7-5.1,18.5,2.7,21.8
			c0,0-4.8,4.5-8.6,0c0,0-0.8,9.9-15.4,6.5L152.5,184.6z"/>
		<path class="st2" d="M174.5,213.6l7.7,3.3v22.5c0,0-3.8,8.5-3.8,18.1c0,9.6,0,11.1,0,11.1s-15.7,5.6-27.8-0.5
			c-5.9-2.9-9.5-9.6-9.5-9.6s6.5-3.8,6.5-8.5c0-4.6-1.3-10.8-1.3-10.8s-4.5-4-3.7-10.9c0.9-7.4,14.8-19.1,14.8-19.1l5.2,0.7
			L174.5,213.6z"/>
		<g>
			<g>
				<g>
					<polygon class="st14" points="174.5,213.6 162.4,210 162.4,195.4 174.5,195.4 					"/>
				</g>
			</g>
			<path class="st20" d="M162.4,210c4.2-1.6,8.7-4.9,11-10.5v-4h-11V210z"/>
			<path class="st14" d="M159.6,175.7c0,0-11,0.6-9.6,19.4c0.6,8.7,2.7,13.2,9.4,12.9c7.6-0.4,18.4-5.6,17.6-20.5
				C176.3,172.7,159.6,175.7,159.6,175.7z"/>
			<path class="st12" d="M174.5,195.4c0,0-3,0.8-3-3.5c0,0-13.4-0.9-16.4-14.2c0,0,1.3-4,9.7-4s15.4,7.4,13.2,17.6L174.5,195.4z"/>
			<polygon class="st20" points="158.1,191.4 158.1,197.8 154.3,196.7 			"/>
			<g>
				<path class="st12" d="M163.8,192.1c0,0.7-0.6,1.3-1.3,1.3c-0.7,0-1.3-0.6-1.3-1.3c0-0.7,0.6-1.3,1.3-1.3
					C163.2,190.7,163.8,191.3,163.8,192.1z"/>
				<path class="st12" d="M155.1,191.1c0,0.7-0.6,1.3-1.3,1.3c-0.7,0-1.3-0.6-1.3-1.3c0-0.7,0.6-1.3,1.3-1.3
					C154.5,189.8,155.1,190.4,155.1,191.1z"/>
				<path class="st12" d="M152.2,188.4l2.6-1.5c0,0-1-1-2-0.4C151.8,187.1,152.2,188.4,152.2,188.4z"/>
			</g>
			<path class="st20" d="M158.4,200c0,0,2.5,0.2,4.2-1.1c0,0,0.3,2.2-1.6,2.7C159.2,201.9,158.4,200,158.4,200z"/>
			<path class="st14" d="M173.4,195.9c0-1.1,0.1-2.2,0.6-3.2c0.5-1.1,1.4-2.2,2.9-2.3c3.4-0.1,3.8,3.2,3.8,4.3
				c-0.1,3-2.6,6.3-7.2,6.4L173.4,195.9z"/>
		</g>
		<path class="st14" d="M162.4,210l-3.5,4.6c-1.7,2.2-1,5.4,1.5,6.7l0,0c3.2,1.7,7.2,0.9,9.5-2l4.6-5.7L162.4,210z"/>
		<g>
			<path class="st14" d="M162.4,265.4l-10.1,5.5c0,0-2.8-0.2-4.6,0c-1.8,0.2-6.5,1.1-7.7,1.1c-1.2,0.1-0.1,2.3,3.1,2.1
				c0,0-7.2,3.3-7.5,5.3c-0.3,2,5.8,6.5,10.8,4c1-0.5,2.8-1.5,4.2-1.7c1.4-0.2,5.4-1,8.3-4l8.4-2.7
				C167.4,275,171.2,266.3,162.4,265.4z"/>
			<g>
				<path class="st2" d="M182.1,216.8c0,0-6.1,4.2-5.1,17.2c1,13,0,23.6,0,23.6l-14.7,7.8c0,0,5,2.8,5,9.6c0,0,21.1-4.3,22.3-9.3
					c1.3-4.9,1.7-28.4,1.7-32.5C191.5,229.2,189.8,220.1,182.1,216.8z"/>
				<path class="st18" d="M182.1,216.8c0,0-6.1,4.2-5.1,17.2c1,13,0,23.6,0,23.6l-14.7,7.8c0,0,5,2.8,5,9.6c0,0,21.1-4.3,22.3-9.3
					c1.3-4.9,1.7-28.4,1.7-32.5C191.5,229.2,189.8,220.1,182.1,216.8z"/>
				<path class="st2" d="M177.1,257.6c0,0,2.6-0.1,4.7,0.9c0,0-1.7-1.5-4.6-2L177.1,257.6z"/>
				<path class="st19" d="M177.1,257.6c0,0,2.6-0.1,4.7,0.9c0,0-1.7-1.5-4.6-2L177.1,257.6z"/>
			</g>
		</g>
		<path class="st11" d="M86,242.4l4.6,30c0,0,0,0,0,0l45.5,26.4c0.1,0,0.1,0,0.1-0.1l-4.4-29.1c-0.2-1.3-0.9-2.4-2-3L88.1,241
			C87.1,240.4,85.9,241.2,86,242.4z"/>
		<path class="st12" d="M136.2,298.8l24.3-14.1c1.1-0.7,1.8-1.9,1.8-3.2l0,0L136,296.8L136.2,298.8z"/>
		<path class="st13" d="M112.4,271.3c0,2.1-1.5,3-3.4,1.9c-1.9-1.1-3.4-3.7-3.4-5.8c0-2.1,1.5-3,3.4-1.9
			C110.9,266.5,112.4,269.1,112.4,271.3z"/>
		<path class="st8" d="M157.2,240.8c0,0,9.2,2.5,14.1-4.4C171.3,236.4,168.2,245.3,157.2,240.8z"/>
	</g>
</g>
</svg>
