<svg xmlns="http://www.w3.org/2000/svg" width="43.73" height="58.584" viewBox="0 0 43.73 58.584">
  <g id="trophy" transform="translate(-59.584)">
    <path id="Path_747" data-name="Path 747" d="M162.021,37.287a.935.935,0,0,0,.769-1.075l-.9-5.431a.935.935,0,1,0-1.844.306l.9,5.431a.933.933,0,0,0,1.075.769Z" transform="translate(-87.926 -26.259)" fill="red"/>
    <path id="Path_748" data-name="Path 748" d="M180.012,113.668a5.119,5.119,0,0,1-5.071-4.288l-.9-5.431a.935.935,0,0,0-1.844.306l.9,5.431a6.982,6.982,0,0,0,6.915,5.851.935.935,0,1,0,0-1.87Z" transform="translate(-98.563 -90.307)" fill="red"/>
    <path id="Path_749" data-name="Path 749" d="M102.379,2.51H97.971a.935.935,0,0,0-.922.782l-.094.566a4.08,4.08,0,0,1-2.728,3.047l.966-5.817A.935.935,0,0,0,94.271,0H68.627a.935.935,0,0,0-.922,1.088l.966,5.817a4.08,4.08,0,0,1-2.728-3.047l-.094-.566a.935.935,0,0,0-.922-.782H60.519a.935.935,0,0,0-.935.935,21.581,21.581,0,0,0,3.457,12.124c2.125,3.1,4.927,4.908,7.959,5.17a10.741,10.741,0,0,0,7.105,7.7l0,5.17a9.042,9.042,0,0,0-5.7,7.528H69.18a.935.935,0,0,0-.935.935V57.649a.935.935,0,0,0,.935.935H93.718a.935.935,0,0,0,.935-.935V42.068a.935.935,0,0,0-.935-.935H90.5a9.042,9.042,0,0,0-5.7-7.528l0-5.17a10.741,10.741,0,0,0,7.105-7.7c3.032-.262,5.834-2.074,7.959-5.17a21.58,21.58,0,0,0,3.457-12.124A.934.934,0,0,0,102.379,2.51ZM61.472,4.38h2.667A5.985,5.985,0,0,0,69,8.9l1.647,9.916C65.69,18.007,61.773,11.912,61.472,4.38ZM92.783,56.714H70.115V43H92.783V56.714ZM88.618,41.133H74.28A7.187,7.187,0,0,1,79.187,35.2h4.523A7.187,7.187,0,0,1,88.618,41.133Zm-5.693-7.8H79.972l0-4.465a10.653,10.653,0,0,0,2.95,0ZM81.449,27.1a8.846,8.846,0,0,1-8.76-7.415L69.73,1.87H93.168L90.208,19.685A8.846,8.846,0,0,1,81.449,27.1Zm10.8-8.288L93.9,8.9A5.985,5.985,0,0,0,98.759,4.38h2.667C101.125,11.912,97.208,18.007,92.249,18.813Z" fill="red"/>
    <path id="Path_750" data-name="Path 750" d="M159.073,360.935v8.1a.935.935,0,0,0,.935.935h10.826a.935.935,0,0,0,0-1.87h-9.891V361.87h15.189V368.1h-1.558a.935.935,0,1,0,0,1.87h2.493a.935.935,0,0,0,.935-.935v-8.1a.935.935,0,0,0-.935-.935H160.008A.935.935,0,0,0,159.073,360.935Z" transform="translate(-87.088 -315.127)" fill="red"/>
  </g>
</svg>
