<svg xmlns="http://www.w3.org/2000/svg" width="46.893" height="46.892" viewBox="0 0 46.893 46.892">
  <g id="fnOVmC_1_" transform="translate(-4.949 -4.95)">
    <g id="Group_2440" data-name="Group 2440" transform="translate(5.7 5.7)">
      <path id="Path_761" data-name="Path 761" d="M24.712,47.6a3.6,3.6,0,0,0-.512-.359c.1-.154.1-.256.2-.307a13.5,13.5,0,0,1,2.1-1.383c1.9-.768,3.842-1.383,5.738-2.1,1.23-.461,1.434-1.332.615-2.357a9.878,9.878,0,0,1-2.152-8.966,6.62,6.62,0,0,1,8.248-4.918,7.131,7.131,0,0,1,5.226,7.89,11.35,11.35,0,0,1-2.613,6.3,1.263,1.263,0,0,0,.615,2.049c1.844.666,3.74,1.281,5.584,2a32.682,32.682,0,0,1,2.869,1.588,4.9,4.9,0,0,1-.666.564c-1.383-.666-2.51-1.281-3.74-1.793-1.486-.615-3.074-1.025-4.56-1.639a2.2,2.2,0,0,1-.768-3.484,8.978,8.978,0,0,0,2.2-8.146,5.7,5.7,0,0,0-6.4-4.611,5.97,5.97,0,0,0-5.328,5.789,9.19,9.19,0,0,0,2.408,6.968,2.239,2.239,0,0,1-.768,3.484c-1.793.717-3.689,1.281-5.482,1.947C26.608,46.522,25.737,47.086,24.712,47.6Z" transform="translate(-14.722 -16.09)" fill="red"/>
      <path id="Path_762" data-name="Path 762" d="M54.2,43.026A17.716,17.716,0,0,0,39.856,14.9,17.564,17.564,0,0,0,29.2,18.486" transform="translate(-17.16 -10.187)" fill="none" stroke="red" stroke-linecap="round" stroke-miterlimit="10" stroke-width="1.5"/>
      <path id="Path_763" data-name="Path 763" d="M18.576,29.8a17.74,17.74,0,0,0,14.55,27.87A17.247,17.247,0,0,0,42.912,54.7" transform="translate(-10.43 -17.453)" fill="none" stroke="red" stroke-linecap="round" stroke-miterlimit="10" stroke-width="1.5"/>
      <path id="Path_764" data-name="Path 764" d="M22.2,55.288A22.7,22.7,0,0,0,55.04,24.6" transform="translate(-13.747 -14.917)" fill="none" stroke="red" stroke-linecap="round" stroke-miterlimit="10" stroke-width="1.5"/>
      <path id="Path_765" data-name="Path 765" d="M42.177,10.362A22.7,22.7,0,0,0,9.8,41.409" transform="translate(-5.7 -5.7)" fill="none" stroke="red" stroke-linecap="round" stroke-miterlimit="10" stroke-width="1.5"/>
      <circle id="Ellipse_122" data-name="Ellipse 122" cx="1.793" cy="1.793" r="1.793" transform="translate(38.936 6.814)" fill="#fff" stroke="red" stroke-linecap="round" stroke-miterlimit="10" stroke-width="1.447"/>
      <circle id="Ellipse_123" data-name="Ellipse 123" cx="1.793" cy="1.793" r="1.793" transform="translate(2.613 34.274)" fill="#fff" stroke="red" stroke-linecap="round" stroke-miterlimit="10" stroke-width="1.447"/>
      <circle id="Ellipse_124" data-name="Ellipse 124" cx="1.434" cy="1.434" r="1.434" transform="translate(10.246 7.172)" fill="#fff" stroke="red" stroke-linecap="round" stroke-miterlimit="10" stroke-width="1.181"/>
      <circle id="Ellipse_125" data-name="Ellipse 125" cx="1.434" cy="1.434" r="1.434" transform="translate(31.047 35.76)" fill="#fff" stroke="red" stroke-linecap="round" stroke-miterlimit="10" stroke-width="1.181"/>
    </g>
  </g>
</svg>
