<svg xmlns="http://www.w3.org/2000/svg" viewBox="0 0 507 305"><defs><style>.cls-1{isolation:isolate;}.cls-2{fill:#e7f5fe;}.cls-10,.cls-12,.cls-13,.cls-23,.cls-3,.cls-4,.cls-7{fill:none;}.cls-3,.cls-4,.cls-7{stroke:#d2e8f9;}.cls-10,.cls-12,.cls-23,.cls-3,.cls-4{stroke-miterlimit:10;}.cls-4{stroke-dasharray:4.01 4.01;}.cls-5{fill:#f0faff;}.cls-6{fill:#b5ddf7;}.cls-13,.cls-7{stroke-linecap:round;stroke-linejoin:round;}.cls-8{fill:#f21a1a;}.cls-9{fill:#ffb288;}.cls-10{stroke:#d3251f;}.cls-10,.cls-12,.cls-23{stroke-width:0.5px;}.cls-11{fill:#d9f0ff;}.cls-12{stroke:#94c1f2;}.cls-13{stroke:#b4e8fd;stroke-width:5px;}.cls-14,.cls-16{fill:#fdae2b;}.cls-15{fill:#ff8d00;}.cls-16{opacity:0.5;mix-blend-mode:multiply;}.cls-17{fill:#ffc840;}.cls-18{fill:#ef8417;}.cls-19{fill:#7c190e;}.cls-20{fill:#ef9467;}.cls-21{fill:#e2e8ed;}.cls-22{fill:#b6e9fe;}.cls-23{stroke:#6cb1ef;}.cls-24{font-size:16.81px;fill:#fff;font-family:Roboto-Regular, Roboto;letter-spacing:-0.03em;}</style></defs><title>404-01</title><g class="cls-1"><g id="OBJECTS"><path class="cls-2" d="M454.06,253.05c-2.7-5.15-13.68-9.29-18.59-10.23-26.22-5-53.68-4.3-80.24-4.22-28.92.09-56.51,4.72-85.2,6.87-14.92,1.11-30.68-.89-45.63-1.41q-36.93-1.29-73.84-3c-21.22-1-43.24,1.23-62,12.93-2.13,1.33-4.28,2.94-5.24,5.33-6.08,15,69.69,13.1,79.56,13.36,49.8,1.29,99.63,2,149.43.61,37-1,75.62-.94,112.35-6.16,8.12-1.16,19.17-1.57,26.19-6.35C454.77,258.12,455.33,255.48,454.06,253.05Z"/><path class="cls-3" d="M421.82,48.49c.65,0,1.32,0,2,0"/><path class="cls-4" d="M427.83,48.81c12.91,1.31,28.68,6.76,26.84,17.93-2.94,17.81-82.08,11.24-101,11.43-38,.37-76.43.51-113.7,8.82-9.06,2-22,6.48-21.05,18.05.34,4,2.72,7.69,5.75,10.43,10.88,9.82,26.05,10.77,40.13,12.49,21.29,2.61,122.58-.87,155.68,10,6.52,2.14,14.67,4.89,14.94,14.21.69,23.68-58.13,22.51-75.77,23-47.09,1.21-94.23.73-141.32-.2-38-.75-76.23-1.42-114.22-3.87C90,170.13,66.8,169.86,56,159.23c-6-5.95-6.83-16.76,2.72-22.28,6.73-3.89,26.47-2.19,34.07-2.84,23-2,16-15.92-2.59-17.7"/><path class="cls-3" d="M88.19,116.27c-.65,0-1.32,0-2,0"/><path class="cls-5" d="M423.17,65.81l-6.06-32.05A2.53,2.53,0,0,0,413,32.31L388.24,53.58a2.53,2.53,0,0,0,.82,4.31l30.79,10.78A2.53,2.53,0,0,0,423.17,65.81Z"/><path class="cls-6" d="M418.5,65.32a1.58,1.58,0,0,1-.52-.09l-25.32-8.86a1.57,1.57,0,0,1-.51-2.68l20.34-17.5a1.58,1.58,0,0,1,2.57.9l5,26.36a1.6,1.6,0,0,1-.52,1.49A1.58,1.58,0,0,1,418.5,65.32ZM394,54.73,418,63.1l-4.72-24.91Z"/><path class="cls-6" d="M407.5,54.56h0a1,1,0,0,1-.59-1.17l2.51-8.81a1.49,1.49,0,0,1,1.92-1h0a1.49,1.49,0,0,1,.89,2L408.7,54A1,1,0,0,1,407.5,54.56Z"/><path class="cls-6" d="M407.69,57a1,1,0,1,1-.59-1.23A1,1,0,0,1,407.69,57Z"/><path class="cls-5" d="M84.27,105.44,64.34,95.52a1.73,1.73,0,0,0-2.5,1.65l1.37,22.23a1.73,1.73,0,0,0,2.68,1.33l18.56-12.3A1.73,1.73,0,0,0,84.27,105.44Z"/><path class="cls-6" d="M82.08,107.78a1,1,0,0,1-.26.24L66.55,118.14a1.08,1.08,0,0,1-1.07.07,1.1,1.1,0,0,1-.6-.9L63.75,99a1.08,1.08,0,0,1,1.55-1l16.4,8.17a1.1,1.1,0,0,1,.6.89A1.14,1.14,0,0,1,82.08,107.78Zm-15.86,9,14.42-9.57L65.15,99.45Z"/><path class="cls-6" d="M71.69,109.32h0a.65.65,0,0,1-.88-.16l-3.76-5a1,1,0,0,1,.26-1.45h0a1,1,0,0,1,1.43.33l3.15,5.41A.65.65,0,0,1,71.69,109.32Z"/><path class="cls-6" d="M73.07,110.21a.66.66,0,1,1-.91-.19A.66.66,0,0,1,73.07,110.21Z"/><circle class="cls-3" cx="98.08" cy="148.6" r="1.66"/><circle class="cls-3" cx="344.5" cy="117.88" r="1.66"/><circle class="cls-3" cx="213.76" cy="71.36" r="1.66"/><circle class="cls-3" cx="211.77" cy="197.61" r="1.66"/><line class="cls-7" x1="250.46" y1="99.86" x2="250.46" y2="103.61"/><line class="cls-7" x1="252.33" y1="101.74" x2="248.58" y2="101.74"/><line class="cls-7" x1="317.87" y1="51.87" x2="317.87" y2="55.63"/><line class="cls-7" x1="319.74" y1="53.75" x2="315.99" y2="53.75"/><line class="cls-7" x1="422.16" y1="153.18" x2="422.16" y2="156.94"/><line class="cls-7" x1="424.03" y1="155.06" x2="420.28" y2="155.06"/><path class="cls-8" d="M284.17,260.55s-7,3-7,4.48c0,.85,9.61-.37,10.19-.95.93-.93-.38-3.4-.38-3.4Z"/><path class="cls-9" d="M283.72,256.38l.45,4.3a1.3,1.3,0,0,0,1.21.77,2,2,0,0,0,1.62-.77l-.34-5.38"/><path class="cls-8" d="M295.93,157.81c2.55,10.24,1.6,15.45-2.12,23.18-2.26,26-3.84,51.87-6.87,77.21l-3.22.18c-7.29-24.67-14-61.55-13.15-95.26"/><path class="cls-10" d="M294.35,161.33a19.38,19.38,0,0,1,1.08,7.59c-.12,3.89-1.7,7.4-2.73,11.09-1.36,4.92-1.47,9.82-1.84,14.86q-.87,11.82-1.78,23.65-1.47,19.29-3,38.58l-.09,1.15"/><path class="cls-8" d="M312.05,261.55s-7,3-7,4.48c0,.85,9.62-.37,10.19-.95.93-.93-.37-3.4-.37-3.4Z"/><path class="cls-9" d="M311.6,257.38l.45,4.3a1.3,1.3,0,0,0,1.21.77,2,2,0,0,0,1.62-.77l-.35-5.38"/><path class="cls-8" d="M319.18,156.94c3.22,10.05,2.62,15.31-.59,23.27-.53,26.08-2.32,53.31-3.68,78.79h-3.3c-8.91-24.13-18.46-61.39-19.83-95.08"/><path class="cls-10" d="M317.59,161.1s3.72,8.73-2.58,21c-.72,11.56-1.1,76.92-1.1,76.92"/><path class="cls-10" d="M308.37,163.87A5.73,5.73,0,0,0,311.1,166a13.73,13.73,0,0,0,3.41.78,24.06,24.06,0,0,0,4.15.21"/><path class="cls-10" d="M308.82,165.5a9.54,9.54,0,0,0,4.27,2.11,22.58,22.58,0,0,0,4.78.45"/><path class="cls-9" d="M281,108.34c-11.12,19.35-23.08,36.87-30.18,58l-2.11-1.13c.54-19.64,6.9-48.2,15.26-66"/><path class="cls-11" d="M275.59,88.14a29.62,29.62,0,0,0-7.49,3.66,25.48,25.48,0,0,0-8.64,10.43,47.15,47.15,0,0,0-3.72,13.14,34.88,34.88,0,0,0,10,3,53.31,53.31,0,0,0,11,0"/><path class="cls-11" d="M267.3,99.58c-1.18,20.92-.28,42.44.25,62.8,0,0,7.3,1.94,25,1.94s29.23-5.39,29.23-5.39c-3.42-20.91-6.15-46.58-14.52-63.8,0,0-9.46-10.2-18.79-10.62A12.18,12.18,0,0,0,283,86c-1.32.61-7.37,2.09-7.37,2.09Z"/><path class="cls-12" d="M267.2,101.44c-.46,4-.46,16.44-.46,16.44"/><path class="cls-13" d="M284.83,169c29.62-3.28,42,34.25,48.78,48.82,15.94,34.42,76.09,30.58,103.49,30.58,35.9,0,51.65,12.09,34.9,18.44"/><path class="cls-14" d="M295,170.66c0,15.23-11.53,24.43-21.39,24.43H257.49V146.23h16.16C283.51,146.23,295,155.42,295,170.66Z"/><path class="cls-15" d="M286.71,170.66c0,14.88-8.82,27-19.69,27H249.18V143.7H267C277.89,143.7,286.71,155.77,286.71,170.66Z"/><path class="cls-16" d="M290.66,155.93q-5.79,7.89-11.27,16a2.81,2.81,0,0,0,1.38-.73c0,.41-.64,1.11-.07,1.37s1.17-.41,1.77-.23c.56-.13,1.08-.83,1.49-1.23a2.72,2.72,0,0,0-.25.94c3.93-1.53,7.45-5.2,10.51-8.15A24.58,24.58,0,0,0,290.66,155.93Z"/><ellipse class="cls-17" cx="250.46" cy="170.66" rx="19.69" ry="26.95"/><path class="cls-18" d="M252.1,180.21c0,2.21-1.51,4-3.37,4s-3.38-1.79-3.38-4,1.51-4,3.38-4S252.1,178,252.1,180.21Z"/><path class="cls-18" d="M252.1,161.1c0,2.22-1.51,4-3.37,4s-3.38-1.79-3.38-4,1.51-4,3.38-4S252.1,158.89,252.1,161.1Z"/><path class="cls-9" d="M312.66,115s1.25,12.73-4.44,23.32c-4.87,9-14.54,20.77-22.35,27.23l-1.88-.46c2.72-10.43,11.3-29,11.84-35.91s.4-15,.53-18.87"/><path class="cls-11" d="M288.49,84.51s10.48.72,16.56,5.86c8.68,7.33,10,21.68,10,25-2.62,2.83-8.35,3-12.53,3a14.39,14.39,0,0,1-7.23-2l-.86-15.84"/><path class="cls-9" d="M284.75,163.56A6.7,6.7,0,0,0,281.4,165c-.92.72-2,1.92-1.93,2.47s1.63-.53,1.81-.31-2.57,4.39-2,4.7,2.86-3.46,2.86-3.46-2.28,4-1.39,4.12c.73.07,2.76-3.74,2.76-3.74s-1.71,3.41-1.13,3.54,2.17-3.27,2.17-3.27-1.29,2.9-.79,2.95c.25,0,1.52-1.42,2.05-3.17s1.14-3.21.67-4.56"/><line class="cls-12" x1="295.68" y1="102.2" x2="295.68" y2="116.62"/><path class="cls-8" d="M266.77,71.21c0,.62-.08,1.25-.07,1.88a6.71,6.71,0,0,0,1,3.89,4.05,4.05,0,0,0,2.25,1.58c.63.18,1.47.1,1.74-.5a1.59,1.59,0,0,0,.11-.69,18.62,18.62,0,0,0-1.33-6.8"/><path class="cls-9" d="M282.59,72.52c-.9-3.51-3.73-8.41-8.33-7.43a8.42,8.42,0,0,0-6.4,5.34c-1,3.29.63,7.12,2.6,9.81a8.08,8.08,0,0,0,2.72,2.51c2.66,1.38,6.25.25,8.06-2A9.44,9.44,0,0,0,282.59,72.52Z"/><path class="cls-9" d="M276.13,81.68l1.51,5.49-2.05,1a5,5,0,0,0,4.65,1.63c6.28-.9,8.25-5.26,8.25-5.26L285,84.14,281,77.46"/><path class="cls-8" d="M285.65,68.69A8.84,8.84,0,0,0,281.4,63c-3.72-2.26-9-2.44-12.31.67-1.89,1.77-5.28,8-1.22,9.29,1.26.39,2.56-.38,3.66-1.11l3.36-2.25a2.63,2.63,0,0,1,1.32-.56,2,2,0,0,1,1.73,1.39,19.9,19.9,0,0,1,.49,2.32,2.22,2.22,0,0,0,.84,1.41,1,1,0,0,0,1.45-.3,2.47,2.47,0,0,0,0-1.15c0-.39.22-.86.6-.85a.69.69,0,0,1,.38.17c1,.76.66,2.28,1,3.48,0,.16-.28,2.58-.17,2.7C285.67,77.46,286,70.42,285.65,68.69Z"/><path class="cls-9" d="M281,72.14a.87.87,0,0,1,.8-.9,1.68,1.68,0,0,1,1.22.47,2.67,2.67,0,0,1,1,2,3,3,0,0,1-.55,1.68,1.77,1.77,0,0,1-.9.79,1.44,1.44,0,0,1-1.41-.45"/><path class="cls-8" d="M169.68,260.4s6.74,1.12,6.92,2.61c.11.84-9.45,1.86-10.1,1.36-1-.8.24-3.8.24-3.8Z"/><path class="cls-9" d="M169.14,256.26l.55,4.27a1.31,1.31,0,0,1-1.1.92,2,2,0,0,1-1.71-.56l-.79-5.32"/><path class="cls-8" d="M143.93,159.12c-1.2,10.49-1.27,15.53,3.42,22.72,2.22,10.15,5.63,20.53,8.21,30.92-1.11,12.41,6.66,32.17,10.85,46.28l3-.51c4.07-25.41,5.57-64.36,1.92-98.46"/><path class="cls-10" d="M145.9,173.33s11.6,36.84,11.6,38.84.32,8.87.83,13.33c.94,8.17,8.34,32.24,8.34,32.24"/><polygon class="cls-19" points="166.31 259.61 165.84 257.77 169.74 257.63 169.8 259.32 166.31 259.61"/><path class="cls-8" d="M117.23,260.61s5.28,3.81,4.81,5.15c-.27.77-8.85-2.41-9.19-3.11-.55-1.12,1.8-3.14,1.8-3.14Z"/><path class="cls-9" d="M118.52,256.86l-1.33,3.86a1.25,1.25,0,0,1-1.33.33,2,2,0,0,1-1.22-1.2l1.58-4.88"/><path class="cls-8" d="M121.27,156.94c-3.22,10.05-2.62,15.31.58,23.27.2,9.52.3,19.16.4,28.8-6.78,17-7.86,32.23-7,48.41l3.27,1.21s19.49-34,23.08-47.39a221.86,221.86,0,0,0,7.07-47.32"/><path class="cls-10" d="M122.07,159.12s-3.55,10.38,1.1,20.38c0,2.79,1.6,26,1,29.58-.3,1.72-3.49,9.93-5.62,17.91-2.35,8.84-2.85,29.67-2.85,29.67"/><polygon class="cls-19" points="114.64 257.42 115.16 255.23 119.35 257.18 118.53 259.05 114.64 257.42"/><path class="cls-20" d="M175.77,79.28,173.15,77V72.4c0-.72-1-5-1.86-5s-1.08-1.08-1.52-.64.36,5.32,0,5.68-.83-2.32-1.16-2-.36,2.3-.36,3.31a6.66,6.66,0,0,0,1.6,3.65c.8.8,4.32,4.61,4.32,4.61Z"/><path class="cls-11" d="M174.46,77.8l-2.2,2.49s8.67,11.48,11.42,15.32a44.91,44.91,0,0,1-8.18-4.44c-4.08-2.67-8.17-4.09-11-4.09-6,0-2.87,19.8,4.1,22.69,13.21,2,28,.73,30.29-3.91C202.27,99,182.9,82.76,174.46,77.8Z"/><path class="cls-12" d="M183.68,95.61s1.65,4.62,4.59,6.13"/><path class="cls-11" d="M134.16,92.32c-15.75,17.69-15.51,48.11-15.51,68.79,0,0,11.56,7.89,29.22,7.89s25-4.35,25-4.35c.53-21-3.21-30,.25-64.63,0,0-5.64-12.94-8.64-12.94s-14.76-1.16-14.76-1.16Z"/><path class="cls-12" d="M172.28,110.24s.35-6,1.82-7.52"/><path class="cls-9" d="M155,72.66c.59-3.57,3.13-8.67,7.8-8.09,2.93.36,5.21,2.38,6.85,4.75,1.41,2,.87,4-1.13,9.13a13.41,13.41,0,0,1-3.08,3.62c-2.54,1.6-6.22.79-8.22-1.33A9.64,9.64,0,0,1,155,72.66Z"/><path class="cls-8" d="M155.58,72.22c.67-.1,0-.53.3.08.19.39.24.5.63.63s.38.47.69.7c.48.36.9-.13,1.1-.55a4.67,4.67,0,0,0,.28-2.54c-.07-.66-.29-1.7.36-2.16s1.69.17,2.23.33c.84.24,1.67.51,2.5.76a14.68,14.68,0,0,0,6.25.87,6,6,0,0,0,4.65-2.93c1.06-2-1.06-4.74-3.22-4.74a8.58,8.58,0,0,0-1.66.34,1.19,1.19,0,0,1-.62,0c-.47-.14-.68-.67-.95-1.08a3.54,3.54,0,0,0-3.58-1.47,28.12,28.12,0,0,0-4.5,1.36,8.94,8.94,0,0,1-2.31,0,2.47,2.47,0,0,0-2.06,1.35c-.65-.69-2.11,1-2.47,1.43-1.6,1.94-2.11,4.74-2.15,7.2,0,2.15.32,5.27,2.67,6.13,1,.37,1.63.57,1.67-.35a14.07,14.07,0,0,1-.63-3.61,1.9,1.9,0,0,1,.88-2"/><path class="cls-9" d="M163.24,81.19l-.51,5.39,1.78.5a5,5,0,0,1-4,2.84c-6.29.83-10.73-4-10.73-4l2.09-.4,3.18-10"/><path class="cls-9" d="M156.63,72.18a.87.87,0,0,0-.88-.82,1.64,1.64,0,0,0-1.17.57c-1.76,1.75.45,6,2.18,3.81"/><path class="cls-8" d="M168.48,78.36c-.28.66-1.4.93-2,1-3,.33-5.41-1.58-8.24-1.93a1.5,1.5,0,0,0-2.06,1.76,16.36,16.36,0,0,0,0,2,3.74,3.74,0,0,0,.46,1.64c1.28,2.13,5.54,2.49,7.71,2.36a4.53,4.53,0,0,0,2.46-.74c1-.74,1.19-2,1.55-3.15A6.21,6.21,0,0,0,168.48,78.36Z"/><path class="cls-9" d="M166.38,80.69a.52.52,0,0,0-.31-.12,30.06,30.06,0,0,1-3.23-.41,1.46,1.46,0,0,0-.55,0,1.14,1.14,0,0,0-.68.9.77.77,0,0,0,.47.87,5.07,5.07,0,0,0,2.07.45,3,3,0,0,0,1.94-.35C166.38,81.81,166.81,81,166.38,80.69Z"/><path class="cls-13" d="M153.37,158.77c-34.41-1.8-54.44,16-68.67,48.31-18.47,42-44.28,45.34-55.9,45.1"/><path class="cls-14" d="M140.17,161.57c1.27,15.19,13.52,23.39,23.34,22.57l16.11-1.34-4.06-48.69-16.11,1.34C149.63,136.27,138.9,146.39,140.17,161.57Z"/><path class="cls-15" d="M148.47,160.88c1.24,14.84,11,26.13,21.86,25.23l17.78-1.49-4.48-53.72-17.78,1.48C155,133.29,147.23,146.05,148.47,160.88Z"/><ellipse class="cls-17" cx="184.6" cy="157.87" rx="19.69" ry="26.95" transform="translate(-12.48 15.89) rotate(-4.77)"/><path class="cls-14" d="M183.75,167.52c.19,2.21,1.84,3.87,3.7,3.72s3.21-2.07,3-4.28-1.84-3.86-3.7-3.71S183.57,165.32,183.75,167.52Z"/><path class="cls-14" d="M182.16,148.49c.19,2.2,1.84,3.86,3.7,3.71s3.21-2.07,3-4.27-1.84-3.87-3.7-3.72S182,146.28,182.16,148.49Z"/><path class="cls-21" d="M186.09,151l25.12-2.09a2.8,2.8,0,0,0,2.54-3h0a2.8,2.8,0,0,0-3-2.57l-25.12,2.1C183.7,145.54,184.06,151.15,186.09,151Z"/><path class="cls-21" d="M187.67,170l25.13-2.1a2.79,2.79,0,0,0,2.54-3h0a2.8,2.8,0,0,0-3-2.57l-25.12,2.09C185.28,164.57,185.65,170.19,187.67,170Z"/><path class="cls-9" d="M125.77,115s-1.25,12.73,4.44,23.32c4.87,9,14.54,20.77,22.36,27.23l1.88-.46c-2.72-10.43-11.31-29-11.84-35.91s-.41-15-.54-18.87"/><path class="cls-11" d="M149.75,85.92s-11.05.64-17.4,5.44c-11,8.29-8.82,30.56-5.63,41.45S145.3,160,150.26,163.56c.82,0,3.21-.2,3.12-2.07-2.75-8.5-10.57-30.83-10.57-30.83L144,100.53"/><path class="cls-9" d="M153.68,163.56A6.66,6.66,0,0,1,157,165c.92.72,2.05,1.92,1.93,2.47s-1.63-.53-1.81-.31,2.58,4.39,2.06,4.7-2.87-3.46-2.87-3.46,2.28,4,1.4,4.12-2.76-3.74-2.76-3.74,1.71,3.41,1.12,3.54-2.17-3.27-2.17-3.27,1.29,2.9.8,2.95c-.25,0-1.53-1.42-2.06-3.17s-1.13-3.21-.66-4.56"/><path class="cls-12" d="M145.9,139.54c-1.76-5.07-3.09-8.88-3.09-8.88l2.31-25.28"/><path class="cls-12" d="M124.2,111.52c-.06,6.86.77,15.3,2.52,21.29,1.54,5.24,5.9,11.75,10.57,17.48"/><path class="cls-9" d="M360.36,74.27l1.77-1.21a30.2,30.2,0,0,1,1.28-4.56,10.83,10.83,0,0,1,2.43-3c.43-.29,2.41-1.41,2.91-.91.24.25-.59,2.48-1,2.87s-1.51,2.09-1.34,2.63,1.11-.64,1.34-.86.52-.5.62-.21a8,8,0,0,1-1.61,4,5,5,0,0,1-2.93,1.52L361.11,77"/><path class="cls-8" d="M381.74,61.56a12.51,12.51,0,0,1,5.46,8.25,3.41,3.41,0,0,0,.64,1.65,3.49,3.49,0,0,0,1.21.74,10,10,0,0,1,5.16,5.86c.36,1.07.08,2.6.5,3.52.52,1.13,2.44,1.38,3.47,1.73a7.85,7.85,0,0,1,.15,14.86,4.84,4.84,0,0,1,.56,4.08,9.39,9.39,0,0,1-2.15,3.63A20.07,20.07,0,0,1,381,112.37a14.64,14.64,0,0,1-4.94-1,19.56,19.56,0,0,1-4.82-3.08,14.92,14.92,0,0,1-4.57-5.12c-1-2.09-.91-4.83.73-6.45a5,5,0,0,1-5-2.26,7.3,7.3,0,0,1-.83-5.6,13.92,13.92,0,0,1,2.59-5.17,8.06,8.06,0,0,0,1.93-3.55c.29-2.26-1-4.28-1.3-6.52-.51-3.49-.35-6.49,2.64-8.35,1-2.49,2.12-4.41,4.87-5.14A12.07,12.07,0,0,1,381.74,61.56Z"/><path class="cls-22" d="M374.55,88.1c-10-2.61-21.39,1.51-23.94,1.5,3.49-3.49,9.88-11.24,12.09-13.93a2.43,2.43,0,0,0-1.12-2.35S334.22,87.47,337,96.71c2.87,9.64,29.68,4.91,31.82,7.68"/><path class="cls-9" d="M376.5,177.89c0,.82-3.6,18.38-3.86,20.27-.77,5.49,2.13,11,1.85,19.5-.34,10.35-4.74,38.16-5.3,39.39s-3.24.1-3.24.1-7.74-37.3-8.17-52.56c-.36-12.58,1.46-39.79,1.46-39.79"/><path class="cls-8" d="M369.46,257.53a4.47,4.47,0,0,1,.43,1.37c-.06,1.16-.09,2-.09,2l-.51,0-.17-.94a7.86,7.86,0,0,0-2.7,1.13c-.66.43-4,.39-4.49.12a.67.67,0,0,1-.21-1.07c.19-.22,3.77-1.79,3.77-1.79"/><path class="cls-9" d="M366,257.15c-.29.7-3.13,2.25-2.87,2.46a6.74,6.74,0,0,0,3.74-.4c1.67-.55,2.61-1.17,2.66-1.61l-.32-1.17"/><path class="cls-9" d="M401.33,178.62c0,.82-3,18.48-3.25,20.38-.6,5.51,2.47,10.92,2.45,19.44,0,10.35-3.58,38.28-4.1,39.53s-3.24.2-3.24.2-8.87-37.05-9.77-52.3c-.74-12.55.26-39.81.26-39.81"/><path class="cls-8" d="M396.72,258.44a4.45,4.45,0,0,1,.47,1.35c0,1.16,0,1.95,0,1.95l-.5.05-.2-.94a8.18,8.18,0,0,0-2.67,1.21c-.64.46-4,.52-4.48.27a.68.68,0,0,1-.25-1.07c.19-.22,3.73-1.9,3.73-1.9"/><path class="cls-9" d="M393.19,258.17c-.27.71-3.05,2.34-2.78,2.54a6.58,6.58,0,0,0,3.72-.51c1.64-.6,2.57-1.25,2.61-1.69l-.36-1.16"/><path class="cls-8" d="M392.31,133.44s7.92,5.2,10.95,17.65c4.07,16.8-1.93,49.69-1.93,49.69a101.28,101.28,0,0,1-25.92,3.51c-13.51-.11-21.51-4.68-21.53-5.49s-2-25.72.73-42.61c3.08-19,10.92-24.07,10.92-24.07"/><path class="cls-22" d="M381.56,87.78c1.23-.46,4.42.66,10.39,3,2.62,2.83,3.77,9,4.33,14.55-1.55,13.4-3.27,20.71-2.44,25.23.2,1.07,1.18,1.88,1,3.38-.32,3.08-5.38,3.55-15,4.64s-18.25-3.27-17.73-4.63,2.16-2.56,2.42-3.46,1-12.38,0-13.74-3.71-5.28-3.71-9.09c0-5.38,3-7.79,4.89-10.74,3.23-4.92,5.68-8,8.8-8.77C379.55,86.86,381.56,87.78,381.56,87.78Z"/><path class="cls-23" d="M365.4,94.57a7,7,0,0,1-.83,4.23c-.36.59-2.54,2.81-3,4.22"/><path class="cls-9" d="M379.26,81.24c2.62-2.6,3-7.54,1.85-10.88-1.34-3.76-6.7-6.57-10.39-4.22C363.49,70.76,370.83,89.62,379.26,81.24Z"/><path class="cls-9" d="M374.27,80.78l.14,8s-.3,1.79,2.84,1.9c4.31.15,4.31-2.94,4.31-2.94l-2.49-8.28"/><path class="cls-8" d="M377.53,62.59a2.44,2.44,0,0,0-2.75-.06,16.53,16.53,0,0,1-1.54,1.14,9.27,9.27,0,0,1-1.38.34,7.84,7.84,0,0,0-4.95,4.16c-.88,2-.6,5.25,1.06,6.68a10,10,0,0,1,1.22-5.08,2.22,2.22,0,0,1,1.92-1.28c.91.11,1.4,1.08,2.06,1.71a6.43,6.43,0,0,0,3.72,1.36c1.48.22,2.62.48,3.35,1.93a9.55,9.55,0,0,1,.66,2,13.79,13.79,0,0,1,.46,2.47,6.14,6.14,0,0,0,.16,1.55,3.41,3.41,0,0,0,2.32,1.93c.76.25,2,.49,2.52-.37a8.81,8.81,0,0,0,.88-2.54,11.39,11.39,0,0,0-1.86-7.81c-1.6-2.55-3.87-4.25-5.93-6.37A12.22,12.22,0,0,0,377.53,62.59Z"/><path class="cls-9" d="M379.55,75a1.72,1.72,0,0,1,1.24-1.33c2-.31,1.74,2.74.95,3.82-.46.62-1.65,1.44-2.19-.29"/><path class="cls-9" d="M401.26,137.55l-1,2.06s-3.63.86-4,1.5c-.61,1-1.52,2.41-1.52,3.2s.08,4.29,1.07,4.29c.63,0,2.09-2.85,2.39-3.25.71-.93,3.59-1.62,3.59-4.09l1.76-3.71"/><path class="cls-22" d="M381.56,87.67s8.48-2.16,15.1,2c5.15,3.24,18.4,19.41,18.4,28.67,0,6.24-12.39,21.7-12.39,21.7l-2.06-1.47s1.2-12.15,4.81-18.85c-2.66-2.65-13-10.9-15.62-13.51"/><path class="cls-23" d="M388.45,105.39c1.85,1.65,6.73,5.57,6.73,5.57"/><path class="cls-15" d="M138.46,73.36,128.22,65.1s4.6-17-1.49-22.95a33.26,33.26,0,0,0-11.59-6.93c-9.42-3.58-20.68-4.39-29.08,1.19-6.2,4.11-10,11.16-11.65,18.4C72.92,61.19,73,68.44,77,73.63a20.45,20.45,0,0,0,6.85,5.45c8.11,4.25,29.54,5.85,38.85-.38,2.57-1.73,2.35-4.06,3.43-7.71Z"/><text class="cls-24" transform="translate(80.58 63.7)">Oops!</text></g></g></svg>