<?xml version="1.0" encoding="utf-8"?>
<!-- Generator: Adobe Illustrator 22.0.1, SVG Export Plug-In . SVG Version: 6.00 Build 0)  -->
<svg version="1.1" id="Layer_1" xmlns="http://www.w3.org/2000/svg" xmlns:xlink="http://www.w3.org/1999/xlink" x="0px" y="0px"
	 viewBox="0 0 200 200" style="enable-background:new 0 0 200 200;" xml:space="preserve">
<style type="text/css">
	.st0{fill:#FF4949;}
	.st1{fill:#C2260D;}
	.st2{fill:#A4D8E6;}
	.st3{fill:#8EC3D7;}
	.st4{fill:#FFFFFF;}
	.st5{fill:#E6E7E8;}
	.st6{fill:#301606;}
	.st7{fill:#542F1B;}
	.st8{fill:#E1EDE8;}
	.st9{fill:#235982;}
	.st10{fill:#CFE8DD;}
	.st11{fill:#F4C297;}
	.st12{fill:#582D11;}
	.st13{opacity:0.15;fill:#E8D6C5;}
	.st14{fill:#BADECF;}
	.st15{fill:#EB4B31;}
	.st16{fill:#10354F;}
	.st17{fill:#D93116;}
	.st18{opacity:0.15;fill:#F7F7F7;}
</style>
<g>
	<g>
		<path class="st0" d="M103.4,77.7c0,19.3-15.7,35-35,35s-35-15.7-35-35s15.7-35,35-35C87.7,42.8,103.4,58.4,103.4,77.7z"/>
		<path class="st1" d="M33.5,77.7c0,19.3,15.7,35,35,35V42.8C49.1,42.8,33.5,58.4,33.5,77.7z"/>
		<path class="st2" d="M98.9,77.7c0,16.8-13.6,30.4-30.4,30.4C51.6,108.2,38,94.5,38,77.7s13.6-30.4,30.4-30.4
			C85.2,47.3,98.9,60.9,98.9,77.7z"/>
		<path class="st3" d="M68.4,47.3L68.4,47.3C51.6,47.3,38,60.9,38,77.7s13.6,30.4,30.4,30.4l0,0V47.3z"/>
		<g>
			<path class="st4" d="M70.3,52.4c0,1-0.8,1.8-1.8,1.8s-1.8-0.8-1.8-1.8s0.8-1.8,1.8-1.8C69.4,50.5,70.3,51.4,70.3,52.4z"/>
			<path class="st5" d="M56.9,55.1c0.4,0.6,0.1,1.4-0.5,1.8c-0.6,0.4-1.4,0.1-1.8-0.5c-0.4-0.6-0.1-1.4,0.5-1.8
				C55.7,54.3,56.5,54.5,56.9,55.1z"/>
			<path class="st5" d="M47.1,63.9c0.6,0.4,0.8,1.1,0.5,1.8c-0.4,0.6-1.1,0.8-1.8,0.5c-0.6-0.4-0.8-1.1-0.5-1.8
				C45.7,63.8,46.5,63.6,47.1,63.9z"/>
			<path class="st5" d="M43.1,75.9c1,0,1.8,0.8,1.8,1.8s-0.8,1.8-1.8,1.8s-1.8-0.8-1.8-1.8C41.2,76.7,42.1,75.9,43.1,75.9z"/>
			<path class="st5" d="M45.8,89.3c0.6-0.4,1.4-0.1,1.8,0.5c0.4,0.6,0.1,1.4-0.5,1.8s-1.4,0.1-1.8-0.5C45,90.4,45.2,89.6,45.8,89.3z
				"/>
			<path class="st5" d="M54.6,99c0.4-0.6,1.1-0.8,1.8-0.5c0.6,0.4,0.8,1.1,0.5,1.8c-0.4,0.6-1.1,0.8-1.8,0.5
				C54.5,100.5,54.3,99.7,54.6,99z"/>
			<path class="st4" d="M66.6,103.1c0-1,0.8-1.8,1.8-1.8s1.8,0.8,1.8,1.8s-0.8,1.8-1.8,1.8S66.6,104.1,66.6,103.1z"/>
			<path class="st4" d="M80,100.3c-0.4-0.6-0.1-1.4,0.5-1.8s1.4-0.1,1.8,0.5s0.1,1.4-0.5,1.8C81.1,101.2,80.3,101,80,100.3z"/>
			<path class="st4" d="M89.7,91.5c-0.6-0.4-0.8-1.1-0.5-1.8c0.4-0.6,1.1-0.8,1.8-0.5c0.6,0.4,0.8,1.1,0.5,1.8
				C91.1,91.7,90.4,91.9,89.7,91.5z"/>
			<path class="st4" d="M93.8,79.6c-1,0-1.8-0.8-1.8-1.8s0.8-1.8,1.8-1.8s1.8,0.8,1.8,1.8C95.6,78.7,94.8,79.6,93.8,79.6z"/>
			<path class="st4" d="M91,66.2c-0.6,0.4-1.4,0.1-1.8-0.5s-0.1-1.4,0.5-1.8c0.6-0.4,1.4-0.1,1.8,0.5C91.9,65,91.6,65.8,91,66.2z"/>
			<path class="st4" d="M82.2,56.4c-0.4,0.6-1.1,0.8-1.8,0.5c-0.6-0.4-0.8-1.1-0.5-1.8c0.4-0.6,1.1-0.8,1.8-0.5
				C82.4,55,82.6,55.8,82.2,56.4z"/>
			<path class="st5" d="M66.6,52.4c0,1,0.8,1.8,1.8,1.8v-3.7C67.4,50.5,66.6,51.4,66.6,52.4z"/>
			<path class="st5" d="M66.6,103.1c0,1,0.8,1.8,1.8,1.8l0,0v-3.7C67.4,101.2,66.6,102.1,66.6,103.1z"/>
		</g>
		<g>
			
				<rect x="59.4" y="65.6" transform="matrix(0.4992 -0.8665 0.8665 0.4992 -35.5214 90.2902)" class="st6" width="1.9" height="20.6"/>
			<polygon class="st7" points="68.7,81.9 67.8,80.2 80.5,72.9 81.4,74.5 			"/>
		</g>
	</g>
	<g>
		<g>
			<path class="st8" d="M112.4,88.7c0,0,4.6,2.4,9.8,5.1h-0.6l-18.8,33.7V93.9L112.4,88.7z"/>
		</g>
		<path class="st9" d="M132.9,136.6c-0.2,0-0.4,0.1-0.8,0.2c-0.1,0-0.2,0.1-0.3,0.1c-5.7,1.9-29.1,13.7-29.1,13.7v-22.9L121.5,94
			h0.7c5.5,2.9,12.9,6.8,14.7,7.8c1.7,1,3,2.7,5,5.8c1.6,2.4,3.7,5.6,6.7,9.9c7,9.9,14.4,24.3,14.4,24.3s7.7,11,0,16.2
			c-2.9,1.9-7.9,4.4-12.9,6.8c-7.8,3.7-15.8,7-16.8,7.4c-0.1,0-0.1,0-0.1,0l0,0l-0.7-4.1l-1.3-7.7L130,152c0,0,0.5-0.1,1.4-0.3
			c1-0.2,2.4-0.5,3.8-0.9c3.2-0.8,6.5-2,6.2-3.2C140.7,145.4,135.5,136.6,132.9,136.6z"/>
		<g>
			<path class="st10" d="M93.1,88.7c0,0-4.6,2.4-9.8,5.1h0.6l18.8,33.7V93.9L93.1,88.7z"/>
		</g>
		<path class="st11" d="M111.6,77.1l-8.8-1.2L94,77.1c0,0,0.6,7.9-0.9,11.6c0,0,4.7,5.5,9.7,5.2c5,0.4,9.7-5.2,9.7-5.2
			C110.9,85.1,111.6,77.1,111.6,77.1z"/>
		<path class="st11" d="M121.7,57.7h-0.4c0.2-1.3,0.3-2.6,0.5-3.8c0.8-6.2,2.6-24.4-19.1-24.4S82.8,47.7,83.6,53.9
			c0.2,1.2,0.3,2.5,0.5,3.8h-0.4c-3.3-2.4-3.6,3.9-2.2,6.1c1.1,1.8,1.2,2,1.9,4c0.5,1.5,1.4,1.7,2.1,1.5c0.1,0.9,0.2,1.6,0.2,2.2
			C86,74.9,94,81.6,95.9,83.7c1.7,2,4.6,1.2,5.5,1.2s1.4-0.1,1.4-0.1s0.4,0,1.4,0.1c0.9,0,3.8,0.8,5.5-1.2
			c1.8-2.1,9.9-8.8,10.2-12.2c0.1-0.6,0.1-1.4,0.2-2.2c0.7,0.2,1.5,0,2.1-1.5c0.7-2,0.7-2.2,1.9-4C125.3,61.6,125,55.2,121.7,57.7z"
			/>
		<path class="st12" d="M121,55.6c0,1.1-2,9.8-2.3,12.6c-0.6,5.3-4.4,7.7-5.5,8.9c-1.1,1.2-4.7,2.4-6.3,3c-1.5,0.6-6.7,0.6-8.3,0
			c-1.5-0.5-5.2-1.8-6.3-3c-1.1-1.2-4.9-3.7-5.5-8.9c-0.3-2.8-2.3-11.5-2.3-12.6c0-0.7-0.4-0.5-0.6,0.4c0.1,0.6,0.1,1.1,0.2,1.7
			c0,0,1.1,11.7,1.3,11.6c0.1,0.9,0.2,1.6,0.2,2.2c0,0.3,0.1,0.6,0.3,1c0.4,0.6,1.1,1.7,1.9,2.9c2.6,3.2,6.8,6.9,8.1,8.3
			c1.7,2,4.6,1.2,5.5,1.2s1.4-0.1,1.4-0.1s0.4,0,1.4,0.1c0.9,0,3.8,0.8,5.5-1.2c1.3-1.4,5.5-5.1,8.1-8.3c0.8-1.2,1.4-2.3,1.9-2.9
			c0.1-0.3,0.2-0.7,0.3-1c0.1-0.6,0.1-1.4,0.2-2.2c0.2,0,1.3-11.6,1.3-11.6c0.1-0.6,0.1-1.1,0.2-1.7C121.4,55.1,121,54.9,121,55.6z"
			/>
		<path class="st12" d="M108.5,74.2c-2.4-2.2-5.8-2.8-5.8-2.8S99.4,72,97,74.2s0,6.2,0,6.2l0.5-0.7c-2.6-5.3,5.2-5.6,5.2-5.6
			s7.9,0.3,5.2,5.6l0.5,0.7C108.5,80.4,110.9,76.4,108.5,74.2z"/>
		<path class="st12" d="M104.5,80.1c-0.8-0.7-1.8-0.6-1.8-0.6s-1-0.1-1.8,0.6s-2.4,0.2-2.4,0.2l3.3,2.7l0.9-0.9l0.9,0.9l3.3-2.7
			C106.9,80.3,105.3,80.9,104.5,80.1z"/>
		<path class="st12" d="M118.2,24.8c0,0,0.9,2.5-17.7,2.5l0,0c-0.4,0-0.8,0-1.3,0C81.6,28.1,82.5,45,82.5,45l0,0
			c-0.1,4.2,0.7,8.5,1.6,12.7l0.4-2.1c0,0,0.2-2.1,1-4.6c0-0.1,0.1-0.3,0.1-0.4c0.2-0.7,0.5-1.4,0.9-2.1c4.8-9.6,16.2-6.5,16.2-6.5
			s11.4-3.1,16.2,6.5c0.3,0.7,0.6,1.4,0.9,2.1c0.1,0.1,0.1,0.3,0.2,0.4c0.8,2.5,1,4.5,1,4.5l0.4,2.1c0.5-2.7,1.1-5.3,1.4-8l0,0
			C124.7,35.5,118.2,24.8,118.2,24.8z"/>
		<path class="st13" d="M102.7,27.2c-0.7,0-1.4,0-2.2,0l0,0c-0.4,0-0.8,0-1.3,0C81.6,28.1,82.5,45,82.5,45l0,0
			c-0.1,4.2,0.7,8.5,1.6,12.7h-0.4c-3.3-2.4-3.6,3.9-2.2,6.1c1.1,1.8,1.2,2,1.9,4c0.5,1.5,1.4,1.7,2.1,1.5c0.1,0.9,0.2,1.6,0.2,2.2
			c0,0.3,0.1,0.6,0.3,0.9l0,0l0,0c0.4,0.9,1,1.9,1.9,2.9l0,0l0,0c0.3,0.4,0.6,0.7,0.9,1.1c0.1,0.1,0.2,0.2,0.3,0.3
			c0.3,0.3,0.5,0.6,0.8,0.9c0.1,0.1,0.1,0.1,0.2,0.2c0.4,0.4,0.7,0.8,1.1,1.1c0,0,0,0,0.1,0.1c0.4,0.4,0.7,0.7,1.1,1.1l0.1,0.1
			c0.6,0.6,1.2,1.2,1.7,1.7c0,2.4-0.3,5-1,6.8c0,0,4.7,5.5,9.6,5.2L102.7,27.2L102.7,27.2z"/>
		<polygon class="st1" points="99.3,97.8 101.5,101.7 98.6,121.1 102.7,127.7 102.7,93.9 		"/>
		<path class="st14" d="M102.7,93.9l-6.8,7.8l-6.5-11.1l3.7-1.9C93.1,88.7,98.6,93,102.7,93.9z"/>
		<path class="st10" d="M102.7,93.9l6.9,7.8l6.5-11.1l-3.7-1.9C112.4,88.7,106.9,93,102.7,93.9z"/>
		<polygon class="st15" points="106.1,97.8 103.9,101.7 106.9,121.1 102.7,127.7 102.7,93.9 		"/>
		<path class="st16" d="M72.5,136.6c0.2,0,0.4,0.1,0.8,0.2c0.1,0,0.2,0.1,0.3,0.1c5.7,1.9,29.1,13.7,29.1,13.7v-22.9L83.9,93.9h-0.7
			c-5.5,2.9-12.9,6.8-14.7,7.8c-1.7,1-3,2.7-5,5.8c-1.6,2.4-3.7,5.6-6.7,9.9c-7,9.9-14.4,24.3-14.4,24.3s-7.7,11,0,16.2
			c2.9,1.9,7.9,4.4,12.9,6.8c7.8,3.7,15.8,7,16.8,7.4c0.1,0,0.1,0,0.1,0l0,0l0.7-4.1l1.3-7.7l1.4-8.3c0,0-0.5-0.1-1.4-0.3
			c-1-0.2-2.4-0.5-3.8-0.9c-3.2-0.8-6.5-2-6.2-3.2C64.8,145.4,70,136.6,72.5,136.6z"/>
		<path class="st15" d="M134.8,172.3c0,1.6-1.3,2.9-2.9,2.9H73.8c-1.6,0-2.9-1.3-2.9-2.9l0,0c0-1.6,1.3-2.9,2.9-2.9h58.1
			C133.5,169.4,134.8,170.7,134.8,172.3L134.8,172.3z"/>
		<path class="st17" d="M102.7,169.4h-29c-1.6,0-2.9,1.3-2.9,2.9c0,1.6,1.3,2.9,2.9,2.9h29V169.4z"/>
		<path class="st5" d="M134.8,167.6c0,1.5-1.2,2.8-2.8,2.8H73.6c-1.5,0-2.8-1.3-2.8-2.8v-36.9c0-1.5,1.2-2.8,2.8-2.8H132
			c1.5,0,2.8,1.2,2.8,2.8V167.6z"/>
		<g>
			<path class="st4" d="M105.3,153.7c1.2-2.1,2.2-2.6,2.2-4.8c0-0.1,0-0.2,0-0.2c0-2.6-2.1-4.7-4.7-4.7s-4.7,2.1-4.7,4.7
				c0,0.1,0,0.2,0,0.2c0.1,2.2,1,2.7,2.2,4.8c0.3,0.5,0.4,1,0.4,1.3h-0.5v1.2h0.5c0,0.1,0,0.1,0,0.2c0,0.2,0.1,0.3,0.2,0.5
				c-0.1,0.1-0.2,0.3-0.2,0.5s0.1,0.3,0.2,0.4c-0.1,0.1-0.2,0.2-0.2,0.4c0,0.3,0.3,0.5,0.6,0.6c0.2,0.5,0.8,0.9,1.5,0.9
				s1.3-0.4,1.5-0.9c0.4-0.1,0.6-0.3,0.6-0.6c0-0.2-0.1-0.3-0.2-0.4c0.1-0.1,0.2-0.3,0.2-0.4c0-0.2-0.1-0.3-0.2-0.5
				c0.1-0.1,0.2-0.3,0.2-0.5c0-0.1,0-0.2,0-0.2h0.5V155h-0.5C104.9,154.7,105,154.2,105.3,153.7z"/>
			<path class="st4" d="M103.3,142.8c0,0.4-0.2,0.7-0.5,0.7l0,0c-0.3,0-0.5-0.3-0.5-0.7v-2.3c0-0.4,0.2-0.7,0.5-0.7l0,0
				c0.3,0,0.5,0.3,0.5,0.7V142.8z"/>
			<path class="st4" d="M100.1,143.2c0.2,0.3,0.1,0.7-0.1,0.9l0,0c-0.3,0.2-0.6,0-0.8-0.3l-1.2-2c-0.2-0.3-0.1-0.7,0.1-0.9l0,0
				c0.3-0.1,0.6,0,0.8,0.3L100.1,143.2z"/>
			<path class="st4" d="M97.5,145.2c0.3,0.2,0.5,0.6,0.3,0.8l0,0c-0.2,0.3-0.5,0.3-0.9,0.1l-2-1.2c-0.3-0.2-0.5-0.6-0.3-0.8l0,0
				c0.1-0.3,0.5-0.3,0.9-0.1L97.5,145.2z"/>
			<path class="st4" d="M96.2,148.2c0.4,0,0.7,0.2,0.7,0.5l0,0c0,0.3-0.3,0.5-0.7,0.5h-2.3c-0.4,0-0.7-0.2-0.7-0.5l0,0
				c0-0.3,0.3-0.5,0.7-0.5H96.2z"/>
			<path class="st4" d="M96.7,151.5c0.3-0.2,0.7-0.1,0.9,0.1l0,0c0.2,0.3,0,0.6-0.3,0.8l-2,1.2c-0.3,0.2-0.7,0.1-0.9-0.1l0,0
				c-0.1-0.3,0-0.6,0.3-0.8L96.7,151.5z"/>
			<path class="st4" d="M98.3,154c0.2-0.3,0.5-0.4,0.8-0.2l0,0c0.3,0.2,0.3,0.5,0.2,0.8l-1,1.7c-0.2,0.3-0.5,0.4-0.7,0.2l0,0
				c-0.3-0.1-0.3-0.5-0.2-0.8L98.3,154z"/>
			<path class="st4" d="M105.5,143.2c-0.2,0.3-0.1,0.7,0.1,0.9l0,0c0.3,0.2,0.6,0,0.8-0.3l1.2-2c0.2-0.3,0.1-0.7-0.1-0.9l0,0
				c-0.3-0.1-0.6,0-0.8,0.3L105.5,143.2z"/>
			<path class="st4" d="M108.1,145.2c-0.3,0.2-0.5,0.6-0.3,0.8l0,0c0.2,0.3,0.5,0.3,0.9,0.1l2-1.2c0.3-0.2,0.5-0.6,0.3-0.8l0,0
				c-0.1-0.3-0.5-0.3-0.9-0.1L108.1,145.2z"/>
			<path class="st4" d="M109.4,148.2c-0.4,0-0.7,0.2-0.7,0.5l0,0c0,0.3,0.3,0.5,0.7,0.5h2.3c0.4,0,0.7-0.2,0.7-0.5l0,0
				c0-0.3-0.3-0.5-0.7-0.5H109.4z"/>
			<path class="st4" d="M109,151.5c-0.3-0.2-0.7-0.1-0.9,0.1l0,0c-0.1,0.3,0,0.6,0.3,0.8l2,1.2c0.3,0.2,0.7,0.1,0.9-0.1l0,0
				c0.1-0.3,0-0.6-0.3-0.8L109,151.5z"/>
			<path class="st4" d="M107.3,154c-0.2-0.3-0.5-0.4-0.8-0.2l0,0c-0.3,0.2-0.3,0.5-0.2,0.8l1,1.7c0.2,0.3,0.5,0.4,0.7,0.2l0,0
				c0.3-0.1,0.3-0.5,0.2-0.8L107.3,154z"/>
		</g>
		<path class="st18" d="M102.7,127.9H73.6c-1.5,0-2.8,1.2-2.8,2.8v36.9c0,1.5,1.2,2.8,2.8,2.8h29.1V127.9z"/>
	</g>
</g>
</svg>
