<?xml version="1.0" encoding="utf-8"?>
<!-- Generator: Adobe Illustrator 22.0.1, SVG Export Plug-In . SVG Version: 6.00 Build 0)  -->
<svg version="1.1" id="Layer_1" xmlns="http://www.w3.org/2000/svg" xmlns:xlink="http://www.w3.org/1999/xlink" x="0px" y="0px"
	 viewBox="0 0 200 200" style="enable-background:new 0 0 200 200;" xml:space="preserve">
<style type="text/css">
	.st0{fill:#CFE8DD;}
	.st1{fill:#E8F6EF;}
	.st2{fill:#F4B47C;}
	.st3{fill:#F4C297;}
	.st4{fill:#582D11;}
	.st5{opacity:0.15;fill:#E8D6C5;}
	.st6{fill:#BADECF;}
	.st7{fill:#F7890C;}
	.st8{fill:#F7AD3E;}
	.st9{fill:#8EC3D7;}
	.st10{fill:#A4D8E6;}
	.st11{fill:#235982;}
	.st12{fill:#10354F;}
	.st13{fill:#C2260D;}
	.st14{fill:#EB4B31;}
	.st15{fill:#123655;}
</style>
<g>
	<g>
		<g>
			<path class="st0" d="M133,93.2c0,0-17.6,9-19.2,9.9s-4.7,1.2-8.1,17.1c-3.4,16-6.6,22.9-3.7,31.9c3,9,2.8,8,2.8,8h13.3
				c0,0-2.7-6.5-3.7-9.9s2.2-16.5,2.5-17.9c0.3-1.3,0.9-1,0.9,4s0,23.8,0,23.8h23V97.4L133,93.2z"/>
			<path class="st1" d="M148.5,93.2c0,0,17.6,9,19.2,9.9c1.6,0.9,4.7,1.2,8.1,17.1c3.4,16,6.6,22.9,3.7,31.9c-3,9-2.8,8-2.8,8h-13.3
				c0,0,2.7-6.5,3.7-9.9s-2.2-16.5-2.5-17.9c-0.3-1.3-0.9-1-0.9,4s0,23.8,0,23.8h-23V97.4L148.5,93.2z"/>
			<path class="st2" d="M147.8,83.9l-7.1-1l-7.1,1c0,0,0.5,6.4-0.7,9.3c0,0,3.8,4.4,7.8,4.1c4,0.3,7.8-4.1,7.8-4.1
				C147.3,90.3,147.8,83.9,147.8,83.9z"/>
			<path class="st3" d="M156,68.3h-0.3c0.1-1,0.3-2.1,0.4-3c0.7-5,2.1-19.6-15.3-19.6s-16,14.6-15.3,19.6c0.1,1,0.3,2,0.4,3h-0.3
				c-2.7-2-2.9,3.2-1.8,4.9c0.9,1.5,0.9,1.6,1.5,3.2c0.4,1.2,1.1,1.3,1.7,1.2c0.1,0.7,0.1,1.3,0.2,1.8c0.2,2.7,6.7,8.1,8.2,9.8
				c1.4,1.6,3.7,1,4.4,0.9c0.7,0,1.1-0.1,1.1-0.1s0.4,0,1.1,0.1c0.7,0,3,0.7,4.4-0.9c1.5-1.7,7.9-7.1,8.2-9.8c0-0.5,0.1-1.1,0.2-1.8
				c0.6,0.1,1.2,0,1.7-1.2c0.6-1.6,0.6-1.8,1.5-3.2C158.8,71.5,158.6,66.3,156,68.3z"/>
			<path class="st4" d="M139,43.9L139,43.9c-0.3,0-0.7,0-1,0c-14.2,0.6-13.5,14.2-13.5,14.2l0,0c-0.1,3.4,0.6,6.8,1.3,10.2l0.3-1.7
				c0,0,0.2-1.6,0.8-3.7c0-0.1,0.1-0.2,0.1-0.3c0.2-0.6,0.4-1.1,0.7-1.7c3.9-7.7,13-5.2,13-5.2s9.2-2.5,13,5.2
				c0.3,0.6,0.5,1.1,0.7,1.7c0,0.1,0.1,0.2,0.1,0.4c0.7,2,0.8,3.6,0.8,3.6l0.3,1.7c0.4-2.1,0.8-4.3,1.1-6.4l0,0
				C158.4,50.5,155.1,43,139,43.9z"/>
			<path class="st5" d="M140.7,43.9c-0.6,0-1.1,0-1.7,0l0,0c-0.3,0-0.6,0-1,0c-14.2,0.6-13.5,14.2-13.5,14.2l0,0
				c-0.1,3.4,0.6,6.8,1.3,10.2h-0.3c-2.7-2-2.9,3.2-1.8,4.9c0.9,1.5,0.9,1.6,1.5,3.2c0.4,1.2,1.1,1.3,1.7,1.2
				c0.1,0.7,0.1,1.3,0.2,1.8c0,0.2,0.1,0.5,0.2,0.8l0,0l0,0c0.3,0.7,0.8,1.5,1.5,2.3l0,0l0,0c0.2,0.3,0.5,0.6,0.8,0.9
				c0.1,0.1,0.1,0.2,0.2,0.2c0.2,0.2,0.4,0.5,0.7,0.7c0.1,0.1,0.1,0.1,0.2,0.2c0.3,0.3,0.6,0.6,0.9,0.9l0,0c0.3,0.3,0.6,0.6,0.9,0.9
				l0.1,0.1c0.5,0.5,1,0.9,1.4,1.3c0,1.9-0.2,4-0.8,5.4c0,0,3.8,4.4,7.7,4.1V43.9H140.7z"/>
			<path class="st6" d="M140.7,97.4l-5.5,6.3l-5.2-8.9l3-1.5C133,93.2,137.4,96.6,140.7,97.4z"/>
			<path class="st0" d="M140.7,97.4l5.5,6.3l5.2-8.9l-3-1.5C148.5,93.2,144,96.6,140.7,97.4z"/>
			<polygon class="st7" points="138,100.5 139.8,103.6 137.4,119.2 140.7,124.4 140.7,97.4 			"/>
			<polygon class="st8" points="143.4,100.5 141.7,103.6 144,119.2 140.7,124.4 140.7,97.4 			"/>
			<path class="st9" d="M125.6,97.4H125c-4.9,2.5-10.3,5.3-11.2,5.8c-1.6,0.9-4.7,1.2-8.1,17.1c-3.4,16-6.6,22.9-3.7,31.9
				c3,9,2.8,8,2.8,8h13h0.3h22.7v-44.5L125.6,97.4z M114.4,150.2c-1-3.4,2.2-16.5,2.5-17.9c0.3-1.3,0.9-1,0.9,4c0,4.4,0,19.6,0,23
				C117,157.6,115.2,152.9,114.4,150.2z"/>
			<path class="st10" d="M140.7,115.6v44.5h22.7h0.3h13c0,0-0.1,1,2.8-8c3-9-0.3-15.9-3.7-31.9c-3.4-15.9-6.5-16.2-8.1-17.1
				c-0.9-0.5-6.3-3.3-11.2-5.8h-0.6L140.7,115.6z M163.7,159.4c0-3.5,0-18.6,0-23c0-5,0.6-5.3,0.9-4c0.3,1.3,3.6,14.5,2.5,17.9
				C166.3,152.9,164.4,157.6,163.7,159.4z"/>
		</g>
		<g>
			<path class="st11" d="M142,122.1c0,0.7-0.6,1.3-1.3,1.3s-1.3-0.6-1.3-1.3c0-0.7,0.6-1.3,1.3-1.3C141.5,120.8,142,121.4,142,122.1
				z"/>
			<path class="st12" d="M139.4,122.1c0,0.7,0.6,1.3,1.3,1.3v-2.6C140,120.8,139.4,121.4,139.4,122.1z"/>
		</g>
		<g>
			<path class="st11" d="M142,129.6c0,0.7-0.6,1.3-1.3,1.3s-1.3-0.6-1.3-1.3s0.6-1.3,1.3-1.3C141.5,128.2,142,128.8,142,129.6z"/>
			<path class="st12" d="M139.4,129.6c0,0.7,0.6,1.3,1.3,1.3v-2.6C140,128.2,139.4,128.8,139.4,129.6z"/>
		</g>
		<g>
			<path class="st11" d="M142,137c0,0.7-0.6,1.3-1.3,1.3s-1.3-0.6-1.3-1.3s0.6-1.3,1.3-1.3C141.5,135.7,142,136.2,142,137z"/>
			<path class="st12" d="M139.4,137c0,0.7,0.6,1.3,1.3,1.3v-2.6C140,135.7,139.4,136.2,139.4,137z"/>
		</g>
		<g>
			<path class="st11" d="M142,144.4c0,0.7-0.6,1.3-1.3,1.3s-1.3-0.6-1.3-1.3s0.6-1.3,1.3-1.3C141.5,143.1,142,143.7,142,144.4z"/>
			<path class="st12" d="M139.4,144.4c0,0.7,0.6,1.3,1.3,1.3v-2.6C140,143.1,139.4,143.7,139.4,144.4z"/>
		</g>
		<g>
			<path class="st11" d="M142,151.8c0,0.7-0.6,1.3-1.3,1.3s-1.3-0.6-1.3-1.3s0.6-1.3,1.3-1.3C141.5,150.5,142,151.1,142,151.8z"/>
			<path class="st12" d="M139.4,151.8c0,0.7,0.6,1.3,1.3,1.3v-2.6C140,150.5,139.4,151.1,139.4,151.8z"/>
		</g>
	</g>
	<g>
		<path class="st0" d="M57.9,91.3c0,0-21.1,10.8-23,11.9s-5.7,1.4-9.7,20.5c-4.1,19.1-8,27.4-4.4,38.2c3.5,10.8,3.4,9.6,3.4,9.6H40
			c0,0-3.2-7.8-4.4-11.9c-1.2-4.1,2.7-19.8,3-21.4c0.3-1.6,1-1.2,1,4.8s0,28.5,0,28.5h27.5V96.2L57.9,91.3z"/>
		<path class="st1" d="M76.5,91.3c0,0,21.1,10.8,23,11.9s5.7,1.4,9.7,20.5c4.1,19.1,8,27.4,4.4,38.2c-3.5,10.8-3.4,9.6-3.4,9.6H94.3
			c0,0,3.2-7.8,4.4-11.9c1.2-4.1-2.7-19.8-3-21.4c-0.3-1.6-1-1.2-1,4.8s0,28.5,0,28.5H67.2V96.2L76.5,91.3z"/>
		<path class="st3" d="M75.7,80.1l-8.5-1.2l-8.4,1.2c0,0,0.6,7.6-0.9,11.2c0,0,4.6,5.3,9.3,5c4.8,0.4,9.3-5,9.3-5
			C75.1,87.7,75.7,80.1,75.7,80.1z"/>
		<path class="st3" d="M85.4,61.4H85c0.2-1.2,0.3-2.5,0.5-3.6c0.8-6,2.5-23.5-18.4-23.5S48,51.8,48.7,57.8c0.2,1.2,0.3,2.4,0.5,3.6
			h-0.4c-3.2-2.4-3.4,3.8-2.1,5.9c1.1,1.7,1.1,1.9,1.8,3.8c0.5,1.4,1.3,1.6,2,1.4c0.1,0.8,0.2,1.6,0.2,2.1c0.3,3.2,8.1,9.7,9.8,11.7
			c1.6,1.9,4.4,1.2,5.3,1.1c0.9,0,1.3-0.1,1.3-0.1s0.4,0,1.3,0.1c0.9,0,3.6,0.8,5.3-1.1c1.8-2,9.5-8.5,9.8-11.7
			c0.1-0.6,0.1-1.3,0.2-2.1c0.7,0.2,1.5,0,2-1.4c0.7-1.9,0.7-2.1,1.8-3.8C88.9,65.2,88.6,59,85.4,61.4z"/>
		<path class="st4" d="M84.7,59.4c0,1.1-1.9,9.4-2.2,12.1c-0.6,5.1-4.2,7.4-5.3,8.6c-1.1,1.2-4.6,2.3-6,2.9c-1.5,0.5-6.5,0.5-7.9,0
			c-1.5-0.5-5-1.7-6-2.9c-1.1-1.2-4.7-3.5-5.3-8.6c-0.3-2.7-2.2-11-2.2-12.1c0-0.7-0.3-0.4-0.6,0.4c0.1,0.5,0.1,1.1,0.2,1.6
			c0,0,1.1,11.2,1.3,11.2c0.1,0.8,0.2,1.6,0.2,2.1c0,0.3,0.1,0.6,0.3,0.9c0.4,0.6,1,1.6,1.8,2.8c2.5,3.1,6.6,6.6,7.8,8
			c1.6,1.9,4.4,1.2,5.3,1.1c0.9,0,1.3-0.1,1.3-0.1s0.4,0,1.3,0.1c0.9,0,3.6,0.8,5.3-1.1c1.2-1.4,5.3-4.9,7.8-8
			c0.8-1.2,1.4-2.2,1.8-2.8c0.1-0.3,0.2-0.6,0.3-0.9c0.1-0.6,0.1-1.3,0.2-2.1c0.2,0,1.3-11.2,1.3-11.2c0.1-0.5,0.1-1.1,0.2-1.6
			C85.1,59,84.7,58.7,84.7,59.4z"/>
		<path class="st4" d="M72.7,77.3c-2.3-2.1-5.5-2.7-5.5-2.7s-3.2,0.6-5.5,2.7s0,5.9,0,5.9l0.5-0.7c-2.5-5.1,5-5.4,5-5.4
			s7.6,0.3,5,5.4l0.5,0.7C72.7,83.3,75.1,79.4,72.7,77.3z"/>
		<path class="st4" d="M68.9,83c-0.7-0.7-1.7-0.6-1.7-0.6s-1-0.1-1.7,0.6s-2.3,0.2-2.3,0.2l3.1,2.6l0.9-0.8l0.9,0.8l3.1-2.6
			C71.2,83.2,69.6,83.7,68.9,83z"/>
		<path class="st4" d="M82.1,29.8c0,0,0.8,2.4-17,2.4l0,0c-0.4,0-0.8,0-1.2,0c-17.1,0.7-16.1,17-16.1,17l0,0
			c-0.1,4.1,0.7,8.2,1.5,12.2l0.4-2c0,0,0.2-2,1-4.4c0-0.1,0.1-0.3,0.1-0.4c0.2-0.7,0.5-1.4,0.8-2c4.6-9.2,15.6-6.2,15.6-6.2
			s11-3,15.6,6.2c0.3,0.7,0.6,1.3,0.8,2c0.1,0.1,0.1,0.3,0.1,0.4c0.8,2.4,1,4.4,1,4.4l0.3,2c0.5-2.6,1-5.1,1.3-7.7l0,0
			C88.3,40.1,82.1,29.8,82.1,29.8z"/>
		<path class="st5" d="M67.2,32.1c-0.7,0-1.3,0-2.1,0l0,0c-0.4,0-0.8,0-1.2,0c-17.1,0.7-16.1,17-16.1,17l0,0
			c-0.1,4.1,0.7,8.2,1.5,12.2h-0.4c-3.2-2.4-3.4,3.8-2.1,5.9c1.1,1.7,1.1,1.9,1.8,3.8c0.5,1.4,1.3,1.6,2,1.4
			c0.1,0.8,0.2,1.6,0.2,2.1c0,0.3,0.1,0.6,0.2,0.9l0,0l0,0c0.3,0.8,1,1.8,1.8,2.8l0,0l0,0c0.3,0.4,0.6,0.7,0.9,1.1
			c0.1,0.1,0.2,0.2,0.3,0.3c0.3,0.3,0.5,0.6,0.8,0.9c0.1,0.1,0.1,0.1,0.2,0.2c0.3,0.4,0.7,0.7,1.1,1.1l0,0c0.4,0.4,0.7,0.7,1.1,1
			l0.1,0.1c0.6,0.6,1.2,1.1,1.7,1.6c-0.1,2.3-0.3,4.8-1,6.5c0,0,4.5,5.2,9.3,5L67.2,32.1L67.2,32.1z"/>
		<path class="st6" d="M67.2,96.2l-6.6,7.5l-6.3-10.6l3.6-1.8C57.9,91.3,63.2,95.3,67.2,96.2z"/>
		<path class="st0" d="M67.2,96.2l6.6,7.5L80,93.1l-3.6-1.8C76.5,91.3,71.2,95.3,67.2,96.2z"/>
		<polygon class="st13" points="63.9,99.9 66,103.7 63.2,122.3 67.2,128.7 67.2,96.2 		"/>
		<polygon class="st14" points="70.4,99.9 68.3,103.7 71.2,122.3 67.2,128.7 67.2,96.2 		"/>
		<path class="st15" d="M49.1,96.2h-0.8c-5.8,3-12.4,6.4-13.4,6.9c-1.9,1.1-5.7,1.4-9.7,20.5c-4.1,19.1-8,27.4-4.4,38.2
			c3.5,10.8,3.4,9.6,3.4,9.6h15.6H40h27.2v-42.7L49.1,96.2z M35.6,159.6c-1.2-4.1,2.7-19.8,3-21.4c0.3-1.6,1-1.2,1,4.8
			c0,5.3,0,23.4,0,27.6C38.8,168.4,36.6,162.8,35.6,159.6z"/>
		<path class="st11" d="M67.2,128.7v42.7h27.2h0.4h15.6c0,0-0.2,1.2,3.4-9.6c3.5-10.8-0.4-19.1-4.4-38.2
			c-4.1-19.1-7.8-19.5-9.7-20.5c-1-0.6-7.6-3.9-13.4-6.9h-0.8L67.2,128.7z M94.7,170.5c0-4.2,0-22.3,0-27.6c0-6,0.7-6.4,1-4.8
			c0.3,1.6,4.3,17.3,3,21.4C97.8,162.8,95.5,168.4,94.7,170.5z"/>
	</g>
	<g>
		<g>
			<path class="st11" d="M119.9,52.4c9,0,16.3,5.5,16.3,12.2c0,4.4-3.1,8.2-7.7,10.3l4.5,7.8l-10.6-6.1c-0.8,0.1-1.7,0.2-2.6,0.2
				c-9,0-16.3-5.5-16.3-12.2C103.6,57.9,110.9,52.4,119.9,52.4z"/>
		</g>
		<g>
			<path class="st14" d="M125.1,64.6c0,1.4,1.1,2.5,2.5,2.5s2.5-1.1,2.5-2.5s-1.1-2.5-2.5-2.5C126.2,62.1,125.1,63.2,125.1,64.6z"/>
		</g>
		<path class="st12" d="M103.6,64.6c0,6.7,7.3,12.2,16.3,12.2V52.4C110.9,52.4,103.6,57.9,103.6,64.6z"/>
		<g>
			<path class="st14" d="M117.4,64.6c0,1.4,1.1,2.5,2.5,2.5s2.5-1.1,2.5-2.5s-1.1-2.5-2.5-2.5S117.4,63.2,117.4,64.6z"/>
		</g>
		<g>
			<path class="st13" d="M109.7,64.6c0,1.4,1.1,2.5,2.5,2.5s2.5-1.1,2.5-2.5s-1.1-2.5-2.5-2.5C110.9,62.1,109.7,63.2,109.7,64.6z"/>
		</g>
		<path class="st13" d="M117.4,64.6c0,1.4,1.1,2.5,2.5,2.5v-5C118.5,62.1,117.4,63.2,117.4,64.6z"/>
	</g>
	<g>
		<g>
			<path class="st9" d="M100.2,29.1c-12.9,0-23.4,7.8-23.4,17.5c0,6.2,4.4,11.7,11,14.8l-6.5,11.2l15.2-8.8c1.2,0.1,2.4,0.2,3.7,0.2
				c12.9,0,23.4-7.8,23.4-17.5C123.7,36.9,113.2,29.1,100.2,29.1z"/>
		</g>
		<g>
			<path class="st13" d="M92.8,46.5c0,2-1.6,3.6-3.6,3.6s-3.6-1.6-3.6-3.6s1.6-3.6,3.6-3.6C91.2,42.9,92.8,44.5,92.8,46.5z"/>
		</g>
		<path class="st10" d="M123.7,46.5c0,9.6-10.5,17.5-23.4,17.5V29.1C113.2,29.1,123.7,36.9,123.7,46.5z"/>
		<g>
			<path class="st13" d="M103.8,46.5c0,2-1.6,3.6-3.6,3.6s-3.6-1.6-3.6-3.6s1.6-3.6,3.6-3.6C102.2,42.9,103.8,44.5,103.8,46.5z"/>
		</g>
		<g>
			<path class="st14" d="M114.8,46.5c0,2-1.6,3.6-3.6,3.6s-3.6-1.6-3.6-3.6s1.6-3.6,3.6-3.6C113.2,42.9,114.8,44.5,114.8,46.5z"/>
		</g>
		<path class="st14" d="M103.8,46.5c0,2-1.6,3.6-3.6,3.6v-7.2C102.2,42.9,103.8,44.5,103.8,46.5z"/>
	</g>
</g>
</svg>
