<?xml version="1.0" encoding="utf-8"?>
<!-- Generator: Adobe Illustrator 22.0.1, SVG Export Plug-In . SVG Version: 6.00 Build 0)  -->
<svg version="1.1" id="Layer_1" xmlns="http://www.w3.org/2000/svg" xmlns:xlink="http://www.w3.org/1999/xlink" x="0px" y="0px"
	 viewBox="0 0 200 200" style="enable-background:new 0 0 200 200;" xml:space="preserve">
<style type="text/css">
	.st0{fill:#B8E6E8;}
	.st1{fill:#8EC3D7;}
	.st2{fill:#FFFFFF;}
	.st3{fill:#E6E7E8;}
	.st4{fill:#C2260D;}
	.st5{fill:#EB4B31;}
	.st6{fill:#E1EDE8;}
	.st7{fill:#CFE8DD;}
	.st8{fill:#F4C297;}
	.st9{fill:#582D11;}
	.st10{opacity:0.15;fill:#E8D6C5;}
	.st11{fill:#BADECF;}
	.st12{fill:#235982;}
	.st13{fill:#10354F;}
</style>
<g>
	<g>
		<rect x="16" y="47" class="st0" width="104.3" height="88.6"/>
		<rect x="16" y="47" class="st1" width="52.1" height="88.6"/>
		<rect x="22.2" y="54.2" class="st2" width="91.8" height="74.3"/>
		<rect x="22.2" y="53.8" class="st3" width="45.9" height="74.7"/>
		<g>
			<rect x="36.4" y="84.2" class="st4" width="9.7" height="35.6"/>
			<rect x="49.8" y="77.3" class="st4" width="9.7" height="42.6"/>
			<rect x="63.3" y="89.3" class="st4" width="9.7" height="30.6"/>
			<rect x="76.7" y="77.3" class="st5" width="9.7" height="42.6"/>
			<rect x="90.1" y="65.9" class="st5" width="9.7" height="54"/>
		</g>
		<rect x="68.1" y="89.3" class="st5" width="4.9" height="30.6"/>
	</g>
	<g>
		<g>
			<path class="st6" d="M144,89c0,0,4.6,2.4,9.8,5.2h-0.6L134.3,128V94.2L144,89z"/>
		</g>
		<g>
			<path class="st7" d="M124.7,89c0,0-4.6,2.4-9.8,5.2h0.6l18.9,33.8V94.2L124.7,89z"/>
		</g>
		<path class="st8" d="M143.2,77.4l-8.8-1.2l-8.8,1.2c0,0,0.6,8-0.9,11.6c0,0,4.8,5.5,9.7,5.2c5,0.4,9.8-5.2,9.8-5.2
			C142.6,85.3,143.2,77.4,143.2,77.4z"/>
		<path class="st8" d="M153.4,57.9H153c0.2-1.3,0.3-2.6,0.5-3.8c0.8-6.3,2.6-24.5-19.2-24.5s-20,18.3-19.2,24.5
			c0.2,1.2,0.3,2.5,0.5,3.8h-0.4c-3.3-2.5-3.6,4-2.2,6.1c1.1,1.8,1.2,2,1.9,4c0.5,1.5,1.4,1.7,2.1,1.5c0.1,0.9,0.2,1.6,0.2,2.2
			c0.3,3.4,8.4,10.1,10.2,12.2c1.7,2,4.6,1.2,5.5,1.2s1.4-0.1,1.4-0.1s0.4,0,1.4,0.1c0.9,0,3.8,0.8,5.5-1.2
			c1.8-2.1,9.9-8.9,10.2-12.2c0.1-0.6,0.1-1.4,0.2-2.2c0.7,0.2,1.6,0,2.1-1.5c0.7-2,0.7-2.2,1.9-4C157,61.8,156.7,55.4,153.4,57.9z"
			/>
		<path class="st9" d="M152.6,55.8c0,1.1-2,9.8-2.3,12.6c-0.6,5.3-4.4,7.7-5.5,9c-1.1,1.2-4.8,2.4-6.3,3s-6.7,0.6-8.3,0
			c-1.6-0.5-5.2-1.8-6.3-3c-1.1-1.2-4.9-3.7-5.5-9c-0.3-2.8-2.3-11.5-2.3-12.6c0-0.7-0.4-0.5-0.6,0.4c0.1,0.6,0.1,1.1,0.2,1.7
			c0,0,1.1,11.7,1.3,11.7c0.1,0.9,0.2,1.6,0.2,2.2c0,0.3,0.1,0.6,0.3,1c0.4,0.6,1.1,1.7,1.9,2.9c2.6,3.2,6.8,6.9,8.1,8.3
			c1.7,2,4.6,1.2,5.5,1.2c0.9,0,1.4-0.1,1.4-0.1s0.4,0,1.4,0.1c0.9,0,3.8,0.8,5.5-1.2c1.3-1.4,5.5-5.1,8.1-8.3
			c0.8-1.2,1.4-2.3,1.9-2.9c0.1-0.3,0.2-0.7,0.3-1c0.1-0.6,0.1-1.4,0.2-2.2c0.2,0,1.3-11.7,1.3-11.7c0.1-0.6,0.1-1.1,0.2-1.7
			C153,55.3,152.6,55.1,152.6,55.8z"/>
		<path class="st9" d="M140.1,74.5c-2.4-2.2-5.8-2.8-5.8-2.8s-3.4,0.6-5.8,2.8c-2.4,2.2,0,6.2,0,6.2L129,80
			c-2.6-5.3,5.2-5.6,5.2-5.6s7.9,0.3,5.2,5.6l0.5,0.7C140.1,80.7,142.6,76.7,140.1,74.5z"/>
		<path class="st9" d="M136.1,80.4c-0.8-0.7-1.8-0.6-1.8-0.6s-1-0.1-1.8,0.6s-2.4,0.2-2.4,0.2l3.3,2.7l0.9-0.9l0.9,0.9l3.3-2.7
			C138.5,80.6,136.9,81.1,136.1,80.4z"/>
		<path class="st9" d="M149.9,24.9c0,0,0.9,2.5-17.7,2.5l0,0c-0.4,0-0.8,0-1.3,0c-17.8,0.8-16.8,17.7-16.8,17.7l0,0
			c-0.1,4.3,0.7,8.5,1.6,12.8l0.4-2.1c0,0,0.2-2.1,1-4.6c0-0.1,0.1-0.3,0.1-0.4c0.2-0.7,0.5-1.4,0.9-2.1c4.8-9.6,16.3-6.5,16.3-6.5
			s11.5-3.1,16.3,6.5c0.3,0.7,0.6,1.4,0.9,2.1c0.1,0.2,0.1,0.3,0.2,0.4c0.8,2.5,1,4.5,1,4.5l0.4,2.1c0.5-2.7,1.1-5.3,1.4-8l0,0
			C156.4,35.7,149.9,24.9,149.9,24.9z"/>
		<path class="st10" d="M134.3,27.3c-0.7,0-1.4,0-2.2,0l0,0c-0.4,0-0.8,0-1.3,0C113,28.1,114,45,114,45l0,0
			c-0.1,4.3,0.7,8.5,1.6,12.8h-0.4c-3.3-2.5-3.6,4-2.2,6.1c1.1,1.8,1.2,2,1.9,4c0.5,1.5,1.4,1.7,2.1,1.5c0.1,0.9,0.2,1.6,0.2,2.2
			c0,0.3,0.1,0.6,0.3,0.9l0,0l0,0c0.3,0.9,1,1.9,1.9,2.9l0,0l0,0c0.3,0.4,0.6,0.7,0.9,1.1c0.1,0.1,0.2,0.2,0.3,0.3
			c0.3,0.3,0.5,0.6,0.8,0.9c0.1,0.1,0.1,0.1,0.2,0.2c0.4,0.4,0.7,0.8,1.1,1.1c0,0,0,0,0.1,0.1c0.4,0.4,0.7,0.7,1.1,1.1l0.1,0.1
			c0.6,0.6,1.2,1.2,1.7,1.7c-0.1,2.4-0.3,5-1,6.8c0,0,4.7,5.5,9.7,5.2L134.3,27.3L134.3,27.3z"/>
		<polygon class="st4" points="130.9,98.1 133.1,102 130.2,121.4 134.3,128 134.3,94.2 		"/>
		<path class="st11" d="M134.3,94.2l-6.9,7.8l-6.5-11.1l3.7-1.9C124.7,89,130.2,93.3,134.3,94.2z"/>
		<path class="st7" d="M134.3,94.2l6.9,7.8l6.5-11.1L144,89C144,89,138.5,93.3,134.3,94.2z"/>
		<polygon class="st5" points="137.7,98.1 135.5,102 138.5,121.4 134.3,128 134.3,94.2 		"/>
		<g>
			<path class="st8" d="M64.4,129.5c0,0-1.8-0.2-2.5-3.8c-0.7-3.6-4.8-8.7-4.8-8.7s-3.6-2.1-5.3-5.4c-0.8-1.5-2.2-2-3.4-1
				c-1.2,1.1,0.8,3.9,3.6,7.8c0,0,0.3,0.6-1.8-0.9s-12.4-8.2-12.4-8.2s-2.3-1.9-3.5,0c-1.1,1.7,0.8,2.5,1.7,3.1
				c1,0.6,8.4,5.5,8.4,5.5s0.2,0.5-0.3,0.5l-4.5-2.9c0,0-1.4-1-2.2,0.2c-1,1.4-0.1,2.1,0.6,2.5c0.6,0.4,4.5,3,4.5,3s0.3,0.6-0.3,0.5
				l-4-2.6c0,0-1-0.7-1.8,0.6c-0.8,1.3,0.2,1.9,0.2,1.9l4.1,2.7c0,0,0.3,0.4-0.3,0.4l-2.8-1.8c0,0-0.9-0.5-1.7,0.8
				c-0.8,1.2,0.2,1.9,0.2,1.9l16,10.5c0,0,2.2,1.6,3.6,0.9c1.4-0.7,3.2,1.2,3.2,1.2L64.4,129.5z"/>
		</g>
		<g>
			<path class="st10" d="M64.4,129.5c0,0-1.8-0.2-2.5-3.8c-0.7-3.6-4.8-8.7-4.8-8.7s-3.6-2.1-5.3-5.4c-0.8-1.5-2.2-2-3.4-1
				c-1.2,1.1,0.8,3.9,3.6,7.8c0,0,0.3,0.6-1.8-0.9s-12.4-8.2-12.4-8.2s-2.3-1.9-3.5,0c-1.1,1.7,0.8,2.5,1.7,3.1
				c1,0.6,8.4,5.5,8.4,5.5s0.2,0.5-0.3,0.5l-4.5-2.9c0,0-1.4-1-2.2,0.2c-1,1.4-0.1,2.1,0.6,2.5c0.6,0.4,4.5,3,4.5,3s0.3,0.6-0.3,0.5
				l-4-2.6c0,0-1-0.7-1.8,0.6c-0.8,1.3,0.2,1.9,0.2,1.9l4.1,2.7c0,0,0.3,0.4-0.3,0.4l-2.8-1.8c0,0-0.9-0.5-1.7,0.8
				c-0.8,1.2,0.2,1.9,0.2,1.9l16,10.5c0,0,2.2,1.6,3.6,0.9c1.4-0.7,3.2,1.2,3.2,1.2L64.4,129.5z"/>
		</g>
		<path class="st12" d="M134.4,127.5v44.4h28.2h0.4h16.2c0,0-0.2,1.3,3.5-9.9s-0.4-19.8-4.6-39.7c-4.2-19.8-8.1-20.2-10.1-21.3
			c-1.1-0.6-7.9-4.1-13.9-7.2h-0.8L134.4,127.5z M162.9,171c0-4.3,0-23.1,0-28.7c0-6.2,0.7-6.6,1.1-5c0.3,1.7,4.4,18,3.1,22.2
			C166.1,162.9,163.8,168.7,162.9,171z"/>
		<path class="st13" d="M65.3,126.7c0,0,14.8,9.2,16.2,9.2c1.4,0,12.4-22.9,12.4-22.9l0,0c5.4-12.7,7.3-12.1,9-13
			c1.1-0.6,5.8-3.1,11.9-6.2l0.8,0.1l18.8,33.7V172h-28.6v-1v0.1v-28.6c0-4.9-0.4-5.7-0.9-5.3c-0.1,0.1-0.2,0.3-0.5,0.6l0,0l0,0
			c-2.8,3.6-15.9,20-18.8,20c-3.3,0-29.3-17.3-29.3-17.3L65.3,126.7z"/>
	</g>
</g>
</svg>
