<?xml version="1.0" encoding="utf-8"?>
<!-- Generator: Adobe Illustrator 22.0.1, SVG Export Plug-In . SVG Version: 6.00 Build 0)  -->
<svg version="1.1" id="Layer_1" xmlns="http://www.w3.org/2000/svg" xmlns:xlink="http://www.w3.org/1999/xlink" x="0px" y="0px"
	 viewBox="0 0 40 40" style="enable-background:new 0 0 40 40;" xml:space="preserve">
<style type="text/css">
	.st0{fill:#901111;}
	.st1{fill:#FFFFFF;}
	.st2{fill:#D12020;}
	.st3{fill:#E68D1A;}
</style>
<g id="XMLID_328_">
	<circle id="XMLID_295_" class="st3" cx="20" cy="20" r="19.5"/>
	<g id="XMLID_329_">
		<path id="XMLID_293_" class="st1" d="M18.4,8.6c0.2,0,0.4,0.1,0.6,0.1c1.2,0.2,2.2,0.8,3,1.8c0.9,1,1.3,2.2,1.3,3.5
			c0,1.2-0.3,2.2-1,3.2c-0.8,1.1-1.9,1.8-3.3,2.1c-1.6,0.3-3,0-4.3-1c-1.6-1.2-2.3-2.8-2.1-4.8c0.2-1.8,1.1-3.1,2.6-4.1
			c0.6-0.4,1.3-0.6,2-0.7c0.1,0,0.2,0,0.3-0.1C17.8,8.6,18.1,8.6,18.4,8.6z M15.4,16.1C15.4,16.1,15.4,16.1,15.4,16.1
			C15.4,16.2,15.4,16.2,15.4,16.1c0.3,0.7,0.7,1,1.3,1.2c0.7,0.2,1.4,0.3,2.1,0.1c0.5-0.1,0.9-0.3,1.3-0.7c0.2-0.2,0.3-0.3,0.3-0.6
			C18.8,16.1,17.1,16.1,15.4,16.1z"/>
		<path id="XMLID_284_" class="st1" d="M26.6,31.4c-0.3-0.1-0.5-0.2-0.8-0.4c-0.8-0.4-1.5-1-2.1-1.7c-0.8-1.1-1.2-2.4-1.4-3.8
			c0-0.3-0.1-0.6-0.1-1c0-0.4,0.1-0.6,0.5-0.6c0.4,0,0.9,0,1.3-0.1c0.8-0.1,1.5-0.5,2.2-1c0,0,0.1-0.1,0.1-0.1
			c0.3-0.2,0.5-0.2,0.8,0c0.7,0.6,1.6,1,2.5,1.1c0.3,0,0.6,0.1,0.9,0.1c0.5,0,0.6,0.1,0.6,0.6c0,1.1-0.2,2.2-0.7,3.2
			c-0.4,1-1,1.8-1.8,2.5c-0.5,0.4-1,0.7-1.6,0.9c-0.1,0-0.2,0.1-0.2,0.1C26.7,31.4,26.6,31.4,26.6,31.4z"/>
		<path id="XMLID_330_" class="st1" d="M26,21.9c-0.8,0.7-1.7,1.2-2.8,1.2c-0.3,0-0.6,0-0.8,0.1c-0.7,0.1-1.1,0.7-1.1,1.4
			c0.1,1.3,0.3,2.5,0.8,3.7c0,0,0,0.1,0,0.1c-0.4,0-0.8,0.1-1.2,0.1c-1.5,0.1-3.1,0.2-4.6,0.1c-1.2-0.1-2.4-0.2-3.6-0.3
			c-0.9-0.1-1.8-0.3-2.6-0.6c-0.2-0.1-0.4-0.2-0.6-0.2c-0.3-0.1-0.5-0.4-0.5-0.7c0-0.9,0-1.8,0.1-2.6c0.1-0.9,0.5-1.7,1.1-2.4
			c0.7-0.9,1.6-1.5,2.8-1.7c0.2-0.1,0.4-0.1,0.6-0.1c0.1,0,0.2,0,0.3,0.1c1.2,0.9,2.6,1.3,4.1,1.3c1.1,0,2.1-0.2,3.1-0.7
			c0.4-0.2,0.7-0.4,1.1-0.6c0.1-0.1,0.2-0.1,0.4-0.1C24,20,25.1,20.7,26,21.9C26,21.8,26,21.8,26,21.9z"/>
	</g>
</g>
</svg>
