<?xml version="1.0" encoding="utf-8"?>
<!-- Generator: Adobe Illustrator 22.0.1, SVG Export Plug-In . SVG Version: 6.00 Build 0)  -->
<svg version="1.1" id="Layer_1" xmlns="http://www.w3.org/2000/svg" xmlns:xlink="http://www.w3.org/1999/xlink" x="0px" y="0px"
	 viewBox="0 0 40 40" style="enable-background:new 0 0 40 40;" xml:space="preserve">
<style type="text/css">
	.st0{fill:#901111;}
	.st1{fill:#FFFFFF;}
	.st2{fill:#D12020;}
	.st3{fill:#E68D1A;}
</style>
<g id="XMLID_339_">
	<g id="XMLID_296_">
		<circle id="XMLID_327_" class="st2" cx="20" cy="20" r="19.5"/>
		<g id="XMLID_297_">
			<path id="XMLID_317_" class="st1" d="M7.4,10.8c0.2-0.5,0.4-0.9,0.8-1.2c0.7-0.5,1.4-0.6,2.2-0.4c0.4,0.1,0.8,0,1.2,0.1
				c0.9,0.1,1.6,0.5,2,1.5c0.2,0.5,0.1,0.9-0.1,1.4c0,0.1-0.1,0.2,0,0.4c0.1,0.4,0.2,0.8,0.3,1.3c-0.1,0-0.2,0-0.3-0.1
				c-0.3-0.1-0.7-0.2-1-0.3c-0.3-0.1-0.6-0.1-0.9-0.1c-0.2,0-0.5,0-0.7,0c-0.3-0.1-0.7-0.1-1.1-0.1c-1.2,0-2-0.6-2.3-1.7
				C7.4,11.2,7.4,11,7.4,10.8z M13,13c0-0.2-0.1-0.3-0.1-0.4c-0.1-0.2,0-0.4,0.1-0.7c0.3-0.5,0.2-1.1-0.2-1.5c-0.8-0.8-2.2-0.8-3,0
				c-0.5,0.5-0.5,1.3,0,1.8c0.4,0.4,1,0.6,1.6,0.6c0.4,0,0.8,0,1.1,0.1C12.7,12.9,12.8,12.9,13,13z M9.9,9.6c-0.5,0-1,0.1-1.4,0.4
				C8,10.4,7.8,11,8,11.5c0.2,0.6,1,1,1.4,0.9C8.6,11.6,8.7,10.4,9.9,9.6z"/>
			<path id="XMLID_315_" class="st1" d="M24.3,19.8c-0.8,0.9-1.9,1.1-3,1.3c-0.1,0-0.2,0.1-0.3,0.1c-0.2,0.1-0.4,0.2-0.6,0.2
				c-0.8-0.1-1.6-0.2-2.4-0.6c-0.4-0.2-0.7-0.5-1.1-0.7c-0.1,0.3-0.1,0.6-0.2,0.9c-0.1,0.2-0.1,0.5-0.2,0.7
				c-0.1,0.5-0.4,0.9-0.9,1.1c-0.1,0.1-0.2,0.2-0.2,0.3c0,2.2,0,4.5,0,6.7c0,0.6-0.4,1.1-1,1.2c-0.8,0.1-1.4-0.4-1.4-1.2
				c0-1.3,0-2.5,0-3.8c0-1.1,0-2.2,0-3.3c0-0.1-0.1-0.3-0.1-0.3c-0.4-0.4-0.6-1-0.4-1.6c0.3-1.5,0.6-3,1-4.6
				c0.2-0.9,1.1-1.6,2.1-1.4c1,0.1,1.7,0.8,1.9,1.9c0.1,0.5,0.2,1,0.3,1.5c0.1,0.6,0.5,0.9,1.1,1.1c0.4,0.1,0.7,0.2,1.1,0.3
				c0,0,0.1,0,0.1,0c0.6-0.2,1.2-0.3,1.8-0.5c0.8-0.2,1.2-0.7,1.4-1.5c0.1-0.5,0.1-0.9,0.2-1.4c0.2-0.9,0.7-1.4,1.6-1.6
				c0.8-0.2,1.6,0,2.1,0.6c0.2,0.2,0.3,0.5,0.3,0.7c0.3,1.5,0.7,3.1,1,4.6c0.1,0.6,0,1.1-0.4,1.5c-0.1,0.1-0.2,0.2-0.2,0.4
				c0,2.4,0,4.9,0,7.3c0,0.6-0.3,1.1-0.9,1.2c-0.8,0.2-1.5-0.4-1.5-1.2c0-1.2,0-2.4,0-3.6c0-1.2,0-2.3,0-3.5c0-0.2,0-0.2-0.2-0.3
				c-0.4-0.2-0.7-0.6-0.8-1C24.5,21,24.4,20.4,24.3,19.8z"/>
			<path id="XMLID_311_" class="st1" d="M26.5,12.6c0,1.2-1,2.2-2.2,2.2c-1.2,0-2.2-1-2.2-2.2c0-1.2,1-2.2,2.3-2.2
				C25.6,10.4,26.5,11.4,26.5,12.6z"/>
			<path id="XMLID_309_" class="st1" d="M19,12.7c0.1,1.1-0.8,2.2-1.9,2.3c-1.4,0.2-2.4-0.8-2.5-2c-0.1-1.2,0.8-2.3,2.1-2.4
				C17.8,10.5,19,11.4,19,12.7z"/>
			<path id="XMLID_298_" class="st1" d="M27,13.3c0.1-0.5,0.2-0.9,0.3-1.3c0-0.1,0-0.2,0-0.2c-0.6-1-0.1-2,0.7-2.6
				c1-0.6,2.4-0.4,3.2,0.4c0.8,0.8,0.7,2.1-0.2,2.7c-0.5,0.4-1.2,0.6-1.8,0.5c-0.4,0-0.7,0-1,0.1C27.9,13.1,27.5,13.2,27,13.3z
				 M27.8,12.5c0.1,0,0.2-0.1,0.3-0.1c0.4-0.1,0.8-0.2,1.2-0.2c0.4,0,0.7,0,1.1-0.2c0.5-0.3,0.9-0.6,0.9-1.2c0-0.6-0.3-1-0.8-1.3
				c-0.6-0.3-1.2-0.3-1.9-0.1c-0.8,0.3-1.4,1.2-0.7,2.1c0,0.1,0,0.2,0,0.2C27.9,12.1,27.8,12.3,27.8,12.5z"/>
		</g>
	</g>
</g>
</svg>
