<svg xmlns="http://www.w3.org/2000/svg" xmlns:xlink="http://www.w3.org/1999/xlink" viewBox="0 0 1891.61 628"><defs><style>.cls-1{fill:#e68d1a;}.cls-1,.cls-6{fill-rule:evenodd;}.cls-2{font-size:28.03px;font-family:Roboto-Bold, Roboto;font-weight:700;}.cls-2,.cls-4,.cls-6{fill:#d8d9dd;}.cls-3{letter-spacing:-0.01em;}.cls-10,.cls-11,.cls-12,.cls-13,.cls-14,.cls-20,.cls-21,.cls-36,.cls-38,.cls-5{fill:none;}.cls-7{letter-spacing:-0.01em;}.cls-8{letter-spacing:-0.01em;}.cls-9{letter-spacing:-0.01em;}.cls-10,.cls-11,.cls-12,.cls-13,.cls-14{stroke:#d8d9dd;}.cls-10,.cls-11,.cls-12,.cls-13{stroke-linecap:round;stroke-width:5px;}.cls-10,.cls-11,.cls-12,.cls-13,.cls-14,.cls-16,.cls-20,.cls-21,.cls-34,.cls-36,.cls-38,.cls-47{stroke-miterlimit:10;}.cls-11{stroke-dasharray:0.99 11.91;}.cls-12{stroke-dasharray:1 12;}.cls-13{stroke-dasharray:1 11.95;}.cls-15,.cls-16,.cls-47{fill:#971e27;}.cls-16,.cls-47{stroke:#971e27;}.cls-16{stroke-width:0.37px;}.cls-17{fill:url(#Naranja_amarillo_3);}.cls-18{fill:#90272b;}.cls-19{fill:url(#Degradado_sin_nombre_8);}.cls-20,.cls-21{stroke-width:0.74px;}.cls-20{stroke:url(#Degradado_sin_nombre_6);}.cls-21{stroke:url(#Degradado_sin_nombre_4);}.cls-22{fill:#ce883e;}.cls-23{fill:url(#Nueva_muestra_de_degradado_5);}.cls-24{fill:#fff;}.cls-25{fill:url(#Nueva_muestra_de_degradado_5-2);}.cls-26{fill:url(#Nueva_muestra_de_degradado_5-3);}.cls-27{fill:url(#Nueva_muestra_de_degradado_5-4);}.cls-28{fill:url(#Nueva_muestra_de_degradado_5-5);}.cls-29{fill:url(#Nueva_muestra_de_degradado_5-6);}.cls-30{fill:url(#Nueva_muestra_de_degradado_5-7);}.cls-31{fill:#7c7b80;}.cls-32{fill:url(#Nueva_muestra_de_degradado_4);}.cls-33{fill:url(#Degradado_sin_nombre_4-2);}.cls-34{fill:#040006;stroke:#040006;}.cls-34,.cls-36,.cls-38{stroke-width:0.8px;}.cls-35{fill:url(#Naranja_amarillo_2);}.cls-36{stroke:url(#Naranja_amarillo_2-12);}.cls-37{fill:url(#Degradado_sin_nombre_5);}.cls-38{stroke:url(#Degradado_sin_nombre_12);}.cls-39{fill:url(#Nueva_muestra_de_degradado_6);}.cls-40{fill:url(#Nueva_muestra_de_degradado_6-2);}.cls-41{fill:url(#Nueva_muestra_de_degradado_6-3);}.cls-42{fill:url(#Nueva_muestra_de_degradado_6-4);}.cls-43{fill:#992127;}.cls-44{fill:url(#Nueva_muestra_de_degradado_5-8);}.cls-45{fill:url(#Nueva_muestra_de_degradado_4-12);}.cls-46{fill:url(#Nueva_muestra_de_degradado_4-13);}.cls-47{stroke-width:0.3px;}</style><linearGradient id="Naranja_amarillo_3" x1="881.31" y1="141.44" x2="1067.19" y2="141.44" gradientUnits="userSpaceOnUse"><stop offset="0" stop-color="#eee34b"/><stop offset="0.01" stop-color="#ede049"/><stop offset="0.1" stop-color="#e7cd3f"/><stop offset="0.19" stop-color="#e4c239"/><stop offset="0.28" stop-color="#e3be37"/><stop offset="0.67" stop-color="#d08940"/><stop offset="0.89" stop-color="#c15e39"/><stop offset="1" stop-color="#b73731"/></linearGradient><linearGradient id="Degradado_sin_nombre_8" x1="1035.7" y1="124.47" x2="1071.13" y2="124.47" gradientUnits="userSpaceOnUse"><stop offset="0" stop-color="#c0603b"/><stop offset="1" stop-color="#ebdf4e"/></linearGradient><linearGradient id="Degradado_sin_nombre_6" x1="860.04" y1="-18942.63" x2="871.43" y2="-18942.63" gradientTransform="matrix(1, 0, 0, -1, 0, -18800)" gradientUnits="userSpaceOnUse"><stop offset="0" stop-color="#ebdf4e"/><stop offset="0.02" stop-color="#e8d84d"/><stop offset="0.15" stop-color="#d3a743"/><stop offset="0.28" stop-color="#c07d3a"/><stop offset="0.42" stop-color="#b15b33"/><stop offset="0.56" stop-color="#a6402e"/><stop offset="0.7" stop-color="#9e2d2a"/><stop offset="0.85" stop-color="#992228"/><stop offset="1" stop-color="#971e27"/></linearGradient><linearGradient id="Degradado_sin_nombre_4" x1="860.19" y1="-18947.65" x2="881.87" y2="-18947.65" gradientTransform="matrix(1, 0, 0, -1, 0, -18800)" gradientUnits="userSpaceOnUse"><stop offset="0" stop-color="#ebdf4e"/><stop offset="0.01" stop-color="#ebde4d"/><stop offset="0.33" stop-color="#e5cb3f"/><stop offset="0.65" stop-color="#e2c037"/><stop offset="1" stop-color="#e1bc34"/></linearGradient><linearGradient id="Nueva_muestra_de_degradado_5" x1="806.46" y1="130.48" x2="851.35" y2="130.48" gradientUnits="userSpaceOnUse"><stop offset="0" stop-color="#ebdf4e"/><stop offset="0.13" stop-color="#e0bf49"/><stop offset="0.3" stop-color="#d59d44"/><stop offset="0.46" stop-color="#cc8240"/><stop offset="0.64" stop-color="#c56f3d"/><stop offset="0.81" stop-color="#c1643c"/><stop offset="1" stop-color="#c0603b"/></linearGradient><linearGradient id="Nueva_muestra_de_degradado_5-2" x1="821.68" y1="-18934.88" x2="835.69" y2="-18934.88" gradientTransform="matrix(1, 0, 0, -1, 0, -18800)" xlink:href="#Nueva_muestra_de_degradado_5"/><linearGradient id="Nueva_muestra_de_degradado_5-3" x1="823.95" y1="-18924.62" x2="833.46" y2="-18924.62" gradientTransform="matrix(1, 0, 0, -1, 0, -18800)" xlink:href="#Nueva_muestra_de_degradado_5"/><linearGradient id="Nueva_muestra_de_degradado_5-4" x1="813.75" y1="-18933.58" x2="822.25" y2="-18933.58" gradientTransform="matrix(1, 0, 0, -1, 0, -18800)" xlink:href="#Nueva_muestra_de_degradado_5"/><linearGradient id="Nueva_muestra_de_degradado_5-5" x1="835.15" y1="-18933.6" x2="843.61" y2="-18933.6" gradientTransform="matrix(1, 0, 0, -1, 0, -18800)" xlink:href="#Nueva_muestra_de_degradado_5"/><linearGradient id="Nueva_muestra_de_degradado_5-6" x1="815.42" y1="-18926.62" x2="822.34" y2="-18926.62" gradientTransform="matrix(1, 0, 0, -1, 0, -18800)" xlink:href="#Nueva_muestra_de_degradado_5"/><linearGradient id="Nueva_muestra_de_degradado_5-7" x1="835.06" y1="-18926.61" x2="841.99" y2="-18926.61" gradientTransform="matrix(1, 0, 0, -1, 0, -18800)" xlink:href="#Nueva_muestra_de_degradado_5"/><linearGradient id="Nueva_muestra_de_degradado_4" x1="863.61" y1="125.82" x2="1025.85" y2="125.82" gradientUnits="userSpaceOnUse"><stop offset="0.22" stop-color="#971e27"/><stop offset="0.66" stop-color="#b83831"/></linearGradient><linearGradient id="Degradado_sin_nombre_4-2" x1="879.66" y1="-18941.43" x2="883.71" y2="-18941.43" xlink:href="#Degradado_sin_nombre_4"/><linearGradient id="Naranja_amarillo_2" x1="1165.44" y1="120.45" x2="1331.25" y2="120.45" gradientUnits="userSpaceOnUse"><stop offset="0" stop-color="#e2d851"/><stop offset="0" stop-color="#e2d750"/><stop offset="0.09" stop-color="#dcc446"/><stop offset="0.18" stop-color="#d9b93f"/><stop offset="0.28" stop-color="#d8b53d"/><stop offset="0.67" stop-color="#c78442"/><stop offset="0.89" stop-color="#b75c3a"/><stop offset="1" stop-color="#ac3933"/></linearGradient><linearGradient id="Naranja_amarillo_2-12" x1="1165.03" y1="120.45" x2="1331.65" y2="120.45" xlink:href="#Naranja_amarillo_2"/><linearGradient id="Degradado_sin_nombre_5" x1="1278.94" y1="148.95" x2="1333.4" y2="148.95" gradientUnits="userSpaceOnUse"><stop offset="0.24" stop-color="#ac3a32"/><stop offset="0.79" stop-color="#8f2228"/></linearGradient><linearGradient id="Degradado_sin_nombre_12" x1="1278.51" y1="148.95" x2="1333.8" y2="148.95" gradientUnits="userSpaceOnUse"><stop offset="0.19" stop-color="#ac3a32"/><stop offset="0.77" stop-color="#8f2228"/></linearGradient><linearGradient id="Nueva_muestra_de_degradado_6" x1="1333.42" y1="-18923.8" x2="1390.61" y2="-18923.8" gradientTransform="matrix(1, 0, 0, -1, 0, -18800)" gradientUnits="userSpaceOnUse"><stop offset="0.22" stop-color="#8f2228"/><stop offset="0.66" stop-color="#ac3a32"/></linearGradient><linearGradient id="Nueva_muestra_de_degradado_6-2" x1="1345.45" y1="-18946.63" x2="1354.3" y2="-18946.63" xlink:href="#Nueva_muestra_de_degradado_6"/><linearGradient id="Nueva_muestra_de_degradado_6-3" x1="1358.19" y1="-18940.43" x2="1367.03" y2="-18940.43" xlink:href="#Nueva_muestra_de_degradado_6"/><linearGradient id="Nueva_muestra_de_degradado_6-4" x1="1370.92" y1="-18938.73" x2="1379.77" y2="-18938.73" xlink:href="#Nueva_muestra_de_degradado_6"/><linearGradient id="Nueva_muestra_de_degradado_5-8" x1="575.39" y1="127.66" x2="642.29" y2="127.66" xlink:href="#Nueva_muestra_de_degradado_5"/><linearGradient id="Nueva_muestra_de_degradado_4-12" x1="500.99" y1="-18934.28" x2="565.02" y2="-18934.28" gradientTransform="matrix(1, 0, 0, -1, 0, -18800)" xlink:href="#Nueva_muestra_de_degradado_4"/><linearGradient id="Nueva_muestra_de_degradado_4-13" x1="650.3" y1="123.67" x2="698.57" y2="123.67" xlink:href="#Nueva_muestra_de_degradado_4"/></defs><title>info-us-porque</title><g id="OBJECTS"><path class="cls-1" d="M335.68,525.14c-47.5,0-85.32-38.52-86-86-1-68.5,82.93-107.48,86-107.48,3.31,0,86,46,86,107.48a86,86,0,0,1-86,86Zm0-24.4a61,61,0,1,1,61-61,61,61,0,0,1-61,61Z"/><path class="cls-1" d="M642.88,525.14c-47.5,0-85.32-38.52-86-86-1-68.5,82.92-107.48,86-107.48,3.32,0,86,46,86,107.48a86,86,0,0,1-86,86Zm0-24.4a61,61,0,1,1,61-61,61,61,0,0,1-61,61Z"/><path class="cls-1" d="M950.08,525.14c-47.5,0-85.32-38.52-86-86-1-68.5,82.93-107.48,86-107.48,3.32,0,86,46,86,107.48a86,86,0,0,1-86,86Zm0-24.4a61,61,0,1,1,61-61,61,61,0,0,1-61,61Z"/><path class="cls-1" d="M1257.28,525.14c-47.51,0-85.32-38.52-86-86-1-68.5,82.92-107.48,86-107.48,3.31,0,86,46,86,107.48a86,86,0,0,1-86,86Zm0-24.4a61,61,0,1,1,61-61,61,61,0,0,1-61,61Z"/><path class="cls-1" d="M1564.48,525.14c-47.5,0-85.32-38.52-86-86-1-68.5,82.94-107.48,86-107.48,3.31,0,86,46,86,107.48a86,86,0,0,1-86,86Zm0-24.4a61,61,0,1,1,61-61,61,61,0,0,1-61,61Z"/><text class="cls-2" transform="translate(1492.63 260.48)">P<tspan class="cls-3" x="17.86" y="0">r</tspan><tspan x="27.47" y="0">ecio justo</tspan><tspan x="14.45" y="33.64">asequible</tspan></text><path class="cls-4" d="M1270.85,410.6l-26.64,0a5.34,5.34,0,0,0-5.33,5.32v8h5.33v-2.67h26.64v37.3h-26.64v-2.66h-5.33v8a5.35,5.35,0,0,0,5.33,5.33h26.64a5.35,5.35,0,0,0,5.33-5.33v-48A5.32,5.32,0,0,0,1270.85,410.6Zm-21.32,37.27h5.33V429.22h-18.65v5.33h9.57l-14.89,14.89,3.75,3.76,14.89-14.89Z"/><path class="cls-4" d="M969.74,423.39v33.77a9.34,9.34,0,0,1-9.31,9.32h-17a9.32,9.32,0,0,1-6.64-2.77L918.5,445.12s2.93-2.86,3-2.91a2.79,2.79,0,0,1,3.23-.3c.1,0,10,5.73,10,5.73V419.89a3.5,3.5,0,0,1,7,0V436.2h2.33V414.07a3.5,3.5,0,0,1,7,0V436.2h2.33V416.4a3.5,3.5,0,0,1,7,0v19.8h2.33V423.39a3.49,3.49,0,1,1,7,0Z"/><path class="cls-4" d="M310.85,459.72H338v4.52H310.85Zm9.61-29.26,6.4-6.39,32,32-6.4,6.4Zm16-16,12.79,12.79-6.4,6.41-12.79-12.81Zm-19.22,19.19,12.8,12.8-6.4,6.4-12.79-12.8Z"/><path class="cls-5" d="M604.81,398.61h76.13v76.12H604.81Z"/><path class="cls-4" d="M657.15,436.67a7.93,7.93,0,1,0-7.93-7.93A7.91,7.91,0,0,0,657.15,436.67Zm-23.79-3.17a9.52,9.52,0,1,0-9.52-9.52A9.48,9.48,0,0,0,633.36,433.5ZM657.15,443c-5.81,0-17.45,2.92-17.45,8.73v7.13h34.89v-7.13C674.59,445.93,663,443,657.15,443Zm-23.79-3.17c-7.39,0-22.2,3.71-22.2,11.1v7.93h22.2v-7.13c0-2.7,1-7.43,7.52-11A39.11,39.11,0,0,0,633.36,439.84Z"/><path class="cls-6" d="M1559.53,441.79q0,2.4,3.48,2.86v-5.74a4.23,4.23,0,0,0-2.48.74,2.47,2.47,0,0,0-1,2.14Z"/><path class="cls-6" d="M1565.33,449.07v6.55a4.08,4.08,0,0,0,2.69-.94,3,3,0,0,0,1.08-2.41q0-2.49-3.77-3.2Z"/><path class="cls-6" d="M1571.4,414.85a.87.87,0,0,1,.28,0,84.2,84.2,0,0,0,4.59-7.32c3.53-6.1-5.24-6.07-11.78-6.07s-15-.16-11.92,6.07a41,41,0,0,0,4.62,7.41,1,1,0,0,1,.5-.14Z"/><path class="cls-6" d="M1570.93,456.54a8.89,8.89,0,0,1-5.6,2.21v3.16H1563v-3.16c-4.23-.36-7-2.4-8.13-6.15l3.68-.86a4.73,4.73,0,0,0,4.45,3.88v-6.75c-3-.69-5-1.57-5.89-2.64a5.7,5.7,0,0,1-1.37-3.82q0-5.76,7.26-6.65V433.3h2.32v2.46q5.31.69,6.71,5.25l-3.47.73a3.65,3.65,0,0,0-3.24-2.83v6a42,42,0,0,1,4.5,1.47,4.9,4.9,0,0,1,2.1,2,6.43,6.43,0,0,1,.93,3.49,6.28,6.28,0,0,1-1.93,4.71ZM1573,419c-.25,1.14-.89,2-1.64,2h-13.7c-.86,0-1.58-1.06-1.74-2.46-10.14,6.14-18.41,21.88-18.41,34.28,0,15.76,12.06,20.13,26.92,20.13s26.92-4.37,26.92-20.13c0-12.08-8.89-27.32-18.35-33.78Z"/><path class="cls-4" d="M1588.19,425.59l-4.2-4.2-1.4,1.4,5.6,5.6,12-12-1.4-1.4Z"/><text class="cls-2" transform="translate(283.51 260.48)">Respaldo<tspan x="11.29" y="33.64">jurídico</tspan></text><text class="cls-2" transform="translate(542.21 260.48)">Acompañamiento<tspan x="64.74" y="33.64">técnico</tspan></text><text class="cls-2" transform="translate(1183.08 260.48)">Inn<tspan class="cls-7" x="39.88" y="0">ov</tspan><tspan x="69.61" y="0">ación</tspan><tspan class="cls-8" x="-31.22" y="33.64">r</tspan><tspan x="-21.61" y="33.64">esponsabilidad</tspan></text><text class="cls-2" transform="translate(869.48 260.48)">Comp<tspan class="cls-9" x="73.74" y="0">r</tspan><tspan x="83.34" y="0">omiso</tspan><tspan x="6.38" y="33.64">emp</tspan><tspan class="cls-8" x="61.12" y="33.64">r</tspan><tspan x="70.73" y="33.64">esarial</tspan></text><path class="cls-10" d="M220.46,442.75H220"/><path class="cls-11" d="M208.12,441.55a63.55,63.55,0,0,1-51.18-62.33V196.08a63.52,63.52,0,0,1,63.52-63.52H450.84"/><line class="cls-10" x1="456.79" y1="132.56" x2="457.29" y2="132.56"/><polygon class="cls-6" points="457.05 119.33 470.28 132.56 457.05 145.79 457.05 119.33 457.05 119.33"/><polygon class="cls-6" points="1434.56 119.33 1421.32 132.56 1434.56 145.79 1434.56 119.33 1434.56 119.33"/><polygon class="cls-6" points="226.91 429.51 240.15 442.75 226.91 455.98 226.91 429.51 226.91 429.51"/><line class="cls-12" x1="439.32" y1="442.85" x2="526.46" y2="442.85"/><polygon class="cls-6" points="529.58 429.51 542.81 442.75 529.58 455.98 529.58 429.51 529.58 429.51"/><line class="cls-12" x1="749.93" y1="442.85" x2="837.06" y2="442.85"/><polygon class="cls-6" points="840.18 429.51 853.42 442.75 840.18 455.98 840.18 429.51 840.18 429.51"/><line class="cls-12" x1="1057.12" y1="442.85" x2="1144.25" y2="442.85"/><polygon class="cls-6" points="1147.37 429.51 1160.61 442.75 1147.37 455.98 1147.37 429.51 1147.37 429.51"/><line class="cls-12" x1="1362.23" y1="442.85" x2="1449.36" y2="442.85"/><polygon class="cls-6" points="1452.48 429.51 1465.71 442.75 1452.48 455.98 1452.48 429.51 1452.48 429.51"/><path class="cls-10" d="M1673.36,442.75h.5"/><path class="cls-13" d="M1685.73,441.54a63.55,63.55,0,0,0,51.15-62.32V196.08a63.52,63.52,0,0,0-63.52-63.52H1441"/><line class="cls-10" x1="1435.06" y1="132.56" x2="1434.56" y2="132.56"/><polygon class="cls-6" points="1673.36 429.07 1660.12 442.31 1673.36 455.54 1673.36 429.07 1673.36 429.07"/><line class="cls-14" x1="749.93" y1="94" x2="749.93" y2="166"/><line class="cls-14" x1="1108.52" y1="94" x2="1108.52" y2="166"/><path class="cls-15" d="M925.27,147.9q0,1.11,0,2.52c0,1,0,1.63,0,2.05,0,1.32,0,2.38,0,3.16s0,1.21,0,1.26l-.93.45q-2.13-2.86-4-5.16l-2.13-2.67h0q0,1.88,0,4.62c0,1.83,0,2.88,0,3.16h-1.1c0-.12,0-.53,0-1.25s0-1.71,0-3c0-.51,0-1.18,0-2s0-1.74,0-2.68l1.07-.51,2.15,2.73q2,2.56,3.81,4.77h0c0-.72,0-1.93,0-3.64s0-3,0-3.79Z"/><path class="cls-15" d="M933.68,157.3h-1.07v-.81h0a8.39,8.39,0,0,1-1.22.66,3.37,3.37,0,0,1-1.45.34,2,2,0,0,1-1.51-.57,2.24,2.24,0,0,1-.55-1.62c0-.37,0-.82,0-1.33s0-.9,0-1.13c0-.43,0-1,0-1.57s0-1,0-1.06H929c0,.06,0,.4,0,1s0,1.1,0,1.47v1.2c0,.49,0,.83,0,1a2.21,2.21,0,0,0,.29,1.21,1,1,0,0,0,.88.39,3.32,3.32,0,0,0,1.38-.34,6.28,6.28,0,0,0,1.09-.59c0-.05,0-.31,0-.77s0-1,0-1.73c0-.49,0-1.08,0-1.76s0-1.06,0-1.12h1.11c0,.08,0,.34,0,.79s0,1.21,0,2.28c0,.61,0,1.14,0,1.59S933.67,156.13,933.68,157.3Z"/><path class="cls-15" d="M941.44,153.49h-5.08a3.14,3.14,0,0,0,.32,1.37,2.5,2.5,0,0,0,1,1,2.81,2.81,0,0,0,.92.39,5.05,5.05,0,0,0,1.25.13c.27,0,.51,0,.74,0l.41,0-.13.94-.37,0-.75,0a6,6,0,0,1-2-.29,3.69,3.69,0,0,1-1.37-.81,3.6,3.6,0,0,1-.77-1.09,3.42,3.42,0,0,1-.32-1.48,4.16,4.16,0,0,1,.24-1.45,4.09,4.09,0,0,1,.71-1.2,2.73,2.73,0,0,1,1-.73,3.41,3.41,0,0,1,2.43-.07,2.3,2.3,0,0,1,.88.6,2.91,2.91,0,0,1,.63,1.1A5.22,5.22,0,0,1,941.44,153.49Zm-1.09-.79a2.34,2.34,0,0,0-.59-1.36,1.7,1.7,0,0,0-1.27-.5,1.81,1.81,0,0,0-1.31.51,2.6,2.6,0,0,0-.73,1.35Z"/><path class="cls-15" d="M946.87,155.25a1.79,1.79,0,0,1-.25.92,2.08,2.08,0,0,1-.66.66,3.34,3.34,0,0,1-1,.4,5.24,5.24,0,0,1-1.3.14l-.71,0-.42,0,0-.92.49,0q.42,0,.84,0a5.3,5.3,0,0,0,.63,0,2.41,2.41,0,0,0,.64-.15,1.28,1.28,0,0,0,.52-.38.89.89,0,0,0,.17-.54.7.7,0,0,0-.15-.47,1.57,1.57,0,0,0-.4-.35,5.89,5.89,0,0,0-.77-.4,6.92,6.92,0,0,1-.82-.41,2.25,2.25,0,0,1-.72-.68,1.65,1.65,0,0,1-.25-.92,1.63,1.63,0,0,1,.29-.93,2.15,2.15,0,0,1,.76-.67,3,3,0,0,1,.92-.29,6.56,6.56,0,0,1,1-.08l.7,0h.32l.08.93-.44,0q-.37,0-.84,0a4,4,0,0,0-.61,0,2,2,0,0,0-.5.17,1,1,0,0,0-.43.37.76.76,0,0,0-.13.42.68.68,0,0,0,.18.48,1.83,1.83,0,0,0,.43.35c.19.11.46.24.79.4a7.33,7.33,0,0,1,.72.37,2.29,2.29,0,0,1,.75.69A1.56,1.56,0,0,1,946.87,155.25Z"/><path class="cls-15" d="M952.42,156.43l-.13.89-.24,0h-.33a3.39,3.39,0,0,1-2.18-.6,2.23,2.23,0,0,1-.73-1.84c0-.52,0-1.08,0-1.67s0-1.33,0-2.21h-1.18v-.82h1.24v-1.66h1v1.66h2.51V151h-2.51c0,.1,0,.39,0,.88s0,.84,0,1.08v1.74a1.57,1.57,0,0,0,.49,1.31,2.36,2.36,0,0,0,1.52.41h.52Z"/><path class="cls-15" d="M958,151a12.08,12.08,0,0,0-1.19.38c-.53.2-1.14.46-1.83.79,0,.05,0,.29,0,.7s0,.81,0,1.17c0,.55,0,1.21,0,2s0,1.18,0,1.26h-1.11c0-.08,0-.34,0-.78s0-1.21,0-2.29c0-.43,0-1,0-1.82s0-1.52,0-2.21H955v1.07h0a16.33,16.33,0,0,1,1.57-.78,9.46,9.46,0,0,1,1.23-.45Z"/><path class="cls-15" d="M965.39,153.75a4.15,4.15,0,0,1-.29,1.56,3.44,3.44,0,0,1-.84,1.27,3.26,3.26,0,0,1-1,.67,3.21,3.21,0,0,1-1.28.23,3.48,3.48,0,0,1-1.26-.22,3.42,3.42,0,0,1-1.05-.67,3.59,3.59,0,0,1-.83-1.27,4.43,4.43,0,0,1-.29-1.58,4.2,4.2,0,0,1,.25-1.49,3.39,3.39,0,0,1,.78-1.22,3.29,3.29,0,0,1,2.41-1,3.45,3.45,0,0,1,1.32.24,3,3,0,0,1,1.06.72,3.68,3.68,0,0,1,.79,1.25A4.15,4.15,0,0,1,965.39,153.75Zm-1.12.05a3.8,3.8,0,0,0-.22-1.29,2.61,2.61,0,0,0-.66-1,1.89,1.89,0,0,0-.65-.41,2.29,2.29,0,0,0-.78-.14,2.17,2.17,0,0,0-.84.15,2.21,2.21,0,0,0-.68.49,2.68,2.68,0,0,0-.58,1,3.47,3.47,0,0,0-.22,1.23,4,4,0,0,0,.22,1.31,2.63,2.63,0,0,0,.7,1,2,2,0,0,0,.63.37,2.17,2.17,0,0,0,.76.13,2.27,2.27,0,0,0,.83-.15,1.89,1.89,0,0,0,.67-.45,2.8,2.8,0,0,0,.61-1A3.54,3.54,0,0,0,964.27,153.8Z"/><path class="cls-16" d="M975.82,153.49h-5.07a3.13,3.13,0,0,0,.31,1.37,2.57,2.57,0,0,0,1,1,2.77,2.77,0,0,0,.93.39,5,5,0,0,0,1.25.13c.26,0,.51,0,.73,0l.41,0-.13.94-.37,0-.74,0a6.08,6.08,0,0,1-2-.29,3.65,3.65,0,0,1-1.36-.81,3.46,3.46,0,0,1-.78-1.09,3.42,3.42,0,0,1-.32-1.48,4.16,4.16,0,0,1,.24-1.45,3.91,3.91,0,0,1,.72-1.2,2.65,2.65,0,0,1,1-.73,3.07,3.07,0,0,1,1.27-.26,3.25,3.25,0,0,1,1.16.19,2.27,2.27,0,0,1,.87.6,3.07,3.07,0,0,1,.64,1.1A5.24,5.24,0,0,1,975.82,153.49Zm-1.09-.79a2.28,2.28,0,0,0-.59-1.36,1.69,1.69,0,0,0-1.27-.5,1.81,1.81,0,0,0-1.31.51,2.68,2.68,0,0,0-.73,1.35Z"/><path class="cls-16" d="M982.8,160.49h-1.12l0-3.2a8.9,8.9,0,0,1-1.65-.13,5.71,5.71,0,0,1-1.24-.34,3.64,3.64,0,0,1-1.57-1.23,3.38,3.38,0,0,1-.54-1.94,3,3,0,0,1,.48-1.63,3.47,3.47,0,0,1,1.31-1.21,4.93,4.93,0,0,1,1.51-.53,11.89,11.89,0,0,1,2.08-.14h.71c0,.93,0,1.88,0,2.85s0,1.55,0,1.76c0,1,0,2.16,0,3.54S982.8,160.41,982.8,160.49Zm-1.08-6.15c0-1.11,0-1.93,0-2.45s0-.81,0-.86a8.28,8.28,0,0,0-1.38.1,4.28,4.28,0,0,0-1.19.4,2.22,2.22,0,0,0-1,.87,2.43,2.43,0,0,0-.34,1.28,2.48,2.48,0,0,0,.37,1.38,2.55,2.55,0,0,0,1.09.92,4,4,0,0,0,1,.31,6.31,6.31,0,0,0,1.23.11h.22v-.92C981.71,155.12,981.72,154.74,981.72,154.34Z"/><path class="cls-16" d="M990.83,157.3h-1.08v-.81h0a8.55,8.55,0,0,1-1.23.66,3.37,3.37,0,0,1-1.44.34,2,2,0,0,1-1.52-.57,2.28,2.28,0,0,1-.54-1.62c0-.37,0-.82,0-1.33s0-.9,0-1.13c0-.43,0-1,0-1.57s0-1,0-1.06h1.11c0,.06,0,.4,0,1s0,1.1,0,1.47,0,.72,0,1.2,0,.83,0,1a2.22,2.22,0,0,0,.28,1.21,1,1,0,0,0,.89.39,3.31,3.31,0,0,0,1.37-.34,6.45,6.45,0,0,0,1.1-.59c0-.05,0-.31,0-.77v-1.73c0-.49,0-1.08,0-1.76s0-1.06,0-1.12h1.11c0,.08,0,.34,0,.79s0,1.21,0,2.28c0,.61,0,1.14,0,1.59S990.82,156.13,990.83,157.3Z"/><path class="cls-16" d="M994.36,148.84h-1.24v-1.21h1.24Zm-.07,8.46h-1.11c0-.07,0-.53,0-1.38s0-1.55,0-2.1v-1.59c0-.58,0-1.25,0-2h1.11c0,.67,0,1.3,0,1.89s0,1.11,0,1.57c0,1.09,0,2,0,2.62S994.29,157.28,994.29,157.3Z"/><path class="cls-16" d="M1002.72,153.53a3.4,3.4,0,0,1-.48,1.85,3.47,3.47,0,0,1-1.31,1.21,5.29,5.29,0,0,1-1.57.53,9.41,9.41,0,0,1-1.63.15l0,3.22h-1.11c0-.08,0-.72,0-1.94s0-2.43,0-3.65v-2.14c0-.81,0-1.68,0-2.62h.78a13.41,13.41,0,0,1,2.29.15,4.53,4.53,0,0,1,1.48.55,3,3,0,0,1,1.52,2.69Zm-1.12,0a2.24,2.24,0,0,0-.32-1.2,2.44,2.44,0,0,0-.84-.82,3.65,3.65,0,0,0-1.08-.39,5.84,5.84,0,0,0-1.3-.13h-.31c0,.08,0,.36,0,.83s0,1.3,0,2.46v2.08a7.38,7.38,0,0,0,1.32-.13,4.27,4.27,0,0,0,1.09-.33,2.57,2.57,0,0,0,1.09-.93A2.61,2.61,0,0,0,1001.6,153.57Z"/><path class="cls-16" d="M1010.57,153.75a4.36,4.36,0,0,1-.29,1.56,3.71,3.71,0,0,1-.84,1.27,3.19,3.19,0,0,1-2.31.9,3.48,3.48,0,0,1-1.26-.22,3.35,3.35,0,0,1-1.06-.67,3.57,3.57,0,0,1-.82-1.27,4.43,4.43,0,0,1-.29-1.58,4.2,4.2,0,0,1,.25-1.49,3.36,3.36,0,0,1,.77-1.22,3.47,3.47,0,0,1,1.1-.75,3.24,3.24,0,0,1,1.32-.26,3.52,3.52,0,0,1,1.32.24,3,3,0,0,1,1.06.72,3.68,3.68,0,0,1,.79,1.25A4.37,4.37,0,0,1,1010.57,153.75Zm-1.12.05a4.06,4.06,0,0,0-.22-1.29,2.61,2.61,0,0,0-.66-1,1.89,1.89,0,0,0-.65-.41,2.29,2.29,0,0,0-.78-.14,2.1,2.1,0,0,0-.84.15,2.21,2.21,0,0,0-.68.49,2.54,2.54,0,0,0-.58,1,3.47,3.47,0,0,0-.22,1.23,3.71,3.71,0,0,0,.22,1.31,2.53,2.53,0,0,0,.7,1,1.81,1.81,0,0,0,.63.37,2.13,2.13,0,0,0,.76.13,2.18,2.18,0,0,0,.82-.15,1.8,1.8,0,0,0,.67-.45,2.69,2.69,0,0,0,.62-1A3.54,3.54,0,0,0,1009.45,153.8Z"/><path class="cls-15" d="M1020.21,156.39l-.09.94h-.38a8.3,8.3,0,0,1-1.7-.17,5.87,5.87,0,0,1-1.41-.51,3.56,3.56,0,0,1-1.32-1.23,3.15,3.15,0,0,1-.48-1.71,2.87,2.87,0,0,1,.44-1.54,3.58,3.58,0,0,1,1.13-1.16,4.93,4.93,0,0,1,1.51-.62,7.9,7.9,0,0,1,1.83-.21h.28l.06.94h-.22a8.42,8.42,0,0,0-1.33.09,5.06,5.06,0,0,0-1.07.32,2.33,2.33,0,0,0-1.1.88,2.27,2.27,0,0,0-.41,1.29,2.34,2.34,0,0,0,.39,1.38,2.49,2.49,0,0,0,1,.86,4.12,4.12,0,0,0,1.11.34,7.77,7.77,0,0,0,1.3.11h.45Z"/><path class="cls-15" d="M1028,153.75a4.15,4.15,0,0,1-.29,1.56,3.44,3.44,0,0,1-.84,1.27,3.34,3.34,0,0,1-1,.67,3.3,3.3,0,0,1-1.29.23,3.48,3.48,0,0,1-1.26-.22,3.42,3.42,0,0,1-1-.67,3.59,3.59,0,0,1-.83-1.27,4.5,4.5,0,0,1,0-3.07,3.53,3.53,0,0,1,.78-1.22,3.42,3.42,0,0,1,1.09-.75,3.31,3.31,0,0,1,1.32-.26,3.45,3.45,0,0,1,1.32.24,3,3,0,0,1,1.06.72,3.53,3.53,0,0,1,.79,1.25A4.15,4.15,0,0,1,1028,153.75Zm-1.12.05a4.05,4.05,0,0,0-.21-1.29,2.74,2.74,0,0,0-.67-1,1.89,1.89,0,0,0-.65-.41,2.29,2.29,0,0,0-.78-.14,1.87,1.87,0,0,0-1.51.64,2.56,2.56,0,0,0-.59,1,3.7,3.7,0,0,0-.21,1.23,4,4,0,0,0,.21,1.31,2.63,2.63,0,0,0,.7,1,2,2,0,0,0,.64.37,2.08,2.08,0,0,0,.75.13,2.27,2.27,0,0,0,.83-.15,1.89,1.89,0,0,0,.67-.45,2.67,2.67,0,0,0,.61-1A3.54,3.54,0,0,0,1026.88,153.8Z"/><path class="cls-15" d="M1035.48,157.3h-1.11c0-.13,0-.56,0-1.3s0-1.19,0-1.36,0-.6,0-1.08,0-.82,0-1a1.85,1.85,0,0,0-.31-1.16,1.22,1.22,0,0,0-1-.35,3,3,0,0,0-1.06.26,8,8,0,0,0-1.28.64c0,.05,0,.33,0,.84v1.38c0,.54,0,1.2,0,2s0,1.17,0,1.21h-1.11s0-.32,0-.86,0-1.34,0-2.41V152.3q0-1,0-2.1h1.1V151h0a9.25,9.25,0,0,1,1.64-.78,3.43,3.43,0,0,1,1.09-.22,1.88,1.88,0,0,1,1.44.56,2.15,2.15,0,0,1,.54,1.55c0,.59,0,1.1,0,1.53s0,.77,0,1c0,.42,0,1,0,1.59S1035.48,157.27,1035.48,157.3Z"/><path class="cls-15" d="M1041.58,156.43l-.13.89-.24,0h-.33a3.39,3.39,0,0,1-2.18-.6,2.23,2.23,0,0,1-.74-1.84c0-.52,0-1.08,0-1.67s0-1.33,0-2.21h-1.18v-.82h1.25v-1.66h1v1.66h2.52V151h-2.52c0,.1,0,.39,0,.88s0,.84,0,1.08v1.74a1.6,1.6,0,0,0,.49,1.31,2.38,2.38,0,0,0,1.52.41h.53Z"/><path class="cls-15" d="M1044.31,148.84h-1.23v-1.21h1.23Zm-.06,8.46h-1.11c0-.07,0-.53,0-1.38s0-1.55,0-2.1v-1.59c0-.58,0-1.25,0-2h1.11c0,.67,0,1.3,0,1.89s0,1.11,0,1.57c0,1.09,0,2,0,2.62S1044.25,157.28,1044.25,157.3Z"/><path class="cls-15" d="M1052,150.14c0,.1,0,.56,0,1.39s0,1.6,0,2.35c0,.5,0,1,0,1.54v1.44a3.57,3.57,0,0,1-.41,1.88,3,3,0,0,1-1.16,1.09,6.08,6.08,0,0,1-1.46.49,11.07,11.07,0,0,1-2.07.17l-.12-.89c.55,0,1,0,1.48-.08a5.11,5.11,0,0,0,1.18-.27,2.27,2.27,0,0,0,1.15-.82,2.4,2.4,0,0,0,.33-1.24h-.33a8,8,0,0,1-1.72-.2,4.15,4.15,0,0,1-1.51-.64,3.18,3.18,0,0,1-1-1.08,3.3,3.3,0,0,1-.38-1.65,2.89,2.89,0,0,1,.54-1.73,3.75,3.75,0,0,1,1.44-1.19,4.94,4.94,0,0,1,1.41-.44,12.06,12.06,0,0,1,1.84-.12h.81Zm-1.07,3.73c0-.34,0-.76,0-1.27s0-1,0-1.57h-.19a7.63,7.63,0,0,0-1.14.08,4.57,4.57,0,0,0-1,.32,2.3,2.3,0,0,0-1.1.9,2.5,2.5,0,0,0-.38,1.35,2.25,2.25,0,0,0,.38,1.31,2.44,2.44,0,0,0,1,.85,4.35,4.35,0,0,0,1,.33,5,5,0,0,0,1.19.13h.26c0-.06,0-.32,0-.78S1050.9,154.5,1050.9,153.87Z"/><path class="cls-15" d="M1060.47,153.75a4.36,4.36,0,0,1-.29,1.56,3.44,3.44,0,0,1-.84,1.27,3.26,3.26,0,0,1-1,.67,3.21,3.21,0,0,1-1.28.23,3.48,3.48,0,0,1-1.26-.22,3.3,3.3,0,0,1-1-.67,3.59,3.59,0,0,1-.83-1.27,4.43,4.43,0,0,1-.29-1.58,4.2,4.2,0,0,1,.25-1.49,3.41,3.41,0,0,1,1.87-2A3.31,3.31,0,0,1,1057,150a3.45,3.45,0,0,1,1.32.24,3,3,0,0,1,1.06.72,3.68,3.68,0,0,1,.79,1.25A4.37,4.37,0,0,1,1060.47,153.75Zm-1.12.05a3.8,3.8,0,0,0-.22-1.29,2.61,2.61,0,0,0-.66-1,1.89,1.89,0,0,0-.65-.41,2.29,2.29,0,0,0-.78-.14,2.17,2.17,0,0,0-.84.15,2.21,2.21,0,0,0-.68.49,2.54,2.54,0,0,0-.58,1,3.47,3.47,0,0,0-.22,1.23,4,4,0,0,0,.22,1.31,2.63,2.63,0,0,0,.7,1,2,2,0,0,0,.63.37,2.17,2.17,0,0,0,.76.13,2.27,2.27,0,0,0,.83-.15,1.89,1.89,0,0,0,.67-.45,2.8,2.8,0,0,0,.61-1A3.54,3.54,0,0,0,1059.35,153.8Z"/><rect class="cls-17" x="881.31" y="141" width="185.88" height="0.88"/><path class="cls-18" d="M1044.66,127.77a3.77,3.77,0,0,1-.55,2,4.32,4.32,0,0,1-1.49,1.42,7,7,0,0,1-2,.76,10.92,10.92,0,0,1-2.45.25c-.49,0-1,0-1.51,0l-.91-.06-.09-1.64.89.09c.49,0,1.06.06,1.72.06a9.53,9.53,0,0,0,1.56-.16,5.18,5.18,0,0,0,1.47-.41,2.74,2.74,0,0,0,1-.79,1.86,1.86,0,0,0,.36-1.18,2.23,2.23,0,0,0-.36-1.29,3.64,3.64,0,0,0-1.19-1c-.36-.21-.82-.45-1.39-.72a14.64,14.64,0,0,1-1.54-.81,4.76,4.76,0,0,1-1.65-1.54,3.6,3.6,0,0,1-.5-1.86,3.52,3.52,0,0,1,.45-1.81,4.56,4.56,0,0,1,1.17-1.31,5.12,5.12,0,0,1,1.78-.81,9.07,9.07,0,0,1,2.35-.28c.47,0,.94,0,1.43,0l.82,0,.16,1.65-.83-.08c-.48,0-1.08-.07-1.8-.07a6.72,6.72,0,0,0-1.31.14,4.08,4.08,0,0,0-1.19.44,2.32,2.32,0,0,0-.77.73,1.82,1.82,0,0,0-.32,1.09,2,2,0,0,0,.33,1.07,3.91,3.91,0,0,0,1.26,1.06,12.13,12.13,0,0,0,1.24.65c.51.25,1,.51,1.5.8a5.22,5.22,0,0,1,1.72,1.54A3.53,3.53,0,0,1,1044.66,127.77Z"/><path class="cls-18" d="M1056.45,127.77a3.77,3.77,0,0,1-.55,2,4.23,4.23,0,0,1-1.49,1.42,7,7,0,0,1-2,.76,10.86,10.86,0,0,1-2.45.25c-.48,0-1,0-1.51,0l-.9-.06-.09-1.64.88.09c.49,0,1.06.06,1.72.06a9.53,9.53,0,0,0,1.56-.16,5.18,5.18,0,0,0,1.47-.41,2.74,2.74,0,0,0,1-.79,1.86,1.86,0,0,0,.36-1.18,2.23,2.23,0,0,0-.36-1.29,3.64,3.64,0,0,0-1.19-1c-.36-.21-.82-.45-1.39-.72a13.52,13.52,0,0,1-1.53-.81,4.72,4.72,0,0,1-1.66-1.54,3.6,3.6,0,0,1-.5-1.86,3.52,3.52,0,0,1,.45-1.81,4.56,4.56,0,0,1,1.17-1.31,5.09,5.09,0,0,1,1.79-.81,8.94,8.94,0,0,1,2.34-.28c.47,0,.95,0,1.43,0l.83,0,.16,1.65-.83-.08c-.49,0-1.09-.07-1.8-.07a6.74,6.74,0,0,0-1.32.14,4.08,4.08,0,0,0-1.19.44,2.32,2.32,0,0,0-.77.73,1.93,1.93,0,0,0,0,2.16,3.75,3.75,0,0,0,1.25,1.06,13.31,13.31,0,0,0,1.24.65c.51.25,1,.51,1.51.8a5.08,5.08,0,0,1,1.71,1.54A3.53,3.53,0,0,1,1056.45,127.77Z"/><path class="cls-18" d="M1071.13,118.45h-5.59c0,1.55,0,2.73,0,3.53s0,1.9,0,3.28,0,2.69,0,4.06,0,2.29,0,2.75h-1.88c0-.46,0-1.39,0-2.79s0-2.77,0-4.11V122c0-.77,0-2,0-3.58-1.61,0-2.92,0-3.93,0h-1.65v-1.56h13Z"/><path class="cls-19" d="M1044.66,127.77a3.77,3.77,0,0,1-.55,2,4.32,4.32,0,0,1-1.49,1.42,7,7,0,0,1-2,.76,10.92,10.92,0,0,1-2.45.25c-.49,0-1,0-1.51,0l-.91-.06-.09-1.64.89.09c.49,0,1.06.06,1.72.06a9.53,9.53,0,0,0,1.56-.16,5.18,5.18,0,0,0,1.47-.41,2.74,2.74,0,0,0,1-.79,1.86,1.86,0,0,0,.36-1.18,2.23,2.23,0,0,0-.36-1.29,3.64,3.64,0,0,0-1.19-1c-.36-.21-.82-.45-1.39-.72a14.64,14.64,0,0,1-1.54-.81,4.76,4.76,0,0,1-1.65-1.54,3.6,3.6,0,0,1-.5-1.86,3.52,3.52,0,0,1,.45-1.81,4.56,4.56,0,0,1,1.17-1.31,5.12,5.12,0,0,1,1.78-.81,9.07,9.07,0,0,1,2.35-.28c.47,0,.94,0,1.43,0l.82,0,.16,1.65-.83-.08c-.48,0-1.08-.07-1.8-.07a6.72,6.72,0,0,0-1.31.14,4.08,4.08,0,0,0-1.19.44,2.32,2.32,0,0,0-.77.73,1.82,1.82,0,0,0-.32,1.09,2,2,0,0,0,.33,1.07,3.91,3.91,0,0,0,1.26,1.06,12.13,12.13,0,0,0,1.24.65c.51.25,1,.51,1.5.8a5.22,5.22,0,0,1,1.72,1.54A3.53,3.53,0,0,1,1044.66,127.77Z"/><path class="cls-19" d="M1056.45,127.77a3.77,3.77,0,0,1-.55,2,4.23,4.23,0,0,1-1.49,1.42,7,7,0,0,1-2,.76,10.86,10.86,0,0,1-2.45.25c-.48,0-1,0-1.51,0l-.9-.06-.09-1.64.88.09c.49,0,1.06.06,1.72.06a9.53,9.53,0,0,0,1.56-.16,5.18,5.18,0,0,0,1.47-.41,2.74,2.74,0,0,0,1-.79,1.86,1.86,0,0,0,.36-1.18,2.23,2.23,0,0,0-.36-1.29,3.64,3.64,0,0,0-1.19-1c-.36-.21-.82-.45-1.39-.72a13.52,13.52,0,0,1-1.53-.81,4.72,4.72,0,0,1-1.66-1.54,3.6,3.6,0,0,1-.5-1.86,3.52,3.52,0,0,1,.45-1.81,4.56,4.56,0,0,1,1.17-1.31,5.09,5.09,0,0,1,1.79-.81,8.94,8.94,0,0,1,2.34-.28c.47,0,.95,0,1.43,0l.83,0,.16,1.65-.83-.08c-.49,0-1.09-.07-1.8-.07a6.74,6.74,0,0,0-1.32.14,4.08,4.08,0,0,0-1.19.44,2.32,2.32,0,0,0-.77.73,1.93,1.93,0,0,0,0,2.16,3.75,3.75,0,0,0,1.25,1.06,13.31,13.31,0,0,0,1.24.65c.51.25,1,.51,1.51.8a5.08,5.08,0,0,1,1.71,1.54A3.53,3.53,0,0,1,1056.45,127.77Z"/><path class="cls-19" d="M1071.13,118.45h-5.59c0,1.55,0,2.73,0,3.53s0,1.9,0,3.28,0,2.69,0,4.06,0,2.29,0,2.75h-1.88c0-.46,0-1.39,0-2.79s0-2.77,0-4.11V122c0-.77,0-2,0-3.58-1.61,0-2.92,0-3.93,0h-1.65v-1.56h13Z"/><line class="cls-20" x1="860.37" y1="153.88" x2="871.1" y2="131.39"/><line class="cls-21" x1="860.37" y1="153.88" x2="881.69" y2="141.43"/><polygon class="cls-22" points="860.73 153.15 842.69 141.88 841.99 143.34 860.02 154.61 860.73 153.15"/><path class="cls-22" d="M863.57,152.76a3.38,3.38,0,1,1-4.31-2.08A3.4,3.4,0,0,1,863.57,152.76Z"/><path class="cls-23" d="M851.35,130.16a22.73,22.73,0,1,0-22.74,22.74A22.69,22.69,0,0,0,851.35,130.16Z"/><path class="cls-24" d="M848.85,130.23a20.17,20.17,0,1,1-20.17-20.16A20.17,20.17,0,0,1,848.85,130.23Z"/><path class="cls-24" d="M848.85,130.23a20.17,20.17,0,1,0-20.17,20.17A20.1,20.1,0,0,0,848.85,130.23Z"/><path class="cls-24" d="M846.81,121.39a20.17,20.17,0,0,1-34.72,20.08,19.55,19.55,0,0,0,2,2.69,20.17,20.17,0,0,0,32.72-22.77Z"/><path class="cls-25" d="M828.07,134.44a8.93,8.93,0,0,0,.29-2,4.22,4.22,0,0,0-.63-1.35l-.24-.55a2.89,2.89,0,0,1,.58-.14c.49,0,1,0,1.49,0s.48.17.24.51a4,4,0,0,0-.47.66,3.06,3.06,0,0,0-.27,1.13,14.39,14.39,0,0,0,.3,1.78l.19-.24,2.06-2.89a2.66,2.66,0,0,0,.43-.64c.13-.42.38-.43.73-.31s.59.16.87.27a2.78,2.78,0,0,1,2,2.55c.06,1.37-.08,2.74-.14,4.11a2,2,0,0,1-.08.33,1.78,1.78,0,0,1-1.69,1.43,44.63,44.63,0,0,1-7.49.23c-1,0-2-.22-3-.33a1.17,1.17,0,0,1-1.06-.85,6.39,6.39,0,0,1-.39-1.47,27.72,27.72,0,0,1,0-3.41,2.83,2.83,0,0,1,2-2.57c.23-.09.45-.17.68-.24.69-.19.69-.19,1.06.44a1.67,1.67,0,0,0,.16.24Z"/><path class="cls-26" d="M828.74,119.86a4.77,4.77,0,1,1-4.79,4.69A4.7,4.7,0,0,1,828.74,119.86Z"/><path class="cls-27" d="M822.25,130.51c-1.48,1.17-1.52,2.78-1.52,4.41,0,.63,0,1.27,0,1.93-1.37,0-2.77,0-4.18,0-.57,0-1.14-.15-1.71-.22a.82.82,0,0,1-.73-.61,5.57,5.57,0,0,1-.31-1.2,14.6,14.6,0,0,1,0-1.87,2.39,2.39,0,0,1,2.11-2.57,1.51,1.51,0,0,1,1.22.16,3.28,3.28,0,0,0,3.56,0A1.68,1.68,0,0,1,822.25,130.51Z"/><path class="cls-28" d="M836.66,136.85c0-.92,0-1.82,0-2.71a4.3,4.3,0,0,0-1.51-3.64,1.69,1.69,0,0,1,1.59,0,3.47,3.47,0,0,0,3.73-.06,1.23,1.23,0,0,1,.75-.13,5,5,0,0,1,1.19.37,1.85,1.85,0,0,1,1.18,1.63,19.53,19.53,0,0,1-.09,3.06c-.12,1-.43,1.24-1.42,1.3-1.74.11-3.49.13-5.23.18A.5.5,0,0,1,836.66,136.85Z"/><path class="cls-29" d="M818.83,130.09a3.48,3.48,0,1,1,3.51-3.39A3.41,3.41,0,0,1,818.83,130.09Z"/><path class="cls-30" d="M838.55,130.09a3.48,3.48,0,1,1,3.44-3.5A3.42,3.42,0,0,1,838.55,130.09Z"/><path class="cls-31" d="M882.88,122.74a11.52,11.52,0,0,1-.83,4.42,9.68,9.68,0,0,1-2.15,3.31,9.46,9.46,0,0,1-3.12,2.12,9.64,9.64,0,0,1-3.54.66,9.43,9.43,0,0,1-3.48-.64,8.81,8.81,0,0,1-2.94-1.87,9.9,9.9,0,0,1-2.32-3.41,11.5,11.5,0,0,1-.89-4.62,11.79,11.79,0,0,1,.7-4.16,10,10,0,0,1,2.1-3.37,8.91,8.91,0,0,1,3.07-2.16,9.82,9.82,0,0,1,7.48,0,8.92,8.92,0,0,1,3,2,9.88,9.88,0,0,1,2.21,3.5A12.1,12.1,0,0,1,882.88,122.74Zm-2.53.24a11.53,11.53,0,0,0-.65-3.79,7.75,7.75,0,0,0-2-3.12,6.64,6.64,0,0,0-2-1.33,6.16,6.16,0,0,0-2.48-.48,6.27,6.27,0,0,0-4.58,1.9,8,8,0,0,0-1.86,2.94,10.74,10.74,0,0,0,0,7.47,7.94,7.94,0,0,0,1.91,2.86,6.81,6.81,0,0,0,2,1.32,6.32,6.32,0,0,0,2.49.49,6.41,6.41,0,0,0,2.48-.48,6.53,6.53,0,0,0,2.09-1.39,7.94,7.94,0,0,0,1.83-2.72A9.07,9.07,0,0,0,880.35,123Z"/><path class="cls-31" d="M899.64,132.67h-2.27V131l0,0a19.5,19.5,0,0,1-2.6,1.4,7.19,7.19,0,0,1-3,.72,4.25,4.25,0,0,1-3.22-1.21,4.76,4.76,0,0,1-1.16-3.41c0-.8,0-1.74,0-2.83s0-1.89,0-2.38c0-.9,0-2,0-3.33s0-2.06,0-2.23h2.35q0,.2,0,2.13c0,1.3,0,2.33,0,3.1s0,1.54,0,2.55,0,1.74,0,2.17a4.71,4.71,0,0,0,.61,2.57,2.16,2.16,0,0,0,1.88.81,7.27,7.27,0,0,0,2.91-.71,14.78,14.78,0,0,0,2.33-1.25c0-.12,0-.66,0-1.64s0-2.18,0-3.64c0-1,0-2.28,0-3.73s0-2.23,0-2.36h2.35c0,.17,0,.72,0,1.67s0,2.55,0,4.82c0,1.28,0,2.4,0,3.36S899.62,130.19,899.64,132.67Z"/><path class="cls-31" d="M913.12,130.83l-.27,1.88-.51,0-.71,0a7.22,7.22,0,0,1-4.61-1.27,4.74,4.74,0,0,1-1.56-3.9c0-1.09,0-2.27,0-3.53s0-2.81,0-4.67H903v-1.73h2.63v-3.52h2.16v3.52h5.33v1.73h-5.33c0,.21,0,.83,0,1.86s0,1.79,0,2.28v3.68a3.38,3.38,0,0,0,1,2.78,5,5,0,0,0,3.21.85h1.12Z"/><path class="cls-31" d="M924.93,128.32a3.61,3.61,0,0,1-.54,2,4.23,4.23,0,0,1-1.4,1.39,7.22,7.22,0,0,1-2.15.86,12.37,12.37,0,0,1-2.75.28c-.49,0-1,0-1.52-.06l-.88-.08-.09-1.95,1,.09q.9.06,1.8.06a13,13,0,0,0,1.34-.09,4.62,4.62,0,0,0,1.35-.32,2.83,2.83,0,0,0,1.1-.8,1.86,1.86,0,0,0,.36-1.15,1.48,1.48,0,0,0-.32-1,3.62,3.62,0,0,0-.86-.74,11.3,11.3,0,0,0-1.63-.85,15.35,15.35,0,0,1-1.73-.87,4.53,4.53,0,0,1-1.53-1.44,3.5,3.5,0,0,1-.52-1.92,3.43,3.43,0,0,1,.6-2,4.46,4.46,0,0,1,1.62-1.41,6.06,6.06,0,0,1,1.94-.63,14.84,14.84,0,0,1,2.07-.15c.6,0,1.1,0,1.49,0l.67,0,.16,2-.92-.06c-.54,0-1.13-.06-1.78-.06a6.75,6.75,0,0,0-1.3.12,3.89,3.89,0,0,0-1.06.34,2.18,2.18,0,0,0-.91.79,1.66,1.66,0,0,0-.28.89,1.48,1.48,0,0,0,.39,1,3.61,3.61,0,0,0,.91.73,18.13,18.13,0,0,0,1.67.84,14.07,14.07,0,0,1,1.53.79,5.13,5.13,0,0,1,1.59,1.45A3.27,3.27,0,0,1,924.93,128.32Z"/><path class="cls-31" d="M942.2,125.16a8.91,8.91,0,0,1-.62,3.29,7.32,7.32,0,0,1-1.78,2.69,6.83,6.83,0,0,1-2.18,1.42,7,7,0,0,1-2.71.49,7.41,7.41,0,0,1-2.68-.48,6.57,6.57,0,0,1-2.23-1.42,7.18,7.18,0,0,1-1.75-2.67,9.14,9.14,0,0,1-.62-3.35,9,9,0,0,1,.53-3.13,7.11,7.11,0,0,1,1.65-2.58,6.77,6.77,0,0,1,2.32-1.59,7.13,7.13,0,0,1,2.79-.56,7.44,7.44,0,0,1,2.81.51,6.52,6.52,0,0,1,2.24,1.54,7.76,7.76,0,0,1,1.68,2.63A9.24,9.24,0,0,1,942.2,125.16Zm-2.38.11a8.14,8.14,0,0,0-.46-2.72,5.44,5.44,0,0,0-1.4-2.22,4,4,0,0,0-1.38-.87,4.65,4.65,0,0,0-1.66-.3,4.42,4.42,0,0,0-1.78.32,4.5,4.5,0,0,0-1.43,1,5.57,5.57,0,0,0-1.24,2,7.31,7.31,0,0,0-.46,2.58,8.23,8.23,0,0,0,.46,2.78A5.39,5.39,0,0,0,932,130.1a4,4,0,0,0,1.34.79,4.54,4.54,0,0,0,1.61.28,4.62,4.62,0,0,0,1.75-.33,4,4,0,0,0,1.42-1,5.77,5.77,0,0,0,1.29-2.07A7.28,7.28,0,0,0,939.82,125.27Z"/><path class="cls-31" d="M958.41,132.67h-2.27V131l0,0a19.5,19.5,0,0,1-2.6,1.4,7.19,7.19,0,0,1-3,.72,4.25,4.25,0,0,1-3.22-1.21,4.76,4.76,0,0,1-1.16-3.41c0-.8,0-1.74,0-2.83s0-1.89,0-2.38c0-.9,0-2,0-3.33s0-2.06,0-2.23h2.35q0,.2,0,2.13c0,1.3,0,2.33,0,3.1s0,1.54,0,2.55,0,1.74,0,2.17a4.71,4.71,0,0,0,.61,2.57,2.16,2.16,0,0,0,1.88.81,7.27,7.27,0,0,0,2.91-.71,14.78,14.78,0,0,0,2.33-1.25c0-.12,0-.66,0-1.64s0-2.18,0-3.64c0-1,0-2.28,0-3.73s0-2.23,0-2.36h2.35c0,.17,0,.72,0,1.67s0,2.55,0,4.82c0,1.28,0,2.4,0,3.36S958.39,130.19,958.41,132.67Z"/><path class="cls-31" d="M972.41,119.41a25.4,25.4,0,0,0-2.51.81c-1.12.42-2.42,1-3.89,1.66,0,.11,0,.61,0,1.49s0,1.71,0,2.47c0,1.17,0,2.56,0,4.16s0,2.49,0,2.67h-2.35c0-.17,0-.73,0-1.66s0-2.55,0-4.82c0-.92,0-2.21,0-3.86s0-3.21,0-4.67H966v2.25l0,0a30.88,30.88,0,0,1,3.31-1.65,20.73,20.73,0,0,1,2.62-1Z"/><path class="cls-31" d="M985.2,130.74l-.18,2h-.82a16.89,16.89,0,0,1-3.58-.37,11.48,11.48,0,0,1-3-1.07,7.43,7.43,0,0,1-2.81-2.6,6.62,6.62,0,0,1-1-3.6,6,6,0,0,1,.93-3.27,7.4,7.4,0,0,1,2.41-2.44,10.22,10.22,0,0,1,3.2-1.31,15.93,15.93,0,0,1,3.86-.46h.61l.12,2h-.46a17.4,17.4,0,0,0-2.82.2,10.16,10.16,0,0,0-2.27.66,5,5,0,0,0-2.33,1.87,4.76,4.76,0,0,0-.87,2.73A4.92,4.92,0,0,0,977,128a5.34,5.34,0,0,0,2.14,1.82,8.7,8.7,0,0,0,2.36.73,17.34,17.34,0,0,0,2.76.22h.94Z"/><path class="cls-31" d="M991.61,114.78H989v-2.55h2.62Zm-.13,17.89h-2.36c0-.16,0-1.14,0-2.93s0-3.26,0-4.43V122q0-1.83-.06-4.29h2.36q0,2.13-.06,4c0,1.25,0,2.35,0,3.32,0,2.3,0,4.15,0,5.55S991.48,132.63,991.48,132.67Z"/><path class="cls-31" d="M1009.27,132.67h-2.35c0-.28,0-1.19,0-2.75s0-2.51,0-2.87c0-.52,0-1.28,0-2.28s0-1.74,0-2.2a4,4,0,0,0-.66-2.45,2.62,2.62,0,0,0-2.11-.74,6.41,6.41,0,0,0-2.25.53,18.65,18.65,0,0,0-2.71,1.37c0,.1,0,.69,0,1.76s0,2,0,2.92c0,1.15,0,2.53,0,4.16s0,2.47,0,2.55h-2.35c0-.07,0-.68,0-1.82s0-2.84,0-5.09c0-1,0-2.26,0-3.65s0-2.88-.05-4.45h2.32l0,1.7,0,0a20.6,20.6,0,0,1,3.47-1.65,7.65,7.65,0,0,1,2.32-.47,4,4,0,0,1,3.05,1.2,4.49,4.49,0,0,1,1.16,3.27c0,1.24,0,2.32,0,3.22s0,1.64,0,2.2c0,.9,0,2,0,3.38S1009.27,132.6,1009.27,132.67Z"/><path class="cls-31" d="M1025.85,117.52c0,.22,0,1.2,0,2.94s0,3.4,0,5c0,1.07,0,2.15,0,3.26s0,2.12,0,3a7.71,7.71,0,0,1-.87,4,6.34,6.34,0,0,1-2.48,2.3,12.61,12.61,0,0,1-3.08,1,22.17,22.17,0,0,1-4.4.37l-.24-1.88q1.74,0,3.12-.18a11.65,11.65,0,0,0,2.52-.57,4.73,4.73,0,0,0,2.42-1.73,4.94,4.94,0,0,0,.72-2.62h-.72a16.61,16.61,0,0,1-3.64-.42,8.86,8.86,0,0,1-3.2-1.35,6.51,6.51,0,0,1-3-5.77,6.06,6.06,0,0,1,1.15-3.66,7.94,7.94,0,0,1,3.06-2.52,11,11,0,0,1,3-.93,25.28,25.28,0,0,1,3.9-.26h1.71Zm-2.27,7.89c0-.71,0-1.6,0-2.67s0-2.18,0-3.33h-.39a14.19,14.19,0,0,0-2.41.18,9.59,9.59,0,0,0-2.18.66,5,5,0,0,0-2.32,1.91,5.16,5.16,0,0,0-.81,2.85,4.79,4.79,0,0,0,.8,2.78,5.26,5.26,0,0,0,2.13,1.79,10,10,0,0,0,2.11.7,11.5,11.5,0,0,0,2.54.27h.55c0-.12,0-.67,0-1.66S1023.58,126.75,1023.58,125.41Z"/><path class="cls-32" d="M882.88,122.74a11.52,11.52,0,0,1-.83,4.42,9.68,9.68,0,0,1-2.15,3.31,9.46,9.46,0,0,1-3.12,2.12,9.64,9.64,0,0,1-3.54.66,9.43,9.43,0,0,1-3.48-.64,8.81,8.81,0,0,1-2.94-1.87,9.9,9.9,0,0,1-2.32-3.41,11.5,11.5,0,0,1-.89-4.62,11.79,11.79,0,0,1,.7-4.16,10,10,0,0,1,2.1-3.37,8.91,8.91,0,0,1,3.07-2.16,9.82,9.82,0,0,1,7.48,0,8.92,8.92,0,0,1,3,2,9.88,9.88,0,0,1,2.21,3.5A12.1,12.1,0,0,1,882.88,122.74Zm-2.53.24a11.53,11.53,0,0,0-.65-3.79,7.75,7.75,0,0,0-2-3.12,6.64,6.64,0,0,0-2-1.33,6.16,6.16,0,0,0-2.48-.48,6.27,6.27,0,0,0-4.58,1.9,8,8,0,0,0-1.86,2.94,10.74,10.74,0,0,0,0,7.47,7.94,7.94,0,0,0,1.91,2.86,6.81,6.81,0,0,0,2,1.32,6.32,6.32,0,0,0,2.49.49,6.41,6.41,0,0,0,2.48-.48,6.53,6.53,0,0,0,2.09-1.39,7.94,7.94,0,0,0,1.83-2.72A9.07,9.07,0,0,0,880.35,123Z"/><path class="cls-32" d="M899.64,132.67h-2.27V131l0,0a19.5,19.5,0,0,1-2.6,1.4,7.19,7.19,0,0,1-3,.72,4.25,4.25,0,0,1-3.22-1.21,4.76,4.76,0,0,1-1.16-3.41c0-.8,0-1.74,0-2.83s0-1.89,0-2.38c0-.9,0-2,0-3.33s0-2.06,0-2.23h2.35q0,.2,0,2.13c0,1.3,0,2.33,0,3.1s0,1.54,0,2.55,0,1.74,0,2.17a4.71,4.71,0,0,0,.61,2.57,2.16,2.16,0,0,0,1.88.81,7.27,7.27,0,0,0,2.91-.71,14.78,14.78,0,0,0,2.33-1.25c0-.12,0-.66,0-1.64s0-2.18,0-3.64c0-1,0-2.28,0-3.73s0-2.23,0-2.36h2.35c0,.17,0,.72,0,1.67s0,2.55,0,4.82c0,1.28,0,2.4,0,3.36S899.62,130.19,899.64,132.67Z"/><path class="cls-32" d="M913.12,130.83l-.27,1.88-.51,0-.71,0a7.22,7.22,0,0,1-4.61-1.27,4.74,4.74,0,0,1-1.56-3.9c0-1.09,0-2.27,0-3.53s0-2.81,0-4.67H903v-1.73h2.63v-3.52h2.16v3.52h5.33v1.73h-5.33c0,.21,0,.83,0,1.86s0,1.79,0,2.28v3.68a3.38,3.38,0,0,0,1,2.78,5,5,0,0,0,3.21.85h1.12Z"/><path class="cls-32" d="M924.93,128.32a3.61,3.61,0,0,1-.54,2,4.23,4.23,0,0,1-1.4,1.39,7.22,7.22,0,0,1-2.15.86,12.37,12.37,0,0,1-2.75.28c-.49,0-1,0-1.52-.06l-.88-.08-.09-1.95,1,.09q.9.06,1.8.06a13,13,0,0,0,1.34-.09,4.62,4.62,0,0,0,1.35-.32,2.83,2.83,0,0,0,1.1-.8,1.86,1.86,0,0,0,.36-1.15,1.48,1.48,0,0,0-.32-1,3.62,3.62,0,0,0-.86-.74,11.3,11.3,0,0,0-1.63-.85,15.35,15.35,0,0,1-1.73-.87,4.53,4.53,0,0,1-1.53-1.44,3.5,3.5,0,0,1-.52-1.92,3.43,3.43,0,0,1,.6-2,4.46,4.46,0,0,1,1.62-1.41,6.06,6.06,0,0,1,1.94-.63,14.84,14.84,0,0,1,2.07-.15c.6,0,1.1,0,1.49,0l.67,0,.16,2-.92-.06c-.54,0-1.13-.06-1.78-.06a6.75,6.75,0,0,0-1.3.12,3.89,3.89,0,0,0-1.06.34,2.18,2.18,0,0,0-.91.79,1.66,1.66,0,0,0-.28.89,1.48,1.48,0,0,0,.39,1,3.61,3.61,0,0,0,.91.73,18.13,18.13,0,0,0,1.67.84,14.07,14.07,0,0,1,1.53.79,5.13,5.13,0,0,1,1.59,1.45A3.27,3.27,0,0,1,924.93,128.32Z"/><path class="cls-32" d="M942.2,125.16a8.91,8.91,0,0,1-.62,3.29,7.32,7.32,0,0,1-1.78,2.69,6.83,6.83,0,0,1-2.18,1.42,7,7,0,0,1-2.71.49,7.41,7.41,0,0,1-2.68-.48,6.57,6.57,0,0,1-2.23-1.42,7.18,7.18,0,0,1-1.75-2.67,9.14,9.14,0,0,1-.62-3.35,9,9,0,0,1,.53-3.13,7.11,7.11,0,0,1,1.65-2.58,6.77,6.77,0,0,1,2.32-1.59,7.13,7.13,0,0,1,2.79-.56,7.44,7.44,0,0,1,2.81.51,6.52,6.52,0,0,1,2.24,1.54,7.76,7.76,0,0,1,1.68,2.63A9.24,9.24,0,0,1,942.2,125.16Zm-2.38.11a8.14,8.14,0,0,0-.46-2.72,5.44,5.44,0,0,0-1.4-2.22,4,4,0,0,0-1.38-.87,4.65,4.65,0,0,0-1.66-.3,4.42,4.42,0,0,0-1.78.32,4.5,4.5,0,0,0-1.43,1,5.57,5.57,0,0,0-1.24,2,7.31,7.31,0,0,0-.46,2.58,8.23,8.23,0,0,0,.46,2.78A5.39,5.39,0,0,0,932,130.1a4,4,0,0,0,1.34.79,4.54,4.54,0,0,0,1.61.28,4.62,4.62,0,0,0,1.75-.33,4,4,0,0,0,1.42-1,5.77,5.77,0,0,0,1.29-2.07A7.28,7.28,0,0,0,939.82,125.27Z"/><path class="cls-32" d="M958.41,132.67h-2.27V131l0,0a19.5,19.5,0,0,1-2.6,1.4,7.19,7.19,0,0,1-3,.72,4.25,4.25,0,0,1-3.22-1.21,4.76,4.76,0,0,1-1.16-3.41c0-.8,0-1.74,0-2.83s0-1.89,0-2.38c0-.9,0-2,0-3.33s0-2.06,0-2.23h2.35q0,.2,0,2.13c0,1.3,0,2.33,0,3.1s0,1.54,0,2.55,0,1.74,0,2.17a4.71,4.71,0,0,0,.61,2.57,2.16,2.16,0,0,0,1.88.81,7.27,7.27,0,0,0,2.91-.71,14.78,14.78,0,0,0,2.33-1.25c0-.12,0-.66,0-1.64s0-2.18,0-3.64c0-1,0-2.28,0-3.73s0-2.23,0-2.36h2.35c0,.17,0,.72,0,1.67s0,2.55,0,4.82c0,1.28,0,2.4,0,3.36S958.39,130.19,958.41,132.67Z"/><path class="cls-32" d="M972.41,119.41a25.4,25.4,0,0,0-2.51.81c-1.12.42-2.42,1-3.89,1.66,0,.11,0,.61,0,1.49s0,1.71,0,2.47c0,1.17,0,2.56,0,4.16s0,2.49,0,2.67h-2.35c0-.17,0-.73,0-1.66s0-2.55,0-4.82c0-.92,0-2.21,0-3.86s0-3.21,0-4.67H966v2.25l0,0a30.88,30.88,0,0,1,3.31-1.65,20.73,20.73,0,0,1,2.62-1Z"/><path class="cls-32" d="M985.2,130.74l-.18,2h-.82a16.89,16.89,0,0,1-3.58-.37,11.48,11.48,0,0,1-3-1.07,7.43,7.43,0,0,1-2.81-2.6,6.62,6.62,0,0,1-1-3.6,6,6,0,0,1,.93-3.27,7.4,7.4,0,0,1,2.41-2.44,10.22,10.22,0,0,1,3.2-1.31,15.93,15.93,0,0,1,3.86-.46h.61l.12,2h-.46a17.4,17.4,0,0,0-2.82.2,10.16,10.16,0,0,0-2.27.66,5,5,0,0,0-2.33,1.87,4.76,4.76,0,0,0-.87,2.73A4.92,4.92,0,0,0,977,128a5.34,5.34,0,0,0,2.14,1.82,8.7,8.7,0,0,0,2.36.73,17.34,17.34,0,0,0,2.76.22h.94Z"/><path class="cls-32" d="M991.61,114.78H989v-2.55h2.62Zm-.13,17.89h-2.36c0-.16,0-1.14,0-2.93s0-3.26,0-4.43V122q0-1.83-.06-4.29h2.36q0,2.13-.06,4c0,1.25,0,2.35,0,3.32,0,2.3,0,4.15,0,5.55S991.48,132.63,991.48,132.67Z"/><path class="cls-32" d="M1009.27,132.67h-2.35c0-.28,0-1.19,0-2.75s0-2.51,0-2.87c0-.52,0-1.28,0-2.28s0-1.74,0-2.2a4,4,0,0,0-.66-2.45,2.62,2.62,0,0,0-2.11-.74,6.41,6.41,0,0,0-2.25.53,18.65,18.65,0,0,0-2.71,1.37c0,.1,0,.69,0,1.76s0,2,0,2.92c0,1.15,0,2.53,0,4.16s0,2.47,0,2.55h-2.35c0-.07,0-.68,0-1.82s0-2.84,0-5.09c0-1,0-2.26,0-3.65s0-2.88-.05-4.45h2.32l0,1.7,0,0a20.6,20.6,0,0,1,3.47-1.65,7.65,7.65,0,0,1,2.32-.47,4,4,0,0,1,3.05,1.2,4.49,4.49,0,0,1,1.16,3.27c0,1.24,0,2.32,0,3.22s0,1.64,0,2.2c0,.9,0,2,0,3.38S1009.27,132.6,1009.27,132.67Z"/><path class="cls-32" d="M1025.85,117.52c0,.22,0,1.2,0,2.94s0,3.4,0,5c0,1.07,0,2.15,0,3.26s0,2.12,0,3a7.71,7.71,0,0,1-.87,4,6.34,6.34,0,0,1-2.48,2.3,12.61,12.61,0,0,1-3.08,1,22.17,22.17,0,0,1-4.4.37l-.24-1.88q1.74,0,3.12-.18a11.65,11.65,0,0,0,2.52-.57,4.73,4.73,0,0,0,2.42-1.73,4.94,4.94,0,0,0,.72-2.62h-.72a16.61,16.61,0,0,1-3.64-.42,8.86,8.86,0,0,1-3.2-1.35,6.51,6.51,0,0,1-3-5.77,6.06,6.06,0,0,1,1.15-3.66,7.94,7.94,0,0,1,3.06-2.52,11,11,0,0,1,3-.93,25.28,25.28,0,0,1,3.9-.26h1.71Zm-2.27,7.89c0-.71,0-1.6,0-2.67s0-2.18,0-3.33h-.39a14.19,14.19,0,0,0-2.41.18,9.59,9.59,0,0,0-2.18.66,5,5,0,0,0-2.32,1.91,5.16,5.16,0,0,0-.81,2.85,4.79,4.79,0,0,0,.8,2.78,5.26,5.26,0,0,0,2.13,1.79,10,10,0,0,0,2.11.7,11.5,11.5,0,0,0,2.54.27h.55c0-.12,0-.67,0-1.66S1023.58,126.75,1023.58,125.41Z"/><circle class="cls-33" cx="881.69" cy="141.43" r="2.02"/><circle class="cls-24" cx="860.37" cy="153.88" r="1.97"/><g id="_Group_" data-name="&lt;Group&gt;"><g id="_Group_2" data-name="&lt;Group&gt;"><path class="cls-34" d="M1178.15,118a6.25,6.25,0,0,1-1.44,4,7.12,7.12,0,0,1-3.82,2.43,14.61,14.61,0,0,1-2.25.39q-1.23.12-2.73.12l0,6.42h-2.5c0-.6,0-1.73,0-3.37s0-4.19,0-7.63c0-1.1,0-2.44,0-4s0-3.35-.06-5.29l1.28,0h1a24.8,24.8,0,0,1,4.47.34,8.59,8.59,0,0,1,3.1,1.13,5.86,5.86,0,0,1,2.11,2.26A6.91,6.91,0,0,1,1178.15,118Zm-2.58,0a4.74,4.74,0,0,0-.72-2.66,4.66,4.66,0,0,0-2.18-1.74,6.4,6.4,0,0,0-2-.5c-.71-.06-1.43-.1-2.18-.1h-.57q0,.18,0,2.28c0,1.41,0,2.52,0,3.34s0,1.64,0,2.66,0,1.6,0,1.74h.61a18.48,18.48,0,0,0,2.16-.13,7,7,0,0,0,2-.5,4.93,4.93,0,0,0,2.17-1.69A4.55,4.55,0,0,0,1175.57,118Z"/><path class="cls-34" d="M1191.13,117.81a23.16,23.16,0,0,0-2.56.84c-1.15.42-2.47,1-4,1.7,0,.11,0,.62,0,1.52s0,1.75,0,2.53c0,1.2,0,2.61,0,4.25s0,2.55,0,2.73h-2.39c0-.17,0-.73,0-1.7s0-2.6,0-4.93c0-.94,0-2.26,0-4s0-3.28,0-4.78h2.35v2.31h0a35.47,35.47,0,0,1,3.39-1.68,18.73,18.73,0,0,1,2.67-1Z"/><path class="cls-34" d="M1207.7,123.7a9.13,9.13,0,0,1-.63,3.37,7.54,7.54,0,0,1-1.81,2.75,7.24,7.24,0,0,1-2.22,1.46,7.35,7.35,0,0,1-2.77.5,7.7,7.7,0,0,1-2.74-.49,6.88,6.88,0,0,1-2.27-1.45,7.46,7.46,0,0,1-1.79-2.74,9.37,9.37,0,0,1-.63-3.43,9.24,9.24,0,0,1,.54-3.21,7.38,7.38,0,0,1,1.68-2.63,6.89,6.89,0,0,1,2.37-1.63,7.25,7.25,0,0,1,2.85-.57,7.47,7.47,0,0,1,2.86.52,6.56,6.56,0,0,1,2.29,1.57,7.73,7.73,0,0,1,1.71,2.7A9.11,9.11,0,0,1,1207.7,123.7Zm-2.42.11a8.5,8.5,0,0,0-.47-2.78,5.61,5.61,0,0,0-1.43-2.28,4,4,0,0,0-1.41-.88,4.83,4.83,0,0,0-3.51,0,4.42,4.42,0,0,0-1.46,1,5.77,5.77,0,0,0-1.27,2.09,7.88,7.88,0,0,0-.46,2.64,8.44,8.44,0,0,0,.47,2.85,5.59,5.59,0,0,0,1.52,2.24,4.18,4.18,0,0,0,1.37.81,4.67,4.67,0,0,0,1.64.28,4.77,4.77,0,0,0,1.78-.33,4.45,4.45,0,0,0,1.45-1,5.81,5.81,0,0,0,1.32-2.13A7.63,7.63,0,0,0,1205.28,123.81Z"/><path class="cls-34" d="M1224.83,116.61q-2,4.5-4.21,9.56c-1.49,3.36-2.25,5.1-2.3,5.21h-1.78l-2.22-4.93c-1.42-3.17-2.88-6.4-4.35-9.69l2.22-1,5.34,12.64h0l5.18-12.61Z"/><path class="cls-34" d="M1240.3,123.14h-11a6.6,6.6,0,0,0,.69,3,5.46,5.46,0,0,0,2,2.23,6.8,6.8,0,0,0,2,.84,11.14,11.14,0,0,0,2.7.28c.58,0,1.11,0,1.59,0s.78-.05.89-.07l-.28,2-.8.06c-.46,0-1,0-1.61,0a12.81,12.81,0,0,1-4.23-.63,8,8,0,0,1-3-1.74,7.87,7.87,0,0,1-1.68-2.37,7.32,7.32,0,0,1-.69-3.2,8.82,8.82,0,0,1,.52-3.13,8.38,8.38,0,0,1,1.55-2.6,5.8,5.8,0,0,1,2.22-1.59,6.87,6.87,0,0,1,2.75-.56,7,7,0,0,1,2.51.42,5,5,0,0,1,1.9,1.29,6.58,6.58,0,0,1,1.36,2.39A11,11,0,0,1,1240.3,123.14Zm-2.35-1.7a5,5,0,0,0-1.29-3,3.61,3.61,0,0,0-2.74-1.07,4,4,0,0,0-2.84,1.08,5.88,5.88,0,0,0-1.57,2.94Z"/><path class="cls-34" d="M1256.15,123.14h-11a6.6,6.6,0,0,0,.69,3,5.46,5.46,0,0,0,2.05,2.23,6.8,6.8,0,0,0,2,.84,11.14,11.14,0,0,0,2.7.28c.58,0,1.11,0,1.59,0s.77-.05.89-.07l-.28,2-.8.06c-.46,0-1,0-1.61,0a12.81,12.81,0,0,1-4.23-.63,8,8,0,0,1-3-1.74,7.87,7.87,0,0,1-1.68-2.37,7.32,7.32,0,0,1-.69-3.2,8.82,8.82,0,0,1,.52-3.13,8.55,8.55,0,0,1,1.54-2.6,5.91,5.91,0,0,1,2.23-1.59,6.87,6.87,0,0,1,2.75-.56,7,7,0,0,1,2.51.42,5,5,0,0,1,1.9,1.29,6.58,6.58,0,0,1,1.36,2.39A11,11,0,0,1,1256.15,123.14Zm-2.35-1.7a5,5,0,0,0-1.29-3,3.61,3.61,0,0,0-2.74-1.07,4,4,0,0,0-2.84,1.08,5.89,5.89,0,0,0-1.58,2.94Z"/><path class="cls-34" d="M1271.83,131.61h-1.35a32.17,32.17,0,0,1-4.49-.25,11.29,11.29,0,0,1-3.18-1,7.26,7.26,0,0,1-3.06-2.58,6.38,6.38,0,0,1-1-3.57,7.28,7.28,0,0,1,1.17-4.09,7.65,7.65,0,0,1,3.37-2.78,12.1,12.1,0,0,1,3-.92,17.66,17.66,0,0,1,3.28-.31l0-7h2.4c0,.2,0,1.62,0,4.25s0,5.29,0,8c0,2.14,0,4.07,0,5.79S1271.82,130.37,1271.83,131.61ZM1269.48,121v-2.8a15.3,15.3,0,0,0-2.86.25,10.46,10.46,0,0,0-2.3.7,5.45,5.45,0,0,0-2.36,2,5.56,5.56,0,0,0-.83,3,4.53,4.53,0,0,0,.8,2.69,5.85,5.85,0,0,0,2,1.76,9.13,9.13,0,0,0,2.36.84,12.89,12.89,0,0,0,2.75.28h.4c0-.09,0-.85,0-2.27S1269.48,123.85,1269.48,121Z"/><path class="cls-34" d="M1290.88,123.7a9.13,9.13,0,0,1-.63,3.37,7.54,7.54,0,0,1-1.81,2.75,7.24,7.24,0,0,1-2.22,1.46,7.35,7.35,0,0,1-2.77.5,7.7,7.7,0,0,1-2.74-.49,6.88,6.88,0,0,1-2.27-1.45,7.46,7.46,0,0,1-1.79-2.74,9.37,9.37,0,0,1-.63-3.43,9.24,9.24,0,0,1,.54-3.21,7.38,7.38,0,0,1,1.68-2.63,6.89,6.89,0,0,1,2.37-1.63,7.25,7.25,0,0,1,2.85-.57,7.47,7.47,0,0,1,2.86.52,6.56,6.56,0,0,1,2.29,1.57,7.73,7.73,0,0,1,1.71,2.7A9.11,9.11,0,0,1,1290.88,123.7Zm-2.42.11A8.5,8.5,0,0,0,1288,121a5.61,5.61,0,0,0-1.43-2.28,4.1,4.1,0,0,0-1.41-.88,4.83,4.83,0,0,0-3.51,0,4.42,4.42,0,0,0-1.46,1,5.63,5.63,0,0,0-1.27,2.09,7.64,7.64,0,0,0-.46,2.64,8.44,8.44,0,0,0,.47,2.85,5.49,5.49,0,0,0,1.52,2.24,4.18,4.18,0,0,0,1.37.81,4.67,4.67,0,0,0,1.64.28,4.77,4.77,0,0,0,1.78-.33,4.45,4.45,0,0,0,1.45-1,5.81,5.81,0,0,0,1.32-2.13A7.63,7.63,0,0,0,1288.46,123.81Z"/><path class="cls-34" d="M1304,117.81a23.16,23.16,0,0,0-2.56.84c-1.15.42-2.48,1-4,1.7,0,.11,0,.62,0,1.52s0,1.75,0,2.53c0,1.2,0,2.61,0,4.25s0,2.55,0,2.73h-2.4c0-.17,0-.73,0-1.7s0-2.6,0-4.93c0-.94,0-2.26,0-4s0-3.28,0-4.78h2.36v2.31h0a34.34,34.34,0,0,1,3.39-1.68,18.73,18.73,0,0,1,2.67-1Z"/><path class="cls-34" d="M1318.88,123.14h-11a6.6,6.6,0,0,0,.69,3,5.51,5.51,0,0,0,2,2.23,7,7,0,0,0,2,.84,11.14,11.14,0,0,0,2.7.28c.58,0,1.11,0,1.59,0s.77-.05.89-.07l-.28,2-.8.06c-.46,0-1,0-1.61,0a12.81,12.81,0,0,1-4.23-.63,8,8,0,0,1-3-1.74,7.87,7.87,0,0,1-1.68-2.37,7.32,7.32,0,0,1-.69-3.2,8.82,8.82,0,0,1,.52-3.13,8.55,8.55,0,0,1,1.54-2.6,5.91,5.91,0,0,1,2.23-1.59,6.87,6.87,0,0,1,2.75-.56,7,7,0,0,1,2.51.42,5,5,0,0,1,1.9,1.29,6.58,6.58,0,0,1,1.36,2.39A11,11,0,0,1,1318.88,123.14Zm-2.36-1.7a5,5,0,0,0-1.28-3,3.61,3.61,0,0,0-2.74-1.07,4,4,0,0,0-2.84,1.08,5.89,5.89,0,0,0-1.58,2.94Z"/><path class="cls-34" d="M1331.25,126.94a3.67,3.67,0,0,1-.55,2,4.34,4.34,0,0,1-1.43,1.43,7.37,7.37,0,0,1-2.19.87,12.23,12.23,0,0,1-2.81.3c-.49,0-1,0-1.54-.07l-.91-.09-.09-2,1.06.08c.61,0,1.22.07,1.83.07a13.11,13.11,0,0,0,1.36-.09,4.64,4.64,0,0,0,1.38-.34,2.65,2.65,0,0,0,1.13-.82,1.89,1.89,0,0,0,.36-1.17,1.51,1.51,0,0,0-.32-1,3.78,3.78,0,0,0-.88-.75,11.15,11.15,0,0,0-1.66-.87,16.08,16.08,0,0,1-1.77-.89,4.58,4.58,0,0,1-1.55-1.47,3.63,3.63,0,0,1-.54-2,3.46,3.46,0,0,1,.61-2,4.56,4.56,0,0,1,1.65-1.45,6.12,6.12,0,0,1,2-.64,13.88,13.88,0,0,1,2.1-.16q.93,0,1.53,0l.68,0,.17,2-.94-.06c-.55,0-1.16-.06-1.82-.06a7.15,7.15,0,0,0-1.33.12,4,4,0,0,0-1.07.35,2.23,2.23,0,0,0-.94.8,1.77,1.77,0,0,0-.28.91,1.48,1.48,0,0,0,.4,1,4,4,0,0,0,.92.75c.42.24,1,.53,1.71.86a14,14,0,0,1,1.57.81,5.33,5.33,0,0,1,1.62,1.48A3.41,3.41,0,0,1,1331.25,126.94Z"/><path class="cls-35" d="M1178.15,118a6.25,6.25,0,0,1-1.44,4,7.12,7.12,0,0,1-3.82,2.43,14.61,14.61,0,0,1-2.25.39q-1.23.12-2.73.12l0,6.42h-2.5c0-.6,0-1.73,0-3.37s0-4.19,0-7.63c0-1.1,0-2.44,0-4s0-3.35-.06-5.29l1.28,0h1a24.8,24.8,0,0,1,4.47.34,8.59,8.59,0,0,1,3.1,1.13,5.86,5.86,0,0,1,2.11,2.26A6.91,6.91,0,0,1,1178.15,118Zm-2.58,0a4.74,4.74,0,0,0-.72-2.66,4.66,4.66,0,0,0-2.18-1.74,6.4,6.4,0,0,0-2-.5c-.71-.06-1.43-.1-2.18-.1h-.57q0,.18,0,2.28c0,1.41,0,2.52,0,3.34s0,1.64,0,2.66,0,1.6,0,1.74h.61a18.48,18.48,0,0,0,2.16-.13,7,7,0,0,0,2-.5,4.93,4.93,0,0,0,2.17-1.69A4.55,4.55,0,0,0,1175.57,118Z"/><path class="cls-35" d="M1191.13,117.81a23.16,23.16,0,0,0-2.56.84c-1.15.42-2.47,1-4,1.7,0,.11,0,.62,0,1.52s0,1.75,0,2.53c0,1.2,0,2.61,0,4.25s0,2.55,0,2.73h-2.39c0-.17,0-.73,0-1.7s0-2.6,0-4.93c0-.94,0-2.26,0-4s0-3.28,0-4.78h2.35v2.31h0a35.47,35.47,0,0,1,3.39-1.68,18.73,18.73,0,0,1,2.67-1Z"/><path class="cls-35" d="M1207.7,123.7a9.13,9.13,0,0,1-.63,3.37,7.54,7.54,0,0,1-1.81,2.75,7.24,7.24,0,0,1-2.22,1.46,7.35,7.35,0,0,1-2.77.5,7.7,7.7,0,0,1-2.74-.49,6.88,6.88,0,0,1-2.27-1.45,7.46,7.46,0,0,1-1.79-2.74,9.37,9.37,0,0,1-.63-3.43,9.24,9.24,0,0,1,.54-3.21,7.38,7.38,0,0,1,1.68-2.63,6.89,6.89,0,0,1,2.37-1.63,7.25,7.25,0,0,1,2.85-.57,7.47,7.47,0,0,1,2.86.52,6.56,6.56,0,0,1,2.29,1.57,7.73,7.73,0,0,1,1.71,2.7A9.11,9.11,0,0,1,1207.7,123.7Zm-2.42.11a8.5,8.5,0,0,0-.47-2.78,5.61,5.61,0,0,0-1.43-2.28,4,4,0,0,0-1.41-.88,4.83,4.83,0,0,0-3.51,0,4.42,4.42,0,0,0-1.46,1,5.77,5.77,0,0,0-1.27,2.09,7.88,7.88,0,0,0-.46,2.64,8.44,8.44,0,0,0,.47,2.85,5.59,5.59,0,0,0,1.52,2.24,4.18,4.18,0,0,0,1.37.81,4.67,4.67,0,0,0,1.64.28,4.77,4.77,0,0,0,1.78-.33,4.45,4.45,0,0,0,1.45-1,5.81,5.81,0,0,0,1.32-2.13A7.63,7.63,0,0,0,1205.28,123.81Z"/><path class="cls-35" d="M1224.83,116.61q-2,4.5-4.21,9.56c-1.49,3.36-2.25,5.1-2.3,5.21h-1.78l-2.22-4.93c-1.42-3.17-2.88-6.4-4.35-9.69l2.22-1,5.34,12.64h0l5.18-12.61Z"/><path class="cls-35" d="M1240.3,123.14h-11a6.6,6.6,0,0,0,.69,3,5.46,5.46,0,0,0,2,2.23,6.8,6.8,0,0,0,2,.84,11.14,11.14,0,0,0,2.7.28c.58,0,1.11,0,1.59,0s.78-.05.89-.07l-.28,2-.8.06c-.46,0-1,0-1.61,0a12.81,12.81,0,0,1-4.23-.63,8,8,0,0,1-3-1.74,7.87,7.87,0,0,1-1.68-2.37,7.32,7.32,0,0,1-.69-3.2,8.82,8.82,0,0,1,.52-3.13,8.38,8.38,0,0,1,1.55-2.6,5.8,5.8,0,0,1,2.22-1.59,6.87,6.87,0,0,1,2.75-.56,7,7,0,0,1,2.51.42,5,5,0,0,1,1.9,1.29,6.58,6.58,0,0,1,1.36,2.39A11,11,0,0,1,1240.3,123.14Zm-2.35-1.7a5,5,0,0,0-1.29-3,3.61,3.61,0,0,0-2.74-1.07,4,4,0,0,0-2.84,1.08,5.88,5.88,0,0,0-1.57,2.94Z"/><path class="cls-35" d="M1256.15,123.14h-11a6.6,6.6,0,0,0,.69,3,5.46,5.46,0,0,0,2.05,2.23,6.8,6.8,0,0,0,2,.84,11.14,11.14,0,0,0,2.7.28c.58,0,1.11,0,1.59,0s.77-.05.89-.07l-.28,2-.8.06c-.46,0-1,0-1.61,0a12.81,12.81,0,0,1-4.23-.63,8,8,0,0,1-3-1.74,7.87,7.87,0,0,1-1.68-2.37,7.32,7.32,0,0,1-.69-3.2,8.82,8.82,0,0,1,.52-3.13,8.55,8.55,0,0,1,1.54-2.6,5.91,5.91,0,0,1,2.23-1.59,6.87,6.87,0,0,1,2.75-.56,7,7,0,0,1,2.51.42,5,5,0,0,1,1.9,1.29,6.58,6.58,0,0,1,1.36,2.39A11,11,0,0,1,1256.15,123.14Zm-2.35-1.7a5,5,0,0,0-1.29-3,3.61,3.61,0,0,0-2.74-1.07,4,4,0,0,0-2.84,1.08,5.89,5.89,0,0,0-1.58,2.94Z"/><path class="cls-35" d="M1271.83,131.61h-1.35a32.17,32.17,0,0,1-4.49-.25,11.29,11.29,0,0,1-3.18-1,7.26,7.26,0,0,1-3.06-2.58,6.38,6.38,0,0,1-1-3.57,7.28,7.28,0,0,1,1.17-4.09,7.65,7.65,0,0,1,3.37-2.78,12.1,12.1,0,0,1,3-.92,17.66,17.66,0,0,1,3.28-.31l0-7h2.4c0,.2,0,1.62,0,4.25s0,5.29,0,8c0,2.14,0,4.07,0,5.79S1271.82,130.37,1271.83,131.61ZM1269.48,121v-2.8a15.3,15.3,0,0,0-2.86.25,10.46,10.46,0,0,0-2.3.7,5.45,5.45,0,0,0-2.36,2,5.56,5.56,0,0,0-.83,3,4.53,4.53,0,0,0,.8,2.69,5.85,5.85,0,0,0,2,1.76,9.13,9.13,0,0,0,2.36.84,12.89,12.89,0,0,0,2.75.28h.4c0-.09,0-.85,0-2.27S1269.48,123.85,1269.48,121Z"/><path class="cls-35" d="M1290.88,123.7a9.13,9.13,0,0,1-.63,3.37,7.54,7.54,0,0,1-1.81,2.75,7.24,7.24,0,0,1-2.22,1.46,7.35,7.35,0,0,1-2.77.5,7.7,7.7,0,0,1-2.74-.49,6.88,6.88,0,0,1-2.27-1.45,7.46,7.46,0,0,1-1.79-2.74,9.37,9.37,0,0,1-.63-3.43,9.24,9.24,0,0,1,.54-3.21,7.38,7.38,0,0,1,1.68-2.63,6.89,6.89,0,0,1,2.37-1.63,7.25,7.25,0,0,1,2.85-.57,7.47,7.47,0,0,1,2.86.52,6.56,6.56,0,0,1,2.29,1.57,7.73,7.73,0,0,1,1.71,2.7A9.11,9.11,0,0,1,1290.88,123.7Zm-2.42.11A8.5,8.5,0,0,0,1288,121a5.61,5.61,0,0,0-1.43-2.28,4.1,4.1,0,0,0-1.41-.88,4.83,4.83,0,0,0-3.51,0,4.42,4.42,0,0,0-1.46,1,5.63,5.63,0,0,0-1.27,2.09,7.64,7.64,0,0,0-.46,2.64,8.44,8.44,0,0,0,.47,2.85,5.49,5.49,0,0,0,1.52,2.24,4.18,4.18,0,0,0,1.37.81,4.67,4.67,0,0,0,1.64.28,4.77,4.77,0,0,0,1.78-.33,4.45,4.45,0,0,0,1.45-1,5.81,5.81,0,0,0,1.32-2.13A7.63,7.63,0,0,0,1288.46,123.81Z"/><path class="cls-35" d="M1304,117.81a23.16,23.16,0,0,0-2.56.84c-1.15.42-2.48,1-4,1.7,0,.11,0,.62,0,1.52s0,1.75,0,2.53c0,1.2,0,2.61,0,4.25s0,2.55,0,2.73h-2.4c0-.17,0-.73,0-1.7s0-2.6,0-4.93c0-.94,0-2.26,0-4s0-3.28,0-4.78h2.36v2.31h0a34.34,34.34,0,0,1,3.39-1.68,18.73,18.73,0,0,1,2.67-1Z"/><path class="cls-35" d="M1318.88,123.14h-11a6.6,6.6,0,0,0,.69,3,5.51,5.51,0,0,0,2,2.23,7,7,0,0,0,2,.84,11.14,11.14,0,0,0,2.7.28c.58,0,1.11,0,1.59,0s.77-.05.89-.07l-.28,2-.8.06c-.46,0-1,0-1.61,0a12.81,12.81,0,0,1-4.23-.63,8,8,0,0,1-3-1.74,7.87,7.87,0,0,1-1.68-2.37,7.32,7.32,0,0,1-.69-3.2,8.82,8.82,0,0,1,.52-3.13,8.55,8.55,0,0,1,1.54-2.6,5.91,5.91,0,0,1,2.23-1.59,6.87,6.87,0,0,1,2.75-.56,7,7,0,0,1,2.51.42,5,5,0,0,1,1.9,1.29,6.58,6.58,0,0,1,1.36,2.39A11,11,0,0,1,1318.88,123.14Zm-2.36-1.7a5,5,0,0,0-1.28-3,3.61,3.61,0,0,0-2.74-1.07,4,4,0,0,0-2.84,1.08,5.89,5.89,0,0,0-1.58,2.94Z"/><path class="cls-35" d="M1331.25,126.94a3.67,3.67,0,0,1-.55,2,4.34,4.34,0,0,1-1.43,1.43,7.37,7.37,0,0,1-2.19.87,12.23,12.23,0,0,1-2.81.3c-.49,0-1,0-1.54-.07l-.91-.09-.09-2,1.06.08c.61,0,1.22.07,1.83.07a13.11,13.11,0,0,0,1.36-.09,4.64,4.64,0,0,0,1.38-.34,2.65,2.65,0,0,0,1.13-.82,1.89,1.89,0,0,0,.36-1.17,1.51,1.51,0,0,0-.32-1,3.78,3.78,0,0,0-.88-.75,11.15,11.15,0,0,0-1.66-.87,16.08,16.08,0,0,1-1.77-.89,4.58,4.58,0,0,1-1.55-1.47,3.63,3.63,0,0,1-.54-2,3.46,3.46,0,0,1,.61-2,4.56,4.56,0,0,1,1.65-1.45,6.12,6.12,0,0,1,2-.64,13.88,13.88,0,0,1,2.1-.16q.93,0,1.53,0l.68,0,.17,2-.94-.06c-.55,0-1.16-.06-1.82-.06a7.15,7.15,0,0,0-1.33.12,4,4,0,0,0-1.07.35,2.23,2.23,0,0,0-.94.8,1.77,1.77,0,0,0-.28.91,1.48,1.48,0,0,0,.4,1,4,4,0,0,0,.92.75c.42.24,1,.53,1.71.86a14,14,0,0,1,1.57.81,5.33,5.33,0,0,1,1.62,1.48A3.41,3.41,0,0,1,1331.25,126.94Z"/><path class="cls-36" d="M1178.15,118a6.25,6.25,0,0,1-1.44,4,7.12,7.12,0,0,1-3.82,2.43,14.61,14.61,0,0,1-2.25.39q-1.23.12-2.73.12l0,6.42h-2.5c0-.6,0-1.73,0-3.37s0-4.19,0-7.63c0-1.1,0-2.44,0-4s0-3.35-.06-5.29l1.28,0h1a24.8,24.8,0,0,1,4.47.34,8.59,8.59,0,0,1,3.1,1.13,5.86,5.86,0,0,1,2.11,2.26A6.91,6.91,0,0,1,1178.15,118Zm-2.58,0a4.74,4.74,0,0,0-.72-2.66,4.66,4.66,0,0,0-2.18-1.74,6.4,6.4,0,0,0-2-.5c-.71-.06-1.43-.1-2.18-.1h-.57q0,.18,0,2.28c0,1.41,0,2.52,0,3.34s0,1.64,0,2.66,0,1.6,0,1.74h.61a18.48,18.48,0,0,0,2.16-.13,7,7,0,0,0,2-.5,4.93,4.93,0,0,0,2.17-1.69A4.55,4.55,0,0,0,1175.57,118Z"/><path class="cls-36" d="M1191.13,117.81a23.16,23.16,0,0,0-2.56.84c-1.15.42-2.47,1-4,1.7,0,.11,0,.62,0,1.52s0,1.75,0,2.53c0,1.2,0,2.61,0,4.25s0,2.55,0,2.73h-2.39c0-.17,0-.73,0-1.7s0-2.6,0-4.93c0-.94,0-2.26,0-4s0-3.28,0-4.78h2.35v2.31h0a35.47,35.47,0,0,1,3.39-1.68,18.73,18.73,0,0,1,2.67-1Z"/><path class="cls-36" d="M1207.7,123.7a9.13,9.13,0,0,1-.63,3.37,7.54,7.54,0,0,1-1.81,2.75,7.24,7.24,0,0,1-2.22,1.46,7.35,7.35,0,0,1-2.77.5,7.7,7.7,0,0,1-2.74-.49,6.88,6.88,0,0,1-2.27-1.45,7.46,7.46,0,0,1-1.79-2.74,9.37,9.37,0,0,1-.63-3.43,9.24,9.24,0,0,1,.54-3.21,7.38,7.38,0,0,1,1.68-2.63,6.89,6.89,0,0,1,2.37-1.63,7.25,7.25,0,0,1,2.85-.57,7.47,7.47,0,0,1,2.86.52,6.56,6.56,0,0,1,2.29,1.57,7.73,7.73,0,0,1,1.71,2.7A9.11,9.11,0,0,1,1207.7,123.7Zm-2.42.11a8.5,8.5,0,0,0-.47-2.78,5.61,5.61,0,0,0-1.43-2.28,4,4,0,0,0-1.41-.88,4.83,4.83,0,0,0-3.51,0,4.42,4.42,0,0,0-1.46,1,5.77,5.77,0,0,0-1.27,2.09,7.88,7.88,0,0,0-.46,2.64,8.44,8.44,0,0,0,.47,2.85,5.59,5.59,0,0,0,1.52,2.24,4.18,4.18,0,0,0,1.37.81,4.67,4.67,0,0,0,1.64.28,4.77,4.77,0,0,0,1.78-.33,4.45,4.45,0,0,0,1.45-1,5.81,5.81,0,0,0,1.32-2.13A7.63,7.63,0,0,0,1205.28,123.81Z"/><path class="cls-36" d="M1224.83,116.61q-2,4.5-4.21,9.56c-1.49,3.36-2.25,5.1-2.3,5.21h-1.78l-2.22-4.93c-1.42-3.17-2.88-6.4-4.35-9.69l2.22-1,5.34,12.64h0l5.18-12.61Z"/><path class="cls-36" d="M1240.3,123.14h-11a6.6,6.6,0,0,0,.69,3,5.46,5.46,0,0,0,2,2.23,6.8,6.8,0,0,0,2,.84,11.14,11.14,0,0,0,2.7.28c.58,0,1.11,0,1.59,0s.78-.05.89-.07l-.28,2-.8.06c-.46,0-1,0-1.61,0a12.81,12.81,0,0,1-4.23-.63,8,8,0,0,1-3-1.74,7.87,7.87,0,0,1-1.68-2.37,7.32,7.32,0,0,1-.69-3.2,8.82,8.82,0,0,1,.52-3.13,8.38,8.38,0,0,1,1.55-2.6,5.8,5.8,0,0,1,2.22-1.59,6.87,6.87,0,0,1,2.75-.56,7,7,0,0,1,2.51.42,5,5,0,0,1,1.9,1.29,6.58,6.58,0,0,1,1.36,2.39A11,11,0,0,1,1240.3,123.14Zm-2.35-1.7a5,5,0,0,0-1.29-3,3.61,3.61,0,0,0-2.74-1.07,4,4,0,0,0-2.84,1.08,5.88,5.88,0,0,0-1.57,2.94Z"/><path class="cls-36" d="M1256.15,123.14h-11a6.6,6.6,0,0,0,.69,3,5.46,5.46,0,0,0,2.05,2.23,6.8,6.8,0,0,0,2,.84,11.14,11.14,0,0,0,2.7.28c.58,0,1.11,0,1.59,0s.77-.05.89-.07l-.28,2-.8.06c-.46,0-1,0-1.61,0a12.81,12.81,0,0,1-4.23-.63,8,8,0,0,1-3-1.74,7.87,7.87,0,0,1-1.68-2.37,7.32,7.32,0,0,1-.69-3.2,8.82,8.82,0,0,1,.52-3.13,8.55,8.55,0,0,1,1.54-2.6,5.91,5.91,0,0,1,2.23-1.59,6.87,6.87,0,0,1,2.75-.56,7,7,0,0,1,2.51.42,5,5,0,0,1,1.9,1.29,6.58,6.58,0,0,1,1.36,2.39A11,11,0,0,1,1256.15,123.14Zm-2.35-1.7a5,5,0,0,0-1.29-3,3.61,3.61,0,0,0-2.74-1.07,4,4,0,0,0-2.84,1.08,5.89,5.89,0,0,0-1.58,2.94Z"/><path class="cls-36" d="M1271.83,131.61h-1.35a32.17,32.17,0,0,1-4.49-.25,11.29,11.29,0,0,1-3.18-1,7.26,7.26,0,0,1-3.06-2.58,6.38,6.38,0,0,1-1-3.57,7.28,7.28,0,0,1,1.17-4.09,7.65,7.65,0,0,1,3.37-2.78,12.1,12.1,0,0,1,3-.92,17.66,17.66,0,0,1,3.28-.31l0-7h2.4c0,.2,0,1.62,0,4.25s0,5.29,0,8c0,2.14,0,4.07,0,5.79S1271.82,130.37,1271.83,131.61ZM1269.48,121v-2.8a15.3,15.3,0,0,0-2.86.25,10.46,10.46,0,0,0-2.3.7,5.45,5.45,0,0,0-2.36,2,5.56,5.56,0,0,0-.83,3,4.53,4.53,0,0,0,.8,2.69,5.85,5.85,0,0,0,2,1.76,9.13,9.13,0,0,0,2.36.84,12.89,12.89,0,0,0,2.75.28h.4c0-.09,0-.85,0-2.27S1269.48,123.85,1269.48,121Z"/><path class="cls-36" d="M1290.88,123.7a9.13,9.13,0,0,1-.63,3.37,7.54,7.54,0,0,1-1.81,2.75,7.24,7.24,0,0,1-2.22,1.46,7.35,7.35,0,0,1-2.77.5,7.7,7.7,0,0,1-2.74-.49,6.88,6.88,0,0,1-2.27-1.45,7.46,7.46,0,0,1-1.79-2.74,9.37,9.37,0,0,1-.63-3.43,9.24,9.24,0,0,1,.54-3.21,7.38,7.38,0,0,1,1.68-2.63,6.89,6.89,0,0,1,2.37-1.63,7.25,7.25,0,0,1,2.85-.57,7.47,7.47,0,0,1,2.86.52,6.56,6.56,0,0,1,2.29,1.57,7.73,7.73,0,0,1,1.71,2.7A9.11,9.11,0,0,1,1290.88,123.7Zm-2.42.11A8.5,8.5,0,0,0,1288,121a5.61,5.61,0,0,0-1.43-2.28,4.1,4.1,0,0,0-1.41-.88,4.83,4.83,0,0,0-3.51,0,4.42,4.42,0,0,0-1.46,1,5.63,5.63,0,0,0-1.27,2.09,7.64,7.64,0,0,0-.46,2.64,8.44,8.44,0,0,0,.47,2.85,5.49,5.49,0,0,0,1.52,2.24,4.18,4.18,0,0,0,1.37.81,4.67,4.67,0,0,0,1.64.28,4.77,4.77,0,0,0,1.78-.33,4.45,4.45,0,0,0,1.45-1,5.81,5.81,0,0,0,1.32-2.13A7.63,7.63,0,0,0,1288.46,123.81Z"/><path class="cls-36" d="M1304,117.81a23.16,23.16,0,0,0-2.56.84c-1.15.42-2.48,1-4,1.7,0,.11,0,.62,0,1.52s0,1.75,0,2.53c0,1.2,0,2.61,0,4.25s0,2.55,0,2.73h-2.4c0-.17,0-.73,0-1.7s0-2.6,0-4.93c0-.94,0-2.26,0-4s0-3.28,0-4.78h2.36v2.31h0a34.34,34.34,0,0,1,3.39-1.68,18.73,18.73,0,0,1,2.67-1Z"/><path class="cls-36" d="M1318.88,123.14h-11a6.6,6.6,0,0,0,.69,3,5.51,5.51,0,0,0,2,2.23,7,7,0,0,0,2,.84,11.14,11.14,0,0,0,2.7.28c.58,0,1.11,0,1.59,0s.77-.05.89-.07l-.28,2-.8.06c-.46,0-1,0-1.61,0a12.81,12.81,0,0,1-4.23-.63,8,8,0,0,1-3-1.74,7.87,7.87,0,0,1-1.68-2.37,7.32,7.32,0,0,1-.69-3.2,8.82,8.82,0,0,1,.52-3.13,8.55,8.55,0,0,1,1.54-2.6,5.91,5.91,0,0,1,2.23-1.59,6.87,6.87,0,0,1,2.75-.56,7,7,0,0,1,2.51.42,5,5,0,0,1,1.9,1.29,6.58,6.58,0,0,1,1.36,2.39A11,11,0,0,1,1318.88,123.14Zm-2.36-1.7a5,5,0,0,0-1.28-3,3.61,3.61,0,0,0-2.74-1.07,4,4,0,0,0-2.84,1.08,5.89,5.89,0,0,0-1.58,2.94Z"/><path class="cls-36" d="M1331.25,126.94a3.67,3.67,0,0,1-.55,2,4.34,4.34,0,0,1-1.43,1.43,7.37,7.37,0,0,1-2.19.87,12.23,12.23,0,0,1-2.81.3c-.49,0-1,0-1.54-.07l-.91-.09-.09-2,1.06.08c.61,0,1.22.07,1.83.07a13.11,13.11,0,0,0,1.36-.09,4.64,4.64,0,0,0,1.38-.34,2.65,2.65,0,0,0,1.13-.82,1.89,1.89,0,0,0,.36-1.17,1.51,1.51,0,0,0-.32-1,3.78,3.78,0,0,0-.88-.75,11.15,11.15,0,0,0-1.66-.87,16.08,16.08,0,0,1-1.77-.89,4.58,4.58,0,0,1-1.55-1.47,3.63,3.63,0,0,1-.54-2,3.46,3.46,0,0,1,.61-2,4.56,4.56,0,0,1,1.65-1.45,6.12,6.12,0,0,1,2-.64,13.88,13.88,0,0,1,2.1-.16q.93,0,1.53,0l.68,0,.17,2-.94-.06c-.55,0-1.16-.06-1.82-.06a7.15,7.15,0,0,0-1.33.12,4,4,0,0,0-1.07.35,2.23,2.23,0,0,0-.94.8,1.77,1.77,0,0,0-.28.91,1.48,1.48,0,0,0,.4,1,4,4,0,0,0,.92.75c.42.24,1,.53,1.71.86a14,14,0,0,1,1.57.81,5.33,5.33,0,0,1,1.62,1.48A3.41,3.41,0,0,1,1331.25,126.94Z"/><g id="_Group_3" data-name="&lt;Group&gt;"><path id="_Compound_Path_" data-name="&lt;Compound Path&gt;" class="cls-34" d="M1291.89,157.23a6.5,6.5,0,0,1-2.28,2.17,13.1,13.1,0,0,1-6.79,1.59l-1.17,0q-.6,0-1.2-.06c-.82,0-1.27-.08-1.37-.1l-.14-2.52c.16,0,.62.07,1.36.13s1.63.09,2.66.09a18.08,18.08,0,0,0,2.41-.22,8.84,8.84,0,0,0,2.26-.65,4.11,4.11,0,0,0,1.58-1.22,3,3,0,0,0,.54-1.83,3.5,3.5,0,0,0-.54-2,5.56,5.56,0,0,0-1.83-1.57,23.7,23.7,0,0,0-2.14-1.11,23.06,23.06,0,0,1-2.35-1.26,7.07,7.07,0,0,1-2.59-2.35,5.58,5.58,0,0,1-.75-2.89,5.36,5.36,0,0,1,.7-2.8,7,7,0,0,1,1.81-2,7.34,7.34,0,0,1,2.73-1.27,14.34,14.34,0,0,1,3.59-.41h1.14l1.09,0c.34,0,.62,0,.85.05l.41,0,.25,2.55c-.12,0-.55-.07-1.29-.14a27,27,0,0,0-2.77-.11,10.1,10.1,0,0,0-2,.21,6.11,6.11,0,0,0-1.83.69,3.46,3.46,0,0,0-1.21,1.11,3,3,0,0,0-.48,1.69,3,3,0,0,0,.52,1.67,5.72,5.72,0,0,0,1.92,1.63c.48.29,1.12.63,1.91,1s1.56.8,2.33,1.26q3.52,2,3.52,5.42A5.9,5.9,0,0,1,1291.89,157.23Z"/><path id="_Compound_Path_2" data-name="&lt;Compound Path&gt;" class="cls-34" d="M1310,157.23a6.34,6.34,0,0,1-2.28,2.17,13,13,0,0,1-6.79,1.59l-1.17,0-1.2-.06c-.81,0-1.27-.08-1.36-.1l-.15-2.52c.17,0,.63.07,1.37.13s1.63.09,2.66.09a18,18,0,0,0,2.4-.22,8.81,8.81,0,0,0,2.27-.65,4.19,4.19,0,0,0,1.58-1.22,3,3,0,0,0,.54-1.83,3.5,3.5,0,0,0-.54-2,5.51,5.51,0,0,0-1.84-1.57q-.82-.5-2.13-1.11a23.27,23.27,0,0,1-2.36-1.26,7,7,0,0,1-2.58-2.35,5.91,5.91,0,0,1-.06-5.69,7,7,0,0,1,1.82-2,7.34,7.34,0,0,1,2.73-1.27,14.28,14.28,0,0,1,3.59-.41h1.13l1.1,0,.84.05.42,0,.25,2.55c-.12,0-.55-.07-1.3-.14a26.74,26.74,0,0,0-2.76-.11,10.1,10.1,0,0,0-2,.21,6.17,6.17,0,0,0-1.84.69,3.35,3.35,0,0,0-1.2,1.11,3,3,0,0,0-.48,1.69,3,3,0,0,0,.52,1.67,5.52,5.52,0,0,0,1.92,1.63c.48.29,1.11.63,1.9,1s1.57.8,2.34,1.26c2.34,1.34,3.52,3.15,3.52,5.42A5.81,5.81,0,0,1,1310,157.23Z"/><path id="_Compound_Path_3" data-name="&lt;Compound Path&gt;" class="cls-34" d="M1324.78,139.68c0,1.22,0,2.25,0,3.16s0,1.64,0,2.27v8.15c0,1,0,2.09,0,3.16s0,2,0,2.7v1.54h-2.88c0-.33,0-.86,0-1.58v-2.69q0-1.65,0-3.24V142.92q0-1.41,0-3.27c-2.52,0-8.48,0-8.62,0v-2.41h20.08v2.44Z"/><path id="_Compound_Path_4" data-name="&lt;Compound Path&gt;" class="cls-37" d="M1291.89,157.23a6.5,6.5,0,0,1-2.28,2.17,13.1,13.1,0,0,1-6.79,1.59l-1.17,0q-.6,0-1.2-.06c-.82,0-1.27-.08-1.37-.1l-.14-2.52c.16,0,.62.07,1.36.13s1.63.09,2.66.09a18.08,18.08,0,0,0,2.41-.22,8.84,8.84,0,0,0,2.26-.65,4.11,4.11,0,0,0,1.58-1.22,3,3,0,0,0,.54-1.83,3.5,3.5,0,0,0-.54-2,5.56,5.56,0,0,0-1.83-1.57,23.7,23.7,0,0,0-2.14-1.11,23.06,23.06,0,0,1-2.35-1.26,7.07,7.07,0,0,1-2.59-2.35,5.58,5.58,0,0,1-.75-2.89,5.36,5.36,0,0,1,.7-2.8,7,7,0,0,1,1.81-2,7.34,7.34,0,0,1,2.73-1.27,14.34,14.34,0,0,1,3.59-.41h1.14l1.09,0c.34,0,.62,0,.85.05l.41,0,.25,2.55c-.12,0-.55-.07-1.29-.14a27,27,0,0,0-2.77-.11,10.1,10.1,0,0,0-2,.21,6.11,6.11,0,0,0-1.83.69,3.46,3.46,0,0,0-1.21,1.11,3,3,0,0,0-.48,1.69,3,3,0,0,0,.52,1.67,5.72,5.72,0,0,0,1.92,1.63c.48.29,1.12.63,1.91,1s1.56.8,2.33,1.26q3.52,2,3.52,5.42A5.9,5.9,0,0,1,1291.89,157.23Z"/><path id="_Compound_Path_5" data-name="&lt;Compound Path&gt;" class="cls-37" d="M1310,157.23a6.34,6.34,0,0,1-2.28,2.17,13,13,0,0,1-6.79,1.59l-1.17,0-1.2-.06c-.81,0-1.27-.08-1.36-.1l-.15-2.52c.17,0,.63.07,1.37.13s1.63.09,2.66.09a18,18,0,0,0,2.4-.22,8.81,8.81,0,0,0,2.27-.65,4.19,4.19,0,0,0,1.58-1.22,3,3,0,0,0,.54-1.83,3.5,3.5,0,0,0-.54-2,5.51,5.51,0,0,0-1.84-1.57q-.82-.5-2.13-1.11a23.27,23.27,0,0,1-2.36-1.26,7,7,0,0,1-2.58-2.35,5.91,5.91,0,0,1-.06-5.69,7,7,0,0,1,1.82-2,7.34,7.34,0,0,1,2.73-1.27,14.28,14.28,0,0,1,3.59-.41h1.13l1.1,0,.84.05.42,0,.25,2.55c-.12,0-.55-.07-1.3-.14a26.74,26.74,0,0,0-2.76-.11,10.1,10.1,0,0,0-2,.21,6.17,6.17,0,0,0-1.84.69,3.35,3.35,0,0,0-1.2,1.11,3,3,0,0,0-.48,1.69,3,3,0,0,0,.52,1.67,5.52,5.52,0,0,0,1.92,1.63c.48.29,1.11.63,1.9,1s1.57.8,2.34,1.26c2.34,1.34,3.52,3.15,3.52,5.42A5.81,5.81,0,0,1,1310,157.23Z"/><path id="_Compound_Path_6" data-name="&lt;Compound Path&gt;" class="cls-37" d="M1324.78,139.68c0,1.22,0,2.25,0,3.16s0,1.64,0,2.27v8.15c0,1,0,2.09,0,3.16s0,2,0,2.7v1.54h-2.88c0-.33,0-.86,0-1.58v-2.69q0-1.65,0-3.24V142.92q0-1.41,0-3.27c-2.52,0-8.48,0-8.62,0v-2.41h20.08v2.44Z"/><path id="_Compound_Path_7" data-name="&lt;Compound Path&gt;" class="cls-38" d="M1291.89,157.23a6.5,6.5,0,0,1-2.28,2.17,13.1,13.1,0,0,1-6.79,1.59l-1.17,0q-.6,0-1.2-.06c-.82,0-1.27-.08-1.37-.1l-.14-2.52c.16,0,.62.07,1.36.13s1.63.09,2.66.09a18.08,18.08,0,0,0,2.41-.22,8.84,8.84,0,0,0,2.26-.65,4.11,4.11,0,0,0,1.58-1.22,3,3,0,0,0,.54-1.83,3.5,3.5,0,0,0-.54-2,5.56,5.56,0,0,0-1.83-1.57,23.7,23.7,0,0,0-2.14-1.11,23.06,23.06,0,0,1-2.35-1.26,7.07,7.07,0,0,1-2.59-2.35,5.58,5.58,0,0,1-.75-2.89,5.36,5.36,0,0,1,.7-2.8,7,7,0,0,1,1.81-2,7.34,7.34,0,0,1,2.73-1.27,14.34,14.34,0,0,1,3.59-.41h1.14l1.09,0c.34,0,.62,0,.85.05l.41,0,.25,2.55c-.12,0-.55-.07-1.29-.14a27,27,0,0,0-2.77-.11,10.1,10.1,0,0,0-2,.21,6.11,6.11,0,0,0-1.83.69,3.46,3.46,0,0,0-1.21,1.11,3,3,0,0,0-.48,1.69,3,3,0,0,0,.52,1.67,5.72,5.72,0,0,0,1.92,1.63c.48.29,1.12.63,1.91,1s1.56.8,2.33,1.26q3.52,2,3.52,5.42A5.9,5.9,0,0,1,1291.89,157.23Z"/><path id="_Compound_Path_8" data-name="&lt;Compound Path&gt;" class="cls-38" d="M1310,157.23a6.34,6.34,0,0,1-2.28,2.17,13,13,0,0,1-6.79,1.59l-1.17,0-1.2-.06c-.81,0-1.27-.08-1.36-.1l-.15-2.52c.17,0,.63.07,1.37.13s1.63.09,2.66.09a18,18,0,0,0,2.4-.22,8.81,8.81,0,0,0,2.27-.65,4.19,4.19,0,0,0,1.58-1.22,3,3,0,0,0,.54-1.83,3.5,3.5,0,0,0-.54-2,5.51,5.51,0,0,0-1.84-1.57q-.82-.5-2.13-1.11a23.27,23.27,0,0,1-2.36-1.26,7,7,0,0,1-2.58-2.35,5.91,5.91,0,0,1-.06-5.69,7,7,0,0,1,1.82-2,7.34,7.34,0,0,1,2.73-1.27,14.28,14.28,0,0,1,3.59-.41h1.13l1.1,0,.84.05.42,0,.25,2.55c-.12,0-.55-.07-1.3-.14a26.74,26.74,0,0,0-2.76-.11,10.1,10.1,0,0,0-2,.21,6.17,6.17,0,0,0-1.84.69,3.35,3.35,0,0,0-1.2,1.11,3,3,0,0,0-.48,1.69,3,3,0,0,0,.52,1.67,5.52,5.52,0,0,0,1.92,1.63c.48.29,1.11.63,1.9,1s1.57.8,2.34,1.26c2.34,1.34,3.52,3.15,3.52,5.42A5.81,5.81,0,0,1,1310,157.23Z"/><path id="_Compound_Path_9" data-name="&lt;Compound Path&gt;" class="cls-38" d="M1324.78,139.68c0,1.22,0,2.25,0,3.16s0,1.64,0,2.27v8.15c0,1,0,2.09,0,3.16s0,2,0,2.7v1.54h-2.88c0-.33,0-.86,0-1.58v-2.69q0-1.65,0-3.24V142.92q0-1.41,0-3.27c-2.52,0-8.48,0-8.62,0v-2.41h20.08v2.44Z"/></g><polygon id="_Path_" data-name="&lt;Path&gt;" class="cls-39" points="1390.61 108 1388.56 116.26 1386.16 113.49 1378.77 119.41 1371.15 110.81 1338.74 140.04 1333.42 140.04 1333.42 136.87 1337.87 136.87 1371.33 107.57 1379.04 116.26 1384.66 111.76 1382.23 108.95 1390.61 108"/><polygon id="_Path_2" data-name="&lt;Path&gt;" class="cls-40" points="1354.3 132.49 1345.45 140.38 1345.45 160.76 1354.3 160.76 1354.3 132.49"/><polygon id="_Path_3" data-name="&lt;Path&gt;" class="cls-41" points="1367.03 120.09 1358.19 127.98 1358.19 160.76 1367.03 160.76 1367.03 120.09"/><polygon id="_Path_4" data-name="&lt;Path&gt;" class="cls-42" points="1379.77 122.14 1376.76 124.04 1370.92 116.7 1370.92 160.76 1379.77 160.76 1379.77 122.14"/></g><path class="cls-43" d="M1168.14,147.29h.91v4.79a2,2,0,0,1-.57,1.49,2,2,0,0,1-1.48.56,2.12,2.12,0,0,1-1.48-.5,1.75,1.75,0,0,1-.53-1.43v0h.88a1.31,1.31,0,0,0,.29.94,1.1,1.1,0,0,0,.83.3,1,1,0,0,0,.82-.36,1.45,1.45,0,0,0,.32-1Z"/><path class="cls-43" d="M1173.67,153.29a1.73,1.73,0,0,1-.61.62,1.71,1.71,0,0,1-.85.22,1.6,1.6,0,0,1-1.28-.53,2.4,2.4,0,0,1-.46-1.63V149h.91v3a1.88,1.88,0,0,0,.24,1.11.86.86,0,0,0,.73.3,1.52,1.52,0,0,0,.81-.2,1.26,1.26,0,0,0,.48-.56V149h.91v5h-.82Z"/><path class="cls-43" d="M1176.69,149l.07.75a1.68,1.68,0,0,1,.62-.62,1.64,1.64,0,0,1,.86-.22,1.67,1.67,0,0,1,1.26.47,2.13,2.13,0,0,1,.44,1.47V154H1179v-3.14a1.35,1.35,0,0,0-.26-.94,1,1,0,0,0-.8-.28,1.37,1.37,0,0,0-.72.17,1.22,1.22,0,0,0-.46.47V154h-.91v-5Z"/><path class="cls-43" d="M1182.53,147.81V149h1v.68h-1v3a.65.65,0,0,0,.15.49.51.51,0,0,0,.39.15l.17,0,.16-.05.13.63a.84.84,0,0,1-.3.13,1.44,1.44,0,0,1-.4.06,1.19,1.19,0,0,1-.88-.34,1.44,1.44,0,0,1-.33-1v-3h-.8V149h.8v-1.21Z"/><path class="cls-43" d="M1184.25,151.48a2.76,2.76,0,0,1,.6-1.83,2,2,0,0,1,1.63-.72,2,2,0,0,1,1.65.72,2.74,2.74,0,0,1,.6,1.83v.1a2.73,2.73,0,0,1-.6,1.83,2.23,2.23,0,0,1-3.28,0,2.76,2.76,0,0,1-.6-1.83Zm.91.1a2.38,2.38,0,0,0,.33,1.31,1.12,1.12,0,0,0,1,.52,1.09,1.09,0,0,0,1-.52,2.3,2.3,0,0,0,.34-1.31v-.1a2.32,2.32,0,0,0-.34-1.31,1.21,1.21,0,0,0-2,0,2.4,2.4,0,0,0-.33,1.31Z"/><path class="cls-43" d="M1192.76,152.68a.62.62,0,0,0-.23-.49,2.2,2.2,0,0,0-.87-.33,3.89,3.89,0,0,1-1.36-.53,1.1,1.1,0,0,1-.47-.92,1.32,1.32,0,0,1,.52-1,2,2,0,0,1,1.35-.43,2,2,0,0,1,1.38.46,1.32,1.32,0,0,1,.5,1.08v0h-.87a.79.79,0,0,0-.28-.59,1,1,0,0,0-.72-.26,1.07,1.07,0,0,0-.72.21.69.69,0,0,0-.24.52.55.55,0,0,0,.21.46,2.19,2.19,0,0,0,.85.3,3.49,3.49,0,0,1,1.39.55,1.1,1.1,0,0,1,.48.93,1.31,1.31,0,0,1-.54,1.08,2.18,2.18,0,0,1-1.41.43,2.23,2.23,0,0,1-1.51-.49,1.39,1.39,0,0,1-.52-1.13v0h.87a.87.87,0,0,0,.36.71,1.4,1.4,0,0,0,.79.22,1.21,1.21,0,0,0,.76-.2A.63.63,0,0,0,1192.76,152.68Z"/><path class="cls-43" d="M1200.24,154c0-.15,0-.29-.07-.4a.47.47,0,1,0-.7.25,1.61,1.61,0,0,1-.88.25,1.66,1.66,0,0,1-1.19-.4,1.5,1.5,0,0,1-.41-1.11,1.28,1.28,0,0,1,.58-1.12,2.72,2.72,0,0,1,1.58-.41h1v-.49a.93.93,0,0,0-.27-.7,1.06,1.06,0,0,0-.76-.25,1.11,1.11,0,0,0-.72.22.66.66,0,0,0-.27.53h-.87v0a1.2,1.2,0,0,1,.52-1,2.12,2.12,0,0,1,1.4-.45,2,2,0,0,1,1.37.43,1.53,1.53,0,0,1,.52,1.25V153a4.41,4.41,0,0,0,0,.52,2.84,2.84,0,0,0,.1.49Zm-1.51-.67a1.62,1.62,0,0,0,.89-.25,1.22,1.22,0,0,0,.52-.58v-.82h-1a1.32,1.32,0,0,0-.89.28.82.82,0,0,0-.33.65.69.69,0,0,0,.21.53A.87.87,0,0,0,1198.73,153.36Z"/><path class="cls-43" d="M1204,152.55l.07.35h0l.09-.35,1.15-3.53h.93l-1.84,5h-.69l-1.86-5h.93Z"/><path class="cls-43" d="M1210.08,154c0-.15,0-.29-.07-.4a2.07,2.07,0,0,1,0-.35,2.12,2.12,0,0,1-.66.6,1.85,1.85,0,0,1-2.08-.15,1.5,1.5,0,0,1-.41-1.11,1.3,1.3,0,0,1,.58-1.12,2.74,2.74,0,0,1,1.58-.41h1v-.49a.93.93,0,0,0-.27-.7,1.06,1.06,0,0,0-.76-.25,1.12,1.12,0,0,0-.72.22.66.66,0,0,0-.27.53h-.86v0a1.21,1.21,0,0,1,.51-1,2.12,2.12,0,0,1,1.4-.45,2,2,0,0,1,1.37.43,1.53,1.53,0,0,1,.52,1.25V153a4.41,4.41,0,0,0,0,.52,2.84,2.84,0,0,0,.1.49Zm-1.51-.67a1.59,1.59,0,0,0,.89-.25,1.22,1.22,0,0,0,.52-.58v-.82h-1a1.29,1.29,0,0,0-.88.28.8.8,0,0,0-.34.65.69.69,0,0,0,.21.53A.89.89,0,0,0,1208.57,153.36Z"/><path class="cls-43" d="M1213,149l.07.75a1.68,1.68,0,0,1,.62-.62,1.64,1.64,0,0,1,.86-.22,1.67,1.67,0,0,1,1.26.47,2.13,2.13,0,0,1,.44,1.47V154h-.91v-3.14a1.35,1.35,0,0,0-.26-.94,1,1,0,0,0-.8-.28,1.37,1.37,0,0,0-.72.17,1.22,1.22,0,0,0-.46.47V154h-.91v-5Z"/><path class="cls-43" d="M1218.47,153.32h2.89V154h-4v-.64l2.71-3.65h-2.68V149h3.79v.62Z"/><path class="cls-43" d="M1225.45,154c0-.15,0-.29-.07-.4a2.07,2.07,0,0,1,0-.35,2.12,2.12,0,0,1-.66.6,1.85,1.85,0,0,1-2.08-.15,1.5,1.5,0,0,1-.41-1.11,1.3,1.3,0,0,1,.58-1.12,2.74,2.74,0,0,1,1.58-.41h1v-.49a.93.93,0,0,0-.27-.7,1.06,1.06,0,0,0-.76-.25,1.12,1.12,0,0,0-.72.22.66.66,0,0,0-.27.53h-.86v0a1.18,1.18,0,0,1,.51-1,2.12,2.12,0,0,1,1.4-.45,2,2,0,0,1,1.37.43,1.53,1.53,0,0,1,.52,1.25V153a4.41,4.41,0,0,0,0,.52,2.84,2.84,0,0,0,.1.49Zm-1.51-.67a1.59,1.59,0,0,0,.89-.25,1.22,1.22,0,0,0,.52-.58v-.82h-1a1.32,1.32,0,0,0-.89.28.82.82,0,0,0-.33.65.69.69,0,0,0,.21.53A.89.89,0,0,0,1223.94,153.36Z"/><path class="cls-43" d="M1228.4,149l.06.66a1.71,1.71,0,0,1,1.5-.75,1.5,1.5,0,0,1,.86.23,1.4,1.4,0,0,1,.54.69,1.85,1.85,0,0,1,.63-.67,1.61,1.61,0,0,1,.91-.25,1.48,1.48,0,0,1,1.2.52,2.38,2.38,0,0,1,.45,1.58v3h-.91v-3a1.64,1.64,0,0,0-.26-1.05.91.91,0,0,0-.76-.31,1,1,0,0,0-.75.32,1.43,1.43,0,0,0-.35.82V154h-.91v-3a1.65,1.65,0,0,0-.26-1,.92.92,0,0,0-.76-.33,1.29,1.29,0,0,0-.68.17,1,1,0,0,0-.41.48V154h-.91v-5Z"/><path class="cls-43" d="M1235.66,151.48a2.76,2.76,0,0,1,.6-1.83,2.23,2.23,0,0,1,3.28,0,2.74,2.74,0,0,1,.6,1.83v.1a2.73,2.73,0,0,1-.6,1.83,2,2,0,0,1-1.64.72,2,2,0,0,1-1.64-.72,2.76,2.76,0,0,1-.6-1.83Zm.91.1a2.3,2.3,0,0,0,.34,1.31,1.2,1.2,0,0,0,2,0,2.3,2.3,0,0,0,.34-1.31v-.1a2.32,2.32,0,0,0-.34-1.31,1.1,1.1,0,0,0-1-.52,1.08,1.08,0,0,0-1,.52,2.32,2.32,0,0,0-.34,1.31Z"/><path class="cls-43" d="M1244.17,152.68a.59.59,0,0,0-.23-.49,2.21,2.21,0,0,0-.86-.33,3.81,3.81,0,0,1-1.36-.53,1.08,1.08,0,0,1-.48-.92,1.34,1.34,0,0,1,.52-1,2,2,0,0,1,1.35-.43,2,2,0,0,1,1.38.46,1.36,1.36,0,0,1,.51,1.08v0h-.87a.8.8,0,0,0-.29-.59,1,1,0,0,0-.72-.26,1.07,1.07,0,0,0-.72.21.69.69,0,0,0-.24.52.55.55,0,0,0,.21.46,2.26,2.26,0,0,0,.85.3,3.61,3.61,0,0,1,1.4.55,1.09,1.09,0,0,1,.47.93,1.33,1.33,0,0,1-.53,1.08,2.18,2.18,0,0,1-1.41.43,2.21,2.21,0,0,1-1.51-.49,1.37,1.37,0,0,1-.53-1.13v0h.87a.87.87,0,0,0,.36.71,1.41,1.41,0,0,0,.8.22,1.24,1.24,0,0,0,.76-.2A.65.65,0,0,0,1244.17,152.68Z"/><path class="cls-43" d="M1249.39,149l.06.66a1.71,1.71,0,0,1,1.5-.75,1.5,1.5,0,0,1,.86.23,1.4,1.4,0,0,1,.54.69,1.85,1.85,0,0,1,.63-.67,1.6,1.6,0,0,1,.9-.25,1.49,1.49,0,0,1,1.21.52,2.38,2.38,0,0,1,.45,1.58v3h-.92v-3a1.65,1.65,0,0,0-.25-1.05.91.91,0,0,0-.76-.31,1,1,0,0,0-.76.32,1.49,1.49,0,0,0-.34.82V154h-.91v-3a1.65,1.65,0,0,0-.26-1,.92.92,0,0,0-.76-.33,1.29,1.29,0,0,0-.68.17,1,1,0,0,0-.41.48V154h-.92v-5Z"/><path class="cls-43" d="M1259.94,154c0-.15-.06-.29-.07-.4a.47.47,0,1,0-.7.25,1.61,1.61,0,0,1-.88.25,1.66,1.66,0,0,1-1.19-.4,1.5,1.5,0,0,1-.41-1.11,1.28,1.28,0,0,1,.58-1.12,2.72,2.72,0,0,1,1.58-.41h1v-.49a.93.93,0,0,0-.27-.7,1.06,1.06,0,0,0-.76-.25,1.09,1.09,0,0,0-.72.22.66.66,0,0,0-.27.53H1257v0a1.2,1.2,0,0,1,.52-1,2.12,2.12,0,0,1,1.4-.45,2,2,0,0,1,1.37.43,1.53,1.53,0,0,1,.52,1.25V153a4.41,4.41,0,0,0,0,.52,2.84,2.84,0,0,0,.1.49Zm-1.51-.67a1.62,1.62,0,0,0,.89-.25,1.28,1.28,0,0,0,.52-.58v-.82h-1a1.31,1.31,0,0,0-.88.28.82.82,0,0,0-.33.65.69.69,0,0,0,.21.53A.87.87,0,0,0,1258.43,153.36Zm.78-6.46h1.06v0l-1.24,1.21h-.69Z"/><path class="cls-43" d="M1265,152.68a.62.62,0,0,0-.23-.49,2.34,2.34,0,0,0-.87-.33,3.89,3.89,0,0,1-1.36-.53,1.08,1.08,0,0,1-.48-.92,1.33,1.33,0,0,1,.53-1,2.3,2.3,0,0,1,2.72,0,1.33,1.33,0,0,1,.51,1.08v0h-.87a.8.8,0,0,0-.29-.59,1,1,0,0,0-.72-.26,1,1,0,0,0-.71.21.69.69,0,0,0-.24.52.57.57,0,0,0,.2.46,2.26,2.26,0,0,0,.85.3,3.55,3.55,0,0,1,1.4.55,1.1,1.1,0,0,1,.48.93,1.31,1.31,0,0,1-.54,1.08,2.18,2.18,0,0,1-1.41.43,2.23,2.23,0,0,1-1.51-.49,1.36,1.36,0,0,1-.52-1.13v0h.87a.82.82,0,0,0,.36.71,1.38,1.38,0,0,0,.79.22,1.23,1.23,0,0,0,.76-.2A.66.66,0,0,0,1265,152.68Z"/></g><path class="cls-31" d="M587.19,121.49a5.82,5.82,0,0,1-1.33,3.71,6.65,6.65,0,0,1-3.56,2.25,13.75,13.75,0,0,1-2.09.36,24.11,24.11,0,0,1-2.52.11l0,6h-2.32c0-.56,0-1.61,0-3.13s0-3.87,0-7.06c0-1,0-2.25,0-3.72s0-3.11-.06-4.91h2.14a23.31,23.31,0,0,1,4.14.31,8,8,0,0,1,2.88,1.05,5.38,5.38,0,0,1,2,2.09A6.38,6.38,0,0,1,587.19,121.49Zm-2.4,0a4.1,4.1,0,0,0-2.69-4.08,6.14,6.14,0,0,0-1.83-.45c-.66-.06-1.34-.09-2-.09h-.53c0,.1,0,.8,0,2.1s0,2.34,0,3.09v2.46c0,1,0,1.49,0,1.62h.57a15.82,15.82,0,0,0,2-.13,6.44,6.44,0,0,0,1.83-.46,4.62,4.62,0,0,0,2-1.56A4.24,4.24,0,0,0,584.79,121.49Z"/><path class="cls-31" d="M602.91,120.22q-2.74,6-5.78,12.84l-3.24,7.23-1.95-.72,2.92-6-1.77-4.1q-1.65-3.82-4-9.13l2.11-.92c1,2.61,2.08,5.18,3.15,7.73s1.64,3.88,1.69,4h0c.06-.1.59-1.34,1.61-3.74s2.12-5,3.33-7.94Z"/><path class="cls-31" d="M626.37,133.87h-2.23c0-.11,0-.76,0-2s0-2.35,0-3.41c0-.43,0-1.12,0-2.08s0-1.68,0-2.15a3.49,3.49,0,0,0-.67-2.34,2.61,2.61,0,0,0-1.94-.64,5.69,5.69,0,0,0-1.84.38,13.94,13.94,0,0,0-2.4,1.19v.28c0,.14,0,.32,0,.55,0,.76,0,1.53,0,2.31s0,1.53,0,2.24c0,1.55,0,2.85,0,3.91s0,1.63,0,1.73h-2.22c0-.11,0-.67,0-1.7s0-2.25,0-3.66v-2.12c0-1,0-1.66,0-2.11a7.5,7.5,0,0,0-.11-1.18,2.45,2.45,0,0,0-.36-.95,1.86,1.86,0,0,0-.77-.65,3.11,3.11,0,0,0-1.32-.22,4.71,4.71,0,0,0-1.85.46,18.45,18.45,0,0,0-2.42,1.32c0,.16,0,.76,0,1.79s0,1.88,0,2.53c0,1.12,0,2.45,0,4s0,2.38,0,2.48h-2.23c0-.08,0-.62,0-1.64s0-2.7,0-5c0-.77,0-1.8,0-3.11s0-2.77-.05-4.42h2.2v1.63a14.52,14.52,0,0,1,2.38-1.34,6.14,6.14,0,0,1,2.53-.66,4.2,4.2,0,0,1,2.3.58,3.24,3.24,0,0,1,1.32,1.46h0a17.91,17.91,0,0,1,3-1.52,6.88,6.88,0,0,1,2.32-.52,4.06,4.06,0,0,1,3,1.13,4.27,4.27,0,0,1,1.09,3.06c0,1,0,1.83,0,2.51s0,1.4,0,2.15c0,1.58,0,2.91,0,4S626.37,133.79,626.37,133.87Z"/><path class="cls-31" d="M642.29,126.24H632.1a6.22,6.22,0,0,0,.63,2.73,5.16,5.16,0,0,0,1.91,2.06,6,6,0,0,0,1.86.78,10.64,10.64,0,0,0,2.51.26c.53,0,1,0,1.47,0l.82-.06-.25,1.87-.75,0c-.42,0-.92,0-1.49,0a12,12,0,0,1-3.93-.58,7.45,7.45,0,0,1-2.74-1.61,7.3,7.3,0,0,1-1.56-2.19,6.86,6.86,0,0,1-.64-3,8.28,8.28,0,0,1,.48-2.9,7.83,7.83,0,0,1,1.44-2.4,5.49,5.49,0,0,1,2.07-1.48,6.61,6.61,0,0,1,2.55-.52,6.25,6.25,0,0,1,2.33.4,4.7,4.7,0,0,1,1.76,1.19,5.94,5.94,0,0,1,1.27,2.21A10.41,10.41,0,0,1,642.29,126.24Zm-2.18-1.58a4.66,4.66,0,0,0-1.19-2.73,3.42,3.42,0,0,0-2.55-1,3.66,3.66,0,0,0-2.63,1,5.29,5.29,0,0,0-1.47,2.71Z"/><path class="cls-44" d="M587.19,121.49a5.82,5.82,0,0,1-1.33,3.71,6.65,6.65,0,0,1-3.56,2.25,13.75,13.75,0,0,1-2.09.36,24.11,24.11,0,0,1-2.52.11l0,6h-2.32c0-.56,0-1.61,0-3.13s0-3.87,0-7.06c0-1,0-2.25,0-3.72s0-3.11-.06-4.91h2.14a23.31,23.31,0,0,1,4.14.31,8,8,0,0,1,2.88,1.05,5.38,5.38,0,0,1,2,2.09A6.38,6.38,0,0,1,587.19,121.49Zm-2.4,0a4.1,4.1,0,0,0-2.69-4.08,6.14,6.14,0,0,0-1.83-.45c-.66-.06-1.34-.09-2-.09h-.53c0,.1,0,.8,0,2.1s0,2.34,0,3.09v2.46c0,1,0,1.49,0,1.62h.57a15.82,15.82,0,0,0,2-.13,6.44,6.44,0,0,0,1.83-.46,4.62,4.62,0,0,0,2-1.56A4.24,4.24,0,0,0,584.79,121.49Z"/><path class="cls-44" d="M602.91,120.22q-2.74,6-5.78,12.84l-3.24,7.23-1.95-.72,2.92-6-1.77-4.1q-1.65-3.82-4-9.13l2.11-.92c1,2.61,2.08,5.18,3.15,7.73s1.64,3.88,1.69,4h0c.06-.1.59-1.34,1.61-3.74s2.12-5,3.33-7.94Z"/><path class="cls-44" d="M626.37,133.87h-2.23c0-.11,0-.76,0-2s0-2.35,0-3.41c0-.43,0-1.12,0-2.08s0-1.68,0-2.15a3.49,3.49,0,0,0-.67-2.34,2.61,2.61,0,0,0-1.94-.64,5.69,5.69,0,0,0-1.84.38,13.94,13.94,0,0,0-2.4,1.19v.28c0,.14,0,.32,0,.55,0,.76,0,1.53,0,2.31s0,1.53,0,2.24c0,1.55,0,2.85,0,3.91s0,1.63,0,1.73h-2.22c0-.11,0-.67,0-1.7s0-2.25,0-3.66v-2.12c0-1,0-1.66,0-2.11a7.5,7.5,0,0,0-.11-1.18,2.45,2.45,0,0,0-.36-.95,1.86,1.86,0,0,0-.77-.65,3.11,3.11,0,0,0-1.32-.22,4.71,4.71,0,0,0-1.85.46,18.45,18.45,0,0,0-2.42,1.32c0,.16,0,.76,0,1.79s0,1.88,0,2.53c0,1.12,0,2.45,0,4s0,2.38,0,2.48h-2.23c0-.08,0-.62,0-1.64s0-2.7,0-5c0-.77,0-1.8,0-3.11s0-2.77-.05-4.42h2.2v1.63a14.52,14.52,0,0,1,2.38-1.34,6.14,6.14,0,0,1,2.53-.66,4.2,4.2,0,0,1,2.3.58,3.24,3.24,0,0,1,1.32,1.46h0a17.91,17.91,0,0,1,3-1.52,6.88,6.88,0,0,1,2.32-.52,4.06,4.06,0,0,1,3,1.13,4.27,4.27,0,0,1,1.09,3.06c0,1,0,1.83,0,2.51s0,1.4,0,2.15c0,1.58,0,2.91,0,4S626.37,133.79,626.37,133.87Z"/><path class="cls-44" d="M642.29,126.24H632.1a6.22,6.22,0,0,0,.63,2.73,5.16,5.16,0,0,0,1.91,2.06,6,6,0,0,0,1.86.78,10.64,10.64,0,0,0,2.51.26c.53,0,1,0,1.47,0l.82-.06-.25,1.87-.75,0c-.42,0-.92,0-1.49,0a12,12,0,0,1-3.93-.58,7.45,7.45,0,0,1-2.74-1.61,7.3,7.3,0,0,1-1.56-2.19,6.86,6.86,0,0,1-.64-3,8.28,8.28,0,0,1,.48-2.9,7.83,7.83,0,0,1,1.44-2.4,5.49,5.49,0,0,1,2.07-1.48,6.61,6.61,0,0,1,2.55-.52,6.25,6.25,0,0,1,2.33.4,4.7,4.7,0,0,1,1.76,1.19,5.94,5.94,0,0,1,1.27,2.21A10.41,10.41,0,0,1,642.29,126.24Zm-2.18-1.58a4.66,4.66,0,0,0-1.19-2.73,3.42,3.42,0,0,0-2.55-1,3.66,3.66,0,0,0-2.63,1,5.29,5.29,0,0,0-1.47,2.71Z"/><path class="cls-45" d="M501,134.28a7.16,7.16,0,0,1,7.15-7.16,5.11,5.11,0,0,1,.78,0,4.77,4.77,0,0,1,.76,0,7,7,0,0,1,2.34.4V113.71a5.8,5.8,0,0,1,5.8-5.8h14.57a7,7,0,0,0-1,3.66,7.16,7.16,0,1,0,13.3-3.66h14.57a5.8,5.8,0,0,1,5.79,5.8v41.13a5.79,5.79,0,0,1-5.79,5.8H517.82a5.79,5.79,0,0,1-5.8-5.8V141a7,7,0,0,1-2.34.4,6.34,6.34,0,0,1-.76,0,6.79,6.79,0,0,1-.78,0A7.15,7.15,0,0,1,501,134.28Z"/><path class="cls-24" d="M529.57,138.79a3.36,3.36,0,0,1-.5,1.86,3.8,3.8,0,0,1-1.35,1.29,6.48,6.48,0,0,1-1.78.69,10.09,10.09,0,0,1-2.22.23c-.44,0-.9,0-1.37,0l-.82-.06-.08-1.48c.09,0,.36,0,.8.08s1,.06,1.56.06a8.68,8.68,0,0,0,1.42-.15,4.93,4.93,0,0,0,1.33-.37,2.59,2.59,0,0,0,.93-.72,1.69,1.69,0,0,0,.33-1.07,2,2,0,0,0-.33-1.17,3.09,3.09,0,0,0-1.08-.92,14,14,0,0,0-1.26-.65,14.79,14.79,0,0,1-1.39-.74,4.27,4.27,0,0,1-1.5-1.4,3.2,3.2,0,0,1-.45-1.68,3.1,3.1,0,0,1,.41-1.64,3.89,3.89,0,0,1,1.06-1.19,4.51,4.51,0,0,1,1.61-.74,8.3,8.3,0,0,1,2.13-.25c.43,0,.86,0,1.3,0l.75,0,.14,1.5-.75-.08c-.44,0-1-.06-1.63-.06a5.58,5.58,0,0,0-1.2.13,3.73,3.73,0,0,0-1.08.4,2,2,0,0,0-.7.66,1.71,1.71,0,0,0-.29,1,1.74,1.74,0,0,0,.31,1,3.39,3.39,0,0,0,1.14,1,11.91,11.91,0,0,0,1.12.59c.46.23.92.47,1.37.73a4.52,4.52,0,0,1,1.55,1.39A3.19,3.19,0,0,1,529.57,138.79Z"/><path class="cls-24" d="M542.14,142.65h-8.79q0-.6,0-2.58c0-1.33,0-2.7,0-4.11,0-.78,0-1.8,0-3.08s0-2.6,0-4H542v1.43l-1.3,0H535c0,.77,0,1.55,0,2.32s0,1.5,0,2.19h2.23l3.25,0H542v1.42l-1.7,0H535c0,1.29,0,2.32,0,3.09s0,1.4,0,1.91l1.48,0h5.63Z"/><path class="cls-24" d="M556.83,141.85l-1.29,1.06c-.15-.16-.69-.75-1.61-1.79s-2.34-2.65-4.26-4.84v-.09a5.3,5.3,0,0,0,1-.45,5.57,5.57,0,0,0,1.1-.75,3.44,3.44,0,0,0,.66-.86,2.83,2.83,0,0,0,.29-1.38,2.25,2.25,0,0,0-.42-1.37,2.42,2.42,0,0,0-1.15-.84,4.43,4.43,0,0,0-1.26-.27c-.44,0-.85-.05-1.22-.05h-.86c0,1.31,0,2.46,0,3.46v2.11c0,.94,0,2.22,0,3.83s0,2.63,0,3h-1.7c0-.41,0-1.21,0-2.39s0-2.66,0-4.42V134c0-.93,0-2.61-.05-5.07l1,0,1.71,0a14,14,0,0,1,1.74.11,5.6,5.6,0,0,1,1.65.44,3.68,3.68,0,0,1,1.62,1.27,3.31,3.31,0,0,1,.6,2,3.43,3.43,0,0,1-.9,2.43,7.85,7.85,0,0,1-1.71,1.45v.05c1,1.1,2,2.23,3.11,3.4Z"/><path class="cls-18" d="M662.51,128.16a5.16,5.16,0,0,1-.75,2.8,5.9,5.9,0,0,1-2,1.94,9.63,9.63,0,0,1-2.67,1,14.39,14.39,0,0,1-3.34.35c-.66,0-1.35,0-2.06-.06l-1.23-.08-.13-2.22,1.21.11c.67.06,1.45.09,2.35.09a13,13,0,0,0,2.12-.22,7.2,7.2,0,0,0,2-.56,3.88,3.88,0,0,0,1.41-1.08,2.59,2.59,0,0,0,.48-1.61,3.08,3.08,0,0,0-.48-1.75,4.93,4.93,0,0,0-1.63-1.38,19.69,19.69,0,0,0-1.89-1,21.19,21.19,0,0,1-2.09-1.11,6.35,6.35,0,0,1-2.26-2.1,5.19,5.19,0,0,1-.06-5,6.18,6.18,0,0,1,1.59-1.79,7,7,0,0,1,2.43-1.11,12.64,12.64,0,0,1,3.19-.37c.65,0,1.3,0,2,0l1.13.07.22,2.25c-.1,0-.47-.05-1.14-.11s-1.47-.1-2.45-.1a8.76,8.76,0,0,0-1.79.2A5.55,5.55,0,0,0,655,116a3.29,3.29,0,0,0-1.05,1,2.57,2.57,0,0,0-.44,1.49,2.7,2.7,0,0,0,.46,1.46,5.12,5.12,0,0,0,1.72,1.44,17.21,17.21,0,0,0,1.68.89c.7.34,1.38.7,2,1.09a7,7,0,0,1,2.34,2.1A4.77,4.77,0,0,1,662.51,128.16Z"/><path class="cls-18" d="M678.58,128.16a5.16,5.16,0,0,1-.75,2.8,6,6,0,0,1-2,1.94,9.63,9.63,0,0,1-2.67,1,14.45,14.45,0,0,1-3.34.35c-.66,0-1.35,0-2.06-.06l-1.23-.08-.13-2.22,1.21.11c.66.06,1.45.09,2.35.09a13,13,0,0,0,2.12-.22,7.2,7.2,0,0,0,2-.56,3.76,3.76,0,0,0,1.4-1.08,2.53,2.53,0,0,0,.49-1.61,3,3,0,0,0-.49-1.75,4.78,4.78,0,0,0-1.62-1.38,19.69,19.69,0,0,0-1.89-1,21.19,21.19,0,0,1-2.09-1.11,6.35,6.35,0,0,1-2.26-2.1,5.19,5.19,0,0,1-.06-5,6.18,6.18,0,0,1,1.59-1.79,7,7,0,0,1,2.43-1.11,12.64,12.64,0,0,1,3.19-.37c.65,0,1.3,0,2,0l1.13.07.22,2.25c-.1,0-.47-.05-1.14-.11s-1.47-.1-2.45-.1a8.69,8.69,0,0,0-1.79.2A5.55,5.55,0,0,0,671,116a3.29,3.29,0,0,0-1,1,2.57,2.57,0,0,0-.44,1.49A2.7,2.7,0,0,0,670,120a5.17,5.17,0,0,0,1.71,1.44,18.83,18.83,0,0,0,1.69.89c.7.34,1.38.7,2.05,1.09a7,7,0,0,1,2.34,2.1A4.77,4.77,0,0,1,678.58,128.16Z"/><path class="cls-18" d="M698.57,115.47h-2.08l-5.53,0c0,2.12,0,3.72-.05,4.81s0,2.59,0,4.47,0,3.66,0,5.54,0,3.11,0,3.73H688.4c0-.62,0-1.88.05-3.79s0-3.77,0-5.6v-4.28c0-1,0-2.68-.05-4.88-2.2,0-4,0-5.36,0l-2.26,0v-2.13h3.89l4.88,0,6.27,0h2.72Z"/><path class="cls-46" d="M662.51,128.16a5.16,5.16,0,0,1-.75,2.8,5.9,5.9,0,0,1-2,1.94,9.63,9.63,0,0,1-2.67,1,14.39,14.39,0,0,1-3.34.35c-.66,0-1.35,0-2.06-.06l-1.23-.08-.13-2.22,1.21.11c.67.06,1.45.09,2.35.09a13,13,0,0,0,2.12-.22,7.2,7.2,0,0,0,2-.56,3.88,3.88,0,0,0,1.41-1.08,2.59,2.59,0,0,0,.48-1.61,3.08,3.08,0,0,0-.48-1.75,4.93,4.93,0,0,0-1.63-1.38,19.69,19.69,0,0,0-1.89-1,21.19,21.19,0,0,1-2.09-1.11,6.35,6.35,0,0,1-2.26-2.1,5.19,5.19,0,0,1-.06-5,6.18,6.18,0,0,1,1.59-1.79,7,7,0,0,1,2.43-1.11,12.64,12.64,0,0,1,3.19-.37c.65,0,1.3,0,2,0l1.13.07.22,2.25c-.1,0-.47-.05-1.14-.11s-1.47-.1-2.45-.1a8.76,8.76,0,0,0-1.79.2A5.55,5.55,0,0,0,655,116a3.29,3.29,0,0,0-1.05,1,2.57,2.57,0,0,0-.44,1.49,2.7,2.7,0,0,0,.46,1.46,5.12,5.12,0,0,0,1.72,1.44,17.21,17.21,0,0,0,1.68.89c.7.34,1.38.7,2,1.09a7,7,0,0,1,2.34,2.1A4.77,4.77,0,0,1,662.51,128.16Z"/><path class="cls-46" d="M678.58,128.16a5.16,5.16,0,0,1-.75,2.8,6,6,0,0,1-2,1.94,9.63,9.63,0,0,1-2.67,1,14.45,14.45,0,0,1-3.34.35c-.66,0-1.35,0-2.06-.06l-1.23-.08-.13-2.22,1.21.11c.66.06,1.45.09,2.35.09a13,13,0,0,0,2.12-.22,7.2,7.2,0,0,0,2-.56,3.76,3.76,0,0,0,1.4-1.08,2.53,2.53,0,0,0,.49-1.61,3,3,0,0,0-.49-1.75,4.78,4.78,0,0,0-1.62-1.38,19.69,19.69,0,0,0-1.89-1,21.19,21.19,0,0,1-2.09-1.11,6.35,6.35,0,0,1-2.26-2.1,5.19,5.19,0,0,1-.06-5,6.18,6.18,0,0,1,1.59-1.79,7,7,0,0,1,2.43-1.11,12.64,12.64,0,0,1,3.19-.37c.65,0,1.3,0,2,0l1.13.07.22,2.25c-.1,0-.47-.05-1.14-.11s-1.47-.1-2.45-.1a8.69,8.69,0,0,0-1.79.2A5.55,5.55,0,0,0,671,116a3.29,3.29,0,0,0-1,1,2.57,2.57,0,0,0-.44,1.49A2.7,2.7,0,0,0,670,120a5.17,5.17,0,0,0,1.71,1.44,18.83,18.83,0,0,0,1.69.89c.7.34,1.38.7,2.05,1.09a7,7,0,0,1,2.34,2.1A4.77,4.77,0,0,1,678.58,128.16Z"/><path class="cls-46" d="M698.57,115.47h-2.08l-5.53,0c0,2.12,0,3.72-.05,4.81s0,2.59,0,4.47,0,3.66,0,5.54,0,3.11,0,3.73H688.4c0-.62,0-1.88.05-3.79s0-3.77,0-5.6v-4.28c0-1,0-2.68-.05-4.88-2.2,0-4,0-5.36,0l-2.26,0v-2.13h3.89l4.88,0,6.27,0h2.72Z"/><path class="cls-15" d="M583.14,149.13h-2.93c0,.82,0,1.43,0,1.85v1.73c0,.7,0,1.41,0,2.13s0,1.2,0,1.44h-1c0-.24,0-.73,0-1.46s0-1.46,0-2.16V151c0-.41,0-1,0-1.88h-2.92v-.82h6.82Z"/><path class="cls-15" d="M589,156.27H588v-.69h0a8,8,0,0,1-1,.56,2.76,2.76,0,0,1-1.22.29,1.68,1.68,0,0,1-1.29-.49,1.89,1.89,0,0,1-.46-1.37c0-.31,0-.69,0-1.13s0-.76,0-1c0-.36,0-.8,0-1.33s0-.83,0-.9H585s0,.34,0,.86,0,.93,0,1.24,0,.62,0,1v.87a1.85,1.85,0,0,0,.25,1,.86.86,0,0,0,.75.32,2.84,2.84,0,0,0,1.16-.28,5.2,5.2,0,0,0,.93-.5c0-.05,0-.27,0-.66s0-.88,0-1.46c0-.42,0-.92,0-1.5s0-.9,0-.95H589c0,.07,0,.29,0,.67s0,1,0,1.94c0,.51,0,1,0,1.35S588.94,155.27,589,156.27Z"/><path class="cls-47" d="M594.75,149.09h-1v-1h1Zm-.06,7.18h-.94c0-.07,0-.46,0-1.18s0-1.31,0-1.78,0-.86,0-1.35,0-1.06,0-1.72h.94c0,.57,0,1.11,0,1.61v1.33c0,.92,0,1.66,0,2.22S594.69,156.25,594.69,156.27Z"/><path class="cls-47" d="M605.23,156.27h-.94c0-.05,0-.33,0-.84s0-1,0-1.44v-.88c0-.41,0-.71,0-.92a1.48,1.48,0,0,0-.28-1,1.07,1.07,0,0,0-.82-.28,2.57,2.57,0,0,0-.78.16,5.63,5.63,0,0,0-1,.51v1.33c0,.33,0,.64,0,.95,0,.65,0,1.21,0,1.66s0,.69,0,.73h-.94c0-.05,0-.29,0-.72s0-1,0-1.55v-.9c0-.41,0-.7,0-.89a2.57,2.57,0,0,0,0-.5,1,1,0,0,0-.15-.41A.87.87,0,0,0,600,151a1.39,1.39,0,0,0-.56-.09,2,2,0,0,0-.78.2,7.29,7.29,0,0,0-1,.56v.76c0,.43,0,.79,0,1.07,0,.47,0,1,0,1.7s0,1,0,1.05h-.94s0-.27,0-.7,0-1.14,0-2.14v-1.31c0-.56,0-1.18,0-1.88h.93v.69h0a5.66,5.66,0,0,1,1-.56,2.58,2.58,0,0,1,1.07-.28,1.81,1.81,0,0,1,1,.24,1.39,1.39,0,0,1,.56.62h0a7.49,7.49,0,0,1,1.26-.64,2.79,2.79,0,0,1,1-.22,1.75,1.75,0,0,1,1.29.47,1.84,1.84,0,0,1,.46,1.3c0,.42,0,.78,0,1.06s0,.6,0,.92c0,.66,0,1.23,0,1.69S605.23,156.23,605.23,156.27Z"/><path class="cls-47" d="M612.29,153.07a2.83,2.83,0,0,1-.42,1.57,2.92,2.92,0,0,1-1.1,1,4.81,4.81,0,0,1-1.34.45,7.47,7.47,0,0,1-1.38.13l0,2.74h-1c0-.07,0-.62,0-1.65s0-2.06,0-3.1v-1.81c0-.69,0-1.43,0-2.23h.67a10.81,10.81,0,0,1,1.94.13,3.89,3.89,0,0,1,1.25.46,2.67,2.67,0,0,1,1,.94A2.61,2.61,0,0,1,612.29,153.07Zm-1,0a1.89,1.89,0,0,0-.27-1,2,2,0,0,0-.72-.7,3,3,0,0,0-.9-.33,5.52,5.52,0,0,0-1.11-.1h-.27c0,.07,0,.3,0,.7v3.85a6.07,6.07,0,0,0,1.12-.11,3.59,3.59,0,0,0,.92-.28,2,2,0,0,0,1.24-2Z"/><path class="cls-47" d="M618.29,153H614a2.51,2.51,0,0,0,.27,1.16,2.15,2.15,0,0,0,.8.87,2.44,2.44,0,0,0,.79.33,4.06,4.06,0,0,0,1.06.11h.62l.35,0-.11.79-.32,0h-.63a5,5,0,0,1-1.66-.25,3,3,0,0,1-1.15-.68,3,3,0,0,1-.66-.93,2.83,2.83,0,0,1-.27-1.25,3.38,3.38,0,0,1,.2-1.23,3.15,3.15,0,0,1,.61-1,2.2,2.2,0,0,1,.87-.62,2.9,2.9,0,0,1,2.06-.06,1.93,1.93,0,0,1,.75.51,2.53,2.53,0,0,1,.53.94A4,4,0,0,1,618.29,153Zm-.92-.66a1.94,1.94,0,0,0-.5-1.16,1.43,1.43,0,0,0-1.08-.42,1.57,1.57,0,0,0-1.11.42,2.32,2.32,0,0,0-.62,1.16Z"/><path class="cls-47" d="M623.11,150.94a8.55,8.55,0,0,0-1,.33c-.45.17-1,.39-1.55.67,0,0,0,.24,0,.6s0,.68,0,1c0,.47,0,1,0,1.66s0,1,0,1.08h-.94c0-.07,0-.29,0-.67s0-1,0-1.94c0-.36,0-.88,0-1.54s0-1.29,0-1.88h.93v.91h0c.45-.25.89-.47,1.33-.66a7.43,7.43,0,0,1,1-.38Z"/><path class="cls-47" d="M625.13,149.09h-1v-1h1Zm0,7.18h-.94c0-.07,0-.46,0-1.18s0-1.31,0-1.78V152c0-.49,0-1.06,0-1.72h.94c0,.57,0,1.11,0,1.61s0,.94,0,1.33c0,.92,0,1.66,0,2.22S625.08,156.25,625.08,156.27Z"/><path class="cls-47" d="M632.37,153.25a3.78,3.78,0,0,1-.25,1.33,3,3,0,0,1-.71,1.07,2.77,2.77,0,0,1-.88.57,2.63,2.63,0,0,1-1.08.2,2.9,2.9,0,0,1-1.07-.19,2.65,2.65,0,0,1-.9-.57,3.06,3.06,0,0,1-.7-1.07,3.84,3.84,0,0,1-.24-1.35,3.7,3.7,0,0,1,.21-1.26,2.84,2.84,0,0,1,.66-1,2.68,2.68,0,0,1,.92-.64,2.87,2.87,0,0,1,1.12-.22,2.92,2.92,0,0,1,1.13.2,2.56,2.56,0,0,1,.89.62,3.11,3.11,0,0,1,.68,1.05A3.88,3.88,0,0,1,632.37,153.25Zm-1,.05a3.32,3.32,0,0,0-.18-1.09,2.19,2.19,0,0,0-.56-.9,1.84,1.84,0,0,0-.55-.35,1.89,1.89,0,0,0-.67-.12,1.91,1.91,0,0,0-.71.13,2,2,0,0,0-.57.41,2.27,2.27,0,0,0-.5.83,3,3,0,0,0-.18,1,3.33,3.33,0,0,0,.18,1.12,2.3,2.3,0,0,0,.6.88,1.48,1.48,0,0,0,.53.31,1.78,1.78,0,0,0,.65.12,1.82,1.82,0,0,0,.7-.14,1.63,1.63,0,0,0,.57-.38,2.27,2.27,0,0,0,.51-.83A3,3,0,0,0,631.41,153.3Z"/><path class="cls-15" d="M640.05,150.94a9.21,9.21,0,0,0-1,.33c-.45.17-1,.39-1.56.67v.6c0,.35,0,.68,0,1,0,.47,0,1,0,1.66s0,1,0,1.08h-.94c0-.07,0-.29,0-.67s0-1,0-1.94v-1.54c0-.67,0-1.29,0-1.88h.92v.91h0c.45-.25.89-.47,1.33-.66a7,7,0,0,1,1-.38Z"/><path class="cls-15" d="M645.66,153h-4.3a2.51,2.51,0,0,0,.27,1.16,2.15,2.15,0,0,0,.8.87,2.44,2.44,0,0,0,.79.33,4.06,4.06,0,0,0,1.06.11h.62l.35,0-.11.79-.32,0h-.63a4.91,4.91,0,0,1-1.66-.25,3,3,0,0,1-1.15-.68,3,3,0,0,1-.66-.93,2.83,2.83,0,0,1-.27-1.25,3.38,3.38,0,0,1,.2-1.23,3.15,3.15,0,0,1,.61-1,2.2,2.2,0,0,1,.87-.62,2.9,2.9,0,0,1,2.06-.06,1.93,1.93,0,0,1,.75.51,2.53,2.53,0,0,1,.53.94A4,4,0,0,1,645.66,153Zm-.92-.66a1.94,1.94,0,0,0-.5-1.16,1.43,1.43,0,0,0-1.08-.42,1.57,1.57,0,0,0-1.11.42,2.25,2.25,0,0,0-.62,1.16Z"/><path class="cls-15" d="M650.27,154.52a1.48,1.48,0,0,1-.21.79,1.76,1.76,0,0,1-.56.56,3,3,0,0,1-.86.34,4.75,4.75,0,0,1-1.1.12l-.61,0-.36,0,0-.78.41,0,.72,0c.14,0,.32,0,.54,0a1.86,1.86,0,0,0,.54-.13,1.19,1.19,0,0,0,.44-.32.78.78,0,0,0,.14-.46.63.63,0,0,0-.12-.4,1.5,1.5,0,0,0-.35-.29,3.8,3.8,0,0,0-.65-.34,7.22,7.22,0,0,1-.69-.35,1.8,1.8,0,0,1-.61-.58,1.43,1.43,0,0,1,0-1.57,1.75,1.75,0,0,1,.64-.56,2.3,2.3,0,0,1,.78-.25,4.81,4.81,0,0,1,.83-.07h.59l.27,0,.07.79-.37,0-.71,0a2.78,2.78,0,0,0-.52,0,1.55,1.55,0,0,0-.43.14.8.8,0,0,0-.36.31.63.63,0,0,0-.11.36.61.61,0,0,0,.15.41,1.76,1.76,0,0,0,.37.29,6.41,6.41,0,0,0,.66.34,5.43,5.43,0,0,1,.62.32,2,2,0,0,1,.63.58A1.28,1.28,0,0,1,650.27,154.52Z"/><path class="cls-15" d="M656.86,153.07a2.83,2.83,0,0,1-.41,1.57,2.92,2.92,0,0,1-1.1,1,4.81,4.81,0,0,1-1.34.45,7.47,7.47,0,0,1-1.38.13l0,2.74h-.94c0-.07,0-.62,0-1.65s0-2.06,0-3.1v-1.81c0-.69,0-1.43,0-2.23h.66a10.86,10.86,0,0,1,2,.13,4,4,0,0,1,1.25.46,2.67,2.67,0,0,1,.95.94A2.6,2.6,0,0,1,656.86,153.07Zm-1,0a1.89,1.89,0,0,0-.27-1,2,2,0,0,0-.72-.7,3.06,3.06,0,0,0-.91-.33,5.35,5.35,0,0,0-1.1-.1h-.27c0,.07,0,.3,0,.7s0,1.1,0,2.09c0,.2,0,.49,0,.87v.89a6.07,6.07,0,0,0,1.12-.11,3.59,3.59,0,0,0,.92-.28,2,2,0,0,0,1.24-2Z"/><path class="cls-15" d="M662.37,152.87c0,1,0,1.79,0,2.41s0,.95,0,1l-.55,0c-.33,0-.75,0-1.27,0a5.52,5.52,0,0,1-1-.09,3.57,3.57,0,0,1-.85-.25,2.11,2.11,0,0,1-.77-.61,1.4,1.4,0,0,1-.29-.91,1.42,1.42,0,0,1,.35-1,2.39,2.39,0,0,1,1-.67,5.92,5.92,0,0,1,1-.29,11.25,11.25,0,0,1,1.47-.19,1.59,1.59,0,0,0-.23-.77,1.27,1.27,0,0,0-.58-.45,2.46,2.46,0,0,0-.58-.15,5.54,5.54,0,0,0-.75-.05l-.46,0-.51,0,.1-.8.35,0h.72a5.34,5.34,0,0,1,1.26.14,2.14,2.14,0,0,1,.91.48,1.83,1.83,0,0,1,.51.76A3.8,3.8,0,0,1,662.37,152.87Zm-.91,1.44v-.51c0-.21,0-.45,0-.72-.18,0-.48,0-.92.1a5.36,5.36,0,0,0-1.1.27,1.62,1.62,0,0,0-.59.38.82.82,0,0,0-.26.61,1,1,0,0,0,.22.66,1.39,1.39,0,0,0,.6.37,3.1,3.1,0,0,0,.65.15,5.74,5.74,0,0,0,.74,0h.66v-.4C661.45,155,661.46,154.7,661.46,154.31Z"/><path class="cls-15" d="M665.26,156.27h-1c0-.05,0-.63,0-1.75s0-2,0-2.77V150c0-.72,0-1.53,0-2.42h1c0,.61,0,1.32,0,2.12s0,1.48,0,2c0,1.21,0,2.26,0,3.16S665.26,156.22,665.26,156.27Z"/><path class="cls-15" d="M671.84,156.36h-.54a11.57,11.57,0,0,1-1.76-.1,4.06,4.06,0,0,1-1.24-.39,2.9,2.9,0,0,1-1.21-1,2.55,2.55,0,0,1-.41-1.4,2.89,2.89,0,0,1,.46-1.6,3.13,3.13,0,0,1,1.32-1.1,5.76,5.76,0,0,1,1.17-.36,7,7,0,0,1,1.28-.12l0-2.74h1c0,.08,0,.63,0,1.66s0,2.08,0,3.14c0,.84,0,1.59,0,2.27S671.83,155.87,671.84,156.36Zm-.93-4.19v-1.1a5.67,5.67,0,0,0-1.12.11,3.42,3.42,0,0,0-.9.27,2.1,2.1,0,0,0-.93.78,2.23,2.23,0,0,0-.32,1.19,1.79,1.79,0,0,0,.31,1.06,2.28,2.28,0,0,0,.79.69,4,4,0,0,0,.92.33,5.52,5.52,0,0,0,1.09.11h.15s0-.34,0-.89Z"/><path class="cls-15" d="M677.91,152.87c0,1,0,1.79,0,2.41v1l-.56,0c-.33,0-.75,0-1.27,0a5.41,5.41,0,0,1-1-.09,3.43,3.43,0,0,1-.85-.25,2.06,2.06,0,0,1-.78-.61,1.56,1.56,0,0,1,.06-1.89,2.36,2.36,0,0,1,1-.67,5.55,5.55,0,0,1,1-.29,11.25,11.25,0,0,1,1.47-.19,1.59,1.59,0,0,0-.23-.77,1.22,1.22,0,0,0-.58-.45,2.46,2.46,0,0,0-.58-.15,5.43,5.43,0,0,0-.75-.05l-.46,0-.51,0,.1-.8.35,0h.73a5.25,5.25,0,0,1,1.25.14,2.14,2.14,0,0,1,.91.48,2,2,0,0,1,.52.76A4.1,4.1,0,0,1,677.91,152.87Zm-.91,1.44v-.51c0-.21,0-.45,0-.72-.17,0-.48,0-.91.1a5.31,5.31,0,0,0-1.11.27,1.62,1.62,0,0,0-.59.38.82.82,0,0,0-.26.61,1,1,0,0,0,.22.66,1.39,1.39,0,0,0,.6.37,3.1,3.1,0,0,0,.65.15,6,6,0,0,0,.75,0H677s0-.16,0-.4Z"/><path class="cls-15" d="M684.37,156.36h-.53a11.48,11.48,0,0,1-1.76-.1,4.12,4.12,0,0,1-1.25-.39,2.87,2.87,0,0,1-1.2-1,2.55,2.55,0,0,1-.41-1.4,2.81,2.81,0,0,1,.46-1.6,3,3,0,0,1,1.32-1.1,5.66,5.66,0,0,1,1.16-.36,7.2,7.2,0,0,1,1.29-.12l0-2.74h.94c0,.08,0,.63,0,1.66s0,2.08,0,3.14c0,.84,0,1.59,0,2.27S684.37,155.87,684.37,156.36Zm-.92-4.19v-1.1a5.67,5.67,0,0,0-1.12.11,3.38,3.38,0,0,0-.91.27,2.07,2.07,0,0,0-1.25,2,1.8,1.8,0,0,0,.32,1.06,2.34,2.34,0,0,0,.78.69,4.25,4.25,0,0,0,.93.33,5.34,5.34,0,0,0,1.08.11h.16v-.89C683.45,154.16,683.45,153.31,683.45,152.17Z"/><path class="cls-15" d="M691.6,153.25a3.57,3.57,0,0,1-.25,1.33,2.83,2.83,0,0,1-.71,1.07,2.73,2.73,0,0,1-.87.57,2.68,2.68,0,0,1-1.09.2,2.9,2.9,0,0,1-1.07-.19,2.71,2.71,0,0,1-.89-.57,2.81,2.81,0,0,1-.7-1.07,3.63,3.63,0,0,1-.25-1.35A3.7,3.7,0,0,1,686,152a2.84,2.84,0,0,1,.66-1,2.72,2.72,0,0,1,.93-.64,2.83,2.83,0,0,1,1.12-.22,2.9,2.9,0,0,1,1.12.2,2.6,2.6,0,0,1,.9.62,3.08,3.08,0,0,1,.67,1.05A3.64,3.64,0,0,1,691.6,153.25Zm-1,.05a3.32,3.32,0,0,0-.18-1.09,2.21,2.21,0,0,0-.57-.9,1.73,1.73,0,0,0-.55-.35,1.84,1.84,0,0,0-.66-.12,1.62,1.62,0,0,0-1.29.54,2.42,2.42,0,0,0-.5.83,3,3,0,0,0-.18,1,3.1,3.1,0,0,0,.19,1.12,2.17,2.17,0,0,0,.59.88,1.62,1.62,0,0,0,.54.31,1.73,1.73,0,0,0,.64.12,1.78,1.78,0,0,0,.7-.14,1.47,1.47,0,0,0,.57-.38,2.29,2.29,0,0,0,.52-.83A3,3,0,0,0,690.65,153.3Z"/><rect class="cls-18" x="574.4" y="143.7" width="123.91" height="0.71"/></g></svg>