<?xml version="1.0" encoding="utf-8"?>
<!-- Generator: Adobe Illustrator 22.0.1, SVG Export Plug-In . SVG Version: 6.00 Build 0)  -->
<svg version="1.1" id="Capa_1" xmlns="http://www.w3.org/2000/svg" xmlns:xlink="http://www.w3.org/1999/xlink" x="0px" y="0px"
	 viewBox="0 0 638.1 799.9" style="enable-background:new 0 0 638.1 799.9;" xml:space="preserve">
<style type="text/css">
	.st0{fill-rule:evenodd;clip-rule:evenodd;fill:#CDCED3;}
	.st1{fill-rule:evenodd;clip-rule:evenodd;fill:#C2C3C9;}
	.st2{fill-rule:evenodd;clip-rule:evenodd;fill:#A4A3A8;}
	.st3{fill-rule:evenodd;clip-rule:evenodd;fill:#E2E4E7;}
	.st4{fill-rule:evenodd;clip-rule:evenodd;fill:#9A999E;}
	.st5{fill-rule:evenodd;clip-rule:evenodd;fill:#EDEEF0;}
	.st6{fill-rule:evenodd;clip-rule:evenodd;fill:#AEADB3;}
	.st7{fill-rule:evenodd;clip-rule:evenodd;fill:#D8D9DD;}
	.st8{fill:#E68D1A;}
	.st9{fill:#FFFFFF;}
	.st10{font-family:'ArialMT';}
	.st11{font-size:9.2346px;}
	.st12{font-size:9.202px;}
	.st13{font-size:9.1587px;}
	.st14{fill:#AEADB3;}
	.st15{fill:#D12020;}
	.st16{fill:none;}
	.st17{fill:#D08B2A;}
	.st18{fill:#90272B;stroke:#90272B;stroke-width:0.6271;stroke-miterlimit:10;}
	.st19{fill:#7C7B80;}
	.st20{opacity:0.5;fill:#EAEAE9;}
	.st21{fill:url(#SVGID_1_);}
	.st22{fill:#90272B;}
	.st23{fill:url(#SVGID_2_);}
	.st24{fill:url(#SVGID_3_);}
</style>
<g>
	<polygon class="st0" points="185.9,194.5 186.8,197.6 189.2,198.2 191.9,198.4 194.7,200.8 198.2,201.2 197.9,202.8 200,203.7 
		202.1,205.2 205.2,206.3 206,208.5 208.7,208.7 209.9,211.1 210.4,214.6 208.8,216.2 205.7,216.3 202.4,217.4 201.5,219.4 
		204.3,220.8 203.7,223.4 204.6,226.2 205.4,228.6 205.5,231.1 206.3,233 209.7,232.8 211.4,234 210.9,236.6 214,237.1 217.3,235.7 
		220.5,231.8 221,234.3 224.3,233.8 226.8,234.9 228.2,236.5 230.9,237 231.4,238.8 231.5,241 233.6,241.9 232.7,243.8 229.7,245.5 
		227.7,246.9 226.2,249.1 224.9,251.4 221.8,250.9 219.2,252.3 216.5,252.4 213.1,252.2 210.4,252.3 209.8,254.3 209.9,256.8 
		206.9,257.2 205.6,259.2 203.1,261.8 199.1,263.5 198.9,266.7 196.6,268 193.8,266.9 190.5,267.4 189,272.2 187.2,276 182.2,284.1 
		157.1,285.2 154.9,281.8 151.6,277.5 150.7,274.1 149.8,268.8 150.6,264.7 151.7,260.2 153.9,256.7 154,253.2 154.8,248.8 
		157.6,243.6 159.9,241.6 162.5,239.6 163.4,236.7 163.5,232.9 163.4,230.8 160.6,229.3 157.5,227.5 155.3,225.1 154.4,221.7 
		152.6,218.6 154.5,217.3 155.1,214.7 158.1,213.4 158.9,210.8 160.6,209.5 163.2,207.2 163,204 165.6,202 167.6,200.3 167.8,197.8 
		170.7,196.1 173.4,195.1 175.7,194.3 179.8,193.5 183.1,193.7 	"/>
	<polygon class="st1" points="274,287.1 274.1,290.2 275.3,293 277.1,295.1 276.2,297.4 274,299.7 270.6,300.1 269.7,302.4 
		267.4,303.4 265.9,306.6 263.9,309.2 260.9,310 258.3,311.4 257.4,313.9 253.7,314.4 252.4,316.3 251.5,318.6 252.1,322 
		252.5,324.5 250.6,326.2 249,328.8 245.8,331.4 243.6,334.7 242.7,336.9 244.2,339.4 245.9,339.6 246,342.4 244.8,344.1 
		243.9,346.3 242.3,348.3 242.7,351.1 243.2,353.9 240.5,353.4 238.2,354.1 235.9,356.4 232.8,355.6 229.4,354.8 226.7,355.9 
		223.1,357.9 220.4,359 220.2,361.2 218.3,363.8 214,365.5 212.1,367.8 209.3,366.4 206.9,360.5 205,357.1 202.7,358.5 200.1,359.2 
		198.3,357.1 194.5,356.6 195.3,359.4 196.2,362.8 193.9,365.4 191.5,364.6 188.8,365 186.9,366.4 185.2,367.4 182.5,367.8 
		178.1,368 175.3,366.6 174.9,364.7 173.5,363.2 172.3,360.7 172.5,357.9 171,355.7 169.2,353 170.7,349.5 171.2,346.9 170.1,344.8 
		165.7,345.3 163.9,342.2 164.4,338.7 163.2,336.5 158.8,337 153.5,337.9 149.4,338.7 145,338.9 141.9,337.8 140.7,334.7 
		138.3,333.2 138.1,330.7 138,327.9 138.9,325.3 136.7,323.8 134.3,321.7 133.4,318.9 131.3,318.1 130.9,315.3 128.7,313.2 
		128.6,311 133.9,308.8 136.5,307.5 136.1,304.3 135.9,301.5 140.3,300.7 143.7,301.2 146.5,302 149.5,301.6 150.9,296.5 150,292.7 
		148.5,289.9 145.7,287.9 142.3,287.4 134.7,278.6 122.3,269.4 119.8,266 121.4,264.7 124,262.7 124.9,259.5 125.1,257 128.4,255.9 
		129.9,257.7 129.3,259.6 130,261.2 134.2,261.9 137.1,260.5 138.3,257 137.7,253 137.6,250.1 136.1,247 136.6,243.9 137.1,240.4 
		134.2,236.7 131,235.3 127.8,232.6 129.8,230.3 132.8,229.6 137.2,229 139.6,229.3 140.1,227 142.4,225.4 145.4,223.3 148,221.7 
		150.6,220 152.6,218.6 154.4,221.7 155.3,225.1 157.5,227.5 160.6,229.3 163.4,230.8 163.5,232.9 163.4,236.7 162.5,239.6 
		159.9,241.6 157.6,243.6 154.8,248.8 154,253.2 153.9,256.7 151.7,260.2 150.6,264.7 149.8,268.8 150.7,274.1 151.6,277.5 
		154.9,281.8 157.1,285.2 182.2,284.1 187.2,276 189,272.2 190.5,267.4 193.8,266.9 196.6,268 198.9,266.7 199.1,263.5 203.1,261.8 
		205.6,259.2 206.9,257.2 209.9,256.8 209.8,254.3 210.4,252.3 213.1,252.2 216.5,252.4 219.2,252.3 221.8,250.9 224.9,251.4 
		226.2,249.1 227.7,246.9 229.7,245.5 234.6,249.1 238.1,250.8 241.3,253.2 243.8,255.9 244.3,259.1 244.2,262.5 245.9,264 
		248.1,265.8 246.5,268.4 243.2,269.5 243,272 242.4,274.3 241.9,277.1 243,279.6 244.5,281.1 246.9,282.9 249.2,281.2 250.1,278.7 
		251.4,276.4 253.9,279.1 253.3,281 251.1,283.6 252.2,285.8 251.3,288 252.1,290.8 253.3,293 253.4,296.1 255.9,297.3 258.9,297.5 
		271.3,286.9 273.5,283.9 	"/>
	<polygon class="st2" points="206.7,401.7 203.4,403.4 200.7,402.9 197.6,402.1 193.9,402.3 191.2,402.7 191.9,404.3 188.3,405.7 
		185.9,406.1 184.6,407.7 185.5,410.5 185.6,413.4 187.1,415.8 188.9,417.9 188,420.8 189.3,424.5 189.4,427.7 190.6,430.1 
		193.3,431 193.5,428.1 194.7,425.6 196.6,421.7 198.8,417.8 198.6,415.3 199.1,412.5 201.7,409.8 204.6,407.2 207.3,405.8 
		208.9,403.5 	"/>
	<polygon class="st3" points="317.4,421.5 314.7,420.7 312.2,418.9 308.7,417.5 305.3,416.7 303.3,418.4 300.7,419.4 298,419.5 
		295.7,415.8 294.9,411.8 291.7,409.4 288.2,408.9 285.6,410.9 284.1,414.2 285.3,417.6 287.5,420.9 286.3,422.9 283.6,424.2 
		282,425.9 278.7,427.3 274.6,427.5 272.7,429.8 269.1,431.2 265.7,431.6 261.3,437.8 258.8,442.3 256.9,444.9 255,446.9 
		252.9,447.6 252.5,445.7 252,442.3 249.5,440.8 251.7,436.3 250.2,433.9 249.3,430.8 251.6,428.5 251.8,425.3 250.3,423.2 
		248.1,421 245.8,422.1 243.5,423.5 240.5,423.3 238.7,421.1 235.9,420.3 233.6,416 234.8,413.1 235.6,409.3 235.2,407.8 
		235.4,404.6 235.2,401.5 235.8,398.6 236.9,395.4 236.1,392.9 237,390.4 238.6,388.4 238.1,385.6 239.4,384 238.6,381.8 
		238.1,379.3 238,376.1 236.9,374.4 238.5,373.6 241,370 240.8,366.6 242.4,364 241.9,360.2 242.4,357.4 243.2,353.9 245.9,353.5 
		248.2,352.4 250.7,353.6 253,352.8 254.6,351.2 256.3,350.5 257.8,352.6 259,356.7 257.4,358.6 259.2,361.4 260.7,363.5 
		261.5,365.4 264.2,365.6 268,366.4 268.8,368.5 271.6,370 274.9,368.6 277.5,366.3 278.4,363.7 280.4,363 282,361 283.5,363.5 
		285.9,365.3 290.7,366 291.9,368.5 292,371.3 293.8,373.1 296.6,374.6 296.8,377.7 298.7,381.4 299.5,383.9 297.9,386.2 296,389.4 
		298.1,390.6 302.2,390.4 304,392.5 303.8,395.4 306.9,395.5 308,397.7 310.7,397.6 312.9,400.3 317.7,400.7 319.6,397.8 	"/>
	<polygon class="st0" points="348.9,329.8 349.7,326.3 352.3,323.4 356.5,320.4 360.2,318 362,314.8 361.8,311.3 370,292.7 
		374.5,293.1 376.4,291.5 379.1,290.4 381.9,292.5 385.2,291.1 387.7,292.6 392,291.1 395.8,292.5 398.9,293 401.6,292 404,292.8 
		408.3,292 410.8,293.5 413.9,294.3 416.5,292.9 419.2,292.2 421.2,290.8 423.5,289.8 427.2,289.3 429.3,291.1 430.2,288.2 433,290 
		436,289.2 438.2,291.3 440.9,292.2 444.7,292.6 447.5,294.7 450.2,294.6 452.5,293.2 457.6,293 491.5,329.7 490,332.9 487.2,333 
		485.6,334.6 480.9,334.5 477.1,334.7 474.3,333.2 470.3,333.4 469.2,331.6 466.4,330.1 463.7,330.2 462.2,328.1 460,326 455.5,324 
		451.8,324.4 446.3,322.8 443,324.5 439.1,327.2 435.3,326.1 432.3,327.5 427.1,326.5 421.8,327.3 418,326.5 414.2,325.7 
		410.9,327.5 406.7,324.8 403.4,326.5 399.7,327.9 396.3,327.8 393.7,329.5 389.3,329.3 386.5,328.2 382.4,328.4 379.4,329.8 
		376.4,329.9 375.1,331.5 370.7,331.7 367.7,332.5 364.1,334.5 361.1,336.2 359.3,334.4 357,334.8 355.5,332.7 355,330.2 
		352.3,329.3 	"/>
	<polygon class="st4" points="578.9,416.7 580.3,419.4 580.4,421.7 582.2,423.9 584.3,425.3 587.5,423.6 589.3,426.3 587.9,427.5 
		588.4,430.5 588.9,432.4 590.6,433.1 590.8,436.5 592.9,437.6 593.4,439.1 596.4,440.1 596.9,442.4 595.8,444.4 593.8,445.2 
		593.1,447.6 590.2,449.2 587.4,449.7 570.2,468.1 572.7,469.5 575.2,468.7 577.3,470.5 581,468.8 581.9,470.3 583.9,470.2 
		585.3,472 585.4,475.5 587.2,477 589.6,475.3 590.1,477.2 592.2,478.6 594.3,478.6 595.7,481.2 598.2,483 601.2,484.4 601.3,486.3 
		603.9,487.4 605.6,490 604.9,492.3 606.3,494.5 606.8,496.4 607.4,499.5 610.6,497.4 610.7,500.1 612.1,501.9 611.4,504.7 
		610.2,507 613.3,510 614.2,511.8 615.9,512.9 616.1,515.2 616.2,517.5 619.2,518.9 619.3,520.8 620.6,521.9 619.8,524.2 
		621.2,526.9 623.4,529.1 622.8,533.3 625.3,534.3 627.1,536.2 625.2,539 627.1,543.1 623.3,542.9 619.6,543.8 615.5,543.6 
		615,540.9 614.4,537.9 615.4,534 613.9,529.1 610.8,525.4 610.2,521.6 608.7,516.7 604.4,514.2 602.2,510.8 600.3,505.5 
		598.4,501.8 594.6,500 590.5,501 587,504.2 583,507 578,513.6 574.7,514.4 571.7,516.4 572.6,519.8 574.1,521.3 570.7,520.8 
		567.9,519.4 566.4,516.6 565.2,513.5 562.8,512 560.1,512.5 557.9,515.4 557,517.9 558.7,518.8 559.2,520.7 562,522.8 500.1,525.1 
		496.7,525 494.6,523.8 491.9,523.3 489.6,524.9 486.5,525.1 483.1,525.2 481.9,526.9 479.2,527 477.4,525.5 475.6,524.6 
		471.9,525.1 469.2,524.6 467,521.8 465.2,520 462.8,518.9 463,516.7 465,515.3 465.2,513.1 465.1,510.6 466.3,508.3 469.3,506.6 
		470.8,504.3 470,501.9 468.3,501.3 466,503 463.9,502.1 462,503.8 458.6,503.3 456.9,505 450.7,502.7 448.2,505.3 446.3,503.2 
		443.6,502.1 441.2,502.2 440,498.4 438.5,496.3 437,494.2 434.6,492.4 431.8,492.2 429.7,490.7 445.4,479.9 448.1,478.2 
		451.4,477.5 453.3,474.6 456.3,473.8 456.9,471 456.4,469.4 458.1,468.1 456.2,465.9 458.1,463.3 460.4,461.7 463.2,461.9 
		462.7,459.7 463.6,458.1 461.5,455.9 463.7,453.6 466.5,453.5 468.4,451.6 470.2,453.7 472.5,452.6 471.7,450.2 474.5,451 
		475.7,449.3 476,447.5 478,447.4 479.2,445.1 481.6,445.3 481.9,443.7 485.7,444.5 488.4,444.1 488.6,442.2 488.8,439.3 
		490.4,438.3 492.6,440.1 494.5,437.8 497.3,439.3 500.3,439.2 503.6,437.5 505.1,439.6 507.4,438.5 508.5,440.4 510.8,439 
		513.3,440.2 515.2,438.2 518.3,438.1 521.6,437.9 523.6,436 526,436.2 526.9,433.9 530.6,434.4 532.9,433 542.3,433.3 541.5,430.8 
		545.2,430 547.2,428.6 547.1,426.4 550.4,426.3 551,424.7 553,424 555.7,423.9 558.1,422.8 560.5,423.4 562.9,423.9 565.9,423.4 
		569.3,423.9 571.4,424.1 575.9,421 	"/>
	<polygon class="st1" points="578.4,416.2 579,414.2 577.2,413.3 579.5,410 578.7,407.8 576.9,406 577.7,402.4 576.9,399.5 
		574.3,396.4 572.4,394.3 571.2,391.1 571.8,388.5 573,385.9 572.5,382.1 572,379.5 573.3,377.5 572.4,374.7 574.1,373 572.9,371.1 
		573.9,368.9 572.4,367 573,365.4 570.5,364.2 570.4,362.3 573.1,360.5 574.7,358.2 577,356.2 579,354.2 580.3,352.2 579.4,349.7 
		578.3,347.5 579.5,345.2 578.7,342.6 580.6,338.7 582.2,336.7 584.1,333.7 586.8,331.7 586.3,329.1 583.8,328.3 582.7,325.8 
		584,324.4 581.8,322.6 579,321.1 575.9,321.2 573.5,321.7 569.9,322.8 567.2,324.2 564.2,323.7 561,322.3 558.3,322.4 555.3,323.8 
		554,325.4 550.3,325.9 547.2,324.7 544.2,326.1 541.9,327.5 536.3,326.5 529.1,328.4 526.7,327.5 522.2,326.1 517.8,326.3 
		513.4,326.2 509.3,325.7 506.2,325.6 505,327.8 502.7,330.1 499.7,331.5 497.3,330.4 495.8,328.2 494.2,329.9 491.5,329.7 
		490,332.9 487.2,333 485.6,334.6 480.9,334.5 477.1,334.7 474,332.9 473.4,335.2 471.5,336.2 470.2,339.1 467.9,340.4 467,342.7 
		465.4,344.3 465.2,346.5 462.9,348.2 462.4,350.4 460.1,352.1 458.8,354.1 455.8,354.5 452.8,355.6 448.7,355.4 444.4,358.1 
		440.5,360.8 437.5,362.5 434.2,364.6 433.4,368.7 431.2,370.3 427.6,372.7 424.6,374.7 421.6,376.4 419.8,380.9 418,384.1 
		415.4,386.4 418.2,477.6 420.3,479.1 423.3,478.4 425.1,479.6 428.8,479.1 428.9,481 432.2,480.5 432.3,482.1 435.7,481 
		436.7,482.2 439.3,480.2 438.9,478 440.8,476 444.3,477.2 445.4,479.9 448.1,478.2 451.4,477.5 453.3,474.6 456.3,473.8 456.9,471 
		456.4,469.4 458.1,468.1 456.2,465.9 458.1,463.3 460.4,461.7 463.2,461.9 462.7,459.7 463.6,458.1 461.5,455.9 463.7,453.6 
		466.5,453.5 468.4,451.6 470.2,453.7 472.5,452.6 471.7,450.2 474.5,451 475.7,449.3 476,447.5 478,447.4 479.2,445.1 481.6,445.3 
		481.9,443.7 485.7,444.5 488.4,444.1 488.6,442.2 488.8,439.3 490.4,438.3 492.6,440.1 494.5,437.8 497.3,439.3 500.3,439.2 
		503.6,437.5 505.1,439.6 507.4,438.5 508.5,440.4 510.8,439 513.3,440.2 515.2,438.2 518.3,438.1 521.6,437.9 523.6,436 526,436.2 
		526.9,433.9 530.6,434.4 532.9,433 542.3,433.3 541.5,430.8 545.2,430 547.2,428.6 547.1,426.4 550.4,426.3 551,424.7 553,424 
		555.7,423.9 558.1,422.8 560.5,423.4 562.9,423.9 565.9,423.4 569.3,423.9 571.4,424.1 575.9,421 578.9,416.7 	"/>
	<polygon class="st5" points="321.9,146.5 323.8,144.2 324,142.3 324,140.4 325.9,138.4 327.1,136.5 328.4,134.2 329.9,130.4 
		331.1,127.5 332.3,124.9 334.2,122.7 334.4,120.4 337.7,117.5 341.3,115.1 345.6,114.3 347.9,112 350.1,108.7 354.2,102 
		355.7,99.4 357.6,96.5 358.5,94.2 360.8,91.9 364.4,90.8 370.8,89.6 374.5,87.9 380.2,86.4 383.8,85.6 387.8,82.9 389.6,79.7 
		393.9,77.6 397.2,74.9 397.1,72.1 394.8,68.4 393,65.3 389.8,62.6 385.6,60.3 380.1,58.7 375.5,56.6 372.4,55.8 368.4,56 
		366.4,58.3 368.6,60.7 367.4,63.3 362.9,62.5 360.7,64.5 362.9,67.6 361.6,70.1 357.6,70.3 355.7,67.6 352.7,67.1 350.3,68.4 
		350,74.1 347.5,78.9 346,81.9 342,83.6 339.7,84.9 338.1,87.2 334.1,89 330.3,88.2 327.3,88.6 325.3,90 322.3,90.4 318.7,92.5 
		315.4,94.8 313.2,97.7 309.5,98.8 306.9,100.8 306.7,103.4 303,103.8 300.8,106.5 297.8,108.5 294.5,109.2 288.7,109.2 
		284.6,109.7 284.1,112.2 280.8,115.2 280.4,119.3 280.2,123.1 281.1,125.6 282.8,127.1 282.6,129 287.3,128.5 292.3,127 
		296.8,127.1 299.5,127.6 299,130.1 298.4,133 302.4,131.9 304.3,134.3 306.7,134.9 308.5,137 307.9,139.5 306,141.5 304.1,144.1 
		306.5,144.9 307,146.8 309.6,145.1 313,145.3 315.1,146.1 318.5,145.7 	"/>
	<polygon class="st6" points="280.7,130.6 282.7,130.5 285.5,132.3 283.3,135.5 284.1,138 284.3,141.5 281.6,142.5 280.7,144.8 
		278,145.5 274.7,146.9 271,147.4 267.8,150.4 266.6,153.3 264.3,154.9 262.7,157.5 262.6,161.6 263.4,164.7 266.7,168.1 270.6,171 
		274.1,174 276,177.7 277.2,180.5 277.3,183 273.2,182.6 270.5,183 265.1,182.6 263.1,183.3 262.5,186.2 259.9,187.2 262.7,188.7 
		265.8,189.8 267.9,192.2 269.8,195 269.6,197.5 269.1,200.1 271.4,200 273.5,200.2 273.6,202.4 274.7,204.9 276.8,204.8 
		276.2,207.3 274.6,209.6 271.2,209.4 267.8,208.9 266,207.5 263.8,209.4 261.4,208.9 259.9,206.1 257.1,205.3 253.6,202.9 
		252.8,200.1 250.3,199 247.7,200 246.1,196.3 244.2,198.6 240.4,197.2 238.2,194.8 235.4,192.4 232.2,190.6 229.2,191.1 
		228.7,188.3 229.6,185.4 229.8,183.8 228.4,181.7 227.2,178.3 230.1,176.2 228.4,175.4 226.3,174.2 225.5,172.7 225.3,169.5 
		227.6,168.2 228.2,166.3 225.7,163.2 223.6,162.1 220.8,160.6 222.7,158.3 222.2,155.2 223.8,153.9 224.7,151.3 225.6,149.4 
		226.5,146.8 227.1,144.6 229,142 229.9,140.1 229.7,137.2 229.3,135 230.5,132.5 229.4,130 229.5,125.6 231.8,124.2 233.4,122.3 
		237.8,123 241.2,123.5 246,124.2 251.7,123.4 255.1,122 254.5,117.6 254.3,113.8 255.5,111.6 257.2,110.9 258.1,108.3 260.8,108.2 
		263.2,108.7 266.3,109.2 270.7,110.3 274.5,110.7 277.6,110.9 282,110.4 284.6,109.7 284.1,112.2 280.8,115.2 280.4,119.3 
		280.2,123.1 281.1,125.6 282.8,127.1 282.6,129 	"/>
	<polygon class="st1" points="274.6,209.6 276.2,207.3 276.8,204.8 274.7,204.9 273.6,202.4 273.5,200.2 271.4,200 269.1,200.1 
		269.6,197.5 269.8,195 267.9,192.2 265.8,189.8 262.7,188.7 259.9,187.2 262.5,186.2 263.1,183.3 265.1,182.6 270.5,183 
		273.2,182.6 277.3,183 277.2,180.5 276,177.7 274.1,174 270.6,171 266.7,168.1 263.4,164.7 262.6,161.6 262.7,157.5 264.3,154.9 
		266.6,153.3 267.8,150.4 271,147.4 274.7,146.9 278,145.5 280.7,144.8 281.6,142.5 284.3,141.5 284.1,138 283.3,135.5 285.5,132.3 
		282.7,130.5 280.7,130.6 282.6,129 287.3,128.5 292.3,127 296.8,127.1 299.5,127.6 299,130.1 298.4,133 302.4,131.9 304.3,134.3 
		306.7,134.9 308.5,137 307.9,139.5 306,141.5 304.1,144.1 306.5,144.9 307,146.8 309.6,145.1 313,145.3 315.1,146.1 318.5,145.7 
		321.9,146.5 321,148.4 318.7,150.7 317.2,153.3 317.7,156.7 317.2,160.2 315.4,165 314.5,168.2 317.7,170.3 315.8,172.9 
		314.2,175.1 313.1,178.7 310.2,182.6 306.9,184.3 304.4,187.5 302.6,192 301.1,195.5 301.2,197.8 299.3,200 297.3,200.8 
		295.6,200.8 295.7,203.3 295.9,206.8 295,209 295.5,212.2 295.6,214.7 296.1,217.5 294.5,218.5 294.2,220.4 293,222 291.4,224.3 
		290.8,227.1 291.6,229 293.1,230.8 293.9,233 293.7,236.2 296.1,237 297,234.4 298.2,231.6 300.7,233.3 300.2,237.5 298.3,240.7 
		297.9,244.2 298,247.3 299.9,249.7 303,252.5 302.9,255.3 300.9,256 301,259.2 300.5,261.4 297.5,263.7 296.3,265.7 294,266.7 
		291.1,264.9 288.7,263.8 286.3,263.9 282.6,263.7 281.1,261.9 281.7,258.7 284.3,257.3 284.9,255.1 282.3,252.1 280.4,248.4 
		279.9,245.6 280.1,241.8 280.8,237 280.2,231.1 278.3,227.1 277.8,223.9 278,221.4 278.5,217.9 277.3,215.8 273.8,213.1 	"/>
	<polygon class="st3" points="289.5,265.9 291.3,267.8 294.1,270.2 296.9,271.6 299.3,270.9 302,272 304.8,271.9 305.3,269.7 
		306.9,267.1 311,267.8 314,267.7 316.4,267 318.2,269.4 318.3,271 320.4,272.2 322.5,274 322.9,275.5 323.7,277.1 325.9,279.5 
		325.3,282 324.8,284.9 326.6,287.6 325.4,290.8 327.2,292.7 329.4,294.8 332.8,295.6 336.2,295.7 339.3,295.3 339.7,297.5 
		340.9,299.6 343.2,299.5 345.6,299.7 347.7,300.6 350,300.2 352.2,296.6 353.8,293.7 356.6,295.2 357.8,292.3 360.2,293.1 
		362.3,294.6 364.6,292.9 360.1,284.9 357.6,282.2 358.8,280 357.3,277.5 354.6,277.3 349.9,277.5 346.5,277 347,274.5 342.8,272.5 
		344.1,270.5 342.5,267.4 343.4,264.9 342.6,261.8 343.8,258.6 343,256.1 343.1,252 345.4,250.6 347.3,248 345.8,246.2 347.7,243.6 
		348.3,241.1 347.4,237.9 346.3,235.2 332.8,223.8 329,210.4 327.9,203.2 325.2,202.1 322.1,200.9 320.4,202.6 317.8,203.3 
		316.3,200.9 318.2,199.5 316.8,197.4 314.5,194 311.6,196.7 309.4,198.3 305.7,199.8 301.7,201.2 297.3,200.8 295.6,200.8 
		295.7,203.3 295.9,206.8 295,209 295.5,212.2 295.6,214.7 296.1,217.5 294.5,218.5 294.2,220.4 293,222 291.4,224.3 290.8,227.1 
		291.6,229 293.1,230.8 293.9,233 293.7,236.2 296.1,237 297,234.4 298.2,231.6 300.7,233.3 300.2,237.5 298.3,240.7 297.9,244.2 
		298,247.3 299.9,249.7 303,252.5 302.9,255.3 300.9,256 301,259.2 300.5,261.4 297.5,263.7 296.3,265.7 294,266.7 291.1,264.9 
		288.7,263.8 	"/>
	<polygon class="st5" points="200.9,137.2 197.9,139.2 195.7,141.5 193.5,144.5 193.3,148.5 193.1,150.8 194.2,152.3 193.6,154.2 
		194.1,157.3 195,160.1 197.1,162.6 199.6,164.3 196.3,166 196.4,168.9 196.2,171.4 199,172.2 203.1,173 202.9,174.6 202.7,177.4 
		200.8,180 201.3,182.8 203.9,181.1 206.9,180.7 209.3,181.5 212.5,183.6 214,185.5 216.4,186 218.4,186.2 220.9,188.9 224.1,191.6 
		223.6,195.4 223.1,198.6 225.3,201.6 227.5,204.4 229,207.1 232.2,208.6 234.6,209.4 237,211.2 239.6,214.6 241.1,217 240.9,219.9 
		238.6,220.6 239.1,223.7 239.9,226.5 241.1,229.6 241.9,231.5 243.7,233.6 240.1,236.9 239.2,239.8 237.3,242.1 235.5,240.6 
		233.6,241.9 232.7,243.8 229.7,245.5 234.6,249.1 238.1,250.8 241.3,253.2 243.8,255.9 244.3,259.1 244.2,262.5 245.9,264 
		248.1,265.8 246.5,268.4 243.2,269.5 243,272 242.4,274.3 241.9,277.1 243,279.6 244.5,281.1 246.9,282.9 249.2,281.2 250.1,278.7 
		251.4,276.4 253.9,279.1 253.3,281 251.1,283.6 252.2,285.8 251.3,288 252.1,290.8 253.3,293 253.4,296.1 255.9,297.3 258.9,297.5 
		271.3,286.9 273.5,283.9 274.9,278.5 275,275.1 276.6,271.5 278.2,269.6 279,266.4 278.8,262.9 278.3,259.8 277.1,256.4 
		275.6,253.9 275.8,250.5 277.7,247.6 279.9,245.6 280.1,241.8 280.8,237 280.2,231.1 278.3,227.1 277.8,223.9 278,221.4 
		278.5,217.9 277.3,215.8 273.8,213.1 274.6,209.6 271.2,209.4 267.8,208.9 266,207.5 263.8,209.4 261.4,208.9 259.9,206.1 
		257.1,205.3 253.6,202.9 252.8,200.1 250.3,199 247.7,200 246.1,196.3 244.2,198.6 240.4,197.2 238.2,194.8 235.4,192.4 
		232.2,190.6 229.2,191.1 228.7,188.3 229.6,185.4 229.8,183.8 228.4,181.7 227.2,178.3 230.1,176.2 228.4,175.4 226.3,174.2 
		225.5,172.7 225.3,169.5 227.6,168.2 228.2,166.3 225.7,163.2 223.6,162.1 220.8,160.6 222.7,158.3 222.2,155.2 220,151.8 
		218.2,150.9 214.8,150.1 212.1,150.6 211.6,148.4 209.5,146.9 207.2,147 206.7,144.8 204.9,143.3 205.2,141.1 205,138.6 
		204.6,136.1 	"/>
	<polygon class="st4" points="231.4,238.8 230.9,237 228.2,236.5 226.8,234.9 224.3,233.8 221,234.3 220.5,231.8 217.3,235.7 
		214,237.1 210.9,236.6 211.4,234 209.7,232.8 206.3,233 205.5,231.1 205.4,228.6 204.6,226.2 203.7,223.4 204.3,220.8 201.5,219.4 
		202.4,217.4 205.7,216.3 208.8,216.2 210.4,214.6 209.9,211.1 208.7,208.7 206,208.5 205.2,206.3 202.1,205.2 200,203.7 
		197.9,202.8 198.2,201.2 194.7,200.8 191.9,198.4 189.2,198.2 186.8,197.6 185.9,194.5 189.9,192.1 192.8,190.1 192.7,187.3 
		191.5,183.9 189.7,181.8 187.5,179.3 189.4,176.4 189.9,172.6 191,168.5 190.8,165 192.4,162.8 194.1,163.9 194,166.8 196.3,166 
		196.4,168.9 196.2,171.4 199,172.2 203.1,173 202.9,174.6 202.7,177.4 200.8,180 201.3,182.8 203.9,181.1 206.9,180.7 209.3,181.5 
		212.5,183.6 214,185.5 216.4,186 218.4,186.2 220.9,188.9 224.1,191.6 223.6,195.4 223.1,198.6 225.3,201.6 227.5,204.4 229,207.1 
		232.2,208.6 234.6,209.4 237,211.2 239.6,214.6 241.1,217 240.9,219.9 238.6,220.6 239.1,223.7 239.9,226.5 241.1,229.6 
		241.9,231.5 243.7,233.6 240.1,236.9 239.2,239.8 237.3,242.1 235.5,240.6 233.6,241.9 231.5,241 	"/>
	<polygon class="st0" points="243.2,353.9 240.5,353.4 238.2,354.1 235.9,356.4 232.8,355.6 229.4,354.8 226.7,355.9 223.1,357.9 
		220.4,359 220.2,361.2 218.3,363.8 214,365.5 212.1,367.8 209.3,366.4 206.9,360.5 205,357.1 202.7,358.5 200.1,359.2 198.3,357.1 
		194.5,356.6 195.3,359.4 196.2,362.8 193.9,365.4 191.5,364.6 188.8,365 186.9,366.4 185.2,367.4 182.5,367.8 184,370.6 
		182.4,372.9 184.8,373.1 187.5,371.7 190.2,372.5 188,375.1 186.1,376.8 185.8,379 185.6,381.2 185.1,384.1 184.9,386.6 188,387.1 
		190,388 190.9,390.5 192,392.3 197,391.5 200.4,391.3 201.5,392.8 204.6,393.3 204.7,395.2 207.8,396.7 210.1,395 210,392.8 
		209.9,390.6 210.7,387.7 209.2,384.3 211.1,382.3 214.5,382.5 216.5,381.2 219.5,380.4 222.1,377.5 223.7,375.8 226.7,374.7 
		230.8,374.9 235.5,375 238.5,373.6 241,370 240.8,366.6 242.4,364 241.9,360.2 242.4,357.4 	"/>
	<polygon class="st4" points="175.3,366.6 174.9,364.7 173.5,363.2 172.3,360.7 172.5,357.9 171,355.7 169.2,353 170.7,349.5 
		171.2,346.9 170.1,344.8 165.7,345.3 163.9,342.2 164.4,338.7 163.2,336.5 158.8,337 153.5,337.9 149.4,338.7 145,338.9 
		141.9,337.8 140.7,334.7 138.3,333.2 138.1,330.7 138,327.9 138.9,325.3 136.7,323.8 134.3,321.7 133.4,318.9 131.3,318.1 
		130.9,315.3 128.7,313.2 128.6,311 133.9,308.8 136.5,307.5 136.1,304.3 135.9,301.5 140.3,300.7 143.7,301.2 146.5,302 
		149.5,301.6 150.9,296.5 150,292.7 148.5,289.9 145.7,287.9 142.3,287.4 134.7,278.6 122.3,269.4 119.8,266 121.4,264.7 124,262.7 
		124.9,259.5 125.1,257 128.4,255.9 127.9,253.7 126.8,251.2 127.7,249 126.2,246.2 122.8,246 121,244.2 118.4,239.3 114.6,238.2 
		111.8,236.8 111.3,234.3 107.1,231 103.9,235.2 104,238 106.2,240.1 108.7,242.9 108.9,246 111,248.1 113.5,250.8 114,253.7 
		115.2,255.8 116.3,259.2 115.8,261.1 115.9,263.3 113.3,264.7 110.6,265.8 99.8,280.4 97.4,279.6 94.9,276.2 92.7,274.1 
		90.7,275.4 90.9,279.5 90.8,282.7 87.5,284.4 86.5,286 83.6,293.7 86.4,296.1 89.2,298.5 93.1,300.8 94.9,303.6 96.1,305.8 
		94.1,307.4 93.2,310 96,311.1 99.1,312.2 101.3,314.7 101.8,318.4 104.1,316.7 106.8,316.6 109,318.4 108.7,320.3 110.5,322.8 
		110.4,325.9 110.6,329.4 108.9,330.7 108.7,333.2 106,334 105.5,337.1 105.4,340.3 108.2,342.1 110,344.5 111.5,346.6 111.6,349.2 
		113.1,351.3 113.9,353.8 116.1,356.2 115.9,359.4 113.7,362.3 111.8,365.2 110.2,366.8 107.1,366.4 104,365.2 103.7,367.4 
		102.2,370 104.6,370.9 108.4,372 108.5,374.5 109.7,376.9 109.8,379.8 110,382.6 111.1,385.4 111,389.2 112.2,391.6 111.3,394.5 
		113.9,398.5 113,401.7 114.8,403.8 114.7,407.6 114.9,411.4 114.7,414.8 114.5,417.4 112.3,420.3 109.7,422.9 105.8,425 
		105.2,427.5 108.9,427.3 105.7,429.4 105.8,431.3 109.4,429.9 112.2,431 114.4,427.7 115.5,429.3 117.4,427 120.8,427.1 123.6,428 
		127.4,430.3 129.2,431.8 133.6,430.7 137.1,433.4 140.3,435.1 144.4,436.5 146.3,434.3 151.4,434.3 152.9,431.1 155.6,429.8 
		157.9,429 157.1,426.2 153.6,424.8 152.8,422.6 151.3,419.9 150.8,416.1 153.5,416 154.4,413.1 157.8,406.4 160.2,402.2 
		161.5,400.2 164.8,399.1 167.7,395.9 170.3,392.6 169.8,390.4 167,388.6 166.5,385.8 164.7,382.8 162.5,381 160.7,378.2 164,376.5 
		165.9,373.9 167.8,371.9 170.2,371.8 172.1,369.5 176.5,369.7 	"/>
	<polygon class="st6" points="273.5,283.9 274,287.1 274.1,290.2 275.3,293 277.1,295.1 276.2,297.4 274,299.7 270.6,300.1 
		269.7,302.4 267.4,303.4 265.9,306.6 263.9,309.2 260.9,310 258.3,311.4 257.4,313.9 253.7,314.4 252.4,316.3 251.5,318.6 
		252.1,322 252.5,324.5 250.6,326.2 249,328.8 245.8,331.4 249,333.8 249.8,336.9 252.7,340.3 255.8,340.4 258.4,338.1 260.1,339.6 
		259.7,343.4 261.1,344.9 260.6,347.8 262.6,348.6 264.2,346.4 267.7,348.4 270.2,350.2 272.9,350.4 274.4,352.9 276.8,353.7 
		279.9,353.9 282.9,352.5 285.2,351.1 287.9,351 290.1,354.1 291.3,351.2 291.1,346.8 292.2,342 294.8,339.7 297.8,338.9 
		300.9,339.8 302.3,341.3 302.8,344.1 300.2,346.4 297.3,348.4 298.7,350.2 302.8,350.7 303.4,348.5 304.6,346.5 307.3,346.1 
		309.3,344.4 309.8,341.3 315.2,341.7 318.6,341.8 320.6,340.2 323.5,337.5 327.1,334.2 329.6,330.3 332.2,328.7 332.7,326.1 
		332.6,322.7 332.1,319.5 329.9,317.7 329.8,314.9 332.8,314.8 334.7,317.2 335.5,319.7 337.9,320.5 340.5,318.5 341.7,316.3 
		342.6,312.8 344.2,310.8 344,308.3 343.9,305.2 344.4,302.3 343.2,299.5 340.9,299.6 339.7,297.5 339.3,295.3 336.2,295.7 
		332.8,295.6 329.4,294.8 327.2,292.7 325.4,290.8 326.6,287.6 324.8,284.9 325.3,282 325.9,279.5 323.7,277.1 322.9,275.5 
		322.5,274 320.4,272.2 318.3,271 318.2,269.4 316.4,267 314,267.7 311,267.8 306.9,267.1 305.3,269.7 304.8,271.9 302,272 
		299.3,270.9 296.9,271.6 294.1,270.2 291.3,267.8 289.5,265.9 288.7,263.8 286.3,263.9 282.6,263.7 281.1,261.9 281.7,258.7 
		284.3,257.3 284.9,255.1 282.3,252.1 280.4,248.4 279.9,245.6 277.7,247.6 275.8,250.5 275.6,253.9 277.1,256.4 278.3,259.8 
		278.8,262.9 279,266.4 278.2,269.6 276.6,271.5 275,275.1 274.9,278.5 	"/>
	<polygon class="st3" points="169.8,390.4 167,388.6 166.5,385.8 164.7,382.8 162.5,381 160.7,378.2 164,376.5 165.9,373.9 
		167.8,371.9 170.2,371.8 172.1,369.5 176.5,369.7 175.3,366.6 178.1,368 182.5,367.8 184,370.6 182.4,372.9 184.8,373.1 
		187.5,371.7 190.2,372.5 190.5,374.6 186.1,376.8 185.8,379 185.6,381.2 185.1,384.1 184.9,386.6 188,387.1 190,388 190.9,390.5 
		192,392.3 197,391.5 200.4,391.3 201.5,392.8 204.6,393.3 204.7,395.2 207.8,396.7 207.6,399.8 206.7,401.7 203.4,403.4 
		200.7,402.9 197.6,402.1 193.9,402.3 191.2,402.7 191.9,404.3 188.3,405.7 187.1,402.3 184.6,401.4 182.6,400.9 180.5,399.4 
		181.3,395.3 177.9,395.4 177.1,393.9 175,391.5 172.2,390 	"/>
	<path class="st1" d="M188.3,405.7l-2.4,0.4l-1.3,1.6l0.8,2.8l0.2,2.8l1.5,2.5l1.8,2.1l-0.9,2.9l1.2,3.7l0.2,3.1l1.1,2.5l2.8,0.8
		l0.8,1.9l-0.9,2.2l-2,1.7l-3.3,0.8l-2.9,2.3l-0.8,3.8l-0.8,4.4l-1.9,2.6l0.2,3.5l-1.2,3.5l-0.5,3.5l-0.8,3.8l-1.2,2.6l-0.9,2.9
		l-2,0.1l-3.1-1.1l-2.8-2.4l-3,0.1l-3.3,0.8l-3.2-2.1l-2.3,1.4l-0.2,2.2l-0.5,2.9l0.1,2.5l-3.3,0.8l-4.4-0.1l-3,1.4l-2.1-1.2
		l-0.9,1.9l-1.6,2l-3.4-0.5l-3.5-2.7l-2.3,1.4l-3.8-0.8l-3.1-0.8l-2.7,0.7l-1.1-2.5l-2.5-1.5l-2,1.3l-2.2-2.1l-1.5-2.5l-2.7,0.8
		l-3.3,1.7l0.5-2.9l1.9-2.3l2.3-1.7l1.6-1.3l2.3-1.1l0.2-3.5l1.6-2.6l2.9-2.4l2.3-0.7l0.6-2.2l1.7-1l-2.2-2.1l0.9-2.6l3.1,0.5
		l0.5-3.2c1.2,0,2.3-1.7,1.6-2.6c-0.6-0.7-1.6-0.9-2.4-0.5l-3,1.7l-3.3,1.4l-2.4-0.8l-1.2-2.5l1.9-2.3l1.9-2.6l-3.1-0.5l-1.9,2
		l-1.2,2.6l-2.1-1.2l-1.5-2.1l-0.5-2.2l-2.3,1.1l-2.2-3.4l3.7-1.4l2.8,1.1l2.2-3.2l1.1,1.5l1.9-2.3l3.4,0.2l2.8,0.8l3.9,2.4l1.8,1.5
		l4.4-1.1l3.5,2.7l3.1,1.8l4.2,1.4l1.9-2.3l5.1,0.1l1.5-3.2l2.7-1.4l2.3-0.7l-0.8-2.8l-3.5-1.4l-0.8-2.2l-1.5-2.8l-0.5-3.8l2.7-0.1
		l0.9-2.9l3.4-6.8l2.5-4.2l1.2-1.9l3.3-1.1l2.9-3.3l2.5-3.3l-0.5-2.2l2.4-0.4l2.8,1.5l2.2,2.4l0.8,1.6l3.4-0.2l-0.8,4.1l2.1,1.5
		l2.1,0.5l2.4,0.8L188.3,405.7z"/>
	<polygon class="st4" points="364.6,292.9 362.3,294.6 360.2,293.1 357.8,292.3 356.6,295.2 353.8,293.7 352.2,296.6 350,300.2 
		347.7,300.6 345.6,299.7 343.2,299.5 344.4,302.3 343.9,305.2 344,308.3 344.2,310.8 342.6,312.8 341.7,316.3 340.5,318.5 
		337.9,320.5 335.5,319.7 334.7,317.2 332.8,314.8 329.8,314.9 329.9,317.7 332.1,319.5 332.6,322.7 332.7,326.1 332.2,328.7 
		329.6,330.3 327.1,334.2 323.5,337.5 320.6,340.2 318.6,341.8 315.2,341.7 309.8,341.3 309.3,344.4 307.3,346.1 304.6,346.5 
		303.4,348.5 302.8,350.7 298.7,350.2 297.3,348.4 300.2,346.4 302.8,344.1 302.3,341.3 300.9,339.8 297.8,338.9 294.8,339.7 
		292.2,342 291.1,346.8 291.3,351.2 290.1,354.1 287.9,351 285.2,351.1 282.9,352.5 279.9,353.9 276.8,353.7 274.4,352.9 
		272.9,350.4 270.2,350.2 267.7,348.4 264.2,346.4 262.6,348.6 260.6,347.8 261.1,344.9 259.7,343.4 260.1,339.6 258.4,338.1 
		255.8,340.4 252.7,340.3 249.8,336.9 249,333.8 245.8,331.4 243.6,334.7 242.7,336.9 244.2,339.4 245.9,339.6 246,342.4 
		244.8,344.1 243.9,346.3 242.3,348.3 242.7,351.1 243.2,353.9 245.9,353.5 248.2,352.4 250.7,353.6 253,352.8 254.6,351.2 
		256.3,350.5 257.8,352.6 259,356.7 257.4,358.6 259.2,361.4 260.7,363.5 261.5,365.4 264.2,365.6 268,366.4 268.8,368.5 271.6,370 
		274.9,368.6 277.5,366.3 278.4,363.7 280.4,363 282,361 283.5,363.5 285.9,365.3 290.7,366 291.9,368.5 292,371.3 293.8,373.1 
		296.6,374.6 296.8,377.7 298.7,381.4 299.5,383.9 297.9,386.2 296,389.4 298.1,390.6 302.2,390.4 304,392.5 303.8,395.4 
		306.9,395.5 308,397.7 310.7,397.6 312.9,400.3 317.7,400.7 319.6,397.8 318.7,395 320.3,391.8 319.7,388.4 320.3,386.4 323,385.7 
		325.3,383.7 326.8,380.8 324.7,379.3 325.2,376.8 324.8,374 326.4,372.7 328.6,370.4 330.3,369 333,370.2 336.1,371 339.1,369.9 
		342.4,368.2 344.3,365.6 346.3,363.3 347.5,361.4 350.4,358.4 352.2,360.8 355.3,361.7 355.2,358.5 355,355.4 357.3,353.7 
		356.1,350.6 354.7,349.1 350.9,347.7 347.4,345.9 349.3,343.7 351.1,339.5 350.9,336.3 349.4,333.3 348.9,329.8 349.7,326.3 
		352.3,323.4 356.5,320.4 360.2,318 362,314.8 361.8,311.3 370,292.7 367.3,293.1 	"/>
	<polygon class="st5" points="249.5,440.8 251.7,436.3 250.2,433.9 249.3,430.8 251.6,428.5 251.8,425.3 250.3,423.2 248.1,421 
		245.8,422.1 243.5,423.5 240.5,423.3 238.7,421.1 235.9,420.3 233.6,416 234.8,413.1 235.6,409.3 235.2,407.8 235.4,404.6 
		235.2,401.5 235.8,398.6 236.9,395.4 236.1,392.9 237,390.4 238.6,388.4 238.1,385.6 239.4,384 238.6,381.8 238.1,379.3 238,376.1 
		237,374.3 235.6,375 230.8,374.9 226.7,374.7 223.7,375.8 222.1,377.5 219.5,380.4 216.5,381.2 214.5,382.5 211.1,382.3 
		209.2,384.3 210.7,387.7 209.9,390.6 210,392.8 210.1,395 207.8,396.7 207.6,399.8 206.7,401.7 208.9,403.5 207.3,405.8 
		204.6,407.2 201.7,409.8 199.1,412.5 198.6,415.3 198.8,417.8 196.6,421.7 194.7,425.6 193.5,428.1 193.3,431 194.1,432.8 
		193.2,435.1 191.3,436.7 187.9,437.5 185,439.8 184.2,443.6 183.4,448.1 181.5,450.7 181.7,454.1 180.5,457.6 180,461.1 
		179.2,464.9 178,467.5 177.1,470.4 177.6,474.5 177.8,477 179.6,479.4 183.4,480.5 187.1,480 188.7,478.1 190.3,476.4 192.7,477.3 
		194.6,474.4 197.6,473.3 201,472.8 201.6,470.9 201.1,468.4 203.3,466.1 206.3,464.4 209.2,462.1 211.5,460.4 215.3,460.9 
		217.1,462.7 219.3,460.4 222.7,459 226,458.8 228.2,460.9 225.9,462.3 225,464.6 227.4,465.7 232.2,465.8 234.8,464.5 236.4,462.2 
		238,459.6 239.9,457 239.7,454.5 241,452.9 241.5,450 243.8,448 246.4,446 249,443.4 	"/>
	<polygon class="st6" points="319.6,397.8 318.7,395 320.3,391.8 319.7,388.4 320.3,386.4 323,385.7 325.3,383.7 326.8,380.8 
		324.7,379.3 325.2,376.8 324.8,374 326.4,372.7 328.6,370.4 330.3,369 333,370.2 336.1,371 339.1,369.9 342.4,368.2 344.3,365.6 
		346.3,363.3 347.5,361.4 350.4,358.4 352.2,360.8 355.3,361.7 355.2,358.5 355,355.4 357.3,353.7 356.1,350.6 354.7,349.1 
		350.9,347.7 347.4,345.9 349.3,343.7 351.1,339.5 350.9,336.3 349.4,333.3 348.9,329.8 352.3,329.3 355,330.2 355.5,332.7 
		357,334.8 359.3,334.4 361.1,336.2 364.1,334.5 367.7,332.5 370.7,331.7 375.1,331.5 376.4,329.9 379.4,329.8 382.4,328.4 
		386.5,328.2 389.3,329.3 393.7,329.5 396.3,327.8 399.7,327.9 403.4,326.5 406.7,324.8 410.9,327.5 414.2,325.7 418,326.5 
		421.8,327.3 427.1,326.5 432.3,327.5 435.3,326.1 439.1,327.2 443,324.5 446.3,322.8 451.8,324.4 455.5,324 460,326 462.2,328.1 
		463.7,330.2 466.4,330.1 469.2,331.6 470.3,333.4 474,332.9 473.4,335.2 471.5,336.2 470.2,339.1 467.9,340.4 467,342.7 
		465.4,344.3 465.2,346.5 462.9,348.2 462.4,350.4 460.1,352.1 458.8,354.1 455.8,354.5 452.8,355.6 448.7,355.4 444.4,358.1 
		440.5,360.8 437.5,362.5 434.2,364.6 433.4,368.7 431.2,370.3 427.6,372.7 424.6,374.7 421.6,376.4 419.8,380.9 418,384.1 
		416.1,386.4 412.7,387.5 410.8,390.1 406.1,391 400.8,394 396.9,396.1 390.2,397.6 389,400.5 385.6,401.3 380.9,402.7 373.9,411.2 
		370.6,412.3 368.2,411.5 364.7,409.7 360.3,409.9 357,411.6 353.1,415.3 350.6,414.1 348,415.2 344.9,414.1 342,416.7 339.2,415.6 
		336.2,417.6 334.4,414.8 332.5,412.1 328.6,408.8 324.7,404.5 321.8,401.5 	"/>
	<polygon class="st5" points="415.4,386.4 418.2,477.6 416.5,478.3 413.7,476.9 412.1,477.9 409,478 407.6,476.5 406.5,475 
		404.9,477.9 401.9,479 399.8,477.2 398.9,479.1 396.8,478.2 394.5,479.6 390.8,479.8 387.4,479.6 385.6,478.1 383,480.4 
		379.3,480.9 374.9,481.7 370.2,482.2 368,479.5 365.3,479.3 364.4,481.2 364.9,484.3 361.7,482.6 359.4,483.9 355.7,484.1 
		352.4,486.5 349,486.6 349.5,488.5 346.1,488.9 345.9,491.1 344.3,492.5 341.2,492 336.5,492.5 333.7,492.3 331.4,493.7 
		329.2,495.6 328.3,497.9 327.3,499.8 325.3,499.9 323.3,500.3 321.7,502.3 317.7,502.7 314.6,502.9 312.3,504.2 310.2,503.7 
		307.6,504.4 305.1,503.3 301.1,504.4 298.6,502.9 297,504.9 297.4,536.4 291.3,536.6 286.6,537.8 281.9,538.6 278.4,537.2 
		275.6,535.1 272.1,533.7 269.9,530.9 265.8,530.2 262,529.4 258.3,529.9 255.5,527.8 252.3,524.8 251.1,521.7 249.6,519.5 
		249.7,513.9 248.4,510.1 246.5,506.4 246.7,502.3 245.5,498.6 247.7,496 249.9,491.8 249.3,487.1 246.8,484.7 241.9,482.4 
		237.7,480.7 233.3,480.9 234.5,478 239.4,473.1 242.6,470.1 245.8,466.2 247,463.6 246.8,460.5 247.3,457 248.5,453.5 250.5,452.4 
		251.4,449.9 252.9,447.6 255,446.9 256.9,444.9 258.8,442.3 261.3,437.8 265.7,431.6 269.1,431.2 272.7,429.8 274.6,427.5 
		278.7,427.3 282,425.9 283.6,424.2 286.3,422.9 287.5,420.9 285.3,417.6 284.1,414.2 285.6,410.9 288.2,408.9 291.7,409.4 
		294.9,411.8 295.7,415.8 298,419.5 300.7,419.4 303.3,418.4 305.3,416.7 308.7,417.5 312.2,418.9 314.7,420.7 317.4,421.5 
		319.6,397.8 321.8,401.5 324.7,404.5 328.6,408.8 332.5,412.1 334.4,414.8 336.2,417.6 339.2,415.6 342,416.7 344.9,414.1 
		348,415.2 350.6,414.1 353.1,415.3 357,411.6 360.3,409.9 364.7,409.7 368.2,411.5 370.6,412.3 373.9,411.2 380.9,402.7 
		385.6,401.3 389,400.5 390.2,397.6 396.9,396.1 400.8,394 406.1,391 410.8,390.1 412.7,387.5 416.1,386.4 	"/>
	<polygon class="st1" points="233.3,480.9 234.5,478 239.4,473.1 242.6,470.1 245.8,466.2 247,463.6 246.8,460.5 247.3,457 
		248.5,453.5 250.5,452.4 251.4,449.9 252.9,447.6 252.5,445.7 252,442.3 249.5,440.8 249,443.4 246.4,446 243.8,448 241.5,450 
		241,452.9 239.7,454.5 239.9,457 238,459.6 236.4,462.2 234.8,464.5 232.2,465.8 227.4,465.7 225,464.6 225.9,462.3 228.2,460.9 
		226,458.8 222.7,459 219.3,460.4 217.1,462.7 215.3,460.9 211.5,460.4 209.2,462.1 206.3,464.4 203.3,466.1 201.1,468.4 
		201.6,470.9 201,472.8 197.6,473.3 194.6,474.4 192.7,477.3 190.3,476.4 188.7,478.1 187.1,480 183.4,480.5 181.8,482.2 
		182.7,486.2 183.9,490.6 185.4,493 187.6,495.8 189.1,498.5 189.9,500.7 190,502.9 187.3,503.3 185.2,502.2 182.8,502.3 181.1,502 
		179.6,504.6 177,506.6 174.9,506.7 171.5,505.6 168.4,505.7 167.9,508.9 165.9,510.2 164,512.2 166.2,514.3 167.7,517.4 
		166.1,519.3 163.1,521.1 160.6,519 158.2,517.5 154.5,518.6 154,521.8 155.2,524.2 154.6,526.8 155.4,529.2 157.8,530.1 
		161.3,531.2 163.1,533 163,538.1 164.5,540.5 167.6,541.3 170,541.5 171.8,543.3 173.9,544.5 176.9,544.4 179.6,544 181.4,544.8 
		185,543.7 187.6,540.8 190.8,537.8 192.8,535.8 193.6,532.7 195.5,530.4 198.1,528.1 200,525.4 204,523.4 205.2,520.2 207.1,517.3 
		209.6,514.6 210.8,511.8 213.2,510.4 215.7,507.5 217.5,503.6 218,500.1 219.3,498.2 221.7,498.7 223.5,499.9 227.4,497.5 
		230.3,494.9 230.9,492.6 229.1,490.8 227.3,488.7 228.5,486.4 231.7,483.1 	"/>
	<polygon class="st0" points="176.6,544.4 176,546 175.1,547.6 174.2,550.2 172.6,552.1 171.4,555 175,558.3 179.6,562.5 
		182.1,564.9 181.5,566.5 179.5,567.6 177.5,567.2 175.8,568.1 174.1,568.8 170.4,568.9 169,567.1 167.3,568.4 164.3,568.2 
		161.5,566.5 159.1,565.6 158.9,562.5 158.7,558.7 158.8,554.3 157.6,551.2 153.8,549.8 151.1,550.5 150.6,553.1 149.3,555 
		146,555.8 146.2,553.9 146.8,551.7 145.9,548.9 147.1,546 147,543.2 145.2,541 142.4,539.9 139.3,539.4 136.8,537.6 134.9,538.3 
		131.2,539.4 127.4,538.6 125.1,540 122.3,538.6 121.8,535.4 121.9,531.6 124.2,529.3 125.8,527.4 124,525.9 120.5,524.1 
		119.7,521.7 119.9,518.5 118.4,516.1 116,516.5 111,517.3 107.3,517.8 104.2,516.4 101.7,515.2 100.2,512.4 97.7,510.3 95.2,507 
		93.3,504.2 90.2,501.8 87.6,499.1 86.1,496.3 88,494.1 91.1,494.3 93.6,495.7 93.8,493.5 94.3,490.6 97.6,489.2 100.4,489.4 
		99.9,487.3 100.5,485 103.1,484.6 103.4,482.7 100.6,481.2 98.5,479.8 101.8,478.4 104.1,477 106,474.7 107.2,472.1 110.5,470.4 
		113.2,469.7 114.7,472.1 116.9,474.2 118.8,472.9 121.3,474.4 122.4,476.8 125.1,476.1 128.2,476.9 132,477.7 134.3,476.3 
		137.8,479 141.2,479.5 142.8,477.5 143.8,475.6 145.9,476.8 148.8,475.4 153.3,475.5 156.6,474.7 156.5,472.2 157,469.4 
		157.2,467.1 159.5,465.8 162.7,467.9 166,467.1 169.1,467 171.9,469.4 175.1,470.5 177.1,470.4 177.6,474.5 177.8,477 179.6,479.4 
		183.4,480.5 181.8,482.2 182.7,486.2 183.9,490.6 185.4,493 187.6,495.8 189.1,498.5 189.9,500.7 190,502.9 187.3,503.3 
		185.2,502.2 182.8,502.3 181.1,502 179.6,504.6 177,506.6 174.9,506.7 171.5,505.6 168.4,505.7 167.9,508.9 165.9,510.2 164,512.2 
		166.2,514.3 167.7,517.4 166.1,519.3 163.1,521.1 160.6,519 158.2,517.5 154.5,518.6 154,521.8 155.2,524.2 154.6,526.8 
		155.4,529.2 157.8,530.1 161.3,531.2 163.1,533 163,538.1 164.5,540.5 167.6,541.3 170,541.5 171.8,543.3 173.9,544.5 	"/>
	<polygon class="st1" points="82.4,497.1 80.6,495.3 78.6,495.7 77.4,497.7 75.3,497.4 73.9,495.6 71.8,496 71.6,497.6 71,500.1 
		69.7,499.6 68.3,499 66.3,500.3 66.8,502.5 63.4,503 60.8,504.7 58.6,508.2 56.4,511.8 55.2,514.4 54.7,518.2 55.1,519.7 
		56.6,522.8 58.1,525.2 60.3,527.1 61.4,529.8 63.2,530.7 62.9,532.6 62.7,534.8 60.4,536.2 58.6,535 55.9,535.4 52.2,534.6 
		48.4,534.8 46.5,535.8 44.2,538.1 41.6,540.8 41.4,543.3 43.3,546 46.4,547.2 46.8,549 48.6,550.5 52.1,552.6 54.3,555 56.1,556.8 
		59.5,558.6 63.7,560.9 67.8,561 69.6,563.2 72.8,566.2 75.7,568.3 79.8,568.7 81.6,571.2 84.7,572.9 89,576.2 95.2,578.1 
		100.3,577.9 103.7,578.7 107.2,580.4 110,582.5 112.9,584.6 115.7,586.4 117.2,589.8 118.7,592.5 119.8,595 123.6,594.9 127,595.6 
		130.1,596.5 133.8,595.4 135.2,595.9 135.8,594 135.6,591.5 134.5,589.3 134.3,586.2 132.5,584.4 134.9,583.7 137.9,583.2 
		138.5,581.3 137.4,579.5 136.5,576.4 137.1,573.8 136,572.6 134.8,570.1 134,566.7 134.1,562.9 134.3,559.4 136.5,557.8 139.9,557 
		142.9,556.6 146,555.8 146.2,553.9 146.8,551.7 145.9,548.9 147.1,546 147,543.2 145.2,541 142.4,539.9 139.3,539.4 136.8,537.6 
		134.9,538.3 131.2,539.4 127.4,538.6 125.1,540 122.3,538.6 121.8,535.4 121.9,531.6 124.2,529.3 125.8,527.4 124,525.9 
		120.5,524.1 119.7,521.7 119.9,518.5 118.4,516.1 116,516.5 111,517.3 107.3,517.8 104.2,516.4 101.7,515.2 100.2,512.4 
		97.7,510.3 95.2,507 93.3,504.2 90.2,501.8 87.6,499.1 86.1,496.3 	"/>
	<polygon class="st4" points="136.6,597.7 139,598.3 141.8,598.8 143.9,600.3 146.3,600.5 149,600.4 151.8,601.2 151.3,599 
		155,599.2 157.5,600 159.6,601.8 162.2,600.4 164.6,600.3 167.7,600.2 168,593.9 170.4,594.1 170.7,592.8 172.3,591.8 175.4,593.2 
		177.9,594.4 179.6,594 181.7,596.1 184.1,596.7 185.9,599.1 188.1,600.9 189.9,603.3 193.4,604.8 199,608 205.4,607.4 209,610.7 
		211.7,611.2 214.8,612.7 217.2,612.6 219.6,613.7 222.7,613.9 226.3,611.8 228.4,613 230.5,613.2 232.2,613.2 235,615.2 
		236.8,617.4 239.2,617.9 242.3,619 244.9,616.1 247,618.2 248.6,621.6 249.7,623.4 252.1,624.9 254.5,625.1 257,626.9 258.8,628.7 
		261.2,629.5 264,630.7 265.5,632.8 289.8,624.9 285.7,623.8 282.6,622.6 280.8,620.8 279.4,620 276.9,618.5 275,619.8 273.8,618 
		271.5,618.4 269,616.9 270.3,615.3 265.8,613.3 263.4,613.7 262,612.8 260.1,614.5 258.7,613.3 256.4,614.9 254.6,613.8 
		253.8,611.6 251.4,611.7 251.7,609.5 249.9,608 249.4,605.8 250.4,605.1 250.3,602.3 248.1,600.5 245.4,599.7 241.6,599.9 
		238.5,598.1 236.2,599.4 235.1,597.6 234.3,595.1 235.2,592.9 234.7,590.4 232.6,588.3 230.5,589 229.8,587.1 228.1,587.5 
		225.4,588.3 223,587.4 223.2,585.5 224.2,583.6 223.4,581.7 221,580.9 222.6,579 218,576.3 216,576.7 213.3,577.5 211.2,575.7 
		208.5,576.1 207,573.6 204.6,574.1 202.5,572.3 199.8,573 196.8,573.8 195.3,571.3 192.7,572.4 190.8,569.9 189.4,568.4 
		189.3,566.2 186.8,564.7 184.8,565.1 182.1,564.9 181.5,566.5 179.5,567.6 177.5,567.2 175.8,568.1 174.1,568.8 170.4,568.9 
		169,567.1 167.3,568.4 164.3,568.2 161.5,566.5 159.1,565.6 158.9,562.5 158.7,558.7 158.8,554.3 157.6,551.2 153.8,549.8 
		151.1,550.5 150.6,553.1 149.3,555 146,555.8 142.9,556.6 139.9,557 136.5,557.8 134.3,559.4 134.1,562.9 134,566.7 134.8,570.1 
		136,572.6 137.1,573.8 136.5,576.4 137.4,579.5 138.5,581.3 137.9,583.2 134.9,583.7 132.5,584.4 134.3,586.2 134.5,589.3 
		135.6,591.5 135.8,594 135.2,595.9 	"/>
	<polygon class="st6" points="298,625.1 300.4,625 300.5,626.9 303.8,626.8 304,629.6 306.3,628.9 308.4,630.4 311.1,629.6 
		314.1,628.8 316.6,630 319.3,631.1 322.9,633.2 326.5,632.4 328.1,630.4 329.8,628.8 332.5,629.6 335,632 337.8,632.9 340.1,632.1 
		341.7,630.2 344.1,630.7 347.3,632.8 350.1,635.2 352.8,635.4 354.8,633.1 356.6,630.2 358.6,629.4 360.4,631.6 362.9,632.4 
		365.6,632.6 367.8,629.4 369.4,626.8 369.9,623.9 371.1,621 373.7,619.7 376.4,618.9 376.9,616.1 378.5,614.4 382,615.5 
		385.1,616.3 388.8,614.9 390,611.7 390.8,609.2 392.8,607.8 395.1,606.5 396.3,604.2 397.3,602.9 401,602.1 406.1,601.9 
		409.1,600.8 409.6,598 408.5,596.4 406.1,595.9 404.5,596.9 403,595.7 401.1,597.1 400,595.9 397.9,595.3 395.9,595.4 393.8,594.6 
		392,592.7 390.9,590.9 389.2,590.7 387.7,588.8 385.7,589.2 384.9,586.7 383.7,584.3 381.4,585 381.3,582.8 380.1,580 378.5,580.7 
		377,579.2 376.6,576.7 374.5,576.5 373.1,574.7 370.6,573.2 368.6,573.9 366.6,574.6 365.7,570.9 364.1,571.6 362.3,570.1 
		362.5,568.2 361,565.7 359,565.2 357.8,562.7 356.7,559.9 353.8,557.5 351.9,559.2 347.3,556.6 344.5,555.1 342.1,554 340.2,556.3 
		338.7,554.1 336.7,554.5 334.4,557.1 334.9,559.6 333.7,561.6 331.3,562 329.7,563.6 329.1,565.5 326.5,567.2 323.1,566.4 
		321,565.3 318.8,562.8 315.7,561.4 313.5,559.9 310.3,557.2 308.5,555.1 308.3,551.3 306.6,550.8 305.8,548.3 304,547.1 
		301.6,546.3 301.5,544.4 300,541.9 297.6,540.8 297.4,536.4 291.3,536.6 286.6,537.8 281.9,538.6 278.4,537.2 275.6,535.1 
		272.1,533.7 269.9,530.9 265.8,530.2 262,529.4 258.3,529.9 255.5,527.8 252.3,524.8 251.1,521.7 249.6,519.5 249.7,513.9 
		248.4,510.1 246.5,506.4 246.7,502.3 245.5,498.6 247.7,496 249.9,491.8 249.3,487.1 246.8,484.7 241.9,482.4 237.7,480.7 
		233.3,480.9 231.7,483.1 228.5,486.4 227.3,488.7 229.1,490.8 230.9,492.6 230.3,494.9 227.4,497.5 223.5,499.9 221.7,498.7 
		219.3,498.2 218,500.1 217.5,503.6 215.7,507.5 213.2,510.4 210.8,511.8 209.6,514.6 207.1,517.3 205.2,520.2 204,523.4 200,525.4 
		198.1,528.1 195.5,530.4 193.6,532.7 192.8,535.8 190.8,537.8 187.6,540.8 185,543.7 181.4,544.8 179.6,544 176.6,544.4 176,546 
		175.1,547.6 174.2,550.2 172.6,552.1 171.4,555 175,558.3 179.6,562.5 182.1,564.9 184.8,565.1 186.8,564.7 189.3,566.2 
		189.4,568.4 190.8,569.9 192.7,572.4 195.3,571.3 196.8,573.8 199.8,573 202.5,572.3 204.6,574.1 207,573.6 208.5,576.1 
		211.2,575.7 213.3,577.5 216,576.7 218,576.3 222.6,579 221,580.9 223.4,581.7 224.2,583.6 223.2,585.5 223,587.4 225.4,588.3 
		228.1,587.5 229.8,587.1 230.5,589 232.6,588.3 234.7,590.4 235.2,592.9 234.3,595.1 235.1,597.6 236.2,599.4 238.5,598.1 
		241.6,599.9 245.4,599.7 248.1,600.5 250.3,602.3 250.4,605.1 249.4,605.8 249.9,608 251.7,609.5 251.4,611.7 253.8,611.6 
		254.6,613.8 256.4,614.9 258.7,613.3 260.1,614.5 262,612.8 263.4,613.7 265.8,613.3 270.3,615.3 269,616.9 271.5,618.4 273.8,618 
		275,619.8 276.9,618.5 279.4,620 280.8,620.8 282.6,622.6 285.7,623.8 289.8,624.9 293.3,625.7 295.6,624.3 	"/>
	<polygon class="st0" points="445.4,479.9 444.3,477.2 440.8,476 438.9,478 439.3,480.2 436.7,482.2 435.7,481 432.3,482.1 
		432.2,480.5 428.9,481 428.8,479.1 425.1,479.6 423.3,478.4 420.3,479.1 418.2,477.6 416.5,478.3 413.7,476.9 412.1,477.9 409,478 
		407.6,476.5 406.5,475 404.9,477.9 401.9,479 399.8,477.2 398.9,479.1 396.8,478.2 394.5,479.6 390.8,479.8 387.4,479.6 
		385.6,478.1 383,480.4 379.3,480.9 374.9,481.7 370.2,482.2 368,479.5 365.3,479.3 364.4,481.2 364.9,484.3 361.7,482.6 
		359.4,483.9 355.7,484.1 352.4,486.5 349,486.6 349.5,488.5 346.1,488.9 345.9,491.1 344.3,492.5 341.2,492 336.5,492.5 
		333.7,492.3 331.4,493.7 329.2,495.6 328.3,497.9 327.3,499.8 325.3,499.9 323.3,500.3 321.7,502.3 317.7,502.7 314.6,502.9 
		312.3,504.2 310.2,503.7 307.6,504.4 305.1,503.3 301.1,504.4 298.6,502.9 297,504.9 297.4,536.4 297.6,540.8 300,541.9 
		301.5,544.4 301.6,546.3 304,547.1 305.8,548.3 306.6,550.8 308.3,551.3 308.5,555.1 310.3,557.2 313.5,559.9 315.7,561.4 
		318.8,562.8 321,565.3 323.1,566.4 326.5,567.2 329.1,565.5 329.7,563.6 331.3,562 333.7,561.6 334.9,559.6 334.4,557.1 
		336.7,554.5 338.7,554.1 340.2,556.3 342.1,554 344.5,555.1 347.3,556.6 351.9,559.2 353.8,557.5 356.7,559.9 357.8,562.7 
		359,565.2 361,565.7 362.5,568.2 362.3,570.1 364.1,571.6 365.7,570.9 366.6,574.6 368.6,573.9 370.6,573.2 373.1,574.7 
		374.5,576.5 377.1,574.8 387.6,566.5 387.4,563.3 389.7,561.4 392.1,562.2 394.4,560.5 396,558.9 396.2,556.7 397.5,555 
		400.2,555.2 399,552.1 398.8,548.7 400.3,544.5 400.4,539.5 400.5,535.4 399,533.3 398.2,530.5 400.4,527.8 403.9,528.3 
		406.7,530.7 410.6,532.8 412.5,531.1 413.7,528.2 416.7,526.2 420,524.5 423.7,524.3 425.9,522 427.5,519.4 431.6,519.6 
		434.6,518.8 437.4,519.3 439.7,519.8 443.1,518.8 445.1,517.4 448.1,517.6 450.4,515.9 452.7,514.9 455.1,515.1 459.1,514.3 
		462.8,513.5 464.1,511.9 465.1,510.6 466.3,508.3 469.3,506.6 470.8,504.3 470,501.9 468.3,501.3 466,503 463.9,502.1 462,503.8 
		458.6,503.3 456.9,505 450.7,502.7 448.2,505.3 446.3,503.2 443.6,502.1 441.2,502.2 440,498.4 438.5,496.3 437,494.2 434.6,492.4 
		431.8,492.2 429.7,490.7 	"/>
	<polygon class="st7" points="411.4,599.8 414.8,599.3 417.1,598.6 418.2,600.4 418.6,602.3 421.8,603.1 423.8,604 425.8,602.9 
		428.3,605.7 430.1,607.2 426.8,609.2 429.6,611.3 431.1,612.5 431.6,615.3 435.7,616.4 437.6,614.4 441.8,616.4 443.5,615.7 
		444.9,616.9 449.7,617.3 451.8,620.1 454.6,621.2 457.4,621.7 458.9,619.2 461.3,619 463.7,619.9 462.1,621.5 459.8,623.2 
		458.9,626.1 461.7,626 462.2,629.1 461.6,631.9 460,632.6 459.7,634.5 461.6,636.7 463.7,638.1 462.1,640.7 459.8,641.8 
		460.9,643.6 463.9,643.5 464.4,646 466.9,647.8 468.8,646.1 470.1,644.2 467,643.3 468.9,641.7 472,641.9 474.4,641.5 477.4,641 
		476.1,643.3 475.9,645.8 478.4,646.6 480.7,645.6 481.6,644 484.5,646.7 485,644.5 486.7,643.1 488.8,644.9 489.9,647.1 
		488.7,648.7 490.2,651.8 493.1,648.8 495.5,650.3 498.2,649.9 498.7,646.7 499,645.1 500.3,643.8 500.5,641.6 498.4,640.1 
		495.3,639 496.2,637.1 493.7,635.3 491.9,632.8 490.7,630.4 492,629.1 493.6,626.8 491.9,625.9 491.7,623.4 491.9,620.6 
		489.2,619.4 486,618 483.2,616.2 480.4,614.7 477,614.3 473.8,611.9 472,608.8 471.1,606 471,577.1 474.6,576.3 476.3,574.9 
		479.7,575.4 482.7,575.3 485,573.6 487.3,571.6 489.7,572.8 493.4,570.4 494.6,568.8 497,569.3 500.2,571.1 504.2,570.9 
		505.7,572.4 507.8,573.3 509.7,571.3 513.1,571.2 511.6,568.7 509.8,567.2 511.8,565.6 511,563.1 512.9,562 510.1,560.6 
		510.7,558.4 509.6,556.5 507.1,554.4 504,553.9 500.9,552.5 499.3,555.1 496.5,553 494.9,554.6 492.2,554.4 491.4,552.6 
		488.7,552.4 486.3,553.7 484.9,551.9 483.2,552.3 481.6,553.9 479.2,554.4 479.2,527 477.4,525.5 475.6,524.6 471.9,525.1 
		469.2,524.6 467,521.8 465.2,520 462.8,518.9 463,516.7 465,515.3 465.2,513.1 465.1,510.6 462.8,513.5 459.1,514.3 455.1,515.1 
		452.7,514.9 450.4,515.9 448.1,517.6 445.1,517.4 443.1,518.8 439.7,519.8 437.4,519.3 434.6,518.8 431.6,519.6 427.5,519.4 
		425.9,522 423.7,524.3 420,524.5 416.7,526.2 413.7,528.2 412.5,531.1 410.6,532.8 406.7,530.7 403.9,528.3 400.4,527.8 
		398.2,530.5 399,533.3 400.5,535.4 400.4,539.5 400.3,544.5 398.8,548.7 399,552.1 400.2,555.2 397.5,555 396.2,556.7 396,558.9 
		394.4,560.5 392.1,562.2 389.7,561.4 387.4,563.3 387.6,566.5 377.1,574.8 374.5,576.5 376.6,576.7 377,579.2 378.5,580.7 
		380.1,580 381.3,582.8 381.4,585 383.7,584.3 384.9,586.7 385.7,589.2 387.7,588.8 389.2,590.7 390.9,590.9 392,592.7 393.8,594.6 
		395.9,595.4 397.9,595.3 400,595.9 401.1,597.1 403,595.7 404.5,596.9 406.1,595.9 408.5,596.4 409.6,598 	"/>
	<polygon class="st1" points="265.4,632.5 289.8,624.9 293.3,625.7 295.6,624.3 298,625.1 300.4,625 300.5,626.9 303.8,626.8 
		304,629.6 306.3,628.9 308.4,630.4 311.1,629.6 314.1,628.8 316.6,630 319.3,631.1 322.9,633.2 326.5,632.4 328.1,630.4 
		329.8,628.8 332.5,629.6 335,632 337.8,632.9 340.1,632.1 341.7,630.2 344.1,630.7 347.3,632.8 350.1,635.2 352.8,635.4 
		354.8,633.1 356.6,630.2 358.6,629.4 360.4,631.6 362.9,632.4 365.6,632.6 367.8,629.4 369.4,626.8 369.9,623.9 371.1,621 
		373.7,619.7 376.4,618.9 376.9,616.1 378.5,614.4 382,615.5 385.1,616.3 388.8,614.9 390,611.7 390.8,609.2 392.8,607.8 
		395.1,606.5 396.3,604.2 397.3,602.9 401,602.1 406.1,601.9 409.1,600.8 409.6,598 411.4,599.8 414.8,599.3 417.1,598.6 
		418.2,600.4 418.6,602.3 421.8,603.1 423.8,604 425.8,602.9 428.3,605.7 430.1,607.2 426.8,609.2 429.6,611.3 431.1,612.5 
		431.6,615.3 435.7,616.4 437.6,614.4 441.8,616.4 443.5,615.7 444.9,616.9 449.7,617.3 451.8,620.1 454.6,621.2 457.4,621.7 
		458.9,619.2 461.3,619 463.7,619.9 462.1,621.5 459.8,623.2 458.9,626.1 461.7,626 462.2,629.1 461.6,631.9 460,632.6 459.7,634.5 
		461.6,636.7 463.7,638.1 462.1,640.7 459.8,641.8 460.9,643.6 463.9,643.5 464.4,646 466.9,647.8 468.8,646.1 470.1,644.2 
		467,643.3 468.9,641.7 472,641.9 474.4,641.5 477.4,641 476.1,643.3 475.9,645.8 478.4,646.6 480.7,645.6 481.6,644 484.5,646.7 
		485,644.5 486.7,643.1 488.8,644.9 489.9,647.1 488.7,648.7 490.2,651.8 493.1,648.8 495.5,650.3 498.2,649.9 498.7,646.7 
		499,645.1 500.3,643.8 502.1,645.9 500.6,649.8 500.4,653.3 501.3,655.7 500.4,658.6 499.2,662.1 499.7,664.3 477.4,775.5 
		475.3,774 474.4,771.2 472,770 471.6,768.2 471.4,765.3 470,763.8 466.9,763 465.1,761.8 463,759.7 461.8,757.9 458.7,757.1 
		456.5,759 454.2,761.3 450.4,760.2 447.7,760 443.7,760.5 440.9,759.7 471.8,715.6 470.6,711.2 467,713.9 467.2,711.1 464.8,711.5 
		464.4,709.3 463.6,707.1 459.9,708.8 457.8,708 460.1,706.3 457.7,705.5 455.4,706.8 453.6,703.8 451.9,704.8 449.5,703.3 
		448.6,705.5 445.8,705.4 445.3,702.9 444.2,700.7 441.1,700.2 439,698.4 436.7,698.8 436.2,696.9 433.8,695.5 431.1,696.5 
		428.3,694.8 428.8,698.5 425.1,697.7 422.3,697.5 421.8,699.5 420.9,702 417.8,702.8 416.1,701.9 413.1,703 410.8,703.4 
		408.3,701.3 406.8,698.5 405.6,702.7 404.4,698 400.9,697.5 399.2,696.3 394.8,697.2 394.3,694.3 392,695.4 389.3,696.1 388.4,699 
		387.9,700.9 385.9,701.6 385.6,703.5 382.6,703.7 379.2,702.9 376.5,704.9 374.3,707.8 371.9,707.6 369.3,708.3 366.2,709.1 
		363.8,707.9 360.4,707.4 357,708.2 354.6,707.1 352.5,705.9 350.9,708.2 349.3,709.8 347.8,707 346.6,709.3 342.2,709.5 
		338.1,710.3 336.7,708.2 336.9,706.6 334.5,706 331.4,705.9 328.4,705.1 327.3,703.5 325.7,700.8 327.7,700 329,698.1 331,696.8 
		329.2,694.9 330.8,693.9 328.7,691.8 328.9,689.3 328.8,687.1 326.7,686.5 326.9,684.3 324.2,684.4 324.1,682.3 322.8,684.2 
		320.8,683.3 318.8,684.7 315.7,684.5 313.7,684 311.9,681.8 309.8,681.6 308,679.8 308.5,677.2 311.5,675.2 309.1,674.7 
		310.7,672.4 308.2,671 306.5,669.8 307.1,668.2 304.9,666.7 304.8,664.5 302.4,663 300.6,661.9 292.1,661.3 290.3,660.1 
		289.2,657.6 288,655.5 285.7,656.8 283.7,656 282.5,654.1 278.7,652.7 276,651.9 273.3,652.6 271.2,650.8 271.7,648.6 270.6,646.8 
		271.9,645.1 270.4,643 268.6,641.8 265.5,640.1 268.1,638.4 267.7,636.2 	"/>
	<polygon class="st4" points="227.6,122.8 224.2,122.7 219.8,123.5 217.2,125.5 215.3,127.8 213,128.5 212.4,130.1 209.4,131.2 
		206.3,131.3 204.8,133.6 204.6,136.1 205,138.6 205.2,141.1 204.9,143.3 206.7,144.8 207.2,147 209.5,146.9 211.6,148.4 
		212.1,150.6 214.8,150.1 218.2,150.9 220,151.8 222.2,155.2 223.8,153.9 224.7,151.3 225.6,149.4 226.5,146.8 227.1,144.6 229,142 
		229.9,140.1 229.7,137.2 229.3,135 230.5,132.5 229.4,130 229.5,125.6 	"/>
	<g>
		<path class="st8" d="M96.5,40.3h14.1l2.5,2.1l2.5-2.1h39.2c0.9,0,1.7-0.7,1.7-1.7V27.6c0-0.9-0.7-1.7-1.7-1.7H96.5
			c-0.9,0-1.7,0.7-1.7,1.7v11.1C94.8,39.6,95.6,40.3,96.5,40.3z"/>
		<text transform="matrix(1 0 0 1 101.5111 36.3035)" class="st9 st10 st11">San Andrs</text>
	</g>
	<g>
		<path class="st8" d="M249.2,74.6h14.1l2.5,2.1l2.5-2.1h39.2c0.9,0,1.7-0.7,1.7-1.7V61.9c0-0.9-0.7-1.7-1.7-1.7h-58.2
			c-0.9,0-1.7,0.7-1.7,1.7V73C247.6,73.9,248.3,74.6,249.2,74.6z"/>
		<text transform="matrix(1 0 0 1 253.2332 70.6018)" class="st9 st10 st11">Santa Marta</text>
	</g>
	<g>
		<path class="st8" d="M225.9,291.6h-14.1l-2.5,2.1l-2.5-2.1h-39.2c-0.9,0-1.7-0.7-1.7-1.7v-11.1c0-0.9,0.7-1.7,1.7-1.7h58.2
			c0.9,0,1.7,0.7,1.7,1.7v11.1C227.5,290.9,226.8,291.6,225.9,291.6z"/>
		<text transform="matrix(1 0 0 1 179.3091 287.5682)" class="st9 st10 st11">Medelln</text>
	</g>
	<g>
		<path class="st8" d="M347.2,225.6h-14.1l-2.5,2.1l-2.5-2.1H289c-0.9,0-1.7-0.7-1.7-1.7v-11.1c0-0.9,0.7-1.7,1.7-1.7h58.2
			c0.9,0,1.7,0.7,1.7,1.7V224C348.9,224.9,348.2,225.6,347.2,225.6z"/>
		<text transform="matrix(1 0 0 1 303.5041 221.6041)" class="st9 st10 st11">Ccuta</text>
	</g>
	<g>
		<path class="st8" d="M168.3,474.6h-14.1l-2.5-2.1l-2.5,2.1h-39.2c-0.9,0-1.7,0.7-1.7,1.7v11.1c0,0.9,0.7,1.7,1.7,1.7h58.2
			c0.9,0,1.7-0.7,1.7-1.7v-11.1C170,475.3,169.2,474.6,168.3,474.6z"/>
		<text transform="matrix(1 0 0 1 131.2494 484.8971)" class="st9 st10 st11">Cali</text>
	</g>
	<g>
		<path class="st8" d="M177.7,150.4h-58c-0.9,0-1.7-0.7-1.7-1.7v-11.1c0-0.9,0.7-1.7,1.7-1.7h58c0.9,0,1.7,0.7,1.7,1.7v2.7l3.1,2.3
			l-3.1,2.2v3.9C179.4,149.6,178.7,150.4,177.7,150.4z"/>
		<text transform="matrix(1 0 0 1 127.2464 146.3602)" class="st9 st10 st12">Cartagena</text>
	</g>
	<g>
		<path class="st8" d="M180.5,356.3h-58c-0.9,0-1.7-0.7-1.7-1.7v-11.1c0-0.9,0.7-1.7,1.7-1.7h58c0.9,0,1.7,0.7,1.7,1.7v2.7l3.1,2.3
			l-3.1,2.2v3.9C182.2,355.6,181.4,356.3,180.5,356.3z"/>
		<text transform="matrix(1 0 0 1 130.7791 352.2801)" class="st9 st10 st12">Manizales</text>
	</g>
	<g>
		<path class="st8" d="M163.8,379.8h-58c-0.9,0-1.7-0.7-1.7-1.7v-11.1c0-0.9,0.7-1.7,1.7-1.7h58c0.9,0,1.7,0.7,1.7,1.7v2.7l3.1,2.3
			l-3.1,2.2v3.9C165.4,379.1,164.7,379.8,163.8,379.8z"/>
		<text transform="matrix(1 0 0 1 119.9187 375.7654)" class="st9 st10 st12">Pereira</text>
	</g>
	<g>
		<path class="st8" d="M173.8,409.2h-58c-0.9,0-1.7-0.7-1.7-1.7v-11.1c0-0.9,0.7-1.7,1.7-1.7h58c0.9,0,1.7,0.7,1.7,1.7v2.7l3.1,2.3
			l-3.1,2.2v3.9C175.5,408.4,174.7,409.2,173.8,409.2z"/>
		<text transform="matrix(1 0 0 1 127.6624 405.1618)" class="st9 st10 st12">Armenia</text>
	</g>
	<g>
		<path class="st8" d="M162.5,213.5h-58c-0.9,0-1.7-0.7-1.7-1.7v-11.1c0-0.9,0.7-1.7,1.7-1.7h58c0.9,0,1.7,0.7,1.7,1.7v2.7l3.1,2.3
			l-3.1,2.2v3.9C164.1,212.7,163.4,213.5,162.5,213.5z"/>
		<text transform="matrix(1 0 0 1 115.3278 209.4597)" class="st9 st10 st12">Montera</text>
	</g>
	<g>
		<path class="st8" d="M429.7,550.3h-58c-0.9,0-1.7-0.7-1.7-1.7v-11.1c0-0.9,0.7-1.7,1.7-1.7h58c0.9,0,1.7,0.7,1.7,1.7v2.7l3.1,2.3
			l-3.1,2.2v3.9C431.4,549.5,430.6,550.3,429.7,550.3z"/>
		<text transform="matrix(1 0 0 1 392.0296 546.2603)" class="st9 st10 st12">Mit</text>
	</g>
	<g>
		<path class="st8" d="M329,142.3h57.8c0.9,0,1.7-0.7,1.7-1.7v-11c0-0.9-0.7-1.7-1.7-1.7H329c-0.9,0-1.7,0.7-1.7,1.7v2.7l-3.1,2.3
			l3.1,2.2v3.8C327.4,141.6,328.1,142.3,329,142.3z"/>
		<text transform="matrix(1 0 0 1 336.0437 138.3124)" class="st9 st10 st13">Valledupar</text>
	</g>
	<g>
		<path class="st8" d="M240,196.3h57.8c0.9,0,1.7-0.7,1.7-1.7v-11c0-0.9-0.7-1.7-1.7-1.7H240c-0.9,0-1.7,0.7-1.7,1.7v2.7l-3.1,2.3
			l3.1,2.2v3.8C238.4,195.6,239.1,196.3,240,196.3z"/>
		<text transform="matrix(1 0 0 1 250.3527 192.3003)" class="st9 st10 st13">Sincelejo</text>
	</g>
	<g>
		<path class="st8" d="M335.6,291.5h64.8c0.9,0,1.7-0.7,1.7-1.7v-11c0-0.9-0.7-1.7-1.7-1.7h-64.8c-0.9,0-1.7,0.7-1.7,1.7v2.7
			l-3.1,2.3l3.1,2.2v3.8C333.9,290.7,334.7,291.5,335.6,291.5z"/>
		<text transform="matrix(1 0 0 1 338.9539 287.4782)" class="st9 st10 st13">Bucaramanga</text>
	</g>
	<g>
		<path class="st8" d="M325.3,333.8h57.8c0.9,0,1.7-0.7,1.7-1.7v-11c0-0.9-0.7-1.7-1.7-1.7h-57.8c-0.9,0-1.7,0.7-1.7,1.7v2.7
			l-3.1,2.3l3.1,2.2v3.8C323.6,333,324.4,333.8,325.3,333.8z"/>
		<text transform="matrix(1 0 0 1 342.7305 329.7437)" class="st9 st10 st13">Tunja</text>
	</g>
	<g>
		<path class="st8" d="M388,364.9h57.8c0.9,0,1.7-0.7,1.7-1.7v-11c0-0.9-0.7-1.7-1.7-1.7H388c-0.9,0-1.7,0.7-1.7,1.7v2.7l-3.1,2.3
			l3.1,2.2v3.8C386.4,364.2,387.1,364.9,388,364.9z"/>
		<text transform="matrix(1 0 0 1 405.213 360.9402)" class="st9 st10 st13">Yopal</text>
	</g>
	<g>
		<path class="st8" d="M235.1,453.3h57.8c0.9,0,1.7-0.7,1.7-1.7v-11c0-0.9-0.7-1.7-1.7-1.7h-57.8c-0.9,0-1.7,0.7-1.7,1.7v2.7
			l-3.1,2.3l3.1,2.2v3.8C233.5,452.6,234.2,453.3,235.1,453.3z"/>
		<text transform="matrix(1 0 0 1 250.0113 449.3347)" class="st9 st10 st13">Ibagu</text>
	</g>
	<g>
		<path class="st8" d="M362.6,661.6h92c0.9,0,1.7-0.7,1.7-1.7v-11c0-0.9-0.7-1.7-1.7-1.7h-92c-0.9,0-1.7,0.7-1.7,1.7v2.7l-3.1,2.3
			l3.1,2.2v3.8C361,660.9,361.7,661.6,362.6,661.6z"/>
		<text transform="matrix(1 0 0 1 369.6184 657.6228)" class="st9 st10 st13">Amazonas - Leticia</text>
	</g>
	<g>
		<path class="st8" d="M218.4,495.4h57.8c0.9,0,1.7-0.7,1.7-1.7v-11c0-0.9-0.7-1.7-1.7-1.7h-57.8c-0.9,0-1.7,0.7-1.7,1.7v2.7
			l-3.1,2.3l3.1,2.2v3.8C216.8,494.7,217.5,495.4,218.4,495.4z"/>
		<text transform="matrix(1 0 0 1 235.6131 491.405)" class="st9 st10 st13">Neiva</text>
	</g>
	<g>
		<path class="st8" d="M225.8,547.1h57.8c0.9,0,1.7-0.7,1.7-1.7v-11c0-0.9-0.7-1.7-1.7-1.7h-57.8c-0.9,0-1.7,0.7-1.7,1.7v2.7
			l-3.1,2.3l3.1,2.2v3.8C224.1,546.4,224.9,547.1,225.8,547.1z"/>
		<text transform="matrix(1 0 0 1 235.847 543.0964)" class="st9 st10 st13">Florencia</text>
	</g>
	<g>
		<path class="st8" d="M292.2,393.6H350c0.9,0,1.7-0.7,1.7-1.7v-11c0-0.9-0.7-1.7-1.7-1.7h-57.8c-0.9,0-1.7,0.7-1.7,1.7v2.7
			l-3.1,2.3l3.1,2.2v3.8C290.6,392.8,291.3,393.6,292.2,393.6z"/>
		<text transform="matrix(1 0 0 1 306.5943 389.5705)" class="st9 st10 st13">Bogot</text>
	</g>
	<g>
		<path class="st8" d="M326.2,434.6H384c0.9,0,1.7-0.7,1.7-1.7v-11c0-0.9-0.7-1.7-1.7-1.7h-57.8c-0.9,0-1.7,0.7-1.7,1.7v2.7
			l-3.1,2.3l3.1,2.2v3.8C324.6,433.8,325.3,434.6,326.2,434.6z"/>
		<text transform="matrix(1 0 0 1 329.9143 430.5534)" class="st9 st10 st13">Villavicencio</text>
	</g>
	<g>
		<path class="st8" d="M233.6,140.2h57.8c0.9,0,1.7-0.7,1.7-1.7v-11c0-0.9-0.7-1.7-1.7-1.7h-57.8c-0.9,0-1.7,0.7-1.7,1.7v2.7
			l-3.1,2.3l3.1,2.2v3.8C231.9,139.5,232.7,140.2,233.6,140.2z"/>
		<text transform="matrix(1 0 0 1 238.0363 136.2258)" class="st9 st10 st13">Barranquilla</text>
	</g>
	<path class="st14" d="M135,61.2l-5.9-6.7l-10.5-1.8c0,0-15.8,16.7-18.1,25.5c0,0-0.9,16.7-4.7,22.2c0,0-0.9,4.1,3.8,6.4
		c4.7,2.3-1.2,12.3-1.2,12.3s-2.9,17.3,2.3,25.8l11.4-18.7l3.2-2.6c0,0-4.7-13.2,6.8-17.9l2.6-3.5c0,0-0.6-9.4,2.6-13.8
		c0,0-9.8-12.8-2-21.1L135,61.2z"/>
	<path class="st14" d="M154.6,76.4c0,0,1.8,7.9,6.4-3.5c0,0,2-8.5,12.3-2c0,0-2,7.6,0,12.3c2,4.7,0,18.4,0,18.4s-6.7,5.6-8.9,6.1
		c0,0-6.3,5.9-12.2,5v2c0,0-14-1.8-11.4-16S154.6,76.4,154.6,76.4z"/>
	<path class="st15" d="M109,53.5c-6.5,0-11.8,5.3-11.8,11.8c0,8.8,11.8,21.8,11.8,21.8s11.8-13,11.8-21.8
		C120.7,58.8,115.5,53.5,109,53.5z M109,69.5c-2.3,0-4.2-1.9-4.2-4.2c0-2.3,1.9-4.2,4.2-4.2s4.2,1.9,4.2,4.2
		C113.2,67.6,111.3,69.5,109,69.5z"/>
	<path class="st15" d="M260.9,86.1c-6.5,0-11.8,5.3-11.8,11.8c0,8.8,11.8,21.8,11.8,21.8s11.8-13,11.8-21.8
		C272.7,91.3,267.4,86.1,260.9,86.1z M260.9,102c-2.3,0-4.2-1.9-4.2-4.2s1.9-4.2,4.2-4.2s4.2,1.9,4.2,4.2S263.2,102,260.9,102z"/>
	<path class="st15" d="M225,102.8c-6.5,0-11.8,5.3-11.8,11.8c0,8.8,11.8,21.8,11.8,21.8s11.8-13,11.8-21.8
		C236.7,108.1,231.5,102.8,225,102.8z M225,118.8c-2.3,0-4.2-1.9-4.2-4.2s1.9-4.2,4.2-4.2c2.3,0,4.2,1.9,4.2,4.2
		S227.3,118.8,225,118.8z"/>
	<path class="st15" d="M203.8,129.6c-6.5,0-11.8,5.3-11.8,11.8c0,8.8,11.8,21.8,11.8,21.8s11.8-13,11.8-21.8
		C215.5,134.8,210.3,129.6,203.8,129.6z M203.8,145.5c-2.3,0-4.2-1.9-4.2-4.2c0-2.3,1.9-4.2,4.2-4.2c2.3,0,4.2,1.9,4.2,4.2
		C208,143.6,206.1,145.5,203.8,145.5z"/>
	<path class="st15" d="M217.5,169c-6.5,0-11.8,5.3-11.8,11.8c0,8.8,11.8,21.8,11.8,21.8s11.8-13,11.8-21.8
		C229.3,174.3,224,169,217.5,169z M217.5,184.9c-2.3,0-4.2-1.9-4.2-4.2c0-2.3,1.9-4.2,4.2-4.2c2.3,0,4.2,1.9,4.2,4.2
		C221.7,183.1,219.8,184.9,217.5,184.9z"/>
	<path class="st15" d="M185.9,200c-6.5,0-11.8,5.3-11.8,11.8c0,8.8,11.8,21.8,11.8,21.8s11.8-13,11.8-21.8
		C197.7,205.3,192.4,200,185.9,200z M185.9,216c-2.3,0-4.2-1.9-4.2-4.2c0-2.3,1.9-4.2,4.2-4.2c2.3,0,4.2,1.9,4.2,4.2
		C190.1,214.1,188.2,216,185.9,216z"/>
	<path class="st15" d="M307.4,124.5c-6.5,0-11.8,5.3-11.8,11.8c0,8.8,11.8,21.8,11.8,21.8s11.8-13,11.8-21.8
		C319.1,129.8,313.8,124.5,307.4,124.5z M307.4,140.5c-2.3,0-4.2-1.9-4.2-4.2c0-2.3,1.9-4.2,4.2-4.2c2.3,0,4.2,1.9,4.2,4.2
		C311.5,138.6,309.7,140.5,307.4,140.5z"/>
	<path class="st15" d="M336.9,234.5c-6.5,0-11.8,5.3-11.8,11.8c0,8.8,11.8,21.8,11.8,21.8s11.8-13,11.8-21.8
		C348.6,239.8,343.4,234.5,336.9,234.5z M336.9,250.5c-2.3,0-4.2-1.9-4.2-4.2c0-2.3,1.9-4.2,4.2-4.2c2.3,0,4.2,1.9,4.2,4.2
		C341.1,248.6,339.2,250.5,336.9,250.5z"/>
	<path class="st15" d="M305.3,270.7c-6.5,0-11.8,5.3-11.8,11.8c0,8.8,11.8,21.8,11.8,21.8s11.8-13,11.8-21.8
		C317.1,275.9,311.8,270.7,305.3,270.7z M305.3,286.6c-2.3,0-4.2-1.9-4.2-4.2s1.9-4.2,4.2-4.2c2.3,0,4.2,1.9,4.2,4.2
		S307.6,286.6,305.3,286.6z"/>
	<path class="st15" d="M199.8,299.4c-6.5,0-11.8,5.3-11.8,11.8c0,8.8,11.8,21.8,11.8,21.8s11.8-13,11.8-21.8
		C211.6,304.6,206.3,299.4,199.8,299.4z M199.8,315.3c-2.3,0-4.2-1.9-4.2-4.2s1.9-4.2,4.2-4.2c2.3,0,4.2,1.9,4.2,4.2
		S202.2,315.3,199.8,315.3z"/>
	<path class="st15" d="M206.3,341c-6.5,0-11.8,5.3-11.8,11.8c0,8.8,11.8,21.8,11.8,21.8s11.8-13,11.8-21.8
		C218.1,346.3,212.8,341,206.3,341z M206.3,357c-2.3,0-4.2-1.9-4.2-4.2c0-2.3,1.9-4.2,4.2-4.2c2.3,0,4.2,1.9,4.2,4.2
		C210.5,355.1,208.7,357,206.3,357z"/>
	<path class="st15" d="M181,351.2c-6.5,0-11.8,5.3-11.8,11.8c0,8.8,11.8,21.8,11.8,21.8s11.8-13,11.8-21.8
		C192.7,356.5,187.5,351.2,181,351.2z M181,367.2c-2.3,0-4.2-1.9-4.2-4.2s1.9-4.2,4.2-4.2c2.3,0,4.2,1.9,4.2,4.2
		S183.3,367.2,181,367.2z"/>
	<path class="st15" d="M196.8,376.8c-6.5,0-11.8,5.3-11.8,11.8c0,8.8,11.8,21.8,11.8,21.8s11.8-13,11.8-21.8
		C208.5,382.1,203.3,376.8,196.8,376.8z M196.8,392.8c-2.3,0-4.2-1.9-4.2-4.2s1.9-4.2,4.2-4.2c2.3,0,4.2,1.9,4.2,4.2
		S199.1,392.8,196.8,392.8z"/>
	<path class="st15" d="M220.5,409.9c-6.5,0-11.8,5.3-11.8,11.8c0,8.8,11.8,21.8,11.8,21.8s11.8-13,11.8-21.8
		C232.2,415.2,227,409.9,220.5,409.9z M220.5,425.9c-2.3,0-4.2-1.9-4.2-4.2s1.9-4.2,4.2-4.2c2.3,0,4.2,1.9,4.2,4.2
		S222.8,425.9,220.5,425.9z"/>
	<path class="st15" d="M147.1,435c-6.5,0-11.8,5.3-11.8,11.8c0,8.8,11.8,21.8,11.8,21.8s11.8-13,11.8-21.8
		C158.9,440.2,153.6,435,147.1,435z M147.1,450.9c-2.3,0-4.2-1.9-4.2-4.2s1.9-4.2,4.2-4.2c2.3,0,4.2,1.9,4.2,4.2
		S149.5,450.9,147.1,450.9z"/>
	<path class="st15" d="M202.1,464.3c-6.5,0-11.8,5.3-11.8,11.8c0,8.8,11.8,21.8,11.8,21.8s11.8-13,11.8-21.8
		C213.9,469.6,208.6,464.3,202.1,464.3z M202.1,480.3c-2.3,0-4.2-1.9-4.2-4.2s1.9-4.2,4.2-4.2c2.3,0,4.2,1.9,4.2,4.2
		S204.5,480.3,202.1,480.3z"/>
	<path class="st15" d="M267.1,374.1c-6.5,0-11.8,5.3-11.8,11.8c0,8.8,11.8,21.8,11.8,21.8s11.8-13,11.8-21.8
		C278.8,379.3,273.6,374.1,267.1,374.1z M267.1,390c-2.3,0-4.2-1.9-4.2-4.2c0-2.3,1.9-4.2,4.2-4.2s4.2,1.9,4.2,4.2
		C271.3,388.1,269.4,390,267.1,390z"/>
	<path class="st15" d="M303.7,330.1c-6.5,0-11.8,5.3-11.8,11.8c0,8.8,11.8,21.8,11.8,21.8s11.8-13,11.8-21.8
		C315.5,335.4,310.2,330.1,303.7,330.1z M303.7,346.1c-2.3,0-4.2-1.9-4.2-4.2s1.9-4.2,4.2-4.2s4.2,1.9,4.2,4.2
		S306.1,346.1,303.7,346.1z"/>
	<path class="st15" d="M357.5,344.2c-6.5,0-11.8,5.3-11.8,11.8c0,8.8,11.8,21.8,11.8,21.8s11.8-13,11.8-21.8
		C369.3,349.4,364,344.2,357.5,344.2z M357.5,360.1c-2.3,0-4.2-1.9-4.2-4.2s1.9-4.2,4.2-4.2c2.3,0,4.2,1.9,4.2,4.2
		S359.8,360.1,357.5,360.1z"/>
	<path class="st15" d="M302.5,413.3c-6.5,0-11.8,5.3-11.8,11.8c0,8.8,11.8,21.8,11.8,21.8s11.8-13,11.8-21.8
		C314.3,418.5,309,413.3,302.5,413.3z M302.5,429.2c-2.3,0-4.2-1.9-4.2-4.2s1.9-4.2,4.2-4.2s4.2,1.9,4.2,4.2
		S304.8,429.2,302.5,429.2z"/>
	<path class="st15" d="M457.9,526.3c-6.5,0-11.8,5.3-11.8,11.8c0,8.8,11.8,21.8,11.8,21.8s11.8-13,11.8-21.8
		C469.7,531.6,464.4,526.3,457.9,526.3z M457.9,542.3c-2.3,0-4.2-1.9-4.2-4.2c0-2.3,1.9-4.2,4.2-4.2c2.3,0,4.2,1.9,4.2,4.2
		C462.1,540.4,460.2,542.3,457.9,542.3z"/>
	<path class="st15" d="M204.2,521.9c-6.5,0-11.8,5.3-11.8,11.8c0,8.8,11.8,21.8,11.8,21.8s11.8-13,11.8-21.8
		C215.9,527.1,210.7,521.9,204.2,521.9z M204.2,537.8c-2.3,0-4.2-1.9-4.2-4.2s1.9-4.2,4.2-4.2c2.3,0,4.2,1.9,4.2,4.2
		S206.5,537.8,204.2,537.8z"/>
	<path class="st15" d="M341.1,635c-6.5,0-11.8,5.3-11.8,11.8c0,8.8,11.8,21.8,11.8,21.8s11.8-13,11.8-21.8
		C352.8,640.3,347.6,635,341.1,635z M341.1,651c-2.3,0-4.2-1.9-4.2-4.2s1.9-4.2,4.2-4.2s4.2,1.9,4.2,4.2S343.4,651,341.1,651z"/>
</g>
<path class="st16" d="M-41.7,78.8h24v24h-24V78.8z"/>
<g>
	<g>
		<g>
			<path class="st17" d="M450.3,190.4c0,0.6,0,1.2,0,1.7s0,0.8,0,1.1c0,0.3,0,0.4,0,0.5c-0.1,0-0.4,0-0.9,0.1c-0.5,0-1.2,0.1-2,0.1
				c-0.5,0-1,0-1.6-0.1c-0.5-0.1-1-0.2-1.4-0.4c-0.5-0.2-0.9-0.5-1.2-0.9c-0.3-0.4-0.5-0.9-0.5-1.5c0-0.6,0.2-1.1,0.5-1.5
				c0.4-0.4,0.9-0.8,1.5-1.1c0.4-0.2,1-0.3,1.6-0.5c0.7-0.1,1.5-0.2,2.3-0.3c-0.1-1-0.5-1.6-1.3-1.9c-0.5-0.2-1.2-0.3-2.1-0.3
				c-0.3,0-0.5,0-0.7,0c-0.2,0-0.5,0-0.8,0.1l0.1-1.2c0.1,0,0.3,0,0.6,0c0.3,0,0.7,0,1.1,0c0.7,0,1.4,0.1,2,0.2
				c0.6,0.2,1.1,0.4,1.5,0.8c0.2,0.2,0.3,0.3,0.5,0.5c0.1,0.2,0.3,0.4,0.3,0.7c0.1,0.3,0.2,0.6,0.2,0.9s0.1,0.7,0.1,1.2
				C450.3,189.1,450.3,189.8,450.3,190.4z M448.9,188.6c-0.3,0-0.8,0.1-1.5,0.2c-0.7,0.1-1.3,0.2-1.7,0.4c-0.3,0.1-0.7,0.3-0.9,0.6
				c-0.3,0.3-0.4,0.6-0.4,1c0,0.4,0.1,0.8,0.3,1c0.2,0.3,0.6,0.5,1,0.6c0.3,0.1,0.6,0.2,1,0.2c0.4,0.1,0.8,0.1,1.2,0.1
				c0.1,0,0.3,0,0.5,0c0.2,0,0.4,0,0.6,0v-2.1V188.6z"/>
		</g>
		<g>
			<path class="st18" d="M460.2,191.8c-0.3,0.5-0.7,0.9-1.2,1.2c-1,0.6-2.2,0.8-3.6,0.8c-0.2,0-0.4,0-0.6,0c-0.2,0-0.4,0-0.6,0
				c-0.4,0-0.7,0-0.7-0.1l-0.1-1.3c0.1,0,0.3,0,0.7,0.1c0.4,0,0.9,0,1.4,0c0.3,0,0.8,0,1.3-0.1c0.5-0.1,0.9-0.2,1.2-0.3
				c0.4-0.2,0.7-0.4,0.8-0.7c0.2-0.3,0.3-0.6,0.3-1c0-0.4-0.1-0.8-0.3-1.1c-0.2-0.3-0.5-0.6-1-0.8c-0.3-0.2-0.7-0.4-1.1-0.6
				c-0.5-0.2-0.9-0.4-1.3-0.7c-0.7-0.4-1.1-0.8-1.4-1.3c-0.3-0.5-0.4-1-0.4-1.5c0-0.6,0.1-1.1,0.4-1.5c0.3-0.4,0.6-0.8,1-1.1
				c0.4-0.3,0.9-0.5,1.5-0.7c0.6-0.1,1.2-0.2,1.9-0.2c0.2,0,0.4,0,0.6,0c0.2,0,0.4,0,0.6,0c0.2,0,0.3,0,0.5,0c0.1,0,0.2,0,0.2,0
				l0.1,1.4c-0.1,0-0.3,0-0.7-0.1c-0.4,0-0.9-0.1-1.5-0.1c-0.3,0-0.7,0-1.1,0.1c-0.4,0.1-0.7,0.2-1,0.4c-0.3,0.1-0.5,0.3-0.6,0.6
				c-0.2,0.3-0.3,0.6-0.3,0.9c0,0.3,0.1,0.6,0.3,0.9c0.2,0.3,0.5,0.6,1,0.9c0.3,0.2,0.6,0.3,1,0.5c0.4,0.2,0.8,0.4,1.3,0.7
				c1.3,0.7,1.9,1.7,1.9,2.9C460.7,190.8,460.5,191.4,460.2,191.8z"/>
			<path class="st18" d="M470.9,193.7c-0.4,0-0.8,0-1.3,0c-0.5,0-1,0-1.6,0c-0.8,0-1.5,0-2.2,0c-0.7,0-1.2,0-1.7,0
				c0-0.2,0-0.5,0-0.8s0-0.9,0-1.5c0-0.6,0-1.2,0-1.8s0-1.2,0-1.9c0-0.4,0-0.8,0-1.2c0-0.5,0-1,0-1.6c0-0.6,0-1.2,0-1.8
				c0-0.6,0-1.2,0-1.8c0.4,0,1,0,1.6,0c0.7,0,1.4,0,2.1,0c1.2,0,2.2,0,2.9,0c0.8,0,1.2,0,1.2,0v1.3c0,0-0.2,0-0.4,0
				c-0.2,0-0.5,0-0.8,0c-0.3,0-0.7,0-1.2,0c-0.5,0-1,0-1.5,0c-0.5,0-0.9,0-1.4,0c-0.5,0-0.8,0-1.1,0c0,0.7,0,1.4,0,2.1
				c0,0.7,0,1.4,0,2c0.3,0,0.6,0,1,0c0.4,0,0.7,0,1,0c0.6,0,1.1,0,1.6,0c0.5,0,1,0,1.4,0s0.8,0,1,0c0.2,0,0.4,0,0.4,0v1.3
				c0,0-0.2,0-0.4,0c-0.3,0-0.6,0-1.1,0s-1,0-1.4,0c-0.4,0-0.9,0-1.3,0c-0.2,0-0.3,0-0.5,0c-0.2,0-0.4,0-0.6,0c-0.2,0-0.4,0-0.6,0
				c-0.2,0-0.3,0-0.5,0c0,1.2,0,2.1,0,2.8c0,0.7,0,1.3,0,1.7c0.4,0,0.8,0,1.4,0c0.5,0,1.1,0,1.7,0c0.9,0,1.7,0,2.3,0
				c0.6,0,1,0,1.1,0v1.3H470.9z"/>
			<path class="st18" d="M484.3,193.9c-0.1-0.1-0.2-0.2-0.5-0.5c-0.2-0.3-0.6-0.6-1-1.1c-0.4-0.5-1-1.1-1.6-1.8
				c-0.6-0.7-1.4-1.6-2.3-2.6l0-0.1c0.1,0,0.3-0.1,0.4-0.2c0.2-0.1,0.3-0.2,0.5-0.2c0.2-0.1,0.4-0.2,0.5-0.3
				c0.2-0.1,0.3-0.2,0.5-0.4c0.2-0.2,0.4-0.5,0.6-0.8c0.2-0.3,0.3-0.7,0.3-1.3c0-0.5-0.1-0.9-0.4-1.2c-0.3-0.3-0.6-0.6-1-0.8
				c-0.4-0.1-0.8-0.2-1.2-0.2s-0.8,0-1.1,0c-0.2,0-0.4,0-0.5,0c-0.1,0-0.2,0-0.3,0c0,1.2,0,2.2,0,3.1s0,1.6,0,1.9c0,0.4,0,0.9,0,1.5
				c0,0.6,0,1.2,0,2c0,0.7,0,1.3,0,1.8c0,0.5,0,0.8,0,1h-1.5c0-0.4,0-1.1,0-2.2c0-1.1,0-2.4,0-4v-1.7c0-0.4,0-1,0-1.8
				c0-0.8,0-1.7,0-2.8c0,0,0.1,0,0.3,0c0.2,0,0.4,0,0.7,0s0.6,0,0.8,0c0.3,0,0.5,0,0.8,0c0.5,0,1.1,0,1.6,0.1c0.5,0.1,1,0.2,1.5,0.4
				c0.6,0.3,1.1,0.7,1.5,1.2c0.4,0.5,0.5,1.1,0.5,1.8c0,0.9-0.3,1.6-0.8,2.2c-0.3,0.3-0.5,0.6-0.8,0.8c-0.3,0.2-0.5,0.4-0.8,0.5v0
				c0.4,0.5,0.9,1,1.4,1.5c0.5,0.5,1,1,1.5,1.6c1,1.1,1.6,1.6,1.7,1.7L484.3,193.9z"/>
		</g>
		<g>
			<path class="st17" d="M492.9,192.1c-0.2,0.4-0.5,0.7-0.9,0.9c-0.4,0.2-0.8,0.4-1.4,0.5c-0.5,0.1-1.1,0.2-1.7,0.2
				c-0.2,0-0.3,0-0.5,0c-0.2,0-0.3,0-0.5,0c-0.1,0-0.3,0-0.4,0c-0.1,0-0.2,0-0.2,0l-0.1-1.2c0,0,0.1,0,0.2,0c0.1,0,0.3,0,0.4,0
				c0.2,0,0.4,0,0.5,0c0.2,0,0.4,0,0.6,0c0.2,0,0.5,0,0.8-0.1c0.3,0,0.6-0.1,0.8-0.2c0.6-0.2,0.9-0.7,0.9-1.2c0-0.3-0.1-0.5-0.2-0.6
				c-0.1-0.2-0.3-0.3-0.5-0.5c-0.1-0.1-0.3-0.2-0.5-0.3c-0.2-0.1-0.4-0.2-0.6-0.3c-0.2-0.1-0.4-0.2-0.6-0.3
				c-0.2-0.1-0.4-0.2-0.5-0.3c-0.4-0.3-0.7-0.6-1-0.9c-0.2-0.4-0.3-0.8-0.3-1.2c0-0.5,0.1-0.9,0.4-1.2c0.3-0.4,0.6-0.7,1-0.9
				c0.4-0.2,0.8-0.3,1.2-0.4c0.4-0.1,0.9-0.1,1.3-0.1c0.4,0,0.7,0,0.9,0c0.2,0,0.4,0,0.4,0l0.1,1.2c0,0-0.2,0-0.6,0
				c-0.3,0-0.7,0-1.1,0c-0.3,0-0.6,0-0.8,0.1c-0.3,0.1-0.5,0.1-0.7,0.2c-0.3,0.1-0.5,0.3-0.6,0.5c-0.1,0.2-0.2,0.4-0.2,0.6
				c0,0.3,0.1,0.5,0.2,0.7c0.2,0.2,0.4,0.3,0.6,0.5c0.1,0.1,0.3,0.2,0.5,0.3c0.2,0.1,0.4,0.2,0.6,0.3c0.2,0.1,0.4,0.2,0.6,0.3
				c0.2,0.1,0.3,0.2,0.4,0.2c0.4,0.3,0.8,0.6,1,0.9c0.2,0.3,0.3,0.7,0.3,1.2S493.1,191.8,492.9,192.1z"/>
			<path class="st17" d="M496.5,188.6c0,0.7,0.2,1.3,0.4,1.8c0.3,0.6,0.7,1,1.3,1.4c0.4,0.2,0.8,0.4,1.2,0.5c0.5,0.1,1,0.2,1.7,0.2
				c0.4,0,0.7,0,1,0c0.3,0,0.5,0,0.5,0l-0.2,1.2c-0.1,0-0.2,0-0.5,0c-0.3,0-0.6,0-1,0c-1,0-1.9-0.1-2.6-0.4
				c-0.7-0.3-1.3-0.6-1.8-1.1c-0.4-0.4-0.8-0.9-1.1-1.5s-0.4-1.2-0.4-2c0-0.7,0.1-1.4,0.3-2c0.2-0.6,0.5-1.1,1-1.6
				c0.4-0.4,0.8-0.8,1.4-1c0.5-0.2,1.1-0.3,1.7-0.3c1.1,0,2.1,0.4,2.7,1.1c0.4,0.4,0.6,0.9,0.8,1.5c0.2,0.6,0.3,1.3,0.3,2.1H496.5z
				 M501,185.7c-0.4-0.4-1-0.7-1.7-0.7c-0.7,0-1.3,0.2-1.8,0.7c-0.5,0.4-0.8,1-1,1.8h5.2C501.7,186.7,501.5,186.1,501,185.7z"/>
			<path class="st17" d="M513,184.6c0,0.3,0,0.7,0,1.3c0,0.6,0,1.1,0,1.6s0,1,0,1.5c0,0.7,0,1.4,0,2.1c0,0.7,0,1.3,0,1.9
				c0,1.1-0.2,1.9-0.5,2.5c-0.4,0.6-0.9,1.1-1.6,1.5c-0.5,0.3-1.2,0.5-2,0.6c-0.8,0.2-1.7,0.2-2.8,0.2l-0.2-1.2c0.7,0,1.4-0.1,2-0.1
				c0.6-0.1,1.1-0.2,1.6-0.4c0.7-0.3,1.2-0.6,1.5-1.1c0.3-0.5,0.4-1,0.5-1.7h-0.4c-0.7,0-1.5-0.1-2.3-0.3c-0.8-0.2-1.5-0.5-2-0.8
				c-0.6-0.4-1-0.9-1.3-1.4c-0.3-0.6-0.5-1.3-0.5-2.2c0-0.9,0.2-1.7,0.7-2.3c0.5-0.7,1.1-1.2,1.9-1.6c0.6-0.3,1.2-0.5,1.9-0.6
				c0.7-0.1,1.5-0.2,2.5-0.2h1.1C513,184.1,513,184.3,513,184.6z M511.6,187.4c0-0.7,0-1.4,0-2.1h-0.3c-0.6,0-1.1,0-1.5,0.1
				c-0.4,0.1-0.9,0.2-1.4,0.4c-0.7,0.3-1.1,0.7-1.5,1.2c-0.3,0.5-0.5,1.1-0.5,1.8c0,0.7,0.2,1.3,0.5,1.8c0.3,0.5,0.8,0.9,1.4,1.1
				c0.4,0.2,0.8,0.3,1.3,0.4c0.5,0.1,1,0.2,1.6,0.2h0.3c0,0,0-0.1,0-0.3c0-0.2,0-0.4,0-0.7c0-0.3,0-0.6,0-1c0-0.4,0-0.8,0-1.2
				C511.6,188.6,511.6,188.1,511.6,187.4z"/>
			<path class="st17" d="M522.8,193.6v-1.1c-0.2,0.1-0.5,0.3-0.7,0.4c-0.3,0.1-0.6,0.3-0.9,0.5c-0.7,0.3-1.3,0.5-1.9,0.5
				c-0.9,0-1.5-0.3-2-0.8c-0.5-0.5-0.7-1.2-0.7-2.2c0-0.3,0-0.5,0-0.8s0-0.6,0-1c0-0.3,0-0.6,0-0.9c0-0.3,0-0.5,0-0.6
				c0-0.3,0-0.6,0-1c0-0.4,0-0.7,0-1.1c0-0.4,0-0.7,0-1c0-0.2,0-0.4,0-0.4h1.5c0,0,0,0.2,0,0.4c0,0.2,0,0.5,0,0.9c0,0.4,0,0.8,0,1.1
				c0,0.3,0,0.6,0,0.8v1.6c0,0.3,0,0.6,0,0.8c0,0.2,0,0.4,0,0.5c0,0.7,0.1,1.3,0.4,1.6c0.2,0.3,0.6,0.5,1.2,0.5s1.2-0.1,1.9-0.4
				c0.7-0.3,1.1-0.6,1.5-0.8c0-0.1,0-0.4,0-1c0-0.6,0-1.4,0-2.3c0-0.3,0-0.7,0-1.1c0-0.4,0-0.8,0-1.3c0-0.5,0-0.8,0-1.1
				c0-0.3,0-0.4,0-0.4h1.5c0,0.1,0,0.2,0,0.3c0,0.2,0,0.4,0,0.7c0,0.3,0,0.7,0,1.2c0,0.5,0,1.1,0,1.8v2.1c0,0.3,0,0.7,0,1.3
				c0,0.5,0,1.2,0,2H522.8z"/>
			<path class="st17" d="M531.6,185.8c-0.7,0.3-1.5,0.6-2.5,1c0,0,0,0.1,0,0.3c0,0.2,0,0.4,0,0.7v1.6c0,0.4,0,0.8,0,1.2
				c0,0.4,0,0.9,0,1.4c0,0.5,0,0.9,0,1.2c0,0.3,0,0.4,0,0.5h-1.5c0-0.1,0-0.2,0-0.3c0-0.2,0-0.4,0-0.7c0-0.3,0-0.7,0-1.2
				c0-0.5,0-1.1,0-1.9c0-0.3,0-0.6,0-1c0-0.4,0-0.9,0-1.4c0-0.5,0-1,0-1.5c0-0.5,0-1,0-1.4h1.5v1.4l0,0c0.3-0.2,0.7-0.4,1.1-0.6
				c0.4-0.2,0.7-0.3,1-0.5c0.3-0.1,0.6-0.3,0.9-0.4c0.3-0.1,0.5-0.2,0.7-0.2l0.3,1.3C532.9,185.3,532.4,185.5,531.6,185.8z"/>
			<path class="st17" d="M535.2,182.3v-1.6h1.7v1.6H535.2z M535.3,193.6c0-0.1,0-0.2,0-0.5c0-0.3,0-0.7,0-1.3c0-0.6,0-1.1,0-1.6
				c0-0.5,0-0.9,0-1.2c0-0.7,0-1.4,0-2.1c0-0.8,0-1.7,0-2.7h1.5c0,0.9,0,1.7,0,2.5c0,0.8,0,1.5,0,2.1c0,0.7,0,1.4,0,2
				c0,0.6,0,1.1,0,1.5c0,0.4,0,0.8,0,1c0,0.2,0,0.4,0,0.4H535.3z"/>
			<path class="st17" d="M546.7,193.8c-0.6,0-1.1,0-1.6,0c-0.5,0-0.9-0.1-1.2-0.1c-0.7-0.1-1.3-0.3-2-0.6c-0.8-0.4-1.5-0.9-1.9-1.6
				c-0.4-0.7-0.6-1.4-0.6-2.2c0-1,0.2-1.8,0.7-2.5c0.5-0.7,1.2-1.3,2.1-1.7c0.5-0.3,1.2-0.4,1.8-0.6c0.7-0.1,1.4-0.2,2-0.2l0-4.3
				h1.5c0,0.1,0,0.3,0,0.8c0,0.4,0,1.1,0,1.9c0,0.8,0,1.6,0,2.5c0,0.8,0,1.6,0,2.5c0,1.3,0,2.5,0,3.6c0,1.1,0,2,0,2.8H546.7z
				 M546.1,185.5c-0.6,0-1.2,0.1-1.8,0.2c-0.6,0.1-1,0.3-1.4,0.4c-0.6,0.3-1.1,0.7-1.5,1.2c-0.3,0.5-0.5,1.2-0.5,1.9
				c0,0.7,0.2,1.2,0.5,1.7c0.3,0.5,0.7,0.8,1.2,1.1c0.4,0.2,0.9,0.4,1.5,0.5c0.5,0.1,1.1,0.2,1.7,0.2h0.3c0-0.1,0-0.5,0-1.4
				c0-0.9,0-2.2,0-4V185.5z"/>
			<path class="st17" d="M557.6,190.4c0,0.6,0,1.2,0,1.7c0,0.5,0,0.8,0,1.1c0,0.3,0,0.4,0,0.5c-0.1,0-0.4,0-0.9,0.1
				c-0.5,0-1.2,0.1-2,0.1c-0.5,0-1,0-1.6-0.1c-0.5-0.1-1-0.2-1.4-0.4c-0.5-0.2-0.9-0.5-1.2-0.9c-0.3-0.4-0.5-0.9-0.5-1.5
				c0-0.6,0.2-1.1,0.5-1.5c0.4-0.4,0.9-0.8,1.5-1.1c0.4-0.2,1-0.3,1.6-0.5c0.7-0.1,1.5-0.2,2.3-0.3c-0.1-1-0.5-1.6-1.3-1.9
				c-0.5-0.2-1.2-0.3-2.1-0.3c-0.3,0-0.5,0-0.7,0c-0.2,0-0.5,0-0.8,0.1l0.1-1.2c0.1,0,0.3,0,0.6,0c0.3,0,0.7,0,1.1,0
				c0.7,0,1.4,0.1,2,0.2c0.6,0.2,1.1,0.4,1.5,0.8c0.2,0.2,0.3,0.3,0.5,0.5c0.1,0.2,0.3,0.4,0.3,0.7c0.1,0.3,0.2,0.6,0.2,0.9
				c0,0.3,0.1,0.7,0.1,1.2C557.6,189.1,557.6,189.8,557.6,190.4z M556.2,188.6c-0.3,0-0.8,0.1-1.5,0.2c-0.7,0.1-1.3,0.2-1.7,0.4
				c-0.3,0.1-0.7,0.3-0.9,0.6c-0.3,0.3-0.4,0.6-0.4,1c0,0.4,0.1,0.8,0.3,1c0.2,0.3,0.6,0.5,1,0.6c0.3,0.1,0.6,0.2,1,0.2
				c0.4,0.1,0.8,0.1,1.2,0.1c0.1,0,0.3,0,0.5,0c0.2,0,0.4,0,0.6,0v-2.1V188.6z"/>
			<path class="st17" d="M567.4,193.8c-0.6,0-1.1,0-1.6,0c-0.5,0-0.9-0.1-1.2-0.1c-0.7-0.1-1.3-0.3-2-0.6c-0.8-0.4-1.5-0.9-1.9-1.6
				c-0.4-0.7-0.6-1.4-0.6-2.2c0-1,0.2-1.8,0.7-2.5c0.5-0.7,1.2-1.3,2.1-1.7c0.5-0.3,1.2-0.4,1.8-0.6c0.7-0.1,1.4-0.2,2-0.2l0-4.3
				h1.5c0,0.1,0,0.3,0,0.8c0,0.4,0,1.1,0,1.9c0,0.8,0,1.6,0,2.5c0,0.8,0,1.6,0,2.5c0,1.3,0,2.5,0,3.6c0,1.1,0,2,0,2.8H567.4z
				 M566.8,185.5c-0.6,0-1.2,0.1-1.8,0.2c-0.6,0.1-1,0.3-1.4,0.4c-0.6,0.3-1.1,0.7-1.5,1.2c-0.3,0.5-0.5,1.2-0.5,1.9
				c0,0.7,0.2,1.2,0.5,1.7c0.3,0.5,0.7,0.8,1.2,1.1c0.4,0.2,0.9,0.4,1.5,0.5c0.5,0.1,1.1,0.2,1.7,0.2h0.3c0-0.1,0-0.5,0-1.4
				c0-0.9,0-2.2,0-4V185.5z"/>
		</g>
		<g>
			<path class="st19" d="M446,201.7c0,0-0.2,0-0.4,0c-0.3,0-0.7,0-1.2,0c0,0.5,0,0.8,0,1c0,0.2,0,0.6,0,1c0,0.4,0,0.8,0,1.2
				c0,0.4,0,0.7,0,0.8h-0.6c0-0.1,0-0.4,0-0.8c0-0.4,0-0.8,0-1.2c0-0.4,0-0.7,0-0.9c0-0.2,0-0.6,0-1.1c-0.5,0-0.9,0-1.2,0
				c-0.3,0-0.5,0-0.5,0v-0.5c0.2,0,0.5,0,0.8,0c0.3,0,0.7,0,1,0c0.5,0,1,0,1.3,0c0.4,0,0.6,0,0.6,0V201.7z"/>
			<path class="st19" d="M450.4,201.2c0,0.4,0,0.8,0,1.1c0,0.3,0,0.5,0,0.7c0,0.3,0,0.5,0,0.6c0,0.2,0,0.3,0,0.5
				c0,0.3,0,0.5-0.1,0.7c-0.1,0.2-0.2,0.4-0.3,0.5c-0.2,0.1-0.3,0.3-0.6,0.3c-0.2,0.1-0.5,0.1-0.8,0.1c-0.3,0-0.6,0-0.8-0.1
				c-0.2-0.1-0.4-0.2-0.6-0.3c-0.2-0.1-0.3-0.3-0.3-0.5c-0.1-0.2-0.1-0.4-0.1-0.7c0-0.1,0-0.3,0-0.5c0-0.2,0-0.4,0-0.6
				c0-0.2,0-0.4,0-0.7c0-0.3,0-0.6,0-1.1h0.6c0,0.1,0,0.2,0,0.6c0,0.3,0,0.7,0,1.3c0,0.2,0,0.3,0,0.5c0,0.2,0,0.3,0,0.5
				c0,0.4,0.1,0.7,0.4,0.9c0.2,0.2,0.5,0.3,0.9,0.3c0.4,0,0.8-0.1,1-0.3c0.2-0.2,0.3-0.5,0.3-0.9c0-0.2,0-0.4,0-0.5
				c0-0.2,0-0.3,0-0.5c0-0.5,0-1,0-1.3c0-0.3,0-0.5,0-0.6H450.4z"/>
			<path class="st19" d="M457.1,205.4l-0.4,0.3c0-0.1-0.2-0.2-0.5-0.6c-0.3-0.3-0.8-0.9-1.4-1.6l0,0c0.1,0,0.2-0.1,0.3-0.1
				c0.1-0.1,0.3-0.2,0.4-0.2c0.1-0.1,0.2-0.2,0.2-0.3c0.1-0.1,0.1-0.3,0.1-0.4c0-0.2,0-0.3-0.1-0.4c-0.1-0.1-0.2-0.2-0.4-0.3
				c-0.1,0-0.3-0.1-0.4-0.1c-0.1,0-0.3,0-0.4,0c-0.1,0-0.1,0-0.2,0c0,0-0.1,0-0.1,0c0,0.4,0,0.8,0,1.1c0,0.3,0,0.6,0,0.7
				c0,0.3,0,0.7,0,1.2c0,0.5,0,0.9,0,1h-0.6c0-0.1,0-0.4,0-0.8c0-0.4,0-0.9,0-1.4c0-0.1,0-0.3,0-0.6c0-0.3,0-0.8,0-1.6
				c0,0,0.1,0,0.3,0c0.2,0,0.4,0,0.6,0c0.2,0,0.4,0,0.6,0c0.2,0,0.4,0.1,0.5,0.1c0.2,0.1,0.4,0.2,0.5,0.4c0.1,0.2,0.2,0.4,0.2,0.6
				c0,0.3-0.1,0.6-0.3,0.8c-0.2,0.2-0.4,0.4-0.6,0.5v0c0.3,0.4,0.6,0.7,1,1.1C456.9,205.2,457.1,205.4,457.1,205.4z"/>
			<path class="st19" d="M460.8,205.7c0,0-0.2,0-0.4,0s-0.6,0-1,0c-0.3,0-0.5,0-0.8,0c-0.2,0-0.4,0-0.6,0c0-0.1,0-0.4,0-0.8
				c0-0.4,0-0.9,0-1.3c0-0.3,0-0.6,0-1c0-0.4,0-0.8,0-1.3c0.2,0,0.4,0,0.6,0c0.2,0,0.5,0,0.7,0c0.4,0,0.8,0,1,0c0.3,0,0.4,0,0.4,0
				v0.5c0,0-0.2,0-0.4,0c-0.3,0-0.6,0-1,0c-0.2,0-0.3,0-0.5,0c-0.2,0-0.3,0-0.4,0c0,0.3,0,0.5,0,0.8c0,0.3,0,0.5,0,0.7
				c0.1,0,0.2,0,0.4,0c0.1,0,0.3,0,0.4,0c0.4,0,0.7,0,1,0c0.3,0,0.5,0,0.5,0v0.5c0,0-0.2,0-0.6,0c-0.3,0-0.7,0-1,0
				c-0.1,0-0.2,0-0.4,0c-0.1,0-0.3,0-0.4,0c0,0.4,0,0.8,0,1c0,0.2,0,0.5,0,0.6c0.1,0,0.3,0,0.5,0c0.2,0,0.4,0,0.6,0
				c0.3,0,0.6,0,0.8,0c0.2,0,0.4,0,0.4,0V205.7z"/>
			<path class="st19" d="M464.3,204.4c0,0.2-0.1,0.4-0.2,0.6c-0.1,0.2-0.3,0.3-0.4,0.4c-0.2,0.1-0.4,0.2-0.6,0.2
				c-0.2,0.1-0.5,0.1-0.7,0.1c-0.1,0-0.3,0-0.4,0c-0.2,0-0.2,0-0.3,0l0-0.5c0,0,0.1,0,0.3,0c0.1,0,0.3,0,0.5,0c0.1,0,0.3,0,0.5,0
				c0.2,0,0.3-0.1,0.4-0.1c0.1-0.1,0.2-0.1,0.3-0.2c0.1-0.1,0.1-0.2,0.1-0.3c0-0.1,0-0.3-0.1-0.4c-0.1-0.1-0.2-0.2-0.3-0.3
				c-0.1-0.1-0.2-0.1-0.4-0.2c-0.2-0.1-0.3-0.2-0.5-0.2c-0.2-0.1-0.4-0.3-0.5-0.5c-0.1-0.2-0.1-0.3-0.1-0.5c0-0.2,0-0.4,0.1-0.5
				c0.1-0.1,0.2-0.3,0.3-0.4c0.1-0.1,0.3-0.2,0.5-0.2c0.2-0.1,0.4-0.1,0.7-0.1c0.1,0,0.3,0,0.4,0c0.1,0,0.2,0,0.2,0l0,0.5
				c0,0-0.1,0-0.2,0c-0.1,0-0.3,0-0.5,0c-0.1,0-0.3,0-0.4,0c-0.1,0-0.2,0.1-0.3,0.1c-0.1,0.1-0.2,0.1-0.2,0.2
				c-0.1,0.1-0.1,0.2-0.1,0.3c0,0.1,0,0.2,0.1,0.3c0.1,0.1,0.2,0.2,0.4,0.3c0.1,0.1,0.2,0.1,0.4,0.2c0.1,0.1,0.3,0.2,0.4,0.2
				c0.2,0.1,0.4,0.3,0.5,0.5C464.3,204,464.3,204.2,464.3,204.4z"/>
			<path class="st19" d="M468.3,202.7c0,0.3-0.1,0.6-0.3,0.9c-0.2,0.3-0.5,0.4-0.8,0.5c-0.2,0-0.3,0.1-0.5,0.1c-0.2,0-0.4,0-0.6,0
				l0,1.4h-0.6c0-0.1,0-0.4,0-0.7c0-0.4,0-0.9,0-1.7c0-0.2,0-0.5,0-0.9c0-0.3,0-0.7,0-1.2c0.1,0,0.2,0,0.3,0c0.1,0,0.2,0,0.2,0
				c0.4,0,0.7,0,1,0.1c0.3,0,0.5,0.1,0.7,0.3c0.2,0.1,0.4,0.3,0.5,0.5C468.3,202.2,468.3,202.5,468.3,202.7z M467.8,202.7
				c0-0.2-0.1-0.4-0.2-0.6c-0.1-0.2-0.3-0.3-0.5-0.4c-0.1-0.1-0.3-0.1-0.4-0.1c-0.2,0-0.3,0-0.5,0c0,0,0,0-0.1,0c0,0,0,0-0.1,0
				c0,0,0,0.2,0,0.5c0,0.3,0,0.6,0,0.7c0,0.2,0,0.4,0,0.6c0,0.2,0,0.4,0,0.4c0,0,0,0,0.1,0c0,0,0,0,0.1,0c0.1,0,0.3,0,0.5,0
				c0.2,0,0.3-0.1,0.4-0.1c0.2-0.1,0.4-0.2,0.5-0.4C467.7,203.2,467.8,203,467.8,202.7z"/>
			<path class="st19" d="M473.1,205.5l-0.5,0.3c0,0-0.1-0.2-0.2-0.5c-0.1-0.3-0.3-0.7-0.5-1.2h-2c-0.2,0.5-0.4,0.9-0.5,1.2
				c-0.1,0.3-0.2,0.4-0.2,0.5l-0.4-0.2c0.1-0.1,0.3-0.6,0.7-1.5c0.4-0.9,0.9-1.9,1.3-2.8h0.4c0.4,1,0.9,2,1.3,2.9
				C472.9,205,473.1,205.5,473.1,205.5z M471.7,203.7c-0.1-0.3-0.2-0.6-0.4-0.9c-0.1-0.3-0.3-0.6-0.4-0.9l0,0
				c-0.1,0.2-0.2,0.5-0.4,0.9c-0.2,0.4-0.3,0.6-0.4,0.9l0,0L471.7,203.7L471.7,203.7z"/>
			<path class="st19" d="M476.7,205.7c0,0-0.2,0-0.4,0c-0.3,0-0.6,0-1,0c-0.3,0-0.5,0-0.7,0c-0.2,0-0.4,0-0.6,0c0-0.4,0-0.8,0-1.2
				c0-0.4,0-0.8,0-1.2c0-0.6,0-1.1,0-1.4c0-0.3,0-0.6,0-0.7h0.6c0,0.3,0,0.6,0,1c0,0.4,0,0.7,0,0.9c0,0.6,0,1.1,0,1.5
				c0,0.4,0,0.6,0,0.6c0.1,0,0.2,0,0.3,0c0.1,0,0.2,0,0.4,0c0.4,0,0.7,0,1,0s0.5,0,0.5,0V205.7z"/>
			<path class="st19" d="M481.3,203.5c0,0.4-0.1,0.7-0.3,1c-0.2,0.3-0.4,0.5-0.7,0.7c-0.3,0.2-0.6,0.3-0.9,0.4
				c-0.3,0.1-0.7,0.1-1.1,0.1c-0.2,0-0.3,0-0.5,0c-0.1,0-0.2,0-0.2,0c0,0,0-0.3,0-0.8c0-0.5,0-1,0-1.4c0-0.2,0-0.5,0-0.9
				c0-0.4,0-0.8,0-1.4c0,0,0.1,0,0.3,0c0.2,0,0.3,0,0.3,0c0.5,0,0.9,0,1.2,0.1c0.4,0.1,0.7,0.2,1,0.4c0.3,0.2,0.6,0.5,0.7,0.7
				C481.3,202.8,481.3,203.1,481.3,203.5z M480.8,203.5c0-0.3-0.1-0.6-0.2-0.8c-0.1-0.2-0.3-0.4-0.6-0.6c-0.3-0.2-0.5-0.3-0.8-0.3
				c-0.3-0.1-0.6-0.1-0.8-0.1c0,0-0.1,0-0.1,0c0,0-0.1,0-0.1,0c0,0.4,0,0.6,0,0.9c0,0.2,0,0.4,0,0.6c0,0.1,0,0.3,0,0.7
				c0,0.4,0,0.9,0,1.5c0,0,0.1,0,0.1,0c0,0,0.1,0,0.1,0c0.3,0,0.6,0,0.9-0.1c0.3-0.1,0.5-0.2,0.7-0.3c0.3-0.2,0.5-0.3,0.6-0.6
				C480.7,204.1,480.8,203.8,480.8,203.5z"/>
			<path class="st19" d="M486.6,203.5c0,0.4-0.1,0.7-0.2,1c-0.1,0.3-0.3,0.5-0.5,0.7c-0.2,0.2-0.5,0.4-0.7,0.5
				c-0.2,0.1-0.5,0.1-0.8,0.1c-0.3,0-0.5,0-0.8-0.1s-0.5-0.2-0.7-0.4c-0.2-0.2-0.4-0.5-0.5-0.8c-0.1-0.3-0.2-0.7-0.2-1
				c0-0.3,0.1-0.7,0.2-0.9c0.1-0.3,0.3-0.5,0.5-0.8c0.2-0.2,0.4-0.4,0.7-0.5c0.3-0.1,0.5-0.2,0.8-0.2c0.3,0,0.6,0.1,0.8,0.2
				c0.3,0.1,0.5,0.3,0.7,0.4c0.2,0.2,0.4,0.5,0.5,0.8C486.5,202.8,486.6,203.1,486.6,203.5z M486,203.5c0-0.3,0-0.6-0.1-0.9
				c-0.1-0.3-0.2-0.5-0.4-0.7c-0.1-0.1-0.3-0.2-0.4-0.3c-0.2-0.1-0.4-0.1-0.6-0.1c-0.2,0-0.4,0-0.6,0.1c-0.2,0.1-0.3,0.2-0.5,0.3
				c-0.2,0.2-0.3,0.4-0.4,0.7c-0.1,0.3-0.1,0.5-0.1,0.8c0,0.3,0.1,0.6,0.2,0.9c0.1,0.3,0.2,0.5,0.4,0.6c0.1,0.1,0.3,0.2,0.5,0.3
				c0.2,0.1,0.4,0.1,0.6,0.1c0.2,0,0.4,0,0.6-0.1c0.2-0.1,0.3-0.2,0.5-0.3c0.2-0.2,0.3-0.4,0.4-0.6C485.9,204.1,486,203.8,486,203.5
				z"/>
			<path class="st19" d="M492.3,205.7c0,0-0.2,0-0.4,0s-0.6,0-1,0c-0.3,0-0.5,0-0.8,0c-0.2,0-0.4,0-0.6,0c0-0.1,0-0.4,0-0.8
				c0-0.4,0-0.9,0-1.3c0-0.3,0-0.6,0-1c0-0.4,0-0.8,0-1.3c0.2,0,0.4,0,0.6,0c0.2,0,0.5,0,0.7,0c0.4,0,0.8,0,1,0c0.3,0,0.4,0,0.4,0
				v0.5c0,0-0.2,0-0.4,0c-0.3,0-0.6,0-1,0c-0.2,0-0.3,0-0.5,0c-0.2,0-0.3,0-0.4,0c0,0.3,0,0.5,0,0.8c0,0.3,0,0.5,0,0.7
				c0.1,0,0.2,0,0.4,0c0.1,0,0.3,0,0.4,0c0.4,0,0.7,0,1,0c0.3,0,0.5,0,0.5,0v0.5c0,0-0.2,0-0.6,0c-0.3,0-0.7,0-1,0
				c-0.1,0-0.2,0-0.4,0c-0.1,0-0.3,0-0.4,0c0,0.4,0,0.8,0,1c0,0.2,0,0.5,0,0.6c0.1,0,0.3,0,0.5,0c0.2,0,0.4,0,0.6,0
				c0.3,0,0.6,0,0.8,0c0.2,0,0.4,0,0.4,0V205.7z"/>
			<path class="st19" d="M497.4,201.2c0,0.3,0,0.7,0,1.2c0,0.4,0,0.8,0,1c0,0.6,0,1.1,0,1.5c0,0.4,0,0.6,0,0.6l-0.4,0.2
				c-0.7-0.9-1.3-1.7-1.9-2.5c-0.6-0.7-0.9-1.2-1-1.3l0,0c0,0.6,0,1.3,0,2.2c0,0.9,0,1.4,0,1.5h-0.5c0-0.1,0-0.3,0-0.6
				c0-0.3,0-0.8,0-1.4c0-0.2,0-0.6,0-1c0-0.4,0-0.8,0-1.3l0.5-0.2c0,0.1,0.4,0.5,1,1.3c0.6,0.8,1.2,1.6,1.8,2.3l0,0
				c0-0.3,0-0.9,0-1.7c0-0.8,0-1.4,0-1.8H497.4z"/>
			<path class="st19" d="M504.1,205.4l-0.4,0.3c0-0.1-0.2-0.2-0.5-0.6c-0.3-0.3-0.8-0.9-1.4-1.6l0,0c0.1,0,0.2-0.1,0.3-0.1
				c0.1-0.1,0.3-0.2,0.4-0.2c0.1-0.1,0.2-0.2,0.2-0.3c0.1-0.1,0.1-0.3,0.1-0.4c0-0.2,0-0.3-0.1-0.4c-0.1-0.1-0.2-0.2-0.4-0.3
				c-0.1,0-0.3-0.1-0.4-0.1c-0.1,0-0.3,0-0.4,0c-0.1,0-0.1,0-0.2,0c0,0-0.1,0-0.1,0c0,0.4,0,0.8,0,1.1c0,0.3,0,0.6,0,0.7
				c0,0.3,0,0.7,0,1.2c0,0.5,0,0.9,0,1h-0.6c0-0.1,0-0.4,0-0.8c0-0.4,0-0.9,0-1.4c0-0.1,0-0.3,0-0.6c0-0.3,0-0.8,0-1.6
				c0,0,0.1,0,0.3,0c0.2,0,0.4,0,0.6,0c0.2,0,0.4,0,0.6,0c0.2,0,0.4,0.1,0.5,0.1c0.2,0.1,0.4,0.2,0.5,0.4c0.1,0.2,0.2,0.4,0.2,0.6
				c0,0.3-0.1,0.6-0.3,0.8c-0.2,0.2-0.4,0.4-0.6,0.5v0c0.3,0.4,0.6,0.7,1,1.1C503.9,205.2,504.1,205.4,504.1,205.4z"/>
			<path class="st19" d="M505.6,205.7H505c0-0.1,0-0.4,0-0.7c0-0.3,0-0.8,0-1.5c0-0.3,0-0.6,0-1c0-0.4,0-0.8,0-1.3h0.6
				c0,0.3,0,0.7,0,1.1c0,0.4,0,0.8,0,1c0,0.7,0,1.2,0,1.6C505.6,205.3,505.6,205.5,505.6,205.7z"/>
			<path class="st19" d="M510,205.7c0,0-0.2,0-0.4,0s-0.6,0-1,0c-0.3,0-0.5,0-0.8,0c-0.2,0-0.4,0-0.6,0c0-0.1,0-0.4,0-0.8
				c0-0.4,0-0.9,0-1.3c0-0.3,0-0.6,0-1c0-0.4,0-0.8,0-1.3c0.2,0,0.4,0,0.6,0c0.2,0,0.5,0,0.7,0c0.4,0,0.8,0,1,0c0.3,0,0.4,0,0.4,0
				v0.5c0,0-0.2,0-0.4,0c-0.3,0-0.6,0-1,0c-0.2,0-0.3,0-0.5,0c-0.2,0-0.3,0-0.4,0c0,0.3,0,0.5,0,0.8c0,0.3,0,0.5,0,0.7
				c0.1,0,0.2,0,0.4,0c0.1,0,0.3,0,0.4,0c0.4,0,0.7,0,1,0c0.3,0,0.5,0,0.5,0v0.5c0,0-0.2,0-0.6,0c-0.3,0-0.7,0-1,0
				c-0.1,0-0.2,0-0.4,0c-0.1,0-0.3,0-0.4,0c0,0.4,0,0.8,0,1c0,0.2,0,0.5,0,0.6c0.1,0,0.3,0,0.5,0c0.2,0,0.4,0,0.6,0
				c0.3,0,0.6,0,0.8,0c0.2,0,0.4,0,0.4,0V205.7z"/>
			<path class="st19" d="M513.5,204.4c0,0.2-0.1,0.4-0.2,0.6c-0.1,0.2-0.3,0.3-0.4,0.4c-0.2,0.1-0.4,0.2-0.6,0.2
				c-0.2,0.1-0.5,0.1-0.7,0.1c-0.1,0-0.3,0-0.4,0c-0.2,0-0.2,0-0.3,0l0-0.5c0,0,0.1,0,0.3,0c0.1,0,0.3,0,0.5,0c0.1,0,0.3,0,0.5,0
				c0.2,0,0.3-0.1,0.4-0.1c0.1-0.1,0.2-0.1,0.3-0.2c0.1-0.1,0.1-0.2,0.1-0.3c0-0.1,0-0.3-0.1-0.4c-0.1-0.1-0.2-0.2-0.3-0.3
				c-0.1-0.1-0.2-0.1-0.4-0.2c-0.2-0.1-0.3-0.2-0.5-0.2c-0.2-0.1-0.4-0.3-0.5-0.5c-0.1-0.2-0.1-0.3-0.1-0.5c0-0.2,0-0.4,0.1-0.5
				c0.1-0.1,0.2-0.3,0.3-0.4c0.1-0.1,0.3-0.2,0.5-0.2c0.2-0.1,0.4-0.1,0.7-0.1c0.1,0,0.3,0,0.4,0c0.1,0,0.2,0,0.2,0l0,0.5
				c0,0-0.1,0-0.2,0c-0.1,0-0.3,0-0.5,0c-0.1,0-0.3,0-0.4,0c-0.1,0-0.2,0.1-0.3,0.1c-0.1,0.1-0.2,0.1-0.2,0.2
				c-0.1,0.1-0.1,0.2-0.1,0.3c0,0.1,0,0.2,0.1,0.3c0.1,0.1,0.2,0.2,0.4,0.3c0.1,0.1,0.2,0.1,0.4,0.2c0.1,0.1,0.3,0.2,0.4,0.2
				c0.2,0.1,0.4,0.3,0.5,0.5C513.5,204,513.5,204.2,513.5,204.4z"/>
			<path class="st19" d="M518,203.4c0,0.2,0,0.3,0,0.6c0,0.2,0,0.4,0,0.5c0,0.2,0,0.5,0,0.8c0,0.3,0,0.4,0,0.5c0,0-0.1,0-0.2,0
				c-0.1,0-0.2,0-0.3,0c-0.5,0-1-0.1-1.4-0.2c-0.4-0.1-0.8-0.3-1.1-0.6c-0.2-0.2-0.3-0.4-0.4-0.6c-0.1-0.3-0.2-0.5-0.2-0.9
				c0-0.4,0.1-0.8,0.3-1.1c0.2-0.3,0.5-0.6,0.9-0.8c0.3-0.1,0.5-0.2,0.9-0.3c0.3-0.1,0.7-0.1,1-0.1c0.1,0,0.1,0,0.2,0
				c0,0,0.1,0,0.1,0l0,0.5c0,0,0,0-0.1,0c-0.1,0-0.1,0-0.2,0c-0.3,0-0.7,0-0.9,0.1c-0.3,0.1-0.5,0.1-0.7,0.3
				c-0.3,0.2-0.5,0.4-0.7,0.6c-0.2,0.3-0.2,0.5-0.2,0.8c0,0.4,0.1,0.7,0.3,0.9c0.2,0.2,0.4,0.4,0.7,0.6c0.2,0.1,0.5,0.2,0.8,0.3
				c0.3,0,0.5,0.1,0.8,0.1c0,0,0-0.2,0-0.5c0-0.3,0-0.8,0-1.4H518z"/>
			<path class="st19" d="M523.4,203.5c0,0.4-0.1,0.7-0.2,1c-0.1,0.3-0.3,0.5-0.5,0.7c-0.2,0.2-0.5,0.4-0.7,0.5
				c-0.2,0.1-0.5,0.1-0.8,0.1c-0.3,0-0.5,0-0.8-0.1s-0.5-0.2-0.7-0.4c-0.2-0.2-0.4-0.5-0.5-0.8c-0.1-0.3-0.2-0.7-0.2-1
				c0-0.3,0.1-0.7,0.2-0.9s0.3-0.5,0.5-0.8c0.2-0.2,0.4-0.4,0.7-0.5c0.3-0.1,0.5-0.2,0.8-0.2c0.3,0,0.6,0.1,0.8,0.2
				c0.3,0.1,0.5,0.3,0.7,0.4c0.2,0.2,0.4,0.5,0.5,0.8C523.3,202.8,523.4,203.1,523.4,203.5z M522.8,203.5c0-0.3,0-0.6-0.1-0.9
				c-0.1-0.3-0.2-0.5-0.4-0.7c-0.1-0.1-0.3-0.2-0.4-0.3c-0.2-0.1-0.4-0.1-0.6-0.1c-0.2,0-0.4,0-0.6,0.1c-0.2,0.1-0.3,0.2-0.5,0.3
				c-0.2,0.2-0.3,0.4-0.4,0.7c-0.1,0.3-0.1,0.5-0.1,0.8c0,0.3,0.1,0.6,0.2,0.9c0.1,0.3,0.2,0.5,0.4,0.6c0.1,0.1,0.3,0.2,0.5,0.3
				c0.2,0.1,0.4,0.1,0.6,0.1c0.2,0,0.4,0,0.6-0.1c0.2-0.1,0.3-0.2,0.5-0.3c0.2-0.2,0.3-0.4,0.4-0.6
				C522.8,204.1,522.8,203.8,522.8,203.5z"/>
			<path class="st19" d="M526.8,204.4c0,0.2-0.1,0.4-0.2,0.6c-0.1,0.2-0.3,0.3-0.4,0.4c-0.2,0.1-0.4,0.2-0.6,0.2
				c-0.2,0.1-0.5,0.1-0.7,0.1c-0.1,0-0.3,0-0.4,0c-0.2,0-0.2,0-0.3,0l0-0.5c0,0,0.1,0,0.3,0c0.1,0,0.3,0,0.5,0c0.1,0,0.3,0,0.5,0
				c0.2,0,0.3-0.1,0.4-0.1c0.1-0.1,0.2-0.1,0.3-0.2c0.1-0.1,0.1-0.2,0.1-0.3c0-0.1,0-0.3-0.1-0.4c-0.1-0.1-0.2-0.2-0.3-0.3
				c-0.1-0.1-0.2-0.1-0.4-0.2c-0.2-0.1-0.3-0.2-0.5-0.2c-0.2-0.1-0.4-0.3-0.5-0.5c-0.1-0.2-0.1-0.3-0.1-0.5c0-0.2,0-0.4,0.1-0.5
				c0.1-0.1,0.2-0.3,0.3-0.4c0.1-0.1,0.3-0.2,0.5-0.2c0.2-0.1,0.4-0.1,0.7-0.1c0.1,0,0.3,0,0.4,0c0.1,0,0.2,0,0.2,0l0,0.5
				c0,0-0.1,0-0.2,0c-0.1,0-0.3,0-0.5,0c-0.1,0-0.3,0-0.4,0c-0.1,0-0.2,0.1-0.3,0.1c-0.1,0.1-0.2,0.1-0.2,0.2
				c-0.1,0.1-0.1,0.2-0.1,0.3c0,0.1,0,0.2,0.1,0.3c0.1,0.1,0.2,0.2,0.4,0.3c0.1,0.1,0.2,0.1,0.4,0.2c0.2,0.1,0.3,0.2,0.4,0.2
				c0.2,0.1,0.4,0.3,0.5,0.5C526.8,204,526.8,204.2,526.8,204.4z"/>
			<path class="st19" d="M532.5,205.7c0,0-0.2,0-0.4,0c-0.3,0-0.6,0-1,0c-0.3,0-0.5,0-0.7,0c-0.2,0-0.4,0-0.6,0c0-0.4,0-0.8,0-1.2
				c0-0.4,0-0.8,0-1.2c0-0.6,0-1.1,0-1.4c0-0.3,0-0.6,0-0.7h0.6c0,0.3,0,0.6,0,1c0,0.4,0,0.7,0,0.9c0,0.6,0,1.1,0,1.5
				c0,0.4,0,0.6,0,0.6c0.1,0,0.2,0,0.3,0c0.1,0,0.2,0,0.4,0c0.4,0,0.7,0,1,0s0.5,0,0.5,0V205.7z"/>
			<path class="st19" d="M537.1,205.5l-0.5,0.3c0,0-0.1-0.2-0.2-0.5c-0.1-0.3-0.3-0.7-0.5-1.2h-2c-0.2,0.5-0.4,0.9-0.5,1.2
				c-0.1,0.3-0.2,0.4-0.2,0.5l-0.4-0.2c0.1-0.1,0.3-0.6,0.7-1.5c0.4-0.9,0.9-1.9,1.3-2.8h0.4c0.4,1,0.9,2,1.3,2.9
				C536.9,205,537.1,205.5,537.1,205.5z M535.7,203.7c-0.1-0.3-0.2-0.6-0.4-0.9c-0.1-0.3-0.3-0.6-0.4-0.9l0,0
				c-0.1,0.2-0.2,0.5-0.4,0.9c-0.2,0.4-0.3,0.6-0.4,0.9l0,0L535.7,203.7L535.7,203.7z"/>
			<path class="st19" d="M541.1,204.4c0,0.2-0.1,0.4-0.2,0.6c-0.1,0.2-0.3,0.3-0.5,0.4c-0.2,0.1-0.4,0.2-0.6,0.2
				c-0.2,0-0.5,0.1-0.8,0.1c-0.2,0-0.4,0-0.7,0c-0.2,0-0.4,0-0.4,0c0-0.4,0-0.8,0-1.2c0-0.4,0-0.7,0-1.1c0-0.7,0-1.2,0-1.6
				c0-0.4,0-0.6,0-0.6c0,0,0.2,0,0.4,0c0.2,0,0.4,0,0.6,0c0.2,0,0.4,0,0.6,0c0.2,0,0.4,0.1,0.5,0.1c0.2,0.1,0.4,0.2,0.5,0.3
				c0.1,0.1,0.2,0.3,0.2,0.6c0,0.2-0.1,0.4-0.2,0.6c-0.1,0.2-0.3,0.3-0.5,0.4v0c0.2,0,0.3,0,0.4,0.1c0.1,0.1,0.3,0.1,0.4,0.3
				c0.1,0.1,0.2,0.2,0.2,0.3C541.1,204.1,541.1,204.2,541.1,204.4z M540.5,204.4c0-0.1,0-0.2-0.1-0.3s-0.1-0.2-0.2-0.3
				c-0.1-0.1-0.2-0.1-0.3-0.2c-0.1,0-0.3-0.1-0.4-0.1c-0.1,0-0.2,0-0.3,0c-0.1,0-0.1,0-0.2,0l-0.1-0.4c0.2,0,0.3,0,0.4-0.1
				c0.1,0,0.2-0.1,0.3-0.2c0.1-0.1,0.2-0.2,0.2-0.3c0.1-0.1,0.1-0.2,0.1-0.3c0-0.1,0-0.3-0.1-0.4c-0.1-0.1-0.2-0.2-0.3-0.2
				c-0.1,0-0.2-0.1-0.4-0.1s-0.3,0-0.5,0c-0.1,0-0.2,0-0.3,0s-0.1,0-0.2,0c0,0.3,0,0.7,0,1c0,0.4,0,0.6,0,0.8c0,0.4,0,0.8,0,1.2
				c0,0.4,0,0.6,0,0.6c0,0,0.1,0,0.2,0c0.1,0,0.1,0,0.2,0c0.3,0,0.5,0,0.7,0c0.2,0,0.4-0.1,0.6-0.2c0.1-0.1,0.2-0.2,0.3-0.3
				C540.5,204.7,540.5,204.5,540.5,204.4z"/>
			<path class="st19" d="M546.3,203.5c0,0.4-0.1,0.7-0.2,1c-0.1,0.3-0.3,0.5-0.5,0.7c-0.2,0.2-0.5,0.4-0.7,0.5
				c-0.2,0.1-0.5,0.1-0.8,0.1c-0.3,0-0.5,0-0.8-0.1c-0.2-0.1-0.5-0.2-0.7-0.4c-0.2-0.2-0.4-0.5-0.5-0.8c-0.1-0.3-0.2-0.7-0.2-1
				c0-0.3,0.1-0.7,0.2-0.9c0.1-0.3,0.3-0.5,0.5-0.8c0.2-0.2,0.4-0.4,0.7-0.5c0.3-0.1,0.5-0.2,0.8-0.2c0.3,0,0.6,0.1,0.8,0.2
				s0.5,0.3,0.7,0.4c0.2,0.2,0.4,0.5,0.5,0.8C546.2,202.8,546.3,203.1,546.3,203.5z M545.7,203.5c0-0.3,0-0.6-0.1-0.9
				s-0.2-0.5-0.4-0.7c-0.1-0.1-0.3-0.2-0.4-0.3c-0.2-0.1-0.4-0.1-0.6-0.1c-0.2,0-0.4,0-0.6,0.1c-0.2,0.1-0.3,0.2-0.5,0.3
				c-0.2,0.2-0.3,0.4-0.4,0.7c-0.1,0.3-0.1,0.5-0.1,0.8c0,0.3,0.1,0.6,0.2,0.9s0.2,0.5,0.4,0.6c0.1,0.1,0.3,0.2,0.5,0.3
				c0.2,0.1,0.4,0.1,0.6,0.1s0.4,0,0.6-0.1c0.2-0.1,0.3-0.2,0.5-0.3c0.2-0.2,0.3-0.4,0.4-0.6C545.6,204.1,545.7,203.8,545.7,203.5z"
				/>
			<path class="st19" d="M550.9,205.4l-0.4,0.3c0-0.1-0.2-0.2-0.5-0.6c-0.3-0.3-0.8-0.9-1.4-1.6l0,0c0.1,0,0.2-0.1,0.3-0.1
				s0.3-0.2,0.4-0.2c0.1-0.1,0.2-0.2,0.2-0.3c0.1-0.1,0.1-0.3,0.1-0.4c0-0.2,0-0.3-0.1-0.4c-0.1-0.1-0.2-0.2-0.4-0.3
				c-0.1,0-0.3-0.1-0.4-0.1c-0.1,0-0.3,0-0.4,0c-0.1,0-0.1,0-0.2,0c0,0-0.1,0-0.1,0c0,0.4,0,0.8,0,1.1c0,0.3,0,0.6,0,0.7
				c0,0.3,0,0.7,0,1.2c0,0.5,0,0.9,0,1h-0.6c0-0.1,0-0.4,0-0.8c0-0.4,0-0.9,0-1.4c0-0.1,0-0.3,0-0.6c0-0.3,0-0.8,0-1.6
				c0,0,0.1,0,0.3,0c0.2,0,0.4,0,0.6,0c0.2,0,0.4,0,0.6,0c0.2,0,0.4,0.1,0.5,0.1c0.2,0.1,0.4,0.2,0.5,0.4c0.1,0.2,0.2,0.4,0.2,0.6
				c0,0.3-0.1,0.6-0.3,0.8c-0.2,0.2-0.4,0.4-0.6,0.5v0c0.3,0.4,0.6,0.7,1,1.1C550.7,205.2,550.9,205.4,550.9,205.4z"/>
			<path class="st19" d="M555.5,205.5l-0.5,0.3c0,0-0.1-0.2-0.2-0.5c-0.1-0.3-0.3-0.7-0.5-1.2h-2c-0.2,0.5-0.4,0.9-0.5,1.2
				c-0.1,0.3-0.2,0.4-0.2,0.5l-0.4-0.2c0.1-0.1,0.3-0.6,0.7-1.5c0.4-0.9,0.9-1.9,1.3-2.8h0.4c0.4,1,0.9,2,1.3,2.9
				C555.3,205,555.5,205.5,555.5,205.5z M554.1,203.7c-0.1-0.3-0.2-0.6-0.4-0.9c-0.1-0.3-0.3-0.6-0.4-0.9l0,0
				c-0.1,0.2-0.2,0.5-0.4,0.9c-0.2,0.4-0.3,0.6-0.4,0.9l0,0L554.1,203.7L554.1,203.7z"/>
			<path class="st19" d="M559.1,205.7c0,0-0.2,0-0.4,0c-0.3,0-0.6,0-1,0c-0.3,0-0.5,0-0.7,0c-0.2,0-0.4,0-0.6,0c0-0.4,0-0.8,0-1.2
				c0-0.4,0-0.8,0-1.2c0-0.6,0-1.1,0-1.4c0-0.3,0-0.6,0-0.7h0.6c0,0.3,0,0.6,0,1c0,0.4,0,0.7,0,0.9c0,0.6,0,1.1,0,1.5
				c0,0.4,0,0.6,0,0.6c0.1,0,0.2,0,0.3,0c0.1,0,0.2,0,0.4,0c0.4,0,0.7,0,1,0c0.3,0,0.5,0,0.5,0V205.7z"/>
			<path class="st19" d="M562.8,205.7c0,0-0.2,0-0.4,0s-0.6,0-1,0c-0.3,0-0.5,0-0.8,0c-0.2,0-0.4,0-0.6,0c0-0.1,0-0.4,0-0.8
				c0-0.4,0-0.9,0-1.3c0-0.3,0-0.6,0-1c0-0.4,0-0.8,0-1.3c0.2,0,0.4,0,0.6,0c0.2,0,0.5,0,0.7,0c0.4,0,0.8,0,1,0c0.3,0,0.4,0,0.4,0
				v0.5c0,0-0.2,0-0.4,0c-0.3,0-0.6,0-1,0c-0.2,0-0.3,0-0.5,0c-0.2,0-0.3,0-0.4,0c0,0.3,0,0.5,0,0.8c0,0.3,0,0.5,0,0.7
				c0.1,0,0.2,0,0.4,0c0.1,0,0.3,0,0.4,0c0.4,0,0.7,0,1,0c0.3,0,0.5,0,0.5,0v0.5c0,0-0.2,0-0.6,0c-0.3,0-0.7,0-1,0
				c-0.1,0-0.2,0-0.4,0c-0.1,0-0.3,0-0.4,0c0,0.4,0,0.8,0,1c0,0.2,0,0.5,0,0.6c0.1,0,0.3,0,0.5,0c0.2,0,0.4,0,0.6,0
				c0.3,0,0.6,0,0.8,0c0.2,0,0.4,0,0.4,0V205.7z"/>
			<path class="st19" d="M566.4,204.4c0,0.2-0.1,0.4-0.2,0.6c-0.1,0.2-0.3,0.3-0.4,0.4c-0.2,0.1-0.4,0.2-0.6,0.2
				c-0.2,0.1-0.5,0.1-0.7,0.1c-0.1,0-0.3,0-0.4,0c-0.2,0-0.2,0-0.3,0l0-0.5c0,0,0.1,0,0.3,0c0.1,0,0.3,0,0.5,0c0.1,0,0.3,0,0.5,0
				c0.2,0,0.3-0.1,0.4-0.1c0.1-0.1,0.2-0.1,0.3-0.2c0.1-0.1,0.1-0.2,0.1-0.3c0-0.1,0-0.3-0.1-0.4c-0.1-0.1-0.2-0.2-0.3-0.3
				c-0.1-0.1-0.2-0.1-0.4-0.2c-0.2-0.1-0.3-0.2-0.5-0.2c-0.2-0.1-0.4-0.3-0.5-0.5c-0.1-0.2-0.1-0.3-0.1-0.5c0-0.2,0-0.4,0.1-0.5
				c0.1-0.1,0.2-0.3,0.3-0.4c0.1-0.1,0.3-0.2,0.5-0.2c0.2-0.1,0.4-0.1,0.7-0.1c0.1,0,0.3,0,0.4,0c0.1,0,0.2,0,0.2,0l0,0.5
				c0,0-0.1,0-0.2,0c-0.1,0-0.3,0-0.5,0c-0.1,0-0.3,0-0.4,0c-0.1,0-0.2,0.1-0.3,0.1c-0.1,0.1-0.2,0.1-0.2,0.2
				c-0.1,0.1-0.1,0.2-0.1,0.3c0,0.1,0,0.2,0.1,0.3c0.1,0.1,0.2,0.2,0.4,0.3c0.1,0.1,0.2,0.1,0.4,0.2c0.2,0.1,0.3,0.2,0.4,0.2
				c0.2,0.1,0.4,0.3,0.5,0.5C566.3,204,566.4,204.2,566.4,204.4z"/>
		</g>
		<path class="st19" d="M510.5,197.8h57.8v-1h-56.3C511.9,196.8,511.4,197.5,510.5,197.8z"/>
		<rect x="442.5" y="196.8" class="st19" width="61.9" height="1"/>
	</g>
	<g>
		<path class="st20" d="M526.5,100.8c0,0-67.1,7.9-81.8,22.7c-17.6,17.7,78.7,22.3,83,22.2c6.8-0.1,0.4-2.1,0.4-2.1
			s-74-10.3-74.3-20.4C453.5,114,545.6,99.3,526.5,100.8z"/>
		<path class="st20" d="M477.3,129.4c0,0,67.8-7.4,87.4,3s-67.2,38.3-71.4,39.2c-6.6,1.4-3.2-0.9-3.2-0.9s66.4-27,63.4-36.6
			C550.6,125.1,460.6,133.4,477.3,129.4z"/>
		
			<linearGradient id="SVGID_1_" gradientUnits="userSpaceOnUse" x1="522.4504" y1="-15694.665" x2="522.4504" y2="-15738.4355" gradientTransform="matrix(1 0 0 -1 0 -15575.2217)">
			<stop  offset="0" style="stop-color:#EBDF4E"/>
			<stop  offset="3.991186e-03" style="stop-color:#EBDE4D"/>
			<stop  offset="9.254993e-02" style="stop-color:#E5CB3F"/>
			<stop  offset="0.1837" style="stop-color:#E2C037"/>
			<stop  offset="0.2809" style="stop-color:#E1BC34"/>
			<stop  offset="0.6685" style="stop-color:#CE883E"/>
			<stop  offset="0.8876" style="stop-color:#C0603B"/>
			<stop  offset="1" style="stop-color:#B73832"/>
		</linearGradient>
		<path class="st21" d="M479.1,119.4c0,0,68.2,0.4,86.4,12.9s-71.2,30.4-75.5,30.8c-6.7,0.6-3.1-1.2-3.1-1.2s69-19.2,67.1-29.2
			C552.4,123.5,462,121.6,479.1,119.4z"/>
		<path class="st22" d="M445.4,115.6c3.2,1.4,7.6,0.2,9.8-2.7c2.2-2.9,1.3-6.4-1.9-7.9c-3.2-1.4-7.6-0.2-9.8,2.7
			C441.3,110.7,442.2,114.2,445.4,115.6z"/>
		
			<linearGradient id="SVGID_2_" gradientUnits="userSpaceOnUse" x1="210.0635" y1="929.8217" x2="210.0635" y2="918.674" gradientTransform="matrix(0.9443 0.3292 -0.3292 0.9443 667.0562 -820.0699)">
			<stop  offset="0" style="stop-color:#EBDF4E"/>
			<stop  offset="3.991186e-03" style="stop-color:#EBDE4D"/>
			<stop  offset="9.254993e-02" style="stop-color:#E5CB3F"/>
			<stop  offset="0.1837" style="stop-color:#E2C037"/>
			<stop  offset="0.2809" style="stop-color:#E1BC34"/>
			<stop  offset="0.6685" style="stop-color:#CE883E"/>
			<stop  offset="0.8876" style="stop-color:#C0603B"/>
			<stop  offset="1" style="stop-color:#B73832"/>
		</linearGradient>
		<path class="st23" d="M555.1,123.9c1.8,2.9,6,4.4,9.3,3.2c3.4-1.1,4.6-4.4,2.9-7.4c-1.8-2.9-6-4.4-9.3-3.2
			C554.5,117.7,553.3,120.9,555.1,123.9z"/>
		
			<linearGradient id="SVGID_3_" gradientUnits="userSpaceOnUse" x1="4935.0454" y1="-343.4849" x2="4935.0454" y2="-387.257" gradientTransform="matrix(-0.9757 0.2189 0.2189 0.9757 5383.6089 -600.6082)">
			<stop  offset="0.2232" style="stop-color:#971E27"/>
			<stop  offset="0.6624" style="stop-color:#B83831"/>
		</linearGradient>
		<path class="st24" d="M525.8,92.3c0,0-66.4,15.3-81.5,31.4s76.1,14.1,80.4,13.6c6.7-0.9,2.7-1.9,2.7-1.9s-71.6-3.7-71.9-13.8
			C455.1,112.2,542.9,90.6,525.8,92.3z"/>
	</g>
</g>
</svg>
