<?xml version="1.0" encoding="utf-8"?>
<!-- Generator: Adobe Illustrator 22.0.1, SVG Export Plug-In . SVG Version: 6.00 Build 0)  -->
<svg version="1.1" id="Layer_1" xmlns="http://www.w3.org/2000/svg" xmlns:xlink="http://www.w3.org/1999/xlink" x="0px" y="0px"
	 viewBox="0 0 200 200" style="enable-background:new 0 0 200 200;" xml:space="preserve">
<style type="text/css">
	.st0{fill:#CFE8DD;}
	.st1{fill:#E8F6EF;}
	.st2{fill:#F4C297;}
	.st3{fill:#582D11;}
	.st4{opacity:0.15;fill:#E8D6C5;}
	.st5{fill:#BADECF;}
	.st6{fill:#C2260D;}
	.st7{fill:#EB4B31;}
	.st8{fill:#123655;}
	.st9{fill:#235982;}
	.st10{fill:#A4D8E6;}
	.st11{fill:#8EC3D7;}
	.st12{fill:#542F1B;}
	.st13{fill:#301606;}
</style>
<g>
	<g>
		<path class="st0" d="M84.8,86.6c0,0-19.7,10.1-21.5,11.1c-1.8,1-5.3,1.3-9.1,19.2c-3.8,17.9-7.4,25.7-4.1,35.8
			c3.3,10.1,3.1,8.9,3.1,8.9h14.9c0,0-3-7.3-4.1-11.1c-1.2-3.8,2.5-18.5,2.8-20c0.3-1.5,1-1.2,1,4.5c0,5.6,0,26.7,0,26.7h25.7V91.2
			L84.8,86.6z"/>
		<path class="st1" d="M102.1,86.6c0,0,19.7,10.1,21.5,11.1c1.8,1,5.3,1.3,9.1,19.2c3.8,17.9,7.4,25.7,4.1,35.8
			c-3.3,10.1-3.1,8.9-3.1,8.9h-14.9c0,0,3-7.3,4.1-11.1c1.2-3.8-2.5-18.5-2.8-20c-0.3-1.5-1-1.2-1,4.5c0,5.6,0,26.7,0,26.7H93.5
			V91.2L102.1,86.6z"/>
		<path class="st2" d="M101.4,76.1l-7.9-1.1l-7.9,1.1c0,0,0.6,7.1-0.8,10.5c0,0,4.3,5,8.7,4.6c4.5,0.3,8.7-4.6,8.7-4.6
			C100.8,83.3,101.4,76.1,101.4,76.1z"/>
		<path class="st2" d="M110.5,58.6h-0.3c0.1-1.2,0.3-2.3,0.4-3.4c0.7-5.6,2.4-22-17.2-22c-19.6,0-17.9,16.4-17.2,22
			c0.1,1.1,0.3,2.2,0.4,3.4h-0.3c-3-2.2-3.2,3.5-2,5.5c1,1.6,1.1,1.8,1.7,3.6c0.5,1.3,1.2,1.5,1.9,1.4c0.1,0.8,0.1,1.5,0.2,2
			c0.3,3,7.5,9.1,9.2,11c1.5,1.8,4.1,1.1,4.9,1c0.8,0,1.2-0.1,1.2-0.1s0.4,0,1.2,0.1c0.8,0,3.4,0.7,4.9-1c1.6-1.9,8.9-8,9.2-11
			c0.1-0.5,0.1-1.2,0.2-2c0.6,0.1,1.4,0,1.9-1.4c0.6-1.8,0.6-2,1.7-3.6C113.8,62.2,113.5,56.4,110.5,58.6z"/>
		<path class="st3" d="M109.9,56.8c0,1-1.8,8.8-2.1,11.3c-0.6,4.7-4,7-5,8c-1,1.1-4.3,2.2-5.7,2.7c-1.4,0.5-6,0.5-7.4,0
			c-1.4-0.5-4.7-1.6-5.7-2.7c-1-1.1-4.4-3.3-5-8C78.8,65.6,77,57.8,77,56.8c0-0.7-0.3-0.4-0.5,0.3c0.1,0.5,0.1,1,0.2,1.5
			c0,0,1,10.5,1.2,10.5c0.1,0.8,0.1,1.5,0.2,2c0,0.3,0.1,0.6,0.2,0.9c0.4,0.6,0.9,1.5,1.7,2.6c2.3,2.9,6.1,6.2,7.3,7.5
			c1.5,1.8,4.1,1.1,4.9,1c0.8,0,1.2-0.1,1.2-0.1s0.4,0,1.2,0.1c0.8,0,3.4,0.7,4.9-1c1.1-1.3,4.9-4.6,7.3-7.5
			c0.7-1.1,1.3-2.1,1.7-2.6c0.1-0.3,0.2-0.6,0.2-0.9c0-0.5,0.1-1.2,0.2-2c0.2,0,1.2-10.5,1.2-10.5c0.1-0.5,0.1-1,0.2-1.5
			C110.2,56.4,109.9,56.1,109.9,56.8z"/>
		<path class="st3" d="M98.6,73.5c-2.2-2-5.2-2.5-5.2-2.5s-3,0.5-5.2,2.5c-2.2,2,0,5.6,0,5.6l0.5-0.6c-2.4-4.8,4.7-5.1,4.7-5.1
			s7.1,0.3,4.7,5.1l0.5,0.6C98.6,79.1,100.8,75.5,98.6,73.5z"/>
		<path class="st3" d="M95,78.8c-0.7-0.7-1.6-0.6-1.6-0.6s-0.9-0.1-1.6,0.6c-0.7,0.7-2.1,0.2-2.1,0.2l2.9,2.4l0.8-0.8l0.8,0.8
			l2.9-2.4C97.2,79,95.7,79.5,95,78.8z"/>
		<path class="st3" d="M107.4,29.1c0,0,0.8,2.2-15.9,2.2c0,0,0,0,0,0c-0.3,0-0.7,0-1.1,0c-16,0.7-15.1,15.9-15.1,15.9l0,0
			c-0.1,3.8,0.7,7.6,1.4,11.5l0.3-1.9c0,0,0.2-1.8,0.9-4.1c0-0.1,0.1-0.2,0.1-0.4c0.2-0.6,0.5-1.3,0.8-1.9
			c4.3-8.6,14.6-5.8,14.6-5.8s10.3-2.8,14.6,5.8c0.3,0.6,0.6,1.3,0.8,1.9c0,0.1,0.1,0.3,0.1,0.4c0.7,2.2,0.9,4.1,0.9,4.1l0.3,1.9
			c0.5-2.4,0.9-4.8,1.2-7.2c0,0,0,0,0,0C113.2,38.7,107.4,29.1,107.4,29.1z"/>
		<path class="st4" d="M93.5,31.3c-0.6,0-1.3,0-1.9,0c0,0,0,0,0,0c-0.3,0-0.7,0-1.1,0c-16,0.7-15.1,15.9-15.1,15.9l0,0
			c-0.1,3.8,0.7,7.6,1.4,11.5h-0.3c-3-2.2-3.2,3.5-2,5.5c1,1.6,1.1,1.8,1.7,3.6c0.5,1.3,1.2,1.5,1.9,1.4c0.1,0.8,0.1,1.5,0.2,2
			c0,0.3,0.1,0.5,0.2,0.8c0,0,0,0,0,0c0,0,0,0,0,0c0.3,0.8,0.9,1.7,1.7,2.6c0,0,0,0,0,0c0,0,0,0,0,0c0.3,0.3,0.6,0.7,0.9,1
			c0.1,0.1,0.2,0.2,0.2,0.3c0.2,0.3,0.5,0.5,0.8,0.8c0.1,0.1,0.1,0.1,0.2,0.2c0.3,0.3,0.7,0.7,1,1c0,0,0,0,0,0.1
			c0.3,0.3,0.7,0.7,1,1c0,0,0.1,0.1,0.1,0.1c0.6,0.5,1.1,1,1.6,1.5c-0.1,2.1-0.3,4.5-0.9,6.1c0,0,4.2,4.9,8.7,4.6V31.3z"/>
		<path class="st5" d="M93.5,91.2l-6.2,7l-5.9-10l3.3-1.7C84.8,86.6,89.7,90.4,93.5,91.2z"/>
		<path class="st0" d="M93.5,91.2l6.2,7l5.9-10l-3.3-1.7C102.1,86.6,97.2,90.4,93.5,91.2z"/>
		<polygon class="st6" points="90.4,94.7 92.4,98.3 89.7,115.7 93.5,121.6 93.5,91.2 		"/>
		<polygon class="st7" points="96.5,94.7 94.5,98.3 97.2,115.7 93.5,121.6 93.5,91.2 		"/>
		<path class="st8" d="M76.5,91.2l-0.7,0c-5.5,2.8-11.6,5.9-12.5,6.5c-1.8,1-5.3,1.3-9.1,19.2c-3.8,17.9-7.4,25.7-4.1,35.8
			c3.3,10.1,3.1,8.9,3.1,8.9h14.6h0.3h25.4v-40L76.5,91.2z M63.9,150.5c-1.2-3.8,2.5-18.5,2.8-20c0.3-1.5,1-1.2,1,4.5
			c0,5,0,21.9,0,25.8C66.9,158.8,64.8,153.5,63.9,150.5z"/>
		<path class="st9" d="M93.5,121.6v40h25.4h0.3h14.6c0,0-0.2,1.2,3.1-8.9c3.3-10.1-0.3-17.9-4.1-35.8c-3.8-17.9-7.3-18.2-9.1-19.2
			c-1-0.5-7.1-3.7-12.5-6.5l-0.7,0L93.5,121.6z M119.2,160.8c0-3.9,0-20.9,0-25.8c0-5.6,0.7-6,1-4.5c0.3,1.5,4,16.2,2.8,20
			C122.1,153.5,120,158.8,119.2,160.8z"/>
	</g>
	<g>
		<path class="st10" d="M154.5,167.1c0,1.3-1,2.3-2.3,2.3H99.3c-1.3,0-2.3-1-2.3-2.3v-38.9c0-1.3,1-2.3,2.3-2.3h52.9
			c1.3,0,2.3,1,2.3,2.3V167.1z"/>
		<path class="st11" d="M125.7,125.9H99.3c-1.3,0-2.3,1-2.3,2.3v38.9c0,1.3,1,2.3,2.3,2.3h26.4V125.9z"/>
		<path class="st12" d="M134.8,114.8h-18.2c-2,0-3.6,2.1-3.6,4.6v10.8c0,2.5,1.6,4.6,3.6,4.6h18.2c2,0,3.6-2.1,3.6-4.6v-10.8
			C138.4,116.9,136.8,114.8,134.8,114.8z M133.8,130.2h-16.1c0,0,0-10.8,0-10.8h16.1C133.8,119.4,133.8,130.2,133.8,130.2z"/>
		<path class="st13" d="M113.1,119.4V130c0,2.5,1.6,4.5,3.6,4.5h9.1V130h-8.1c0,0,0-10.7,0-10.7h8.1v-4.5h-9.1
			C114.7,114.8,113.1,116.9,113.1,119.4z"/>
		<path class="st7" d="M154.5,140.9c0,1.3-1,2.3-2.3,2.3H99.3c-1.3,0-2.3-1-2.3-2.3v-12.7c0-1.3,1-2.3,2.3-2.3h52.9
			c1.3,0,2.3,1,2.3,2.3V140.9z"/>
		<path class="st6" d="M125.7,125.9H99.3c-1.3,0-2.3,1-2.3,2.3v12.7c0,1.3,1,2.3,2.3,2.3h26.4V125.9z"/>
		<g>
			<g>
				<rect x="105.6" y="141.2" class="st0" width="6.6" height="6.6"/>
				<rect x="106.8" y="142.5" class="st8" width="4" height="4"/>
			</g>
			<g>
				<rect x="139.3" y="141.2" class="st1" width="6.6" height="6.6"/>
				<rect x="140.6" y="142.5" class="st9" width="4" height="4"/>
			</g>
		</g>
	</g>
</g>
</svg>
