<?xml version="1.0" encoding="utf-8"?>
<!-- Generator: Adobe Illustrator 22.0.1, SVG Export Plug-In . SVG Version: 6.00 Build 0)  -->
<svg version="1.1" id="Layer_1" xmlns="http://www.w3.org/2000/svg" xmlns:xlink="http://www.w3.org/1999/xlink" x="0px" y="0px"
	 viewBox="0 0 43.7 27.7" style="enable-background:new 0 0 43.7 27.7;" xml:space="preserve">
<style type="text/css">
	.st0{fill:url(#SVGID_1_);}
	.st1{fill:#90272B;}
	.st2{fill:url(#SVGID_2_);}
	.st3{fill:url(#SVGID_3_);}
</style>
<g>
	
		<linearGradient id="SVGID_1_" gradientUnits="userSpaceOnUse" x1="27.842" y1="-16385.9453" x2="27.842" y2="-16401.1582" gradientTransform="matrix(1 0 0 -1 0 -16376.4648)">
		<stop  offset="0" style="stop-color:#EBDF4E"/>
		<stop  offset="3.991186e-03" style="stop-color:#EBDE4D"/>
		<stop  offset="9.254993e-02" style="stop-color:#E5CB3F"/>
		<stop  offset="0.1837" style="stop-color:#E2C037"/>
		<stop  offset="0.2809" style="stop-color:#E1BC34"/>
		<stop  offset="0.6685" style="stop-color:#CE883E"/>
		<stop  offset="0.8876" style="stop-color:#C0603B"/>
		<stop  offset="1" style="stop-color:#B73832"/>
	</linearGradient>
	<path class="st0" d="M12.8,9.5c0,0,23.7,0.1,30,4.5S18.1,24.5,16.6,24.7c-2.3,0.2-1.1-0.4-1.1-0.4s24-6.7,23.3-10.1
		C38.3,10.9,6.8,10.2,12.8,9.5z"/>
	<path class="st1" d="M1.1,8.2c1.1,0.5,2.6,0.1,3.4-0.9S5,5.1,3.8,4.6S1.2,4.4,0.4,5.4C-0.3,6.4,0,7.7,1.1,8.2z"/>
	
		<linearGradient id="SVGID_2_" gradientUnits="userSpaceOnUse" x1="-149.5233" y1="1183.0516" x2="-149.5233" y2="1179.177" gradientTransform="matrix(0.9443 0.3292 -0.3292 0.9443 571.3 -1055.7651)">
		<stop  offset="0" style="stop-color:#EBDF4E"/>
		<stop  offset="3.991186e-03" style="stop-color:#EBDE4D"/>
		<stop  offset="9.254993e-02" style="stop-color:#E5CB3F"/>
		<stop  offset="0.1837" style="stop-color:#E2C037"/>
		<stop  offset="0.2809" style="stop-color:#E1BC34"/>
		<stop  offset="0.6685" style="stop-color:#CE883E"/>
		<stop  offset="0.8876" style="stop-color:#C0603B"/>
		<stop  offset="1" style="stop-color:#B73832"/>
	</linearGradient>
	<path class="st2" d="M39.2,11c0.6,1,2.1,1.5,3.2,1.1c1.2-0.4,1.6-1.5,1-2.6c-0.6-1-2.1-1.5-3.2-1.1C39,8.9,38.6,10,39.2,11z"/>
	
		<linearGradient id="SVGID_3_" gradientUnits="userSpaceOnUse" x1="6339.0566" y1="-607.9558" x2="6339.0566" y2="-623.1698" gradientTransform="matrix(-0.9757 0.2189 0.2189 0.9757 6335.7822 -776.0955)">
		<stop  offset="0.2232" style="stop-color:#971E27"/>
		<stop  offset="0.6624" style="stop-color:#B83831"/>
	</linearGradient>
	<path class="st3" d="M29,0C29,0,5.9,5.3,0.7,11s26.5,4.9,27.9,4.7c2.3-0.3,0.9-0.7,0.9-0.7s-24.9-1.3-25-4.8C4.5,7,35-0.5,29,0z"/>
</g>
</svg>
