<?xml version="1.0" encoding="utf-8"?>
<!-- Generator: Adobe Illustrator 22.0.1, SVG Export Plug-In . SVG Version: 6.00 Build 0)  -->
<svg version="1.1" id="Layer_1" xmlns="http://www.w3.org/2000/svg" xmlns:xlink="http://www.w3.org/1999/xlink" x="0px" y="0px"
	 viewBox="0 0 19.5 6.5" style="enable-background:new 0 0 19.5 6.5;" xml:space="preserve">
<style type="text/css">
	.st0{fill:#AB1D75;}
	.st1{fill:#FFFFFF;}
	.st2{fill:#FFFFFF;stroke:#FFFFFF;stroke-width:0.16;stroke-miterlimit:10;}
</style>
<title>logo-geos</title>
<circle class="st0" cx="12.1" cy="3.1" r="1.6"/>
<path class="st0" d="M19,0H9.4C9.1,0,8.9,0.2,8.9,0.5V6c0,0.3,0.2,0.5,0.5,0.5H19c0.3,0,0.4-0.2,0.5-0.5V0.5C19.4,0.2,19.3,0,19,0z
	 M12.1,5.4c-1.2,0-2.3-1-2.3-2.3s1-2.3,2.3-2.3c1.2,0,2.3,1,2.3,2.3c0,0,0,0,0,0C14.4,4.4,13.3,5.4,12.1,5.4
	C12.1,5.4,12.1,5.4,12.1,5.4z M17.9,4.7c-0.1,0.2-0.2,0.3-0.4,0.4c-0.2,0.1-0.4,0.2-0.5,0.2c-0.2,0-0.4,0.1-0.6,0.1
	c-0.3,0-0.6-0.1-0.9-0.2c-0.3-0.1-0.5-0.4-0.7-0.6l0.6-0.4c0.1,0.2,0.3,0.3,0.5,0.4c0.2,0.1,0.4,0.2,0.6,0.2h0.3
	c0.1,0,0.2-0.1,0.3-0.1c0.1,0,0.2-0.1,0.2-0.2c0.1-0.1,0.1-0.2,0.1-0.3c0-0.1,0-0.2-0.1-0.3c-0.1-0.1-0.1-0.2-0.2-0.2
	c-0.1-0.1-0.2-0.1-0.3-0.1c-0.1,0-0.2-0.1-0.3-0.1l-0.6-0.1c-0.2-0.1-0.3-0.1-0.5-0.2c-0.1-0.1-0.2-0.2-0.3-0.3
	c-0.1-0.2-0.1-0.4-0.1-0.5c0-0.2,0-0.4,0.1-0.5c0.1-0.2,0.2-0.3,0.4-0.4C15.5,1.1,15.7,1,15.9,1c0.2-0.1,0.4-0.1,0.6-0.1
	c0.3,0,0.6,0.1,0.8,0.2c0.3,0.1,0.5,0.3,0.6,0.6l-0.6,0.4c-0.1-0.1-0.2-0.3-0.3-0.4c-0.2-0.1-0.4-0.1-0.5-0.1c-0.1,0-0.2,0-0.3,0
	c-0.1,0-0.2,0.1-0.3,0.1c-0.1,0-0.1,0.1-0.2,0.2c-0.1,0.1-0.1,0.2-0.1,0.3c0,0.1,0,0.2,0.1,0.2c0.1,0.1,0.2,0.1,0.2,0.2
	c0.1,0,0.2,0.1,0.3,0.1c0.1,0,0.3,0.1,0.4,0.1c0.2,0,0.4,0.1,0.5,0.2c0.2,0,0.3,0.1,0.5,0.2c0.1,0.1,0.2,0.2,0.3,0.4
	c0.1,0.2,0.1,0.4,0.1,0.5C18.1,4.2,18,4.5,17.9,4.7z"/>
<path class="st1" d="M4.6,3.1c0,1.3-1,2.3-2.3,2.3S0,4.4,0,3.2s1-2.3,2.3-2.3c0,0,0,0,0,0c0.5,0,0.9,0.1,1.3,0.4
	C3.8,1.4,4,1.6,4.2,1.8L3.4,2C3.4,1.9,3.3,1.9,3.2,1.8C2.5,1.3,1.4,1.5,0.9,2.3S0.6,4,1.4,4.5s1.8,0.3,2.3-0.4
	C3.7,4,3.8,3.8,3.8,3.7h-1c-0.2,0-0.4-0.2-0.4-0.4C2.4,3.2,2.6,3,2.8,3h1.8V3.1z"/>
<path class="st2" d="M5.3,0.9h2.8v0.5H5.9v1.4H8v0.5H5.9v1.6h2.4v0.5H5.3V0.9z"/>
</svg>
